<?xml version="1.0" standalone="no"?><!DOCTYPE svg PUBLIC "-//W3C//DTD SVG 1.1//EN" "http://www.w3.org/Graphics/SVG/1.1/DTD/svg11.dtd"><svg t="1680800012714" class="icon" viewBox="0 0 1024 1024" version="1.1" xmlns="http://www.w3.org/2000/svg" p-id="11006" xmlns:xlink="http://www.w3.org/1999/xlink" width="256" height="256"><path d="M238.933333 409.6a34.133333 34.133333 0 0 0-34.133333 34.133333v136.533334a34.133333 34.133333 0 0 0 68.266667 0v-136.533334a34.133333 34.133333 0 0 0-34.133334-34.133333zM750.933333 477.866667h34.133334a34.133333 34.133333 0 0 0 0-68.266667H750.933333v68.266667z" fill="#36ab60" p-id="11007"></path><path d="M0 102.4v819.2A102.4 102.4 0 0 0 102.4 1024h819.2a102.4 102.4 0 0 0 102.4-102.4v-819.2A102.4 102.4 0 0 0 921.6 0h-819.2A102.4 102.4 0 0 0 0 102.4z m136.533333 341.333333a102.4 102.4 0 1 1 204.8 0v136.533334a102.4 102.4 0 1 1-204.8 0v-136.533334zM477.866667 409.6H409.6V341.333333h204.8v68.266667H546.133333v273.066667H477.866667V409.6z m204.8-68.266667h102.4a102.4 102.4 0 0 1 0 204.8H750.933333v136.533334h-68.266666V341.333333z" fill="#36ab60" p-id="11008"></path></svg>