<svg xmlns="http://www.w3.org/2000/svg" xmlns:xlink="http://www.w3.org/1999/xlink" viewBox="0 0 500 500">
    <defs>
        <clipPath id="freepik--clip-path--inject-9">
            <path d="M211.18,151.51c12.06,16.26,37,19,61.56,21.42s49.07,0,52.43-8.34c-1.89,17.68-7.63,44-62.54,35.06C202.06,189.77,211.18,151.51,211.18,151.51Z"
                  style="fill:none"></path>
        </clipPath>
        <clipPath id="freepik--clip-path-2--inject-9">
            <path d="M246.27,92.62c-2.15,6.24-10,12.39-20.28,13.12-5.83-2.43-19.24-24.72-17.28-37.41S235.8,38.86,240.84,38c4.6-.81-15.34,19.68-14.35,30.56S246.27,92.62,246.27,92.62Z"
                  style="fill:none"></path>
        </clipPath>
        <clipPath id="freepik--clip-path-3--inject-9">
            <path d="M305.75,105.76c-.24,5.4,3.9,12.45,11.55,16.1,5.18-.1,22.11-13.11,24.42-23.39s-9.8-27.4-15.42-32.83c-3-2.91,5.81,19.63,1.79,27.65S305.75,105.76,305.75,105.76Z"
                  style="fill:none"></path>
        </clipPath>
    </defs>
    <g id="freepik--Shadow--inject-9">
        <ellipse id="freepik--path--inject-9" cx="250" cy="416.24" rx="193.89" ry="11.32"
                 style="fill:#f5f5f5"></ellipse>
    </g>
    <g id="freepik--Error--inject-9">
        <path d="M208,407.63l-15.8,1.17-.44-5.84,14.25-1-.44-6-14.25,1-.35-4.7,15.36-1.13-.46-6.33-24.55,1.81L182.94,409h25.12Z"
              style="fill:#407BFF"></path>
        <path d="M237.6,403.57a12.88,12.88,0,0,0-1.42-1.75,9.53,9.53,0,0,0-1.58-1.45,9.34,9.34,0,0,0-2.47-.92,11,11,0,0,0,3.13-1.41,8.09,8.09,0,0,0,2.68-3.11,8.22,8.22,0,0,0,.74-4.34A8.14,8.14,0,0,0,237,385.9a6.85,6.85,0,0,0-3.82-2.43,21.92,21.92,0,0,0-6.54-.26l-15.26,1.13,1.82,24.7h9.25l-.58-7.77.81-.06a4,4,0,0,1,2.3.52,7.26,7.26,0,0,1,1.83,2.16l3.29,5.15H241Zm-8.52-9.81a2.38,2.38,0,0,1-1.41,1,13.77,13.77,0,0,1-2.4.59l-3.86.28-.45-6,4-.29a5.5,5.5,0,0,1,3.47.52,2.73,2.73,0,0,1,1.08,2.13A2.78,2.78,0,0,1,229.08,393.76Z"
              style="fill:#407BFF"></path>
        <path d="M269.8,401.19a11,11,0,0,0-1.42-1.74A8.37,8.37,0,0,0,266.8,398a9.11,9.11,0,0,0-2.46-.92,10.9,10.9,0,0,0,3.12-1.41,7.92,7.92,0,0,0,3.43-7.45,8.17,8.17,0,0,0-1.74-4.7,7,7,0,0,0-3.81-2.43,22,22,0,0,0-6.54-.25L243.53,382l2,27.07h9.24L254,398.89l.81-.05a3.76,3.76,0,0,1,2.29.52,6.86,6.86,0,0,1,1.83,2.16l4.81,7.52h10.84Zm-8.51-9.8a2.45,2.45,0,0,1-1.42,1,14.63,14.63,0,0,1-2.39.58l-3.87.29-.44-6,4-.31a5.53,5.53,0,0,1,3.47.52,2.7,2.7,0,0,1,1.07,2.14A2.73,2.73,0,0,1,261.29,391.39Z"
              style="fill:#407BFF"></path>
        <path d="M319.91,390.86q-.53-7.16-4.83-10.83c-2.85-2.45-6.76-3.5-11.69-3.14s-8.47,2-11,4.88-3.57,6.76-3.21,11.6a16.84,16.84,0,0,0,2.67,8.5,12.53,12.53,0,0,0,5.71,4.66,18.81,18.81,0,0,0,8.41,1,16.78,16.78,0,0,0,8.11-2.46,12.49,12.49,0,0,0,4.67-5.55A18.25,18.25,0,0,0,319.91,390.86Zm-10.28,7.57a6.34,6.34,0,0,1-9.11.63c-1.2-1.22-1.92-3.34-2.14-6.33s.18-5.22,1.2-6.61a5.55,5.55,0,0,1,4.3-2.29,5.79,5.79,0,0,1,4.73,1.6c1.21,1.2,1.93,3.19,2.14,6C311,394.73,310.61,397.07,309.63,398.43Z"
              style="fill:#407BFF"></path>
        <path d="M351.74,394.84a9.12,9.12,0,0,0,.57-9.07,6.87,6.87,0,0,0-3.34-3,21.93,21.93,0,0,0-6.41-1.37l-15.22-1.5L324.44,409h9.28l1.06-10.72.8.08a3.86,3.86,0,0,1,2.17.92,6.7,6.7,0,0,1,1.43,2.44l3.06,7.28h10l-2.28-5.75a11.32,11.32,0,0,0-1.1-2,8.79,8.79,0,0,0-1.3-1.7,9,9,0,0,0-2.28-1.33,11.11,11.11,0,0,0,3.33-.86A8.22,8.22,0,0,0,351.74,394.84ZM344,390.52a2.73,2.73,0,0,1-.74,1.65,2.5,2.5,0,0,1-1.58.79,12.63,12.63,0,0,1-2.46.15l-3.85-.37.59-6,4,.39a5.56,5.56,0,0,1,3.33,1.1A2.79,2.79,0,0,1,344,390.52Z"
              style="fill:#407BFF"></path>
        <g style="opacity:0.5">
            <path d="M208,407.63l-15.8,1.17-.44-5.84,14.25-1-.44-6-14.25,1-.35-4.7,15.36-1.13-.46-6.33-24.55,1.81L182.94,409h25.12Z"
                  style="fill:#fff"></path>
            <path d="M237.6,403.57a12.88,12.88,0,0,0-1.42-1.75,9.53,9.53,0,0,0-1.58-1.45,9.34,9.34,0,0,0-2.47-.92,11,11,0,0,0,3.13-1.41,8.09,8.09,0,0,0,2.68-3.11,8.22,8.22,0,0,0,.74-4.34A8.14,8.14,0,0,0,237,385.9a6.85,6.85,0,0,0-3.82-2.43,21.92,21.92,0,0,0-6.54-.26l-15.26,1.13,1.82,24.7h9.25l-.58-7.77.81-.06a4,4,0,0,1,2.3.52,7.26,7.26,0,0,1,1.83,2.16l3.29,5.15H241Zm-8.52-9.81a2.38,2.38,0,0,1-1.41,1,13.77,13.77,0,0,1-2.4.59l-3.86.28-.45-6,4-.29a5.5,5.5,0,0,1,3.47.52,2.73,2.73,0,0,1,1.08,2.13A2.78,2.78,0,0,1,229.08,393.76Z"
                  style="fill:#fff"></path>
            <path d="M269.8,401.19a11,11,0,0,0-1.42-1.74A8.37,8.37,0,0,0,266.8,398a9.11,9.11,0,0,0-2.46-.92,10.9,10.9,0,0,0,3.12-1.41,7.92,7.92,0,0,0,3.43-7.45,8.17,8.17,0,0,0-1.74-4.7,7,7,0,0,0-3.81-2.43,22,22,0,0,0-6.54-.25L243.53,382l2,27.07h9.24L254,398.89l.81-.05a3.76,3.76,0,0,1,2.29.52,6.86,6.86,0,0,1,1.83,2.16l4.81,7.52h10.84Zm-8.51-9.8a2.45,2.45,0,0,1-1.42,1,14.63,14.63,0,0,1-2.39.58l-3.87.29-.44-6,4-.31a5.53,5.53,0,0,1,3.47.52,2.7,2.7,0,0,1,1.07,2.14A2.73,2.73,0,0,1,261.29,391.39Z"
                  style="fill:#fff"></path>
            <path d="M319.91,390.86q-.53-7.16-4.83-10.83c-2.85-2.45-6.76-3.5-11.69-3.14s-8.47,2-11,4.88-3.57,6.76-3.21,11.6a16.84,16.84,0,0,0,2.67,8.5,12.53,12.53,0,0,0,5.71,4.66,18.81,18.81,0,0,0,8.41,1,16.78,16.78,0,0,0,8.11-2.46,12.49,12.49,0,0,0,4.67-5.55A18.25,18.25,0,0,0,319.91,390.86Zm-10.28,7.57a6.34,6.34,0,0,1-9.11.63c-1.2-1.22-1.92-3.34-2.14-6.33s.18-5.22,1.2-6.61a5.55,5.55,0,0,1,4.3-2.29,5.79,5.79,0,0,1,4.73,1.6c1.21,1.2,1.93,3.19,2.14,6C311,394.73,310.61,397.07,309.63,398.43Z"
                  style="fill:#fff"></path>
            <path d="M351.74,394.84a9.12,9.12,0,0,0,.57-9.07,6.87,6.87,0,0,0-3.34-3,21.93,21.93,0,0,0-6.41-1.37l-15.22-1.5L324.44,409h9.28l1.06-10.72.8.08a3.86,3.86,0,0,1,2.17.92,6.7,6.7,0,0,1,1.43,2.44l3.06,7.28h10l-2.28-5.75a11.32,11.32,0,0,0-1.1-2,8.79,8.79,0,0,0-1.3-1.7,9,9,0,0,0-2.28-1.33,11.11,11.11,0,0,0,3.33-.86A8.22,8.22,0,0,0,351.74,394.84ZM344,390.52a2.73,2.73,0,0,1-.74,1.65,2.5,2.5,0,0,1-1.58.79,12.63,12.63,0,0,1-2.46.15l-3.85-.37.59-6,4,.39a5.56,5.56,0,0,1,3.33,1.1A2.79,2.79,0,0,1,344,390.52Z"
                  style="fill:#fff"></path>
        </g>
    </g>
    <g id="freepik--Character--inject-9">
        <path d="M307.28,336.74c2,2.67,3.31,9.1,0,9.87s-2-9.7-2-9.7C304.36,336,305.12,333.8,307.28,336.74Z"
              style="fill:#407BFF"></path>
        <path d="M299.92,391.48c2.11,1.48,4.7,5.88,2.42,7.28s-3.89-6.64-3.89-6.64C297.59,391.68,297.6,389.86,299.92,391.48Z"
              style="fill:#407BFF"></path>
        <path d="M261.37,393.31c-.14,2.57-2.5,7.1-4.9,5.9s3.58-6.81,3.58-6.81C260,391.43,261.52,390.48,261.37,393.31Z"
              style="fill:#407BFF"></path>
        <path d="M306.23,332.45c3.36.46,7.65,4.11,4.19,7.2s-6.43-5.54-6.43-5.54C302.63,334.12,302.53,331.94,306.23,332.45Z"
              style="fill:#407BFF"></path>
        <path d="M306.19,335.81c3.09,17.23-6.51,36.58-3.69,55.14.77,5.11-7.39-.26-7.39-.26s-19-1.85-24.1.13c-.88,4.79-14.38,8-15.19-1.19s-1.57-32-1.57-32S291.86,331.7,306.19,335.81Z"
              style="fill:#407BFF"></path>
        <path d="M260.78,353.36c-4,2.52-6.53,4.26-6.53,4.26s.22,6.65.55,14.21c8.78-5.35,16.26-14,16.26-14A41,41,0,0,0,260.78,353.36Z"
              style="opacity:0.2"></path>
        <path d="M259.93,391.74c-.7,9.15-9.2,22.16-6.14,26s53.28,3.52,60,0-15.31-18-14.95-30.12C260.64,377.67,259.93,391.74,259.93,391.74Z"
              style="fill:#407BFF"></path>
        <path d="M260.13,414.32c-4.49-4.49-12.25.11-13.43,5.51,8.92,1.87,15.07-.82,15.07-.82A6.28,6.28,0,0,0,260.13,414.32Z"
              style="fill:#263238"></path>
        <path d="M308.9,413.16c4.48-4.49,12.25.12,13.42,5.51-8.91,1.88-15.07-.82-15.07-.82A6.26,6.26,0,0,1,308.9,413.16Z"
              style="fill:#263238"></path>
        <path d="M298.12,414.18c4.24-5.38,11.58.14,12.69,6.61-8.42,2.25-14.24-1-14.24-1A9,9,0,0,1,298.12,414.18Z"
              style="fill:#263238"></path>
        <path d="M288.36,413.49c9.87-1.4,11.46,3,7.69,8.57-10.53.18-12.15-2.25-12.15-2.25S281.39,414.49,288.36,413.49Z"
              style="fill:#263238"></path>
        <path d="M166.61,304.41c-3.21.82-8.34,4.92-6.23,7.65s7.71-6.21,7.71-6.21C169.32,305.71,170.14,303.52,166.61,304.41Z"
              style="fill:#407BFF"></path>
        <path d="M141.2,349.06c-2.51.6-6.54,3.73-4.93,5.88s6.06-4.75,6.06-4.75C143.29,350.1,144,348.4,141.2,349.06Z"
              style="fill:#407BFF"></path>
        <path d="M173.13,373.73c-1.66,2-3,6.89-.46,7.65s2-7.42,2-7.42C175.43,373.31,175,371.56,173.13,373.73Z"
              style="fill:#407BFF"></path>
        <path d="M198.88,350.18c-1.89,1.76-3.87,6.46-1.41,7.54s2.95-7.1,2.95-7.1C201.22,350.06,201,348.26,198.88,350.18Z"
              style="fill:#407BFF"></path>
        <path d="M170.15,301.77c-2.89-1.78-8.52-1.69-7.82,2.89s8.49-.19,8.49-.19C171.87,305.34,173.33,303.72,170.15,301.77Z"
              style="fill:#407BFF"></path>
        <path d="M180.44,293.78c-13.36,11.32-25.31,40.36-39.3,52.88-3.85,3.45,5.86,4.5,5.86,4.5s18.13,8.36,20.81,13.14c-2.38,4.25,6,15.31,12.47,8.76s21.6-23.68,21.6-23.68S194.1,299.74,180.44,293.78Z"
              style="fill:#407BFF"></path>
        <path d="M114.68,380.11c-3.69-5.16-12.11-1.88-14.15,3.25,8.49,3.3,15,1.65,15,1.65A6.28,6.28,0,0,0,114.68,380.11Z"
              style="fill:#263238"></path>
        <path d="M174.58,373.09c-6,7-1.64,31.81-6.24,33.6S90,394.93,116.59,376.39c6.2-4.32,20.36-16.11,24.49-27.48C180.24,353.7,174.58,373.09,174.58,373.09Z"
              style="fill:#407BFF"></path>
        <path d="M165.91,400.54c5.55,3.09,3.26,11.82-1.6,14.43-4.26-8.05-3.36-14.71-3.36-14.71A6.28,6.28,0,0,1,165.91,400.54Z"
              style="fill:#263238"></path>
        <path d="M120.67,386.12c-3.88-7.8-13.84-2.54-16.69,3.14,6.13,6.2,15.19,2.5,15.19,2.5S122,388.77,120.67,386.12Z"
              style="fill:#263238"></path>
        <path d="M128.7,390.62c-8.17-5.7-15.09.89-14.22,7.56,9.31,4.9,15.36.08,15.36.08S134.48,394.65,128.7,390.62Z"
              style="fill:#263238"></path>
        <path d="M232.42,363.48c51.31,8.81,86.59-23.88,125.3-103.77,21.54-44.46-4.65-75-19-80.72,6.51-14.35-.06-36.42-9.5-45.89,3.54,3,9.07-.11,9.07-.11-7-3.81-16.4-38.27-58.31-46.42-38.23-7.43-57.48,13.93-71.43,21.76,0,0,3.1,5.65,9.49,5.68-12.05,5.78-23.24,21.71-24.25,40.1-15.45.56-46.85,20.39-44.86,69.75C152.5,312.56,181.11,354.67,232.42,363.48Z"
              style="fill:#407BFF"></path>
        <path d="M218.7,142.68c13.39-1.79,26.73,2.07,33,7.7C238.53,144.94,218.7,142.68,218.7,142.68Z"
              style="opacity:0.1"></path>
        <path d="M280.93,159.87c11.47-2.4,23.26.09,29.08,4.55C298.23,160.57,280.93,159.87,280.93,159.87Z"
              style="opacity:0.1"></path>
        <path d="M234.38,150.38c5.12-2.71,10.84-2.21,14.86,1.3A93.81,93.81,0,0,0,234.38,150.38Z"
              style="opacity:0.1"></path>
        <path d="M148.87,222.61c9.3-10.85,16.9-25.88,18.31-35.17a64.39,64.39,0,0,0-13.4,2.31C150.43,198.76,148.49,209.65,148.87,222.61Z"
              style="opacity:0.2"></path>
        <path d="M365.69,221.73a67.69,67.69,0,0,0-10.37-4.55c-.9,8.09,1.57,21.53,6.26,33.36A68.44,68.44,0,0,0,365.69,221.73Z"
              style="opacity:0.2"></path>
        <path d="M221.53,151.53c-2.26-4.65-6.42-7.63-10.94-7.48-3.29.11-12.63.53-5.8,16.18C212.36,177.58,231.18,171.32,221.53,151.53Z"
              style="opacity:0.1"></path>
        <path d="M323.15,158.83c3.86-1.71,7.28-1,8.74,2.22,1.06,2.32,4,9-8.69,15.27C309.12,183.29,306.73,166.1,323.15,158.83Z"
              style="opacity:0.1"></path>
        <path d="M261.69,144.6a12,12,0,0,1-3.1,4.29,3.8,3.8,0,0,1-4.83.17,45.73,45.73,0,0,0-19.84-8,3.84,3.84,0,0,1-2.85-5.49l0,0C239,120.25,267.81,130,261.69,144.6Z"
              style="fill:#fff"></path>
        <path d="M249.65,134.76c4.84-5.83,14.29,1.6,11,7.24C256.87,148.38,243.67,142,249.65,134.76Z"
              style="fill:#263238"></path>
        <path d="M306.24,158.84a116.12,116.12,0,0,0-25.34-1,7.47,7.47,0,0,1-7-3.65A15.89,15.89,0,0,1,272,149c-3.44-20.75,36.72-24.49,42.23-2.39a26.31,26.31,0,0,1,.72,4.24A7.53,7.53,0,0,1,306.24,158.84Z"
              style="fill:#fff"></path>
        <path d="M286.13,143.15c-2.34-3.33-8.79-.12-6.88,3.12S289.23,147.54,286.13,143.15Z" style="fill:#263238"></path>
        <path d="M211.18,151.51c12.06,16.26,37,19,61.56,21.42s49.07,0,52.43-8.34c-1.89,17.68-7.63,44-62.54,35.06C202.06,189.77,211.18,151.51,211.18,151.51Z"
              style="fill:#263238"></path>
        <g style="clip-path:url(#freepik--clip-path--inject-9)">
            <path d="M206.25,183.3c14.24-8.17,35.45-9.34,58.3,4.5,13.29-4.44,41.14-7.72,50.18,17.91C255.39,218.69,206.25,183.3,206.25,183.3Z"
                  style="fill:#407BFF;opacity:0.5"></path>
            <path d="M266.8,171.05c-1.3,4.77-6.92,8.32-11.47,7.19a8.8,8.8,0,0,1-7-9.17Z" style="fill:#fff"></path>
            <path d="M243.92,168c-1.9,4-7.85,5.85-11.25,4.55-4.48-1.72-4.73-9.19-4.73-9.19Z" style="fill:#fff"></path>
            <path d="M227.39,161.6c-2.48,2.55-7.26,2.83-9.73.53a6.34,6.34,0,0,1-1.21-8.23Z" style="fill:#fff"></path>
            <path d="M272.29,171.9c.45,4.41,4.95,7.29,9.09,8,3.76.68,7.52-7.09,7.52-7.09Z" style="fill:#fff"></path>
            <path d="M294.3,171.82c.86,3.45,3.62,6.19,5.61,5.56,3.35-1.07,2.63-6.26,2.63-6.26Z"
                  style="fill:#fff"></path>
            <path d="M308.75,170.92a4.91,4.91,0,0,0,5.76,2.85,4.18,4.18,0,0,0,2.86-4.67Z" style="fill:#fff"></path>
            <path d="M257.22,202c1.26-4.78,6.86-8.38,11.42-7.28a8.79,8.79,0,0,1,7.06,9.12Z" style="fill:#fff"></path>
            <path d="M284,204.33c.13-4.43,4.86-8.5,8.49-8.67,4.79-.21,8,6.53,8,6.53Z" style="fill:#fff"></path>
            <path d="M304.45,199.62c-.12-4.78,1.71-9.22,3.73-9,3.4.34,4.11,7.35,4.11,7.35Z" style="fill:#fff"></path>
            <path d="M247.43,198.9c1-5.53-2.42-10.29-6.23-12.33-3.48-1.86-9.78,6.65-9.78,6.65Z"
                  style="fill:#fff"></path>
            <path d="M225.74,187.2c1.29-3.31.63-7.14-1.37-7.77-3.35-1.07-5.76,3.59-5.76,3.59Z" style="fill:#fff"></path>
            <path d="M220.61,183.1a4.91,4.91,0,0,0-.84-6.37,4.18,4.18,0,0,0-5.47.21Z" style="fill:#fff"></path>
        </g>
        <path d="M203.11,127.3c-5.77,7.78-10.8,13.82-13.39,15,5.41,2.61,8.84.5,8.84.5S209.43,118.78,203.11,127.3Z"
              style="fill:#407BFF"></path>
        <path d="M294.67,90.93C287.46,85,270,86.82,258.35,75.39c-2.07,5.64,2.46,9.73,2.46,9.73S302.87,97.66,294.67,90.93Z"
              style="fill:#407BFF"></path>
        <path d="M295.1,91c-4.4-5.7-15.46-3.45-22.52-14.55a12.44,12.44,0,0,0,1.3,9.65S300.1,97.46,295.1,91Z"
              style="fill:#407BFF"></path>
        <path d="M104.91,191.53C96.29,195.06,89.58,211.27,74,216.1c4,4.5,9.73,2.46,9.73,2.46S114.73,187.51,104.91,191.53Z"
              style="fill:#407BFF"></path>
        <path d="M85.37,270.62c0,20.88,12.1,21.45,11.63,37.77,5.54-2.31,7.1-9,7.1-9S85.38,260,85.37,270.62Z"
              style="fill:#407BFF"></path>
        <path d="M415.67,230.25c5.52,7.51,10.36,20.58,22.28,37.83-5.17,3.06-10-3.86-10-3.86S409.38,221.7,415.67,230.25Z"
              style="fill:#407BFF"></path>
        <path d="M105.75,190c-6.77,2.44-17.71,20.09-30.83,21A12.42,12.42,0,0,0,84,214.51S101.17,206.54,105.75,190Z"
              style="fill:#407BFF"></path>
        <path d="M127.44,240.22c5.87,4.17,4,15.31,15.4,21.94a12.39,12.39,0,0,1-9.69-.92S120.75,235.47,127.44,240.22Z"
              style="fill:#407BFF"></path>
        <path d="M246.27,92.62c-2.15,6.24-10,12.39-20.28,13.12-5.83-2.43-19.24-24.72-17.28-37.41S235.8,38.86,240.84,38c4.6-.81-15.34,19.68-14.35,30.56S246.27,92.62,246.27,92.62Z"
              style="fill:#263238"></path>
        <path d="M305.75,105.76c-.24,5.4,3.9,12.45,11.55,16.1,5.18-.1,22.11-13.11,24.42-23.39s-9.8-27.4-15.42-32.83c-3-2.91,5.81,19.63,1.79,27.65S305.75,105.76,305.75,105.76Z"
              style="fill:#263238"></path>
        <g style="clip-path:url(#freepik--clip-path-2--inject-9)">
            <path d="M218.49,104.14a1.5,1.5,0,0,1-1-.37,2.06,2.06,0,0,1-.65-1.36,6.67,6.67,0,0,1,2.39-5.71,20.26,20.26,0,0,1,4.44-2.86l.77-.4a57.63,57.63,0,0,0,10.89-7.57c1.42-1.25,2.75-2.64,3-4.37a.9.9,0,0,0-.08-.64,1.11,1.11,0,0,0-.77-.25c-4.91-.36-9.6,2.4-13.13,4.85-.64.44-1.27.89-1.9,1.34-3.34,2.37-6.78,4.82-10.78,5.89a7.42,7.42,0,0,1-4.31.11,3.75,3.75,0,0,1-2.72-3.37c0-1.59,1.16-3,3.45-4.17A60.89,60.89,0,0,1,216.34,82c1.28-.43,2.55-.85,3.81-1.32,3.41-1.26,7.71-3.16,10.66-6.65.6-.71,1.24-1.74.89-2.6a2.22,2.22,0,0,0-1-1c-1.53-.94-3.56-1.17-6.2-.71a22.42,22.42,0,0,0-11,5.27c-.57.5-1.11,1-1.66,1.56a18.59,18.59,0,0,1-4.57,3.6c-2.53,1.25-6.19,1-7.68-1.47-1.25-2.1-.38-4.78,1.13-6.35a12.39,12.39,0,0,1,5.82-3c2.56-.71,5.22-1.17,7.8-1.63a52.33,52.33,0,0,0,12.06-3.12,11.93,11.93,0,0,0,3.6-2.25,1.45,1.45,0,0,0,.5-.79.6.6,0,0,0-.15-.49,3,3,0,0,0-1.94-.62c-5.77-.1-11.62-.11-17.37,0-2.16.05-3.53-.72-3.65-2-.07-.86.45-1.67,1.6-2.46a21.8,21.8,0,0,1,11.38-3.83,43,43,0,0,1,7.62.58,34.81,34.81,0,0,0,8.82.46,3,3,0,0,0,2.18-1c.67-1-.22-2.5-1.39-3.4-2.33-1.78-5.14-2.57-8.11-3.4A40.21,40.21,0,0,1,224,43.58a2.86,2.86,0,0,1-1.63-1.74,1.16,1.16,0,0,1,.29-1.05,2,2,0,0,1,1-.5,20.88,20.88,0,0,1,14.54,2c2.21,1.21,3.43,2.71,3.51,4.34a.4.4,0,0,1-.38.42.39.39,0,0,1-.41-.38c-.09-1.7-1.73-2.94-3.1-3.68a20,20,0,0,0-14-1.88,1.22,1.22,0,0,0-.62.26.35.35,0,0,0-.1.35,2.17,2.17,0,0,0,1.18,1.18,40.09,40.09,0,0,0,5.39,1.8c2.91.81,5.92,1.66,8.37,3.53,1.5,1.14,2.52,3,1.57,4.47a3.68,3.68,0,0,1-2.75,1.3,36.27,36.27,0,0,1-9-.46,41.62,41.62,0,0,0-7.48-.58,21.1,21.1,0,0,0-11,3.69c-.9.62-1.31,1.19-1.26,1.74.12,1.27,2.4,1.29,2.85,1.3,5.76-.09,11.61-.08,17.39,0a3.58,3.58,0,0,1,2.52.89,1.35,1.35,0,0,1,.35,1.1,2.17,2.17,0,0,1-.74,1.27,12.75,12.75,0,0,1-3.84,2.41,52.82,52.82,0,0,1-12.23,3.17c-2.56.45-5.21.92-7.73,1.61a11.75,11.75,0,0,0-5.46,2.77c-1.27,1.32-2.06,3.65-1,5.4,1.26,2.12,4.43,2.25,6.65,1.16A18.31,18.31,0,0,0,211.32,76c.55-.54,1.11-1.08,1.69-1.58A23.14,23.14,0,0,1,224.39,69c2.85-.49,5.06-.23,6.75.81a2.94,2.94,0,0,1,1.29,1.37c.4,1,0,2.15-1,3.41-3.08,3.63-7.49,5.59-11,6.88-1.26.47-2.54.9-3.82,1.33A59.3,59.3,0,0,0,208.4,86c-2,1-3,2.2-3,3.47a3,3,0,0,0,2.18,2.62,6.72,6.72,0,0,0,3.85-.12c3.87-1,7.25-3.45,10.53-5.77.63-.46,1.27-.91,1.91-1.35,3.64-2.52,8.48-5.37,13.64-5a1.76,1.76,0,0,1,1.33.56,1.59,1.59,0,0,1,.25,1.21c-.23,2-1.68,3.52-3.21,4.87a58.07,58.07,0,0,1-11,7.68l-.77.4a19.57,19.57,0,0,0-4.27,2.74,5.88,5.88,0,0,0-2.15,5,1.39,1.39,0,0,0,.38.88c.61.51,1.71-.25,2.15-.59l2.29-1.82a140.51,140.51,0,0,1,15.28-11.05c7.14-4.24,14.07-6.55,20.61-6.85a.4.4,0,0,1,.41.38.39.39,0,0,1-.38.41c-6.4.3-13.21,2.56-20.24,6.74a141.85,141.85,0,0,0-15.19,11l-2.29,1.82A3.68,3.68,0,0,1,218.49,104.14Z"
                  style="fill:#fff;opacity:0.30000000000000004"></path>
        </g>
        <g style="clip-path:url(#freepik--clip-path-3--inject-9)">
            <path d="M327.57,123.71a3.46,3.46,0,0,1-2.06-1.11l-.24-.21a27.19,27.19,0,0,0-3.14-2.13c-3.72-2.29-8.36-5.14-11.12-13-2-5.74-9.42-8-15.94-9.92L293,96.75a.41.41,0,0,1-.26-.5.4.4,0,0,1,.5-.26l2,.62c6.71,2,14.31,4.3,16.47,10.42,2.67,7.56,7.17,10.33,10.78,12.55a27.28,27.28,0,0,1,3.24,2.2l.25.22c.58.51,1.24,1.08,1.79.88a1.09,1.09,0,0,0,.52-.57c.58-1.25.21-2.94-1-4.52a20.26,20.26,0,0,0-3.52-3.32l-.66-.53a59.86,59.86,0,0,1-9-9.07c-1.19-1.5-2.26-3.13-2.05-4.84a1.3,1.3,0,0,1,.54-1,1.93,1.93,0,0,1,1.4-.11c5.05,1,9.09,4.58,12.06,7.56.52.52,1,1,1.55,1.58,2.66,2.74,5.4,5.57,8.92,7.41a8.11,8.11,0,0,0,3.7,1.11h0c1.11,0,2.37-.53,2.64-1.5.33-1.23-1-2.59-2.17-3.51a66.08,66.08,0,0,0-7.23-4.73c-1.14-.68-2.28-1.36-3.4-2.07-3.1-2-6.94-4.68-9.12-8.42-1-1.68-.66-2.63-.22-3.13a2.78,2.78,0,0,1,1.56-.79A11.08,11.08,0,0,1,329,93.54a25.28,25.28,0,0,1,9.8,7.36c.45.56.86,1.14,1.28,1.72a17.68,17.68,0,0,0,3.48,3.93c1.92,1.48,5.08,2.16,6.71.81,1.34-1.12,1.1-3.11.16-4.5a12.78,12.78,0,0,0-4.68-3.67c-2.29-1.21-4.74-2.28-7.12-3.3a61.56,61.56,0,0,1-11.12-5.74,13.52,13.52,0,0,1-3.17-2.94,1.86,1.86,0,0,1-.45-1.28,1.11,1.11,0,0,1,.49-.8,3.73,3.73,0,0,1,2.73-.14c5.58,1.41,11.23,2.92,16.8,4.49,1.31.37,2.75.44,3-.26.15-.39-.13-.94-.83-1.65a23.94,23.94,0,0,0-9.81-5.83A51.3,51.3,0,0,0,329,80.26a43.48,43.48,0,0,1-8.8-2,4,4,0,0,1-2.36-1.77,1.75,1.75,0,0,1,0-1.45,4.19,4.19,0,0,1,2.51-1.88c2.78-.88,5.86-.78,8.85-.69a45.43,45.43,0,0,0,5.6-.05,2,2,0,0,0,1.37-.62.17.17,0,0,0,0-.2,1.4,1.4,0,0,0-.55-.38,23.56,23.56,0,0,0-13.95-2.12c-1.47.25-3.32.82-3.75,2.13a.4.4,0,0,1-.5.25.4.4,0,0,1-.25-.5c.44-1.34,1.95-2.26,4.37-2.66a24.36,24.36,0,0,1,14.43,2.19,1.94,1.94,0,0,1,.86.66,1,1,0,0,1,.08,1,2.59,2.59,0,0,1-2,1.07,45.16,45.16,0,0,1-5.7.06c-3-.1-5.93-.19-8.58.64a3.36,3.36,0,0,0-2,1.46.93.93,0,0,0,0,.8,3.36,3.36,0,0,0,1.91,1.35,43.33,43.33,0,0,0,8.64,1.92,51.2,51.2,0,0,1,7.47,1.5,24.91,24.91,0,0,1,10.14,6c.35.36,1.42,1.43,1,2.5s-1.89,1.32-4,.74c-5.56-1.57-11.2-3.08-16.77-4.5a3.08,3.08,0,0,0-2.09,0,.3.3,0,0,0-.16.24,1.19,1.19,0,0,0,.31.71,12.57,12.57,0,0,0,3,2.76,60.58,60.58,0,0,0,11,5.66c2.38,1,4.85,2.1,7.17,3.34a13.44,13.44,0,0,1,5,3.92c1.13,1.68,1.39,4.13-.32,5.55-2,1.64-5.54.87-7.7-.79a18.47,18.47,0,0,1-3.63-4.1c-.41-.57-.82-1.14-1.26-1.69a24.47,24.47,0,0,0-9.49-7.12,10.41,10.41,0,0,0-6.18-1,2.05,2.05,0,0,0-1.13.54c-.49.56-.1,1.51.31,2.21,2.09,3.59,5.83,6.24,8.85,8.15,1.12.71,2.25,1.38,3.39,2.06a66.59,66.59,0,0,1,7.31,4.79c2,1.56,2.8,3,2.44,4.34a3.37,3.37,0,0,1-3.4,2.08h0a8.74,8.74,0,0,1-4.07-1.2c-3.63-1.9-6.42-4.78-9.12-7.56-.51-.53-1-1-1.54-1.57-2.89-2.9-6.82-6.36-11.66-7.35a1.4,1.4,0,0,0-.81,0c-.1.06-.16.19-.18.41-.18,1.42.8,2.88,1.88,4.24a59.26,59.26,0,0,0,8.89,9l.65.53a21.06,21.06,0,0,1,3.66,3.45c1.39,1.82,1.78,3.81,1.07,5.34a1.75,1.75,0,0,1-1,1A1.63,1.63,0,0,1,327.57,123.71Z"
                  style="fill:#fff;opacity:0.30000000000000004"></path>
        </g>
        <path d="M236.42,127.22c24.08,9.28,26.42,15.85,28.81,13.27s1.17-13.7-4.43-18.25-8-2.27-6.48-.47c-8.08-5.88-17.21-6.68-20-5.77s.44,2.9.44,2.9S217.92,120.08,236.42,127.22Z"
              style="fill:#263238"></path>
        <path d="M310.73,141.68c-32.93-.53-38.29,4.71-40.22,1.38s3.78-13.25,12.34-15.36,10.67,1,8.09,2c12.09-2.41,23.55.33,26.66,2.26s-1.64,2.55-1.64,2.55S336,142.08,310.73,141.68Z"
              style="fill:#263238"></path>
        <path d="M244.81,92.43c-1.32-3-1.21-9.6,2.24-9.61s-.21,9.9-.21,9.9C247.49,93.79,246.26,95.77,244.81,92.43Z"
              style="fill:#407BFF"></path>
        <path d="M195.08,157.58c-2.91-1.61-6.82-6.87-4.09-9s5.87,8,5.87,8C198,157,198.26,159.34,195.08,157.58Z"
              style="fill:#407BFF"></path>
        <path d="M245.28,94.48c-3-1.34-7.41-6.23-4.88-8.58S247,93.31,247,93.31C248.17,93.65,248.61,96,245.28,94.48Z"
              style="fill:#407BFF"></path>
        <path d="M307.54,107.52c4.47-1.22,11.52-7.08,8.51-10.84s-10.6,8.88-10.6,8.88C303.72,105.78,302.63,108.86,307.54,107.52Z"
              style="fill:#407BFF"></path>
        <path d="M259.54,208c49.49,7.38,66.27,30.67,62.89,49.88-2.71,15.48-9.33,4.25-9.33,4.25s2,36.55-19.17,55c-6.74,5.85-5.46-2.78-5.46-2.78S267.63,350.45,242.2,347c-37.18-5.08-38.72-43.73-38.72-43.73s-7.2,10.89-13.1-4.76c-6.51-17.24-6.65-40,1.7-57C180.35,248.64,177.93,195.79,259.54,208Z"
              style="fill:#fff;opacity:0.1"></path>
        <path d="M261.38,211.57c-38.27-7.06-56.43,3.91-58.74,17.06-1.86,10.59,5.81,5,5.81,5s-10.61,23,.41,39.89c3.5,5.36,4.71-.49,4.71-.49s6.32,28.23,25.9,32.06c28.64,5.61,36.72-19.63,36.72-19.63s4.73,11.3,12.67,1,13.71-27.8,13.81-37.18C309.54,256.61,324.49,223.22,261.38,211.57Z"
              style="fill:#fff;opacity:0.1"></path>
        <path d="M193.58,198.62c-.23.47-.43.55-.63.55l-.59,0-1.17-.06h-2.37l-2.37.11c-.8.06-1.59.16-2.39.22a61.61,61.61,0,0,0-9.63,1.9,82.63,82.63,0,0,0-19.26,8.41A114.74,114.74,0,0,0,137,223.12a140.12,140.12,0,0,0-16.11,16.82l4.88-14.05.74,5.67.94,5.49c.4,1.76.76,3.54,1.19,5.25s.86,3.38,1.41,4.91a44.5,44.5,0,0,0,3.46,8.28,16.26,16.26,0,0,0,.93,1.53,4,4,0,0,0,.45.62,5,5,0,0,0,.42.52l.37.37c.11.09.19.08.26.14s0-.05,0-.08a.22.22,0,0,0,0-.15,3,3,0,0,0-.21-.4l-.34-.48-.2-.25-.4-.45-.46-.48A27.75,27.75,0,1,1,95,295.51l-.59-.63-.54-.6-.46-.57c-.29-.35-.64-.79-.87-1.1-.41-.56-.81-1.13-1.2-1.7s-.63-1-.94-1.5-.63-1-.85-1.43c-.47-.89-1-1.81-1.4-2.67L87,282.79c-.38-.84-.66-1.6-1-2.41s-.64-1.61-.88-2.36c-.5-1.52-1.07-3.1-1.44-4.56a98.59,98.59,0,0,1-3.2-16.93c-.35-2.74-.44-5.34-.62-8s-.13-5.17-.17-7.74.11-5.05.21-7.54l.49-7.38.23-3.48a17,17,0,0,1,4.65-10.58A186.36,186.36,0,0,1,106.19,189a161.22,161.22,0,0,1,25.29-19,124.65,124.65,0,0,1,30.32-13.35,108,108,0,0,1,17-3.4c1.46-.14,2.91-.31,4.37-.41s2.93-.18,4.4-.23,3,0,4.43,0l2.21.08,1.11,0a1.26,1.26,0,0,1,1.07.61,33.76,33.76,0,0,1,2.67,34.2Z"
              style="fill:#407BFF"></path>
        <path d="M336.94,178.18a1,1,0,0,1,1-.31l.9.23,1.81.47,3.62,1c2.4.72,4.8,1.48,7.18,2.32a145.24,145.24,0,0,1,14.11,5.79,128,128,0,0,1,26.28,16.53,120.3,120.3,0,0,1,21.61,23A118.72,118.72,0,0,1,428.2,255l.29.79a21,21,0,0,1,.4,13.29h0a63.42,63.42,0,0,1-2.69,9.16,73.83,73.83,0,0,1-3.67,8.07c-1.34,2.51-2.77,4.87-4.26,7.12s-3,4.35-4.63,6.37a117,117,0,0,1-10,11.12c-1.75,1.71-3.53,3.37-5.39,5-.93.81-1.87,1.61-2.87,2.41l-1.53,1.23-.84.63c-.35.26-.5.39-1.15.82a27.75,27.75,0,0,1-28.75-47.48c-.24.18,0,.06.07.05s.23-.08.37-.15l.85-.38c.6-.27,1.22-.59,1.84-.91,1.24-.65,2.49-1.35,3.7-2.08a73.32,73.32,0,0,0,6.8-4.61c1-.8,2-1.59,2.87-2.37s1.67-1.55,2.39-2.28,1.3-1.42,1.84-2l1.28-1.64h0l.69,14.08a76,76,0,0,0-9.51-17.07,74.59,74.59,0,0,0-13.52-14,85.51,85.51,0,0,0-17-10.51,95.47,95.47,0,0,0-9.56-3.87c-1.64-.58-3.31-1.1-5-1.59l-2.54-.71-1.29-.33-.64-.16c-.22-.06-.41-.2-.51-.71l-1.38-6.76A40,40,0,0,1,336.94,178.18Z"
              style="fill:#407BFF"></path>
        <path d="M191.83,160.84c-.43,2-3.55,3.13-7,2.41s-5.84-3-5.41-5,3.55-3.13,7-2.41S192.26,158.79,191.83,160.84Z"
              style="opacity:0.1"></path>
        <path d="M178.17,164.85c0,1.36-1.94,2.38-4.21,2.29s-4.06-1.28-4-2.64,1.94-2.38,4.21-2.29S178.23,163.49,178.17,164.85Z"
              style="opacity:0.1"></path>
        <path d="M294.18,94.79c-.7.74-2.6.07-4.25-1.49s-2.43-3.42-1.73-4.16,2.6-.06,4.25,1.5S294.87,94.06,294.18,94.79Z"
              style="opacity:0.1"></path>
        <path d="M267.4,121.57c-1.52.49-3.4-1.18-4.21-3.72s-.22-5,1.3-5.46,3.4,1.18,4.21,3.72S268.92,121.09,267.4,121.57Z"
              style="opacity:0.1"></path>
        <path d="M259.63,114c-.93.47-2.31-.39-3.1-1.93s-.68-3.17.25-3.64,2.3.39,3.09,1.93S260.55,113.55,259.63,114Z"
              style="opacity:0.1"></path>
        <path d="M130.4,257.38c-1.19.66-3.05-.41-4.15-2.39s-1-4.13.15-4.79,3,.4,4.15,2.39S131.59,256.72,130.4,257.38Z"
              style="opacity:0.1"></path>
        <path d="M121.5,250c-.86.14-1.74-.91-2-2.34s.28-2.69,1.14-2.83,1.73.91,2,2.33S122.35,249.85,121.5,250Z"
              style="opacity:0.1"></path>
        <path d="M108.05,192.05c-.67-.55-.46-1.9.46-3s2.22-1.57,2.88-1,.46,1.91-.46,3S108.72,192.6,108.05,192.05Z"
              style="opacity:0.1"></path>
        <path d="M98,288.88c-2.25,1.07-5.52-1.1-7.3-4.85s-1.42-7.65.83-8.72,5.51,1.1,7.3,4.85S100.27,287.81,98,288.88Z"
              style="opacity:0.1"></path>
        <path d="M183.17,220.79c-1.28-1.53-.72-4.12,1.26-5.78s4.62-1.77,5.91-.24.72,4.12-1.25,5.78S184.46,222.32,183.17,220.79Z"
              style="opacity:0.1"></path>
        <path d="M184,210c-.19-1.19.9-2.36,2.44-2.6s2.94.52,3.13,1.71-.9,2.36-2.44,2.6S184.16,211.22,184,210Z"
              style="opacity:0.1"></path>
        <path d="M197.3,212.43a1.71,1.71,0,1,1,1.9-.9A1.5,1.5,0,0,1,197.3,212.43Z" style="opacity:0.1"></path>
        <path d="M418.09,278.09c.91,1.17.45,3.75-1,5.76s-3.37,2.7-4.28,1.53-.45-3.74,1-5.75S417.19,276.93,418.09,278.09Z"
              style="opacity:0.1"></path>
        <path d="M417.31,286.2c.67.62.59,2.33-.18,3.83s-1.95,2.21-2.62,1.59-.6-2.33.18-3.83S416.64,285.58,417.31,286.2Z"
              style="opacity:0.1"></path>
        <path d="M148.14,351.61c.72,1.29-.1,3.77-1.84,5.55s-3.74,2.18-4.46.89.1-3.77,1.84-5.55S147.41,350.33,148.14,351.61Z"
              style="opacity:0.1"></path>
        <path d="M146.18,359.52c.58.71.25,2.39-.74,3.76s-2.25,1.9-2.83,1.19-.24-2.39.74-3.76S145.61,358.81,146.18,359.52Z"
              style="opacity:0.1"></path>
        <path d="M391,316.63c0,1.42-2,3.17-4.48,3.91s-4.56.19-4.59-1.22,2-3.17,4.48-3.91S390.92,315.22,391,316.63Z"
              style="opacity:0.1"></path>
        <path d="M294.7,383.6c1.37.37,2.49,2.78,2.5,5.39s-1.09,4.44-2.46,4.07-2.49-2.78-2.5-5.39S293.33,383.23,294.7,383.6Z"
              style="opacity:0.1"></path>
        <path d="M319.27,225.39c1.61-.66,4,.6,5.43,2.82s1.22,4.56-.38,5.22-4.05-.6-5.44-2.82S317.66,226.05,319.27,225.39Z"
              style="opacity:0.1"></path>
        <path d="M287.77,394.78c2.42-.08,5.69,2.72,7.3,6.26s1,6.47-1.45,6.56-5.69-2.72-7.31-6.26S285.35,394.87,287.77,394.78Z"
              style="opacity:0.1"></path>
        <path d="M425.31,271c.4.47.17,2-.49,3.38s-1.52,2.12-1.92,1.65-.16-2,.5-3.38S424.92,270.56,425.31,271Z"
              style="opacity:0.1"></path>
        <path d="M367.33,193.56c1.13-1,4-.5,6.43,1.05s3.46,3.61,2.33,4.58-4,.51-6.43-1.05S366.2,194.54,367.33,193.56Z"
              style="opacity:0.1"></path>
        <path d="M157,332.27l-47.7,1.67-.8-21.79,45.59-59.07,22.82-.8L179,310.9l11.83-.41.75,20.56-11.82.41.65,17.83-22.82.8Zm-.76-20.56-1.1-30L131,312.59Z"
              style="fill:#fff"></path>
        <path d="M157.63,350.59a.5.5,0,0,1-.5-.48l-.64-17.33-47.19,1.66a.51.51,0,0,1-.52-.48l-.8-21.79a.48.48,0,0,1,.1-.33l45.6-59.06a.51.51,0,0,1,.37-.2l22.82-.8a.51.51,0,0,1,.52.48l2.13,58.13,11.33-.4a.5.5,0,0,1,.52.48l.75,20.56a.49.49,0,0,1-.13.36.52.52,0,0,1-.35.16l-11.33.4.64,17.32a.47.47,0,0,1-.14.36.46.46,0,0,1-.34.16l-22.82.8ZM157,331.77a.5.5,0,0,1,.49.48l.64,17.33,21.82-.77-.63-17.33a.49.49,0,0,1,.13-.36.54.54,0,0,1,.35-.16l11.32-.39L190.39,311l-11.33.39a.5.5,0,0,1-.52-.48l-2.13-58.12-22.09.78L109,312.31l.78,21.12,47.2-1.66Zm-26-18.68a.5.5,0,0,1-.45-.27.49.49,0,0,1,.05-.53l24.11-30.91a.5.5,0,0,1,.89.29l1.1,30a.49.49,0,0,1-.13.36.57.57,0,0,1-.35.16l-25.2.88Zm23.65-30-22.6,29,23.63-.84Z"
              style="fill:#407BFF"></path>
        <path d="M198.68,300.51q-1-27.19,8.28-38.4T236,250.2q9.51-.33,15.71,1.83a28.92,28.92,0,0,1,10.19,5.83,33.26,33.26,0,0,1,6.37,7.79,41.94,41.94,0,0,1,3.92,9.67,92.33,92.33,0,0,1,3.45,22.16q1,25.95-7.28,38.3t-29.45,13.09q-11.9.4-19.36-3.17a31.25,31.25,0,0,1-12.43-10.83q-3.61-5.14-5.84-14.23A100.29,100.29,0,0,1,198.68,300.51Zm26-.85q.67,18.22,4.09,24.78t9.47,6.34a9.6,9.6,0,0,0,6.81-3.07q2.82-2.94,4-9.1t.68-19.11q-.69-19-4.12-25.43t-9.78-6.2q-6.5.22-9.14,7T224.65,299.66Z"
              style="fill:#fff"></path>
        <path d="M236.53,349.41c-6.89,0-12.65-1.09-17.17-3.26a32,32,0,0,1-12.63-11c-2.42-3.46-4.41-8.3-5.9-14.39a100.55,100.55,0,0,1-2.65-20.23c-.67-18.18,2.16-31.21,8.39-38.74S222.73,250.17,236,249.7c6.37-.21,11.72.41,15.89,1.86a29.44,29.44,0,0,1,10.37,5.93,33.78,33.78,0,0,1,6.46,7.91,43.36,43.36,0,0,1,4,9.78,93.91,93.91,0,0,1,3.46,22.28c.64,17.33-1.84,30.32-7.36,38.6S253.2,348.86,239,349.37C238.14,349.39,237.33,349.41,236.53,349.41Zm-37.35-48.92a99.91,99.91,0,0,0,2.62,20c1.47,6,3.4,10.7,5.76,14.06a30.9,30.9,0,0,0,12.24,10.67c4.88,2.34,11.32,3.4,19.12,3.12,13.91-.49,23.68-4.82,29.05-12.87s7.83-20.89,7.21-38a92.83,92.83,0,0,0-3.44-22,41.43,41.43,0,0,0-3.88-9.56,32.23,32.23,0,0,0-6.27-7.67,28.5,28.5,0,0,0-10-5.73c-4-1.41-9.27-2-15.52-1.8-13,.46-22.65,4.4-28.71,11.72S198.52,282.57,199.18,300.49Zm38.66,30.8c-4,0-7.24-2.23-9.54-6.62s-3.7-12.83-4.15-25h0c-.44-12,.24-20.44,2-25s5.06-7.16,9.59-7.32,7.88,2,10.24,6.47,3.72,13,4.18,25.64c.32,8.63.08,15.1-.69,19.22s-2.17,7.34-4.11,9.35a10.1,10.1,0,0,1-7.15,3.23Zm-12.69-31.65c.44,12,1.8,20.28,4,24.56s5.14,6.22,9,6.08a9.15,9.15,0,0,0,6.46-2.92c1.8-1.87,3.1-4.85,3.85-8.84s1-10.45.67-19c-.46-12.53-1.82-21-4.06-25.21s-5.25-6.08-9.32-5.94-7,2.33-8.7,6.68-2.39,12.7-1.95,24.59Z"
              style="fill:#407BFF"></path>
        <path d="M215.86,254.66l6.5,4.52h0a.25.25,0,0,1,.1.21l-.42,4.33,0-.09,2.51,2-2.64-1.86a.11.11,0,0,1,0-.09h0l.14-4.35.11.22-6.78-4.1Z"
              style="fill:#407BFF"></path>
        <path d="M220.32,258.13l-1.93,2.7,0,0-.05,0-2.73,1.43,2.51-1.79-.07.07,1.43-3Z" style="fill:#407BFF"></path>
        <path d="M245.12,327.72l3.79,4.55,0,.05a.47.47,0,0,1,.05.1l1.25,5.37-2-5.14.1.15L243.85,329Z"
              style="fill:#407BFF"></path>
        <polygon points="246.89 330.3 254.42 328.83 247.15 331.27 246.89 330.3" style="fill:#407BFF"></polygon>
        <path d="M332.59,326.1l-47.69,1.67L284.1,306l45.59-59.07,22.82-.8,2.15,58.62,11.83-.41.75,20.56-11.83.41.66,17.83-22.82.8Zm-.75-20.56-1.1-30-24.1,30.9Z"
              style="fill:#fff"></path>
        <path d="M333.25,344.42a.5.5,0,0,1-.5-.48l-.64-17.33-47.2,1.66a.49.49,0,0,1-.51-.48l-.8-21.8a.47.47,0,0,1,.1-.32l45.59-59.06a.51.51,0,0,1,.38-.2l22.82-.8a.5.5,0,0,1,.52.48l2.13,58.13,11.33-.4a.5.5,0,0,1,.52.48l.75,20.56a.49.49,0,0,1-.13.36.52.52,0,0,1-.35.16l-11.33.4.64,17.32a.52.52,0,0,1-.14.36.46.46,0,0,1-.35.16l-22.82.8Zm-.66-18.82a.5.5,0,0,1,.5.48l.64,17.33,21.82-.77-.64-17.33a.51.51,0,0,1,.49-.52l11.32-.39L366,304.83l-11.33.4a.5.5,0,0,1-.52-.48L352,246.63l-22.09.77L284.6,306.14l.78,21.11,47.2-1.65Zm-25.95-18.68a.5.5,0,0,1-.4-.81l24.1-30.9a.5.5,0,0,1,.55-.17.52.52,0,0,1,.35.46l1.1,30a.53.53,0,0,1-.13.36.6.6,0,0,1-.35.16l-25.21.88Zm23.65-30-22.6,29,23.63-.83Z"
              style="fill:#407BFF"></path>
        <path d="M330.57,276.84l6-2.92-.18.36-.86-5.74h0a.23.23,0,0,1,.09-.23l7.48-5.22-.05.09-.39-7.34.6,7.33a.13.13,0,0,1,0,.09l-7.31,5.45.1-.24,1.05,5.71a.33.33,0,0,1-.17.34h0L331,277.73Z"
              style="fill:#407BFF"></path>
        <path d="M108.89,333.62l7.69-9h0a.32.32,0,0,1,.3-.11l5.54.87-.15,0,6.1-3.4,0,.06,2.69-9.47-2.49,9.53a.1.1,0,0,1-.05.06l-6,3.64a.2.2,0,0,1-.15,0h0l-5.56-.68.3-.12-7.43,9.21Z"
              style="fill:#407BFF"></path>
        <path d="M131.5,312.72l-2.84,9.44,0-.2,3,4.59-.09,0,7.5.1-7.5.11a.12.12,0,0,1-.09-.05l-3.19-4.44a.22.22,0,0,1,0-.19h0l2.35-9.57Z"
              style="fill:#407BFF"></path>
        <path d="M337.55,267.28l-1.88-2.8.05,0-2.7-.89,2.76.69,0,0h0l2.47,2.27Z" style="fill:#407BFF"></path>
        <path d="M131.29,263.63c2-4.56,15.93-.31,19,5.34-4.77.47-11.51,4.63-16.83,3.28C130.39,271.48,129.92,266.84,131.29,263.63Z"
              style="fill:#263238"></path>
        <path d="M128.09,270.75c3.56-4.28,17.24,4.78,18.72,11.84-5.28-1-13.87,1.3-19.17-1.87C124.6,278.91,125.58,273.77,128.09,270.75Z"
              style="fill:#263238"></path>
        <path d="M123.46,281.44c4.93-2.6,14.11,11,12.77,18.1-4.49-3-13.31-4.11-17-9.06C117.11,287.64,120,283.27,123.46,281.44Z"
              style="fill:#263238"></path>
        <path d="M114,290.6c4.39.31,4.89,13.26,1,17.47-1.78-3.86-7.23-8.3-7.64-13.16C107.12,292.12,110.87,290.38,114,290.6Z"
              style="fill:#263238"></path>
        <path d="M367,279.46c0-5-14.52-6.54-19.56-2.54,4.2,2.31,8.77,8.77,14.2,9.62C364.78,287,367,283,367,279.46Z"
              style="fill:#263238"></path>
        <path d="M366,290.94c-2.15-5.14-17.88-.5-21.37,5.82,5.35.57,12.87,5.31,18.87,3.84C366.93,299.76,367.5,294.56,366,290.94Z"
              style="fill:#263238"></path>
        <path d="M367.24,298.91c-3.51-4.32-17.29,4.59-18.85,11.64,5.3-1,13.86,1.44,19.19-1.67C370.65,307.1,369.72,302,367.24,298.91Z"
              style="fill:#263238"></path>
        <path d="M373.29,315.24c-2.51-3.61-12.77,1.43-15.52,6.76,4.23-.45,10.83,3.25,15.21,1.12C375.5,321.89,375.07,317.78,373.29,315.24Z"
              style="fill:#263238"></path>
    </g>
</svg>