<?xml version="1.0" standalone="no"?><!DOCTYPE svg PUBLIC "-//W3C//DTD SVG 1.1//EN" "http://www.w3.org/Graphics/SVG/1.1/DTD/svg11.dtd"><svg t="1681974340803" class="icon" viewBox="0 0 1024 1024" version="1.1" xmlns="http://www.w3.org/2000/svg" p-id="8421" xmlns:xlink="http://www.w3.org/1999/xlink" width="256" height="256"><path d="M198.940444 1.024h625.152a199.111111 199.111111 0 0 1 198.883556 198.883556v625.208888A199.111111 199.111111 0 0 1 824.092444 1024H198.883556A199.111111 199.111111 0 0 1 0 825.059556V199.907556A199.111111 199.111111 0 0 1 198.940444 1.024z" fill="#306CFF" p-id="8422"></path><path d="M435.939556 561.948444h48.298666v255.772445H398.961778c-9.102222 0-18.204444 0.568889-27.306667-1.137778a81.351111 81.351111 0 0 1-47.160889-31.288889c-9.102222-11.377778-14.222222-25.031111-17.066666-39.253333-2.844444-14.734222-2.275556-30.094222 0-44.259556 4.551111-15.928889 13.084444-31.288889 25.031111-43.235555 10.24-10.24 22.186667-17.635556 35.84-21.617778 5.688889-1.706667 10.808889-2.844444 16.497777-2.844444h50.517334c0.568889-24.405333 0.568889-48.241778 0.568889-72.135112z m-53.475556 115.939556c-9.671111 4.551111-18.773333 11.946667-23.324444 21.617778-3.413333 8.533333-4.551111 18.204444-5.12 27.306666 0 11.320889 3.413333 22.698667 9.671111 31.800889 7.395556 10.808889 20.48 18.204444 34.133333 17.635556h38.684444v-101.774222h-43.235555c-3.982222 0-7.395556 1.706667-10.808889 3.413333z m127.886222-40.96h48.355556v119.409778c0 5.12 1.706667 10.24 5.12 14.222222 3.982222 3.982222 9.671111 6.257778 14.791111 6.257778h51.086222v-139.264h48.355556v180.736H560.924444c-12.515556-1.137778-25.031111-5.688889-34.133333-14.222222a48.696889 48.696889 0 0 1-15.872-38.115556c-0.568889-43.178667-0.568889-85.788444-0.568889-128.967111z" fill="#306CFF" p-id="8423"></path><path d="M414.890667 139.093333c14.791111-2.844444 30.151111 1.137778 42.666666 9.671111 19.285333 13.084444 32.369778 33.564444 39.708445 55.751112 11.377778 34.076444 10.808889 72.135111-2.275556 106.211555-6.257778 16.497778-16.497778 31.857778-29.525333 43.804445-10.808889 9.102222-25.031111 15.928889-39.253333 15.928888-14.165333 0.568889-28.387556-5.12-39.765334-13.653333-18.204444-14.222222-30.151111-34.702222-36.352-56.888889-9.671111-32.426667-8.533333-68.152889 2.844445-100.010666 7.395556-18.773333 18.773333-36.977778 35.271111-48.867556 7.395556-6.257778 16.497778-10.24 26.680889-11.946667z m216.519111 17.066667c10.24-2.275556 21.048889 0.568889 30.72 5.12 13.084444 6.257778 24.462222 16.497778 33.507555 28.444444 12.515556 16.497778 21.617778 35.783111 24.462223 56.775112 2.275556 14.222222 0 29.013333-3.982223 42.666666-4.551111 16.497778-11.946667 32.938667-22.186666 47.160889-8.533333 12.515556-19.342222 23.893333-32.426667 31.288889-11.946667 7.395556-26.112 10.808889-40.334222 9.671111-17.066667-1.137778-34.645333-6.826667-47.160889-19.342222-12.515556-11.946667-19.911111-29.013333-23.324445-45.511111-3.413333-18.204444-3.413333-36.408889-1.137777-55.125334 2.275556-15.928889 9.102222-31.288889 17.066666-44.942222 8.533333-14.165333 19.342222-27.818667 32.426667-38.570666 9.102222-8.533333 19.911111-15.36 32.426667-17.635556zM242.119111 310.727111c15.928889-2.844444 32.426667 0.568889 46.08 7.964445 20.423111 11.377778 36.295111 30.151111 46.535111 51.2 3.982222 8.533333 7.395556 18.147556 7.964445 27.818666 2.844444 24.462222 2.275556 49.436444-5.12 72.760889-4.551111 15.928889-13.084444 31.232-25.6 42.040889-15.36 13.653333-36.352 20.48-56.775111 21.048889-17.066667 0-34.133333-6.257778-47.217778-17.635556-17.066667-14.791111-27.875556-35.84-32.938667-58.026666a122.311111 122.311111 0 0 1-2.844444-45.454223c3.413333-24.974222 10.808889-50.574222 25.6-71.566222 10.24-14.791111 26.168889-26.737778 44.316444-30.151111z m505.799111 56.32c18.773333-2.275556 38.684444 0 55.182222 9.671111 15.303111 8.476444 27.249778 22.129778 35.783112 37.432889 6.826667 13.084444 11.377778 27.306667 12.515555 42.097778 0.568889 21.048889 1.137778 42.040889-3.413333 62.520889-2.844444 14.222222-8.533333 28.444444-17.635556 39.765333-8.533333 10.808889-21.048889 18.773333-34.702222 22.755556s-27.875556 3.982222-41.472 2.844444c-16.497778-1.706667-33.564444-6.257778-46.648889-17.066667-11.320889-9.102222-19.285333-22.186667-23.836444-36.408888-5.688889-18.773333-6.257778-38.627556-6.257778-58.481778 0.568889-20.48 3.413333-41.528889 11.377778-60.302222 6.257778-14.222222 15.928889-27.249778 29.013333-35.214223 9.671111-5.688889 19.911111-8.533333 30.151111-9.671111zM496.128 442.026667c18.773333-2.275556 38.684444 1.137778 55.751111 9.102222 26.737778 12.515556 47.160889 35.271111 63.032889 60.245333 19.911111 28.444444 42.666667 54.556444 66.56 78.961778 22.698667 23.324444 47.160889 45.511111 72.135111 66.56 3.982222 3.413333 8.533333 6.826667 12.515556 10.808889 18.773333 19.285333 30.72 45.966222 32.995555 73.272889 2.844444 29.013333-3.982222 57.969778-15.928889 84.081778-8.533333 19.342222-23.893333 35.271111-42.097777 45.511111-25.6 14.222222-55.694222 17.066667-84.081778 16.497777a314.026667 314.026667 0 0 1-82.432-14.791111c-32.426667-9.102222-66.503111-11.377778-99.441778-7.395555-15.36 1.706667-30.72 6.257778-46.08 8.533333-34.645333 5.688889-69.859556 7.395556-105.130667 5.12-29.013333-1.137778-57.400889-15.928889-75.548444-38.684444-11.377778-14.222222-19.342222-30.151111-24.462222-47.729778-5.12-15.928889-7.964444-32.426667-6.826667-49.493333 0.568889-19.854222 6.826667-39.196444 15.928889-56.206223 14.222222-26.168889 35.271111-47.217778 58.538667-64.853333 6.826667-5.063111 14.222222-9.614222 19.342222-15.872 10.808889-10.24 22.186667-19.911111 32.995555-30.151111 20.423111-19.285333 38.570667-40.334222 53.930667-63.601778 4.551111-6.826667 7.964444-13.653333 13.084444-19.911111 21.048889-26.737778 52.280889-46.08 85.219556-50.005333zM435.939556 561.948444v71.623112h-50.631112c-5.688889 0-11.377778 1.137778-16.497777 2.844444-13.653333 3.982222-25.543111 11.946667-35.783111 21.617778-11.946667 11.889778-20.48 27.249778-25.031112 43.121778-2.275556 14.791111-2.844444 30.151111 0 44.373333s7.964444 27.875556 17.066667 39.253333c11.946667 15.303111 28.444444 27.249778 47.217778 31.232 9.102222 2.275556 18.204444 1.137778 27.306667 1.137778h85.219555V561.379556c-16.497778 0.568889-32.426667 0.568889-48.924444 0.568888z m74.410666 75.036445v128.398222c-0.568889 14.222222 5.688889 28.444444 15.928889 38.115556 9.102222 8.533333 21.617778 13.084444 34.133333 14.222222h117.020445v-180.736h-48.298667v139.207111h-51.143111c-5.688889 0-11.377778-1.706667-14.791111-6.257778a21.845333 21.845333 0 0 1-5.12-14.222222v-119.296c-15.36 0.568889-31.288889 0.568889-47.729778 0.568889z" fill="#FFFFFF" p-id="8424"></path><path d="M382.464 677.888c3.413333-1.137778 6.826667-3.413333 10.24-2.844444h43.235556v101.717333h-38.684445a40.334222 40.334222 0 0 1-34.133333-17.635556c-6.257778-9.102222-9.671111-21.048889-9.671111-31.800889 0-9.102222 1.706667-18.773333 5.12-27.306666 5.12-10.808889 14.222222-17.635556 23.893333-22.129778z" fill="#FFFFFF" p-id="8425"></path></svg>