<?xml version="1.0" standalone="no"?><!DOCTYPE svg PUBLIC "-//W3C//DTD SVG 1.1//EN" "http://www.w3.org/Graphics/SVG/1.1/DTD/svg11.dtd"><svg t="1677396092532" class="icon" viewBox="0 0 1024 1024" version="1.1" xmlns="http://www.w3.org/2000/svg" p-id="6636" xmlns:xlink="http://www.w3.org/1999/xlink" width="256" height="256"><path d="M1000.792436 87.272727c-14.829382-27.5456-36.016873-46.610618-61.44-61.44C911.825455 11.021964 886.393018 4.654545 814.377891 4.654545h-599.505455c-72.015127 0-99.551418 8.471273-127.097018 21.187491A170.775273 170.775273 0 0 0 26.344727 87.272727C13.637818 114.809018 5.166545 142.336 5.166545 214.369745V811.752727c0 72.024436 8.471273 99.570036 21.178182 124.983855 14.829382 27.5456 36.016873 46.610618 61.44 61.44 27.536291 14.820073 52.950109 21.178182 124.974546 21.178182h597.373672c72.024436 0 99.570036-8.471273 124.983855-21.187491 27.5456-14.820073 46.610618-36.007564 61.44-61.430691 14.820073-27.536291 21.178182-52.959418 21.178182-124.983855V214.388364c4.235636-72.033745-4.235636-99.570036-16.942546-127.106328z m-235.147636 351.6416c-2.113164 4.235636-4.226327 12.716218-8.471273 21.187491-23.300655 48.723782-80.495709 144.048873-80.495709 144.048873l-16.942545 29.658764h82.618182L583.4752 847.760291l36.007564-144.048873h-65.666328l23.300655-95.325091c-21.178182 6.358109-44.488145 12.706909-65.666327 19.065018 0 0-33.8944 21.178182-99.560728-40.252509 0 0-44.497455-40.2432-19.065018-48.723781 10.584436-4.235636 52.959418-8.471273 86.853818-14.820073 44.478836-6.358109 72.015127-8.471273 72.015128-8.471273s-137.681455 2.113164-169.462691-2.122473c-31.781236-4.235636-74.146909-59.317527-82.618182-108.041309 0 0-12.706909-27.536291 29.658764-14.829382 42.365673 12.716218 220.308945 48.723782 220.308945 48.723782s-233.015855-74.1376-247.845236-91.089454c-14.829382-16.942545-44.497455-95.325091-42.374982-144.048873 0 0 2.122473-12.706909 14.829382-8.471273 0 0 171.594473 78.382545 288.097745 122.861382 116.512582 42.374982 218.195782 65.675636 203.3664 120.748218z" fill="#3296FA" p-id="6637"></path></svg>