<svg xmlns="http://www.w3.org/2000/svg" viewBox="0 0 500 500"><g id="freepik--Dinosaur-1--inject-1"><path d="M380.23,236.88c-3.24-10.52-12.35-19.62-15.62-14.45s-19.87,19-30,20.66c.8-21.63-4.43-53.09-18.28-63.6l-14.91,42.3c18.51,4.75,10.28,33.56,25.52,34.55,14,.92,35.24-22,38.55-25.65,0,.59,0,1.26,0,2,.17,4.24,3.72,5.58,3.26,3.45a9.23,9.23,0,0,1-.17-2.43,25.3,25.3,0,0,1,3.59,10c1,8.17,9,9.59,6.79,4.59a33.8,33.8,0,0,1-2.71-8.32s4.22,8.32,8.08,8.58S381.68,241.57,380.23,236.88Z" style="fill:#407BFF"></path><path d="M380.23,236.88c-3.24-10.52-12.35-19.62-15.62-14.45s-19.87,19-30,20.66c.8-21.63-4.43-53.09-18.28-63.6l-14.91,42.3c18.51,4.75,10.28,33.56,25.52,34.55,14,.92,35.24-22,38.55-25.65,0,.59,0,1.26,0,2,.17,4.24,3.72,5.58,3.26,3.45a9.23,9.23,0,0,1-.17-2.43,25.3,25.3,0,0,1,3.59,10c1,8.17,9,9.59,6.79,4.59a33.8,33.8,0,0,1-2.71-8.32s4.22,8.32,8.08,8.58S381.68,241.57,380.23,236.88Z" style="opacity:0.2"></path><path d="M257.47,410.57c-1.73-.06-1.92-3.54-1.61-4.88s2.27-1.22,3.94-.34,4.92,3.75,5.29,5.48C262.84,410.23,259.55,410.64,257.47,410.57Z" style="fill:#407BFF"></path><path d="M281.21,259.28c-14.89-28.92-11-30-40.36-40.73-16.67-6.09-69.4,15.34-44.82,42.33,12.8,14.06,11.3,20.12,16.06,28.67,4.49,8,12.68,14.77,12.68,14.77s-5.45,19.38-6.36,24.75c-3.83,3.44-5.18,7.66-2.1,11.87s10.54,23,12.23,31.22-6.75,15.66-.07,34.86c.76,2.21,2,2.49,2,2.49s-.54,6.22,2.48,6.22,8,.3,9.13-.76c6.87,1.76,14.86.76,16.07-1.43a10.51,10.51,0,0,0,6.21,0s-2.14-6.32-5.41-8.62-10.87-1.06-15.33-6.23,4.11-10.11.86-18.1-6.63-33.39-6.88-38.12,19-15.13,28.79-17.43,6.14-5,9.94-12.45S296.11,288.2,281.21,259.28Z" style="fill:#407BFF"></path><path d="M281.21,259.28c-14.89-28.92-11-30-40.36-40.73-16.67-6.09-69.4,15.34-44.82,42.33,12.8,14.06,11.3,20.12,16.06,28.67,4.49,8,12.68,14.77,12.68,14.77s-5.45,19.38-6.36,24.75c-3.83,3.44-5.18,7.66-2.1,11.87s10.54,23,12.23,31.22-6.75,15.66-.07,34.86c.76,2.21,2,2.49,2,2.49s-.54,6.22,2.48,6.22,8,.3,9.13-.76c6.87,1.76,14.86.76,16.07-1.43a10.51,10.51,0,0,0,6.21,0s-2.14-6.32-5.41-8.62-10.87-1.06-15.33-6.23,4.11-10.11.86-18.1-6.63-33.39-6.88-38.12,19-15.13,28.79-17.43,6.14-5,9.94-12.45S296.11,288.2,281.21,259.28Z" style="opacity:0.2"></path><path d="M149.05,212.58c28.47-39.12,72.46-29.05,85.37-33.64s24.17-24.19,48.73-25.65,27.92,6.79,39.94-1.61S335.5,127.06,345.7,125c11.84-2.39,28.4,10.59,23.53,28.92-4.05,15.27-9,25.88-24.72,33.46-9.53,4.6-13.81,35.37-41.16,61.44-14.8,14.11-48.15,64.84-91.14,67.27S123.16,248.15,149.05,212.58Z" style="fill:#407BFF"></path><path d="M351.15,162.26c.1,5.08,4.09,11.89,4.08,18.14a37.1,37.1,0,0,0,8.54-11.19Z" style="opacity:0.2"></path><path d="M350.85,146c.33,11.49-2.71,13.38,1.45,21.84s34.56,11.68,50.55,20.88,43.64,8.43,55.08,3.45,6.23-11.88,3.36-15.14S434.92,160.13,433,150.55,350.28,126.1,350.85,146Z" style="fill:#407BFF"></path><path d="M372.1,144.23c-9.66,8.62,8.85,18.93,10.51,21.72,5.26,8.8,12.42,0,29,10.73,12.34,8,41.3,10.91,42.3,3.18s-22.77-18.39-23-29.5S372.1,144.23,372.1,144.23Z" style="opacity:0.2"></path><path d="M390.23,165.26c-.33,1.16.93,1.58,1.87,1.73a1.12,1.12,0,0,0,1.25-.79c.42-1.32,1.09-3.77.51-4.43C393,160.84,390.85,163.08,390.23,165.26Z" style="fill:#fff"></path><path d="M393.81,167.18c-.36,1.35,1.08,1.81,2.17,2a1.28,1.28,0,0,0,1.42-.92c.47-1.53,1.2-4.35.52-5.11C397,162.05,394.48,164.67,393.81,167.18Z" style="fill:#fff"></path><path d="M396.81,168.43c-.36,1.43,1.25,1.87,2.44,2a1.41,1.41,0,0,0,1.54-1c.47-1.63,1.19-4.64.42-5.42C400.14,162.89,397.48,165.75,396.81,168.43Z" style="fill:#fff"></path><path d="M401,169.9c-.31,1.57,1.44,2,2.73,2a1.49,1.49,0,0,0,1.59-1.17c.41-1.79,1-5.07.15-5.88C404.29,163.77,401.6,167,401,169.9Z" style="fill:#fff"></path><path d="M408.1,172c-.6,1.58,1.13,2.32,2.44,2.65a1.56,1.56,0,0,0,1.85-.94c.74-1.79,2-5.12,1.21-6.12C412.55,166.19,409.21,169,408.1,172Z" style="fill:#fff"></path><path d="M404.85,171c-.3,1.57,1.38,2,2.62,2a1.47,1.47,0,0,0,1.54-1.18c.41-1.79,1-5.09.19-5.9C408,164.86,405.42,168.08,404.85,171Z" style="fill:#fff"></path><path d="M411.61,174c-.6,1.63,1.18,2.38,2.53,2.7a1.62,1.62,0,0,0,1.9-1c.74-1.85,2-5.29,1.18-6.32C416.14,167.92,412.72,170.89,411.61,174Z" style="fill:#fff"></path><path d="M415.4,175.7c-.59,1.57,1.19,2.28,2.54,2.6a1.61,1.61,0,0,0,1.89-.93c.74-1.77,1.95-5.06,1.17-6C419.91,170,416.51,172.78,415.4,175.7Z" style="fill:#fff"></path><path d="M420.3,178.08c-.53,1.29.95,2,2.08,2.29a1.33,1.33,0,0,0,1.61-.71c.67-1.46,1.76-4.18,1.12-5C424.23,173.42,421.3,175.66,420.3,178.08Z" style="fill:#fff"></path><path d="M428.58,180.85c-.13,1.39,1.34,1.58,2.41,1.54a1.3,1.3,0,0,0,1.22-1.17c.2-1.6.45-4.52-.33-5.15C430.8,175.2,428.83,178.24,428.58,180.85Z" style="fill:#fff"></path><path d="M425,179.6c-.3,1.37,1.16,1.75,2.24,1.84a1.27,1.27,0,0,0,1.37-1c.39-1.55,1-4.41.27-5.14C427.87,174.31,425.53,177.05,425,179.6Z" style="fill:#fff"></path><path d="M432,181.75c-.07,1.34,1.34,1.46,2.36,1.37a1.24,1.24,0,0,0,1.12-1.17c.13-1.54.27-4.36-.5-4.92C433.87,176.24,432.1,179.23,432,181.75Z" style="fill:#fff"></path><path d="M436.09,182.49c.05,1.28,1.42,1.21,2.39,1a1.22,1.22,0,0,0,1-1.24c0-1.47-.14-4.14-.93-4.58C437.42,177.07,436,180.11,436.09,182.49Z" style="fill:#fff"></path><path d="M440.63,182.71c.12,1.2,1.41,1.08,2.32.84a1.17,1.17,0,0,0,.85-1.23c-.09-1.38-.35-3.9-1.13-4.28C441.6,177.51,440.41,180.46,440.63,182.71Z" style="fill:#fff"></path><path d="M446.62,181.86c-.07,1.06-1.28,1.31-2.13,1.35a.75.75,0,0,1-.84-.82c0-1.22.2-3.46.91-4C445.54,177.65,446.75,179.86,446.62,181.86Z" style="fill:#fff"></path><path d="M447.82,174.93c-.27.95-1.27.28-2-.32a1.46,1.46,0,0,1-.5-1.38c.27-1.12.85-3.09,1.52-3.07C447.81,170.19,448.32,173.15,447.82,174.93Z" style="fill:#fff"></path><path d="M445.52,172.69c-.25,1-1.31.32-2-.27a1.51,1.51,0,0,1-.55-1.42c.26-1.14.81-3.18,1.51-3.17C445.4,167.84,446,170.87,445.52,172.69Z" style="fill:#fff"></path><path d="M443.13,170.7c-.33.85-1.3.1-1.95-.55a1.42,1.42,0,0,1-.41-1.36c.34-1,1-2.76,1.71-2.65C443.4,166.29,443.74,169.12,443.13,170.7Z" style="fill:#fff"></path><path d="M440.27,168.34c-.43.92-1.52,0-2.24-.76a1.54,1.54,0,0,1-.41-1.55c.46-1.09,1.38-3,2.16-2.85C440.85,163.42,441.08,166.61,440.27,168.34Z" style="fill:#fff"></path><path d="M434.3,163.1c-.43.93-1.52,0-2.24-.75a1.54,1.54,0,0,1-.41-1.55c.46-1.1,1.38-3,2.16-2.85C434.88,158.19,435.11,161.38,434.3,163.1Z" style="fill:#fff"></path><path d="M435.06,163.41c-.28,1.11.89,2.26,1.77,2.94.52.4,1,.33,1.14-.19.36-1.23.93-3.58.37-4.64C437.56,160,435.58,161.33,435.06,163.41Z" style="fill:#fff"></path><path d="M449.16,181.07c-.07,1-1.22,1.25-2,1.29a.73.73,0,0,1-.8-.79c0-1.16.2-3.29.87-3.8C448.13,177.05,449.28,179.16,449.16,181.07Z" style="fill:#fff"></path><path d="M450.49,179.2c-.07,1-1.22,1.25-2,1.29a.71.71,0,0,1-.79-.78c0-1.16.19-3.3.86-3.81C449.46,175.19,450.61,177.3,450.49,179.2Z" style="fill:#fff"></path><path d="M383.05,145.91c.41-2.16,3.14-1.44,5-.64a2.48,2.48,0,0,1,1.65,2.56c-.39,2.5-1.3,7-3,7.39C384.39,155.77,382.26,149.93,383.05,145.91Z" style="fill:#407BFF"></path><path d="M383.05,145.91c.41-2.16,3.14-1.44,5-.64a2.48,2.48,0,0,1,1.65,2.56c-.39,2.5-1.3,7-3,7.39C384.39,155.77,382.26,149.93,383.05,145.91Z" style="fill:#fff;opacity:0.8"></path><path d="M390.82,146.65c.61-2.1,3.28-1.2,5.12-.28a2.39,2.39,0,0,1,1.42,2.65c-.61,2.45-1.93,6.83-3.66,7.11C391.28,156.51,389.67,150.58,390.82,146.65Z" style="fill:#407BFF"></path><path d="M390.82,146.65c.61-2.1,3.28-1.2,5.12-.28a2.39,2.39,0,0,1,1.42,2.65c-.61,2.45-1.93,6.83-3.66,7.11C391.28,156.51,389.67,150.58,390.82,146.65Z" style="fill:#fff;opacity:0.8"></path><path d="M395.92,148c.64-2,3.27-1,5.06,0a2.39,2.39,0,0,1,1.36,2.64c-.65,2.34-2,6.51-3.76,6.69C396.18,157.56,394.71,151.74,395.92,148Z" style="fill:#407BFF"></path><path d="M395.92,148c.64-2,3.27-1,5.06,0a2.39,2.39,0,0,1,1.36,2.64c-.65,2.34-2,6.51-3.76,6.69C396.18,157.56,394.71,151.74,395.92,148Z" style="fill:#fff;opacity:0.8"></path><path d="M403.28,150.29c.73-1.84,3.18-.81,4.84.17a2.17,2.17,0,0,1,1.15,2.5c-.75,2.16-2.31,6-4,6.1C403,159.21,401.93,153.74,403.28,150.29Z" style="fill:#407BFF"></path><path d="M403.28,150.29c.73-1.84,3.18-.81,4.84.17a2.17,2.17,0,0,1,1.15,2.5c-.75,2.16-2.31,6-4,6.1C403,159.21,401.93,153.74,403.28,150.29Z" style="fill:#fff;opacity:0.8"></path><path d="M413.53,154c.37-2.09,3-1.42,4.89-.67a2.41,2.41,0,0,1,1.63,2.47c-.33,2.44-1.17,6.82-2.81,7.23C415,163.57,412.82,157.91,413.53,154Z" style="fill:#407BFF"></path><path d="M413.53,154c.37-2.09,3-1.42,4.89-.67a2.41,2.41,0,0,1,1.63,2.47c-.33,2.44-1.17,6.82-2.81,7.23C415,163.57,412.82,157.91,413.53,154Z" style="fill:#fff;opacity:0.8"></path><path d="M408.82,152.31c.73-1.86,3.08-.88,4.68.06a2.12,2.12,0,0,1,1.08,2.48c-.75,2.16-2.32,6-3.92,6.16C408.43,161.2,407.45,155.77,408.82,152.31Z" style="fill:#407BFF"></path><path d="M408.82,152.31c.73-1.86,3.08-.88,4.68.06a2.12,2.12,0,0,1,1.08,2.48c-.75,2.16-2.32,6-3.92,6.16C408.43,161.2,407.45,155.77,408.82,152.31Z" style="fill:#fff;opacity:0.8"></path><path d="M419.25,154.9c.41-2.15,3.14-1.44,5-.65A2.47,2.47,0,0,1,426,156.8c-.38,2.5-1.28,7-3,7.4C420.63,164.76,418.48,158.93,419.25,154.9Z" style="fill:#407BFF"></path><path d="M419.25,154.9c.41-2.15,3.14-1.44,5-.65A2.47,2.47,0,0,1,426,156.8c-.38,2.5-1.28,7-3,7.4C420.63,164.76,418.48,158.93,419.25,154.9Z" style="fill:#fff;opacity:0.8"></path><path d="M425.18,156.24c.37-2.07,3.08-1.33,5-.54a2.52,2.52,0,0,1,1.69,2.51c-.33,2.41-1.14,6.74-2.8,7.1C426.73,165.81,424.5,160.13,425.18,156.24Z" style="fill:#407BFF"></path><path d="M425.18,156.24c.37-2.07,3.08-1.33,5-.54a2.52,2.52,0,0,1,1.69,2.51c-.33,2.41-1.14,6.74-2.8,7.1C426.73,165.81,424.5,160.13,425.18,156.24Z" style="fill:#fff;opacity:0.8"></path><path d="M433.47,158.44c.25-1.76,2.56-1.22,4.19-.61a2.09,2.09,0,0,1,1.5,2c-.2,2-.76,5.7-2.16,6C435.06,166.41,433,161.72,433.47,158.44Z" style="fill:#407BFF"></path><path d="M433.47,158.44c.25-1.76,2.56-1.22,4.19-.61a2.09,2.09,0,0,1,1.5,2c-.2,2-.76,5.7-2.16,6C435.06,166.41,433,161.72,433.47,158.44Z" style="fill:#fff;opacity:0.8"></path><path d="M444.57,159.42c0-1.81,2.12-1.86,3.64-1.66a1.71,1.71,0,0,1,1.56,1.66c.06,2.07,0,5.86-1.2,6.57C446.91,167,444.54,162.81,444.57,159.42Z" style="fill:#407BFF"></path><path d="M444.57,159.42c0-1.81,2.12-1.86,3.64-1.66a1.71,1.71,0,0,1,1.56,1.66c.06,2.07,0,5.86-1.2,6.57C446.91,167,444.54,162.81,444.57,159.42Z" style="fill:#fff;opacity:0.8"></path><path d="M438,159.83c-.22-1.79,1.9-2.09,3.45-2.08a1.78,1.78,0,0,1,1.8,1.46c.33,2,.76,5.8-.35,6.63C441.39,167,438.46,163.18,438,159.83Z" style="fill:#407BFF"></path><path d="M438,159.83c-.22-1.79,1.9-2.09,3.45-2.08a1.78,1.78,0,0,1,1.8,1.46c.33,2,.76,5.8-.35,6.63C441.39,167,438.46,163.18,438,159.83Z" style="fill:#fff;opacity:0.8"></path><path d="M449.5,158.7c.08-1.73,2.1-1.71,3.53-1.46a1.63,1.63,0,0,1,1.42,1.65c0,2-.24,5.63-1.41,6.26C451.42,166,449.33,162,449.5,158.7Z" style="fill:#407BFF"></path><path d="M449.5,158.7c.08-1.73,2.1-1.71,3.53-1.46a1.63,1.63,0,0,1,1.42,1.65c0,2-.24,5.63-1.41,6.26C451.42,166,449.33,162,449.5,158.7Z" style="fill:#fff;opacity:0.8"></path><path d="M459.27,156c.06-1.69,2.07-2.32,3.51-2.56a1.12,1.12,0,0,1,1.45,1.12c0,1.93-.16,5.49-1.32,6.48C461.29,162.43,459.15,159.19,459.27,156Z" style="fill:#407BFF"></path><path d="M459.27,156c.06-1.69,2.07-2.32,3.51-2.56a1.12,1.12,0,0,1,1.45,1.12c0,1.93-.16,5.49-1.32,6.48C461.29,162.43,459.15,159.19,459.27,156Z" style="fill:#fff;opacity:0.8"></path><path d="M454.19,158.54c-.17-1.62,1.86-2.48,3.34-2.9.88-.24,1.57.11,1.68.87.26,1.82.57,5.21-.51,6.3C457.19,164.33,454.49,161.55,454.19,158.54Z" style="fill:#407BFF"></path><path d="M454.19,158.54c-.17-1.62,1.86-2.48,3.34-2.9.88-.24,1.57.11,1.68.87.26,1.82.57,5.21-.51,6.3C457.19,164.33,454.49,161.55,454.19,158.54Z" style="fill:#fff;opacity:0.8"></path><path d="M464,154c.13-1.65,2.05-2.18,3.41-2.34a1.06,1.06,0,0,1,1.31,1.15c-.08,1.87-.38,5.33-1.52,6.25C465.62,160.31,463.74,157.07,464,154Z" style="fill:#407BFF"></path><path d="M464,154c.13-1.65,2.05-2.18,3.41-2.34a1.06,1.06,0,0,1,1.31,1.15c-.08,1.87-.38,5.33-1.52,6.25C465.62,160.31,463.74,157.07,464,154Z" style="fill:#fff;opacity:0.8"></path><path d="M468.13,150.49a3.43,3.43,0,0,1,2.93-2.62c.64-.13,1,.35.86,1.18-.3,2-1,5.68-2,6.69C468.56,157.15,467.54,153.77,468.13,150.49Z" style="fill:#407BFF"></path><path d="M468.13,150.49a3.43,3.43,0,0,1,2.93-2.62c.64-.13,1,.35.86,1.18-.3,2-1,5.68-2,6.69C468.56,157.15,467.54,153.77,468.13,150.49Z" style="fill:#fff;opacity:0.8"></path><path d="M334.79,136.51c4.88-12.3,7-28.1,12.19-33.84s10.2-11.31,17.74-8.62,20.79-.58,32.18-2.11,15.29,8.14,25.13,10.53c17.83,4.35,34.19.85,49.75,18.14,2.59,2.87,6.71,20.92,4.09,25.41-6.35,10.85-33.73,19.5-60.11,10.66-30.49-10.22-58.5-12.83-66.95-2.11S328.73,151.77,334.79,136.51Z" style="fill:#407BFF"></path><path d="M454.4,116.78c-.45,1.42-3.3,1.79-6.38.83s-5.21-2.9-4.76-4.32,3.3-1.79,6.37-.83S454.84,115.36,454.4,116.78Z" style="opacity:0.1"></path><path d="M443.92,109.64c0,.77-1.41,1.31-3.06,1.23s-3-.78-2.92-1.54,1.41-1.31,3.06-1.23S444,108.88,443.92,109.64Z" style="opacity:0.1"></path><path d="M436.89,112.19c0,.54-.89,1-2.06,1.08s-2.13-.33-2.16-.87.9-1,2.06-1.08S436.87,111.65,436.89,112.19Z" style="opacity:0.1"></path><path d="M388.34,101c4.76,3.32,9.24,8.23,10.86,11.11C399.41,109.12,397.3,104.39,388.34,101Z" style="opacity:0.2"></path><path d="M356.49,111.66c6.58-8.21,18.09-12,33.88.52,4.8,3.8,5.9,5.95,9.78,7.13s1.66,3.4-9.77,1S348.8,121.25,356.49,111.66Z" style="opacity:0.2"></path><path d="M433.32,136.44c4.16-2.79,11.21,1.26,15.9,1.22s-2.83,5.65-8.45,3.26S430.85,138.1,433.32,136.44Z" style="opacity:0.2"></path><path d="M473.39,123.75a23.18,23.18,0,0,1-2.53,5c-1.83,2.42,1.24,2.18,4.07.11A47.83,47.83,0,0,0,473.39,123.75Z" style="opacity:0.2"></path><path d="M412.63,144a49.89,49.89,0,0,1-1.35-9.25S409.34,138.14,412.63,144Z" style="opacity:0.2"></path><path d="M431.79,140.88a24.29,24.29,0,0,1-6.08-4.07A5.65,5.65,0,0,0,431.79,140.88Z" style="opacity:0.2"></path><path d="M415,144.93a61.87,61.87,0,0,1-2.13-11S410.83,137.81,415,144.93Z" style="opacity:0.2"></path><path d="M428.28,143.19a44.07,44.07,0,0,1-5.93-8S422.25,140.27,428.28,143.19Z" style="opacity:0.2"></path><path d="M418.36,145.76a66.14,66.14,0,0,1-3.65-12.13S412.85,139.13,418.36,145.76Z" style="opacity:0.2"></path><path d="M425.18,144.92a58,58,0,0,1-5.48-10.82S418.85,140.21,425.18,144.92Z" style="opacity:0.2"></path><path d="M421.79,146.42a80.48,80.48,0,0,1-5-14.13S414.83,138.41,421.79,146.42Z" style="opacity:0.2"></path><path d="M447.52,146.67c4.39-1.28,8.65-3.91,8.74-7.32C458.06,145.53,452.57,147.6,447.52,146.67Z" style="opacity:0.2"></path><path d="M469.25,132.13a7,7,0,0,0,4.87,1.61S472.9,136.27,469.25,132.13Z" style="opacity:0.2"></path><g style="opacity:0.2"><path d="M257.59,278.91c-30.45,37.55-94.9,13.16-81.33,23.87,11.06,8.73,23.63,14,36,13.31,43-2.43,76.34-53.16,91.14-67.27a120.41,120.41,0,0,0,21-27.06c3.64-6.27-4.66-12.58-9.7-7.38C297,232.6,275.32,257,257.59,278.91Z" style="fill:#fff"></path></g><path d="M293.53,222.68C295.22,232.39,282.62,255,288,266c6.3-7.23,11.48-13.48,15.36-17.19,1.91-1.82,3.7-3.65,5.4-5.5Z" style="opacity:0.2"></path><path d="M222.56,270.65l-23.22,44.11a42.43,42.43,0,0,0,12.87,1.33,59.14,59.14,0,0,0,8-1C225.8,303.52,231.57,290.3,222.56,270.65Z" style="opacity:0.2"></path><path d="M185.15,186c-50.21,13.74-77.48,46.83-105.68,68-9.41,7-25,20-28.89-10-.95-7.3-4.47-8.81-5.38.48C42.53,271.53,67,290.49,103.64,279c47-14.8,58.79-16.09,58.79-16.09S217.91,177,185.15,186Z" style="fill:#407BFF"></path><path d="M152.65,264.87c-8.54,2-23.65,6.09-49,14.08,6.57-8.8,20.9-16.83,41.23-24.27A107.31,107.31,0,0,1,152.65,264.87Z" style="opacity:0.2"></path><path d="M125.48,260.88c10.68,14.06,15.4,19.46,16.82,28.79,2.77,18.14,14.74,24.46,14.74,24.46s-18.22,9.57-20,14.94c-4.44,3.44-6.49,7.66-4.06,11.87s6.92,23,7.29,31.22-9.39,15.66-5.76,34.86c.41,2.21,1.6,2.49,1.6,2.49s-1.56,6.22,1.49,6.22,8.1.3,9.38-.76c6.67,1.76,14.92.76,16.51-1.43a11,11,0,0,0,6.29,0s-1.14-6.32-4.08-8.62-10.83-1.06-14.5-6.23,5.8-10.11,3.82-18.1-1.27-33.39-.74-38.12,32.5,0,42.76-2.29,9-3.75,12.11-12.45c5.33-15.07,23.8-28.16,13.44-57.08s-16.76-41.38-44.77-52.1C161.91,212.46,105,233.89,125.48,260.88Z" style="fill:#407BFF"></path><path d="M329.8,158.81c1.48,8.7.19,14.35-20.33,14.88-2.33,1.16-14.35-2.41-16.69-2.41-8.18,0-15.19,3.5-23.37,4.67-5.85,1.17-11.69,5.85-19.87,7-3.51,0-4.68,7-8.18,10.52-2.34,1.16-4.68-2.34-7-1.17-7,3.5-15.37,6.4-23.44,3.71-2.21,10-10,11-18.81,11.06-8.54,0-18-.87-24,4.65-3.61,2.65-4.79,7.08-5.48,12a8.49,8.49,0,0,1-10.6,7c-4.7-1.24-8.28-.64-13.11,6.68-1.21,1.11-4.61-1.37-7-.31-2.43,2.23-1.47,7-3.81,6.86-6.75-.59-14.86,1.67-27.66,10.73-7,5-13.37.75-16.88.75a42,42,0,0,0-7,.67l2.91-2.18c27.76-20.8,54.62-53.19,103.34-67.31l2.34-.65c21-7,41.2-4.15,49.28-7,12.91-4.59,24.17-24.18,48.72-25.64s27.92,6.79,39.94-1.61a30,30,0,0,0,7.94-8.56C333.81,148.69,334,154.59,329.8,158.81Z" style="opacity:0.08"></path><path d="M196.89,192.09c.39,1.61-2.11,3.59-5.58,4.43s-6.6.22-7-1.38,2.11-3.59,5.58-4.43S196.5,190.49,196.89,192.09Z" style="opacity:0.1"></path><path d="M182.87,191.29c.4.75-.59,2.05-2.21,2.91s-3.25,1-3.65.21.6-2,2.21-2.91S182.47,190.55,182.87,191.29Z" style="opacity:0.1"></path><path d="M177.65,197.72c.34.49-.26,1.48-1.34,2.2s-2.21.91-2.55.41.27-1.48,1.34-2.21S177.32,197.22,177.65,197.72Z" style="opacity:0.1"></path><path d="M114.76,232.16c-1-1.36-5.23.1-9.38,3.27s-6.65,6.83-5.62,8.19,5.24-.11,9.38-3.28S115.8,233.51,114.76,232.16Z" style="opacity:0.1"></path><path d="M107.9,245.17c-.51-.72-2.7,0-4.88,1.5s-3.52,3.4-3,4.13,2.7,0,4.88-1.5S108.42,245.9,107.9,245.17Z" style="opacity:0.1"></path><path d="M297.13,159.45c-.06.89,1.91,1.72,4.41,1.85s4.56-.49,4.62-1.38-1.91-1.72-4.41-1.85S297.19,158.56,297.13,159.45Z" style="opacity:0.1"></path><path d="M306.66,157.74c-.17.43.68,1,1.9,1.34s2.36.21,2.53-.22-.67-1-1.89-1.35S306.84,157.3,306.66,157.74Z" style="opacity:0.1"></path><path d="M289.93,156.7c0,.36,1.59.62,3.49.56s3.41-.39,3.39-.76-1.59-.62-3.48-.57S289.91,156.33,289.93,156.7Z" style="opacity:0.1"></path><path d="M311.08,160.68c-.16.29.38.76,1.21,1s1.64.28,1.81,0-.38-.76-1.21-1.05S311.25,160.38,311.08,160.68Z" style="opacity:0.1"></path><path d="M371.19,111.79c.35,1.92-1.13,1.94-2.92,2.17s-3.2.6-3.55-1.32a3.22,3.22,0,0,1,2.6-3.91A3.63,3.63,0,0,1,371.19,111.79Z" style="fill:#fff"></path><path d="M344.79,257.6c-4.54,3.92-26.76,4.48-36.6.16,11.42-17.16,31.48-44.93,6.28-58.11L286,224.55c14.1,14.23-4.19,30.35,8.86,39.69s47.58.56,47.58.56,5.39,7.06,4.3,15.06,6.39,11.67,5.48,6.31a32.52,32.52,0,0,1-.51-8.64s2,9.08,5.71,10.45-.78-7.36-1-12.2C355.93,264.92,349.34,253.69,344.79,257.6Z" style="fill:#407BFF"></path><path d="M320.45,220.55c.86-.15,1.29-1.78,1-3.64s-1.29-3.25-2.15-3.1-1.29,1.78-1,3.64S319.59,220.7,320.45,220.55Z" style="opacity:0.1"></path><path d="M349.17,257.72c2.92,2,4.7,3.48,6.7,4s-.26,3.35-4,1.68S349.17,257.72,349.17,257.72Z" style="fill:#407BFF"></path><path d="M153.71,269.87a72.82,72.82,0,0,1-.69-17.82S147.3,254.51,153.71,269.87Z" style="opacity:0.2"></path><path d="M201.47,297a140.49,140.49,0,0,1-13.75-17.09S189.29,289.39,201.47,297Z" style="opacity:0.2"></path><path d="M159.32,275.53a101.51,101.51,0,0,1-2.13-22S151,256.47,159.32,275.53Z" style="opacity:0.2"></path><path d="M192.22,294.94A176.84,176.84,0,0,1,180,271.53S178.28,279.86,192.22,294.94Z" style="opacity:0.2"></path><path d="M167.24,282.54A137.06,137.06,0,0,1,161.71,256S155.61,262.11,167.24,282.54Z" style="opacity:0.2"></path><path d="M184.14,292.62a174.65,174.65,0,0,1-10.35-27.42S170,274.05,184.14,292.62Z" style="opacity:0.2"></path><path d="M175.45,289.44a185.73,185.73,0,0,1-8.33-32.22S160.66,264.24,175.45,289.44Z" style="opacity:0.2"></path><path d="M241,183.41a115.77,115.77,0,0,1,13.63-7.59S251.12,174.54,241,183.41Z" style="opacity:0.2"></path><path d="M233.09,213.64a123.19,123.19,0,0,1,9.48-12.52S235.64,205.65,233.09,213.64Z" style="opacity:0.2"></path><path d="M238.13,188a158.55,158.55,0,0,1,16.47-9.87S250.63,176.85,238.13,188Z" style="opacity:0.2"></path><path d="M232.14,209.09a202.9,202.9,0,0,1,14.78-14.5S240,197.34,232.14,209.09Z" style="opacity:0.2"></path><path d="M234.88,194a202.31,202.31,0,0,1,19.06-13.11S247.52,181,234.88,194Z" style="opacity:0.2"></path><path d="M231.72,204.92a227.58,227.58,0,0,1,18.41-15.4S242.22,191.64,231.72,204.92Z" style="opacity:0.2"></path><path d="M231.79,200.13a265.23,265.23,0,0,1,22.69-16.55S247.25,183.88,231.79,200.13Z" style="opacity:0.2"></path><path d="M286.92,223.91a77.89,77.89,0,0,1,3.55-7.84S288.34,217.58,286.92,223.91Z" style="opacity:0.2"></path><path d="M294.68,232.39a34.54,34.54,0,0,1-.28-6.55S292.84,229.92,294.68,232.39Z" style="opacity:0.2"></path><path d="M287.31,226a99.44,99.44,0,0,1,4-9.58S289,218.18,287.31,226Z" style="opacity:0.2"></path><path d="M292.5,232.16A78.67,78.67,0,0,1,294,222.7,15.88,15.88,0,0,0,292.5,232.16Z" style="opacity:0.2"></path><path d="M288.07,228.52a112,112,0,0,1,4-11.34S289.09,220.33,288.07,228.52Z" style="opacity:0.2"></path><path d="M290.71,231.73a103.59,103.59,0,0,1,2.85-11.37S290.63,224.56,290.71,231.73Z" style="opacity:0.2"></path><path d="M288.93,231a138.06,138.06,0,0,1,4.43-13.65S290.06,220.9,288.93,231Z" style="opacity:0.2"></path><path d="M198.12,336.22a58.27,58.27,0,0,0,5.37-8.17S204.45,330.6,198.12,336.22Z" style="opacity:0.2"></path><path d="M176.26,337.2a66.69,66.69,0,0,0,9-4.63A14,14,0,0,1,176.26,337.2Z" style="opacity:0.2"></path><path d="M194.83,337.49a78.19,78.19,0,0,0,7-9.77S202.78,330.6,194.83,337.49Z" style="opacity:0.2"></path><path d="M179.57,338.51a103.25,103.25,0,0,0,10.38-8S188,334.87,179.57,338.51Z" style="opacity:0.2"></path><path d="M190.48,338.83a100.73,100.73,0,0,0,9.32-11.07S199.81,332.12,190.48,338.83Z" style="opacity:0.2"></path><path d="M182.6,339.4a113.94,113.94,0,0,0,11-10.29S192.13,334.18,182.6,339.4Z" style="opacity:0.2"></path><path d="M186.07,340.05a131.39,131.39,0,0,0,11.78-13S197.71,331.88,186.07,340.05Z" style="opacity:0.2"></path><path d="M155.4,415.69c-2.12-.36-1.94-3.82-1.4-5.07s2.94-.8,4.89.36,5.6,4.55,5.85,6.32C162.05,416.31,158,416.13,155.4,415.69Z" style="fill:#407BFF"></path><path d="M155.4,415.69c-2.12-.36-1.94-3.82-1.4-5.07s2.94-.8,4.89.36,5.6,4.55,5.85,6.32C162.05,416.31,158,416.13,155.4,415.69Z" style="fill:#fff;opacity:0.30000000000000004"></path><path d="M141.18,414.62c-1.74-.65-1.49-4.28-1-5.54s2.43-.49,4,1,4.48,5.5,4.63,7.4C146.61,416.09,143.26,415.4,141.18,414.62Z" style="fill:#407BFF"></path><path d="M141.18,414.62c-1.74-.65-1.49-4.28-1-5.54s2.43-.49,4,1,4.48,5.5,4.63,7.4C146.61,416.09,143.26,415.4,141.18,414.62Z" style="fill:#fff;opacity:0.30000000000000004"></path><path d="M166.74,413.72c-2.15-.26-2.33-3.72-1.92-5s2.84-.94,4.89.12,6,4.28,6.47,6C173.41,414,169.32,414,166.74,413.72Z" style="fill:#407BFF"></path><path d="M166.74,413.72c-2.15-.26-2.33-3.72-1.92-5s2.84-.94,4.89.12,6,4.28,6.47,6C173.41,414,169.32,414,166.74,413.72Z" style="fill:#fff;opacity:0.30000000000000004"></path><path d="M261.17,413.08c-1.73-.06-1.92-3.54-1.61-4.87s2.27-1.23,3.94-.34,4.92,3.74,5.29,5.47C266.54,412.74,263.25,413.15,261.17,413.08Z" style="fill:#407BFF"></path><path d="M249.71,415.06c-2.51-.18-2.48-3.75-1.94-5.3s3.29-1.81,5.65-.67,6.9,4.71,7.32,6.76C257.52,415,252.73,415.28,249.71,415.06Z" style="fill:#407BFF"></path></g><g id="freepik--Dinosaur-2--inject-1"><path d="M389.48,306.08c27.39,3.39,39,12.64,39,12.64-11.31-4.38-32.81-7.71-61.37-4.29-41.37,5-53.54,26.63-87.83,16l-4.72-34.35C309.9,312.36,362.1,302.7,389.48,306.08Z" style="fill:#2e68eb"></path><path d="M285,314.71l-5.72,15.53,0,.19c13.45,4.18,23.49,3.37,33.23.56A158.34,158.34,0,0,0,285,314.71Z" style="opacity:0.2"></path><path d="M206.48,310c1.42,15-10.09,25.65-8.27,38.73a100,100,0,0,0,11.11,34.31c5.16,9.24-14.1,31.24-17.73,32.07s-12.21-1-11.67,5.09c5.72,1.78,7.36.42,7.36.42a8.43,8.43,0,0,0,7.95.79,48.42,48.42,0,0,0,6.29-3.07s-1.61,5.29,3.53,5.08,4.13-7,4.13-7l1.25-6.27s-2,5.09.71,4.66,4-16.59,9.84-22.74-2.84-6-3.91-10.42-1-19-2.77-23.41c5.13-2.27,7.2-9.26,6.25-16.86C225.27,338,206.48,310,206.48,310Z" style="fill:#2e68eb"></path><path d="M282.6,229.76c-7.17,7.25-12,15.7-2.31,26-20-.5-37.29-11.8-37.29-11.8C256.58,234.56,269.91,228.24,282.6,229.76Z" style="fill:#407BFF"></path><path d="M282.6,229.76c-7.17,7.25-12,15.7-2.31,26-20-.5-37.29-11.8-37.29-11.8C256.58,234.56,269.91,228.24,282.6,229.76Z" style="opacity:0.5"></path><path d="M255.8,252.63c8.18-6,17-1.9,23.35-9s16.58-.37,15.37,1-6.83-3.68-9.09.22-2.48,7.65-11.94,9.44A33.59,33.59,0,0,1,255.8,252.63Z" style="fill:#fff"></path><path d="M277.26,232.67c-7.45,7.29-12.6,15.33-3.08,23-20.18,2.3-37.37-5.2-37.37-5.2C250.81,240.41,264.48,233.07,277.26,232.67Z" style="fill:#407BFF"></path><path d="M277.26,232.67c-7.45,7.29-12.6,15.33-3.08,23-20.18,2.3-37.37-5.2-37.37-5.2C250.81,240.41,264.48,233.07,277.26,232.67Z" style="opacity:0.2"></path><path d="M286.5,229.92c-.59-1.13-1.63-.82-2.3-.46a.93.93,0,0,0-.22,1.29c.64,1.3,1.89,3.65,2.7,3.9C287.8,235,287.6,232,286.5,229.92Z" style="fill:#407BFF"></path><path d="M286.5,229.92c-.59-1.13-1.63-.82-2.3-.46a.93.93,0,0,0-.22,1.29c.64,1.3,1.89,3.65,2.7,3.9C287.8,235,287.6,232,286.5,229.92Z" style="fill:#fff;opacity:0.7000000000000001"></path><path d="M288.55,228.75c-.53-1-1.45-.72-2-.4-.35.19-.43.66-.19,1.14.56,1.16,1.68,3.24,2.39,3.46C289.7,233.25,289.53,230.62,288.55,228.75Z" style="fill:#407BFF"></path><path d="M288.55,228.75c-.53-1-1.45-.72-2-.4-.35.19-.43.66-.19,1.14.56,1.16,1.68,3.24,2.39,3.46C289.7,233.25,289.53,230.62,288.55,228.75Z" style="fill:#fff;opacity:0.7000000000000001"></path><path d="M291.61,227.87c-.43-.65-1.33-.44-1.92-.21a.49.49,0,0,0-.27.76c.47.76,1.4,2.11,2.07,2.24C292.43,230.83,292.43,229.08,291.61,227.87Z" style="fill:#407BFF"></path><path d="M291.61,227.87c-.43-.65-1.33-.44-1.92-.21a.49.49,0,0,0-.27.76c.47.76,1.4,2.11,2.07,2.24C292.43,230.83,292.43,229.08,291.61,227.87Z" style="fill:#fff;opacity:0.7000000000000001"></path><path d="M293.42,227.13c-.38-.58-1.18-.39-1.7-.19a.44.44,0,0,0-.24.68c.42.67,1.24,1.87,1.84,2C294.14,229.76,294.15,228.21,293.42,227.13Z" style="fill:#407BFF"></path><path d="M293.42,227.13c-.38-.58-1.18-.39-1.7-.19a.44.44,0,0,0-.24.68c.42.67,1.24,1.87,1.84,2C294.14,229.76,294.15,228.21,293.42,227.13Z" style="fill:#fff;opacity:0.7000000000000001"></path><path d="M294.49,226.43c-.37-.44-1-.22-1.43,0a.36.36,0,0,0-.13.58c.4.52,1.18,1.44,1.68,1.48C295.3,228.54,295.18,227.26,294.49,226.43Z" style="fill:#407BFF"></path><path d="M294.49,226.43c-.37-.44-1-.22-1.43,0a.36.36,0,0,0-.13.58c.4.52,1.18,1.44,1.68,1.48C295.3,228.54,295.18,227.26,294.49,226.43Z" style="fill:#fff;opacity:0.7000000000000001"></path><path d="M295.67,225.78c-.42-.39-1-.09-1.41.18a.35.35,0,0,0-.06.59c.46.46,1.36,1.27,1.86,1.25C296.76,227.77,296.46,226.51,295.67,225.78Z" style="fill:#407BFF"></path><path d="M295.67,225.78c-.42-.39-1-.09-1.41.18a.35.35,0,0,0-.06.59c.46.46,1.36,1.27,1.86,1.25C296.76,227.77,296.46,226.51,295.67,225.78Z" style="fill:#fff;opacity:0.7000000000000001"></path><path d="M297.82,225.1c-.14-.43-.66-.46-1-.43a.29.29,0,0,0-.27.38c.14.49.43,1.39.78,1.57S298.07,225.9,297.82,225.1Z" style="fill:#407BFF"></path><path d="M297.82,225.1c-.14-.43-.66-.46-1-.43a.29.29,0,0,0-.27.38c.14.49.43,1.39.78,1.57S298.07,225.9,297.82,225.1Z" style="fill:#fff;opacity:0.7000000000000001"></path><path d="M282.27,230.9c-.91-.66-2,0-2.67.64a.7.7,0,0,0,0,1.16c1,.78,2.92,2.14,3.87,2C284.83,234.47,284,232.13,282.27,230.9Z" style="fill:#407BFF"></path><path d="M282.27,230.9c-.91-.66-2,0-2.67.64a.7.7,0,0,0,0,1.16c1,.78,2.92,2.14,3.87,2C284.83,234.47,284,232.13,282.27,230.9Z" style="fill:#fff;opacity:0.7000000000000001"></path><path d="M279.32,232c-.9-.79-2.14-.12-2.92.46a.76.76,0,0,0-.09,1.25c1,.94,2.87,2.6,3.9,2.52C281.65,236.1,281,233.48,279.32,232Z" style="fill:#407BFF"></path><path d="M279.32,232c-.9-.79-2.14-.12-2.92.46a.76.76,0,0,0-.09,1.25c1,.94,2.87,2.6,3.9,2.52C281.65,236.1,281,233.48,279.32,232Z" style="fill:#fff;opacity:0.7000000000000001"></path><path d="M276.87,233c-.92-.94-2.3-.34-3.17.21a.81.81,0,0,0-.17,1.33c1,1.11,3,3.07,4.07,3.08C279.16,237.59,278.59,234.71,276.87,233Z" style="fill:#407BFF"></path><path d="M276.87,233c-.92-.94-2.3-.34-3.17.21a.81.81,0,0,0-.17,1.33c1,1.11,3,3.07,4.07,3.08C279.16,237.59,278.59,234.71,276.87,233Z" style="fill:#fff;opacity:0.7000000000000001"></path><path d="M272,236.26c-1-.87-2.45-.09-3.37.59a.87.87,0,0,0-.17,1.41c1.08,1,3.16,2.85,4.35,2.74C274.48,240.83,273.85,237.9,272,236.26Z" style="fill:#407BFF"></path><path d="M272,236.26c-1-.87-2.45-.09-3.37.59a.87.87,0,0,0-.17,1.41c1.08,1,3.16,2.85,4.35,2.74C274.48,240.83,273.85,237.9,272,236.26Z" style="fill:#fff;opacity:0.7000000000000001"></path><path d="M274.54,234.72c-.86-1-2.23-.53-3.1-.06a.8.8,0,0,0-.23,1.3c.93,1.17,2.74,3.28,3.83,3.39C276.56,239.5,276.13,236.61,274.54,234.72Z" style="fill:#407BFF"></path><path d="M274.54,234.72c-.86-1-2.23-.53-3.1-.06a.8.8,0,0,0-.23,1.3c.93,1.17,2.74,3.28,3.83,3.39C276.56,239.5,276.13,236.61,274.54,234.72Z" style="fill:#fff;opacity:0.7000000000000001"></path><path d="M269.79,238.76c-1-.89-2.52-.07-3.46.63a.89.89,0,0,0-.15,1.45c1.12,1,3.28,2.91,4.51,2.78C272.39,243.45,271.7,240.43,269.79,238.76Z" style="fill:#407BFF"></path><path d="M269.79,238.76c-1-.89-2.52-.07-3.46.63a.89.89,0,0,0-.15,1.45c1.12,1,3.28,2.91,4.51,2.78C272.39,243.45,271.7,240.43,269.79,238.76Z" style="fill:#fff;opacity:0.7000000000000001"></path><path d="M266.47,241.11c-1-.86-2.44,0-3.38.66a.9.9,0,0,0-.19,1.44c1.06,1,3.1,2.82,4.3,2.68C268.85,245.69,268.28,242.73,266.47,241.11Z" style="fill:#407BFF"></path><path d="M266.47,241.11c-1-.86-2.44,0-3.38.66a.9.9,0,0,0-.19,1.44c1.06,1,3.1,2.82,4.3,2.68C268.85,245.69,268.28,242.73,266.47,241.11Z" style="fill:#fff;opacity:0.7000000000000001"></path><path d="M262.08,243.26c-.78-.75-2.07-.09-2.89.48-.49.34-.59.83-.24,1.19.85.88,2.5,2.43,3.52,2.33C263.89,247.13,263.54,244.65,262.08,243.26Z" style="fill:#407BFF"></path><path d="M262.08,243.26c-.78-.75-2.07-.09-2.89.48-.49.34-.59.83-.24,1.19.85.88,2.5,2.43,3.52,2.33C263.89,247.13,263.54,244.65,262.08,243.26Z" style="fill:#fff;opacity:0.7000000000000001"></path><path d="M299.5,224.05c-9,6.49-26.6,8.72-29.54,14s-10.16,7.93-21,12c-10.38,3.84-17.73-.41-17.73-.41s1.38-8.65-1.95-10.44-2.28-6.32-1.4-9.1,2.76-3.09,4-3.83c1.21-4.39,2.49-4.34,5.35-6.17a19.83,19.83,0,0,1,14.75-2.36c5.85,1.57,10.44,1.28,14.43-2.21a13,13,0,0,1,11.7-2.7,86.52,86.52,0,0,0,9.78,1.07s11.33-1.43,10,7C301.58,222.29,299.5,224.05,299.5,224.05Z" style="fill:#2e68eb"></path><path d="M286.47,220.7c-4.07.59,4.91-6.53,5.13-3.62S287.42,220.57,286.47,220.7Z" style="opacity:0.2"></path><path d="M238.88,249c19.51,3.24,40.51-1.38,54.86,1.12,7,1.22,10.61,1.31,10.21,3.09s-.9,6.93-6,6.91-13.86.3-15.91,1.26-7.83,4.6-13.12,4.67-6.88,2.64-16.12,3.37-14.25-4.79-19.12-7-10.58-4.3-7.7-11.56S238.88,249,238.88,249Z" style="fill:#2e68eb"></path><path d="M197.9,265.3c-5.93,4.77-12.62,15.89-11,24.1-6.64-1.68-13.25-.54-17.35,2.22-1.54,1-3.76,6.35-1.48,6.3,1,0,1-1.36,1-1.36s-.52,2.79,1.41,3.81.05-4.25,1.46-6.27c1.68-1,11.89-1.05,13.68-.37s7.31,1.2,7.4-1.36,10.16-2.13,12.35-10.17S197.9,265.3,197.9,265.3Z" style="fill:#2e68eb"></path><path d="M199.15,266.57a40.65,40.65,0,0,0-4.08,5.63c-3.85,6.34-5.46,14.38-5.72,22.09,1.85,0,3.64-.47,3.69-1.92.09-2.56,10.16-2.13,12.35-10.17C207.09,276,201.7,269.31,199.15,266.57Z" style="opacity:0.2"></path><path d="M195.1,269.43c4.68-13.49,11.66-14.85,12.61-16.38,1.6-2.58,6.69-3.74,6.69-3.74s2.17-3.6,4.62-5,8.5-6.07,10.83-10.69l13.53,27.46c-5.4,2-6.25,4.68-7.7,8.15a8.43,8.43,0,0,0,4.23,10.81,26.36,26.36,0,0,1,11.14,9.81s34.1,1.33,34.07,22.65c0,15.62-12.86,29.54-18.61,39.15-13.09,21.85-47.48.93-52.39-11.91s-8.28-18.24-14.08-29.48C195.2,300.89,190.42,282.92,195.1,269.43Z" style="fill:#2e68eb"></path><path d="M266.38,333.74c-.46-11.84-19.93-22.45-28.6-24.41s-1.67-18.24-12.55-18-10.53-18.71-16-21c-4.61-1.94-13.23.65-15.93,8.57-.74,11.57,3,24.09,6.77,31.4,5.8,11.23,9.16,16.63,14.07,29.48s39.32,33.74,52.39,11.9a.35.35,0,0,0,.05-.08C267.31,346.16,266.62,339.74,266.38,333.74Z" style="fill:#fff;opacity:0.30000000000000004"></path><path d="M298.18,388.86c2.11,7.11-.22,22.74,3.41,22C305.52,410,302.23,392.13,298.18,388.86Z" style="fill:#2e68eb"></path><path d="M300.78,410.14c-.32.36.36,2.16,1.54,1.84-.16-.26-.14-1.43-.43-1.88S301.07,409.81,300.78,410.14Z" style="fill:#407BFF"></path><path d="M214.34,274.58c-1.52,7.46.43,20.28,6.91,25.57-6.18,2.94-10.55,8-11.95,12.78-.52,1.78,1.16,7.29,2.88,5.8.74-.64-.07-1.7-.07-1.7s1.37,2.48,3.51,2-2.67-3.31-2.88-5.76c.66-1.85,8.49-8.4,10.3-9s6.4-3.74,4.83-5.77,6.46-8.12,3-15.71S214.34,274.58,214.34,274.58Z" style="fill:#2e68eb"></path><path d="M313.6,414.72c-.07-17.28-4.33-21.09-13.07-32.41-4-12.63,4.73-39.59-1.39-43.49-2.05-20.1-12.58-36-26.05-43.52-23.1-12.81-20.2,34.32-16.55,49s26.7,25.95,26.16,35.06,6.36,6.63,12,12.18c7.72,7.64,7.29,22.26,7.29,22.26-2.19,2.3-11.86,2.08-11.81,7,1.92,1.56,7.5.08,7.5.08s-3.65,4.74,6.9,3.05c5.87-.94,3.36-1.51,3.36-1.51s4.47,3.86,7.08.87S313.6,414.72,313.6,414.72Z" style="fill:#2e68eb"></path><path d="M267.16,343c1.23,2.62.75,5.45-1.09,6.31s-4.32-.55-5.56-3.17-.75-5.44,1.09-6.31S265.92,340.38,267.16,343Z" style="fill:#fff;opacity:0.1"></path><path d="M275.83,347.13c.32,1.83-.46,3.5-1.74,3.72s-2.59-1.08-2.91-2.91.46-3.5,1.75-3.72S275.51,345.3,275.83,347.13Z" style="fill:#fff;opacity:0.1"></path><path d="M270.24,353.15a1.78,1.78,0,0,1,.2,2.42c-.59.49-1.64.2-2.34-.64a1.78,1.78,0,0,1-.2-2.42C268.49,352,269.54,352.31,270.24,353.15Z" style="fill:#fff;opacity:0.1"></path><path d="M218.84,287.05c.73,1.84.8,3.79.17,4.34s-1.75-.5-2.48-2.35-.81-3.79-.17-4.34S218.1,285.2,218.84,287.05Z" style="fill:#fff;opacity:0.1"></path><path d="M222.63,290.14c.3,1.28.15,2.41-.33,2.53s-1.12-.81-1.42-2.09-.15-2.41.33-2.53S222.33,288.86,222.63,290.14Z" style="fill:#fff;opacity:0.1"></path><path d="M249,265c1.84.44,3.21,1.36,3.06,2.06s-1.77.91-3.61.47-3.21-1.36-3-2.06S247.12,264.58,249,265Z" style="fill:#fff;opacity:0.1"></path><path d="M253.77,263.72c.92,0,1.68.24,1.69.58s-.71.65-1.63.68-1.67-.24-1.69-.59S252.86,263.74,253.77,263.72Z" style="fill:#fff;opacity:0.1"></path><path d="M221,294.17a2.05,2.05,0,0,1,.3,1.68c-.18.32-.62.1-1-.51a2.05,2.05,0,0,1-.3-1.68C220.21,293.34,220.65,293.56,221,294.17Z" style="fill:#fff;opacity:0.1"></path><path d="M289.51,383.82c1.56.67,2.61,1.73,2.34,2.36s-1.76.59-3.33-.08-2.61-1.73-2.33-2.36S287.94,383.14,289.51,383.82Z" style="fill:#fff;opacity:0.1"></path><path d="M294.35,383.38c.61.67.81,1.49.45,1.82s-1.15.06-1.77-.61-.81-1.48-.45-1.81S293.73,382.72,294.35,383.38Z" style="fill:#fff;opacity:0.1"></path><path d="M289.92,379.07c.55.24.89.68.76,1s-.69.35-1.24.1-.89-.67-.76-1S289.37,378.83,289.92,379.07Z" style="fill:#fff;opacity:0.1"></path><path d="M200.87,346c-.12,1.64.5,3,1.39,3.09s1.72-1.21,1.84-2.85-.5-3-1.39-3.09S201,344.31,200.87,346Z" style="fill:#fff;opacity:0.1"></path><path d="M218.64,387.11c.65.56,1.41.72,1.71.37s0-1.09-.62-1.64-1.42-.72-1.72-.37S218,386.56,218.64,387.11Z" style="fill:#fff;opacity:0.1"></path><path d="M202.34,334.83c-.51,1-.5,2,0,2.25s1.36-.28,1.88-1.24.5-2,0-2.25S202.86,333.87,202.34,334.83Z" style="fill:#fff;opacity:0.1"></path><path d="M238.13,229c1.26-5.23,5.75-9.48,15.77-7.14,3,.71,4,1.47,6.07,1.17s1.5,1.21-4.3,2.58S236.67,235.05,238.13,229Z" style="opacity:0.2"></path><path d="M245,226c.46.88-.26,1.12-1.1,1.5s-1.47.78-1.93-.11a1.64,1.64,0,0,1,.68-2.3A1.86,1.86,0,0,1,245,226Z" style="fill:#fff"></path><path d="M181.86,418c-.84-.83-5.76.11-5.38,2.82.73-.27,3.77.13,5.06-.35S182.59,418.72,181.86,418Z" style="fill:#407BFF"></path><path d="M293.54,418.68c-.71-.83-4.88.11-4.55,2.81.62-.26,3.19.14,4.28-.35S294.16,419.41,293.54,418.68Z" style="fill:#407BFF"></path><path d="M300.92,421.05c-1-.75-5.47,1.49-4.34,4.45.62-.47,3.64-.74,4.73-1.6S301.83,421.7,300.92,421.05Z" style="fill:#407BFF"></path><path d="M190.56,419.51c-.79-.75-4.84.65-4.22,3.3.59-.33,3.19-.21,4.23-.82S191.26,420.17,190.56,419.51Z" style="fill:#407BFF"></path><path d="M210.62,414.07c-.41.26-.28,2.17.94,2.21-.07-.29.28-1.41.14-1.93S211,413.85,210.62,414.07Z" style="fill:#407BFF"></path><path d="M204.32,420.8c-2-.84-2.62,2.62-1.23,4.15C203.69,424.12,208.65,422.58,204.32,420.8Z" style="fill:#407BFF"></path><path d="M311.09,421.43c-2-.83-2.62,2.62-1.22,4.16C310.46,424.75,315.42,423.22,311.09,421.43Z" style="fill:#407BFF"></path></g></svg>
