<?xml version="1.0" standalone="no"?><!DOCTYPE svg PUBLIC "-//W3C//DTD SVG 1.1//EN" "http://www.w3.org/Graphics/SVG/1.1/DTD/svg11.dtd"><svg t="1681971582348" class="icon" viewBox="0 0 1024 1024" version="1.1" xmlns="http://www.w3.org/2000/svg" p-id="77487" xmlns:xlink="http://www.w3.org/1999/xlink" width="256" height="256"><path d="M688.042027 335.99533a49.025781 49.025781 0 0 1 43.920226-83.33262 8.007005 8.007005 0 0 0 7.085514-2.029769L1009.96595 0 224.420274 515.910108l263.832669 19.861854z" fill="#00D3B4" p-id="77488"></path><path d="M0 291.701527L224.420274 515.910108 1009.96595 0 0 291.701527z" fill="#00EED4" p-id="77489"></path><path d="M773.379512 285.014496a7.994552 7.994552 0 0 0-1.97996 7.035703 49.025781 49.025781 0 0 1-83.332619 43.970036L488.290301 535.747057l19.69997 263.994552L1024.062263 14.096313z" fill="#0069FF" p-id="77490"></path><path d="M1024.062263 14.096313L507.990271 799.691799l224.320654 224.308201 291.751338-1009.903687z" fill="#007FFF" p-id="77491"></path></svg>