<?xml version="1.0" standalone="no"?><!DOCTYPE svg PUBLIC "-//W3C//DTD SVG 1.1//EN" "http://www.w3.org/Graphics/SVG/1.1/DTD/svg11.dtd"><svg t="1678259724722" class="icon" viewBox="0 0 1024 1024" version="1.1" xmlns="http://www.w3.org/2000/svg" p-id="20912" xmlns:xlink="http://www.w3.org/1999/xlink" width="256" height="256"><path d="M0 0m170.666667 0l682.666666 0q170.666667 0 170.666667 170.666667l0 682.666666q0 170.666667-170.666667 170.666667l-682.666666 0q-170.666667 0-170.666667-170.666667l0-682.666666q0-170.666667 170.666667-170.666667Z" fill="#CB2026" p-id="20913"></path><path d="M576.32 412.010667L749.525333 725.333333H403.136l173.184-313.322666z m139.946667-46.549334L896 680.832l-146.474667-0.021333-104.874666-189.738667 71.616-125.610667z m-345.856 72.554667l0.021333-0.042667 83.456 150.976-50.773333 91.861334H149.333333l179.733334-315.349334 41.344 72.554667zM449.834667 298.666667l83.52 146.56-67.157334 121.472-83.264-150.634667L449.834667 298.666667z" fill="#FFFFFF" p-id="20914"></path></svg>