<?xml version="1.0" standalone="no"?><!DOCTYPE svg PUBLIC "-//W3C//DTD SVG 1.1//EN" "http://www.w3.org/Graphics/SVG/1.1/DTD/svg11.dtd"><svg t="1684340090253" class="icon" viewBox="0 0 1047 1024" version="1.1" xmlns="http://www.w3.org/2000/svg" p-id="1711" xmlns:xlink="http://www.w3.org/1999/xlink" width="261.75" height="256"><path d="M281.793479 161.63827l-186.254401 97.873278 55.251795 31.016508c30.185362 17.116172 58.094781 31.020392 62.083506 31.020391 5.126695 0 140.118025-68.992893 242.07324-123.545594 14.238232-7.484199 18.226956-5.880164 140.685069 63.112729l125.87591 70.593044 59.811447-31.016508c45.565448-23.536193 58.665709-32.624426 52.968086-36.90444C821.758798 253.091527 480.010169 63.232904 474.312546 63.232904c-3.417797 0.535973-89.425882 44.392522-192.519067 98.405366zM62.502963 523.707256l1.708898 204.834788 179.418807 97.337305c98.537418 54.016728 181.698633 97.873278 183.978459 98.405367 2.275942 0 3.417797-28.880385 2.846869-64.71288l-1.708898-64.712879-123.599968-67.384975-124.167011-67.384974-1.141855-139.053848-1.708899-139.053848-25.633477-13.904219c-14.238232-7.488083-40.438753-21.928275-58.665709-31.552481L61.364992 318.868584l1.137971 204.834788zM821.758798 350.964805l-56.960694 31.016507-1.708899 139.053848-1.137971 139.049964-124.167011 67.384975-123.599968 67.388858-1.708898 64.712879c-0.570927 35.832494 0 64.712879 1.708898 64.71288 3.984841 0 357.128715-191.99863 363.393382-197.346706 2.275942-2.136123 3.417797-94.661325 2.84687-205.370761l-1.708899-201.622836-56.95681 31.020392zM346.15681 370.213216c0 3.211952 158.344981 126.221573 166.889474 129.429642 7.973565 2.672096 92.268867-119.801552 86.571245-125.149628-4.551884-4.27613-253.460718-8.556144-253.460719-4.27613zM390.584287 535.471468c-18.226956 27.280234-38.162811 57.22868-44.998404 66.320798l-11.96229 17.64826h264.288921l-85.437157-66.852886c-47.274347-36.900556-86.579012-66.852886-87.716984-66.852886-1.137971 0.535973-16.518058 22.464248-34.177969 49.740598z" p-id="1712" fill="#e20382"></path></svg>