<?xml version="1.0" standalone="no"?><!DOCTYPE svg PUBLIC "-//W3C//DTD SVG 1.1//EN" "http://www.w3.org/Graphics/SVG/1.1/DTD/svg11.dtd"><svg t="1684428310733" class="icon" viewBox="0 0 1024 1024" version="1.1" xmlns="http://www.w3.org/2000/svg" p-id="4692" xmlns:xlink="http://www.w3.org/1999/xlink" width="256" height="256"><path d="M512 512m-512 0a512 512 0 1 0 1024 0 512 512 0 1 0-1024 0Z" fill="#7346D7" p-id="4693"></path><path d="M290.56 547.529143a140.434286 140.434286 0 0 1 39.862857 23.497143l-28.891428 52.406857s-14.445714 18.980571 3.474285 19.894857h121.234286a182.4 182.4 0 0 0-108.434286-142.793143l72.228572-124.726857a320.365714 320.365714 0 0 1 180.662857 267.52h54.308571s-2.925714-212.992-207.908571-312.685714l72.411428-126.537143s18.102857-40.064 54.125715-36.150857a66.505143 66.505143 0 0 1 50.651428 37.961143l229.485715 399.469714a60.452571 60.452571 0 0 1 0 61.458286 51.675429 51.675429 0 0 1-43.337143 21.686857h-55.954286v-45.184h54.125714a9.508571 9.508571 0 0 0 7.314286-14.464c-4.571429-13.513143-236.8-410.313143-236.8-410.313143a9.398857 9.398857 0 0 0-16.274286 0l-52.48 93.988571a438.674286 438.674286 0 0 1 191.634286 375.972572h-144.64a285.677714 285.677714 0 0 0-121.051429-251.245715l-25.234285 46.994286a227.858286 227.858286 0 0 1 92.16 204.251429h-171.702857a55.442286 55.442286 0 0 1-48.822858-74.112z" fill="#FFFFFF" p-id="4694"></path></svg>