<?xml version="1.0" standalone="no"?><!DOCTYPE svg PUBLIC "-//W3C//DTD SVG 1.1//EN" "http://www.w3.org/Graphics/SVG/1.1/DTD/svg11.dtd"><svg t="1681962705122" class="icon" viewBox="0 0 1024 1024" version="1.1" xmlns="http://www.w3.org/2000/svg" p-id="4835" xmlns:xlink="http://www.w3.org/1999/xlink" width="256" height="256"><path d="M512.03904 512m-512 0a512 512 0 1 0 1024 0 512 512 0 1 0-1024 0Z" fill="#E8F0FF" p-id="4836"></path><path d="M734.79104 370.752a11.616 11.616 0 0 0-7.616-2.4 19.104 19.104 0 0 0-4.32 0.64c-25.6 9.536-51.904 17.216-78.656 23.008a15.584 15.584 0 0 0-10.816 9.28C615.30304 449.376 569.28704 495.328 521.12704 543.52a12.8 12.8 0 0 1-9.024 4.192 11.904 11.904 0 0 1-9.056-4.16C454.82304 495.296 408.87104 449.696 390.69504 401.184a16 16 0 0 0-10.88-9.184A641.472 641.472 0 0 1 301.25504 368.64C299.71904 367.968 298.31104 367.968 296.87104 367.968A12 12 0 0 0 289.28704 370.336a12.288 12.288 0 0 0-4.768 10.752c4.032 39.936 20.288 79.232 49.6 120.32 27.584 38.592 63.424 74.336 98.24 109.024 63.744 63.744 124.16 123.904 129.6 193.6 0.416 6.4 5.856 11.392 12.416 11.392h74.976a13.472 13.472 0 0 0 9.024-3.84 12.288 12.288 0 0 0 3.296-8.864c-2.56-46.784-20.352-93.44-55.136-143.04-7.264-10.272-14.88-20.48-23.168-30.464-3.296-3.904-1.792-8.8 0.672-11.648l7.584-7.488c34.784-34.656 70.656-70.464 98.24-109.056 29.312-40.96 45.6-79.936 49.6-120.352a11.776 11.776 0 0 0-4.672-9.952zM431.23904 665.024a11.36 11.36 0 0 0-8.64-3.648 12.512 12.512 0 0 0-10.176 5.76c-31.488 47.072-47.84 91.296-49.984 135.904a12.48 12.48 0 0 0 3.296 8.864c2.24 2.56 5.568 4 9.056 3.904h74.944a12.224 12.224 0 0 0 12.352-11.36c1.728-21.536 8.288-42.848 20.992-65.44a16.768 16.768 0 0 0-1.472-18.432c-12.64-15.936-27.552-32.544-50.368-55.584v0.032z" fill="#3852B5" p-id="4837"></path><path d="M554.02304 405.12a11.424 11.424 0 0 1 9.536 5.248 10.88 10.88 0 0 1 0.64 10.656c-3.296 8.128-17.44 37.504-43.872 62.72a12.096 12.096 0 0 1-8.704 3.136 12.352 12.352 0 0 1-8.64-3.2c-26.464-25.12-40.576-54.528-43.872-62.72-0.32-0.992-1.024-2.432-1.024-4.544 0-6.4 5.44-11.36 11.2-11.36 5.44 0 19.2 1.44 42.752 1.44 23.552 0 37.312-1.44 42.016-1.44v0.096l-0.032-0.032z m-171.328-141.92c-21.76 0.032-39.392 17.28-39.488 38.528 0 21.312 17.792 38.592 39.488 38.592 21.696 0 39.456-17.28 39.456-38.592a39.424 39.424 0 0 0-39.456-38.528z m258.624 0c-21.76 0.064-39.36 17.28-39.456 38.528 0 15.616 9.6 29.664 24.32 35.648 14.752 5.984 31.744 2.688 43.04-8.32 11.296-11.072 14.656-27.648 8.544-42.08a39.488 39.488 0 0 0-36.48-23.776h0.032zM512.03904 228.064c-21.824 0-39.52 17.28-39.52 38.624 0 21.312 17.696 38.592 39.52 38.592 21.792 0 39.488-17.28 39.488-38.592 0-21.312-17.696-38.624-39.488-38.624z" fill="#3852B5" p-id="4838"></path></svg>