<svg width="54" height="54" viewBox="0 0 54 54" fill="none" xmlns="http://www.w3.org/2000/svg">
<mask id="mask0_602_25" style="mask-type:alpha" maskUnits="userSpaceOnUse" x="0" y="0" width="54" height="54">
<rect width="54" height="54" fill="white"/>
</mask>
<g mask="url(#mask0_602_25)">
<rect width="54" height="54" fill="white"/>
</g>
<path d="M28.0061 14.1814C28.736 14.5645 29.3983 15.064 30.1197 15.4639C29.6609 16.0795 29.1448 16.6502 28.5782 17.1683C27.6079 16.8561 26.5886 16.7017 25.571 16.6485C26.4089 15.8546 27.4847 15.258 28.0061 14.1814V14.1814ZM28.4432 14.9821C28.1337 15.4696 27.7567 15.9108 27.3235 16.2925C27.4416 16.4334 27.5623 16.5726 27.6838 16.7101C28.1683 16.2983 28.5785 15.8063 28.8963 15.2555C28.7444 15.1644 28.5934 15.0716 28.4432 14.9821ZM20.6241 16.9194C21.3464 16.8958 22.0745 16.7405 22.79 16.9143C22.1724 16.9734 21.5801 17.1809 21.0232 17.4459C20.6697 17.6121 20.3685 17.8804 19.9863 17.985C19.3393 18.1855 18.7709 18.5828 18.3604 19.1216L18.1309 19.2313C18.1359 19.1477 18.1486 18.9815 18.1545 18.898C18.2 18.7588 18.233 18.617 18.2625 18.4744L18.2836 18.4685C18.5257 17.8391 19.1045 17.4206 19.6926 17.1354C19.9972 17.0392 20.312 16.9877 20.6241 16.9194ZM27.2105 19.1789C27.9766 18.7115 28.6921 18.1673 29.384 17.5969C30.194 18.2213 31.0124 18.8364 31.8123 19.4743C29.8843 20.129 27.9538 20.7838 25.982 21.2976C25.2158 21.4832 24.4438 21.6604 23.6566 21.7448C22.855 21.8275 22.0602 21.5971 21.3211 21.3069C20.4014 20.9188 19.5441 20.3973 18.7173 19.8413C19.4986 20.2125 20.3255 20.4783 21.181 20.615C21.84 20.6884 22.5032 20.7913 23.1689 20.7247C24.6252 20.5787 25.9769 19.9324 27.2105 19.1789V19.1789ZM28.4238 18.7233C28.6263 18.8642 28.8296 19.006 29.0195 19.1671C28.8043 19.2954 28.595 19.4321 28.3833 19.5628C28.536 19.6346 28.6811 19.7248 28.8271 19.8143L29.0152 19.6692C29.2076 19.5493 29.4354 19.3949 29.6455 19.5763C29.7485 19.6607 29.8489 19.7502 29.9661 19.8185C30.1045 19.7831 30.2328 19.7156 30.3661 19.6641L30.3838 19.5578C30.2269 19.4616 30.0733 19.362 29.9155 19.2692C29.9063 19.2149 29.8984 19.1603 29.8919 19.1055C30.0741 19.006 30.2547 18.903 30.437 18.8043C30.342 18.7233 30.2475 18.6417 30.1535 18.5596L29.9543 18.552C29.7881 18.6643 29.6253 18.7807 29.459 18.8912C29.2414 18.763 29.0372 18.6162 28.833 18.4693C28.698 18.5571 28.5605 18.6398 28.4238 18.7225V18.7233Z" fill="white"/>
<path d="M18.4497 19.195C18.8497 18.7056 19.3669 18.3065 19.9718 18.1082C19.6023 18.4913 19.3002 18.93 18.9577 19.3359L18.4489 19.195H18.4497ZM16.9563 19.4742C17.4929 19.3646 18.0456 19.238 18.5948 19.3426C16.9765 20.3062 15.2603 21.0976 13.6775 22.1211C13.1358 22.4502 12.6059 22.7944 12.0743 23.1403C12.1233 22.964 12.184 22.7927 12.2321 22.6172L12.2642 22.597C12.4532 22.2375 12.6169 21.8351 12.9552 21.5862C13.6893 21.0521 14.4301 20.523 15.2165 20.0657C15.7514 19.7577 16.3581 19.6101 16.9563 19.4742V19.4742Z" fill="white"/>
<path d="M26.9404 15.334C27.3699 14.961 27.7049 14.4953 27.9799 14C28.7595 14.4725 29.5181 14.9762 30.3011 15.4428C29.8328 16.0756 29.2962 16.6544 28.7359 17.2079C29.3413 17.3837 29.9249 17.6271 30.4757 17.9336C30.7491 18.077 30.9347 18.3327 31.1811 18.5132C32.5454 19.3317 33.7124 20.442 34.7561 21.6326C35.3894 22.3605 35.954 23.1454 36.4427 23.9773C36.7296 24.4912 37.003 25.0143 37.2249 25.5611C37.3928 26.0082 37.5404 26.4639 37.651 26.9313C37.046 26.5288 36.4292 26.1424 35.7677 25.8387C36.3752 26.3761 37.1093 26.7803 37.6299 27.4106C37.6889 28.1109 37.7573 28.823 37.6341 29.5199C37.164 28.9977 36.6456 28.5211 36.0858 28.0965C35.793 27.8856 35.5003 27.6578 35.1467 27.5624C35.2851 27.9261 35.6159 28.1429 35.8934 28.3927C36.5035 28.9234 37.1186 29.4575 37.6282 30.0886C37.6079 30.211 37.586 30.3342 37.5641 30.4565C37.5447 30.8328 37.5539 31.2142 37.4738 31.5846C37.4594 31.7618 37.4485 31.9381 37.435 32.1136C37.165 31.7145 36.792 31.3998 36.5178 31.0041L36.4377 31.2091L36.3837 31.3045C36.3001 31.0589 36.2343 30.7788 36.0124 30.6143C35.3745 30.0979 34.6422 29.7098 33.9089 29.347C34.7434 30.119 35.604 30.8683 36.3719 31.7103C36.49 31.8453 36.5988 31.9828 36.7153 32.1204C36.6496 31.8483 36.5824 31.5766 36.5136 31.3053C36.6191 31.5255 36.7169 31.75 36.8089 31.9778C36.9237 32.2452 37.0612 32.5026 37.2089 32.754C37.2645 32.9734 37.3666 33.1784 37.4679 33.3784C38.1328 34.6162 39.0052 35.724 39.9097 36.7931C41.3415 38.4721 42.8713 40.0668 44.4373 41.621C44.3444 41.7822 44.2542 41.9458 44.1673 42.1112C43.834 42.7356 43.4653 43.3423 43.1497 43.9759L43.0442 43.9236C42.0333 42.6958 41.0205 41.4696 40.0059 40.2448C39.9131 40.1292 39.8186 40.0153 39.73 39.8989C39.7131 39.9023 39.6794 39.9099 39.6633 39.9149C39.73 40.0078 39.7966 40.1014 39.8633 40.1976C40.8402 41.7238 41.8252 43.2448 42.8181 44.7606C42.3397 45.4803 41.8545 46.1967 41.3601 46.9062C41.2319 46.8286 41.1694 46.6886 41.0876 46.573C40.3619 45.4255 39.6296 44.2839 38.9208 43.1279C37.9826 41.6067 37.0519 40.0795 36.1964 38.5109C35.8505 37.9096 35.5307 37.2937 35.2379 36.6648C35.1946 36.5752 35.1516 36.4855 35.1088 36.3957C34.921 35.9852 34.7459 35.569 34.5839 35.1477C34.5359 35.0296 34.4911 34.9115 34.4447 34.7951C34.3857 34.6381 34.3266 34.4829 34.265 34.3285L33.9815 33.5775C33.9056 33.3514 33.8271 33.1295 33.741 32.9084C32.1784 32.2857 30.6782 31.5137 29.1654 30.7805C29.1063 30.9189 29.0523 31.0581 28.9975 31.1956C28.93 31.3931 28.8566 31.5871 28.7849 31.782C29.3873 32.02 30.0108 32.3068 30.3677 32.8764C30.1649 32.8277 29.9639 32.7714 29.7653 32.7076C29.205 32.6013 28.6389 32.4891 28.066 32.4975C27.5884 32.5448 27.1252 32.6891 26.667 32.8258C25.9439 33.0789 25.2749 33.4535 24.5796 33.7699C24.2877 33.8104 23.9924 33.7783 23.7004 33.775C24.437 33.2738 25.1812 32.7684 26.0241 32.4587C25.031 32.5304 24.2185 33.159 23.4448 33.7227C23.1579 33.7235 22.8744 33.7176 22.59 33.6973C23.4802 32.9844 24.4581 32.3727 25.5288 31.966C26.1524 31.755 26.7911 31.5677 27.4509 31.5255C27.5859 31.1796 27.6838 30.8218 27.8103 30.4742L27.8736 30.1435C27.4914 29.941 27.0543 29.9097 26.6417 29.8068C26.1937 29.7123 25.7575 29.5706 25.3204 29.4381L25.2689 29.3875L24.9576 29.3554C24.7728 29.644 24.5703 29.9334 24.5096 30.2768C24.8589 30.5552 25.2521 30.7695 25.6191 31.0201C25.8047 31.2193 25.8942 31.4876 26.0089 31.7322C25.4925 31.4454 24.9703 31.1644 24.399 30.9982C24.0502 30.9541 23.6972 30.9546 23.3486 30.9999C23.222 31.037 23.0954 31.0699 22.9689 31.1003C22.1454 31.3407 21.3826 31.7449 20.6309 32.1491C20.322 32.3372 19.9474 32.3279 19.604 32.4005C20.1609 31.8132 20.8696 31.4116 21.5784 31.0404L21.9361 30.8742C20.9473 30.9147 20.1423 31.5492 19.4277 32.1685C19.2091 32.3963 18.8801 32.4165 18.594 32.4975C19.3467 31.4758 20.3718 30.6345 21.5505 30.1502C22.0728 29.9587 22.6255 29.9106 23.1756 29.8676C23.2355 29.7494 23.3022 29.6355 23.3671 29.5208C23.4709 29.3503 23.5739 29.1774 23.6768 29.0061C22.6727 28.7766 21.6552 28.6171 20.6376 28.4661C19.8799 28.3716 19.1172 28.2957 18.3527 28.3733C17.3934 28.5218 16.4062 28.4661 15.4519 28.3032C14.6107 28.1311 13.7307 27.9582 13.0295 27.43C12.73 27.1363 12.3123 27.4106 11.9706 27.4772C11.2036 27.7303 10.5025 28.132 9.7836 28.4931C9.57435 28.6087 9.24698 28.5927 9.15501 28.3345C8.98035 27.9126 8.96432 27.4359 9.05207 26.9921L9.11282 26.5989C9.15585 26.4799 9.1972 26.3592 9.24192 26.2411C9.29085 26.1137 9.34317 25.9863 9.39379 25.8597C9.65743 25.3553 10.0256 24.9129 10.4738 24.5621C10.8585 24.2786 11.3403 24.1908 11.7976 24.0904C11.8061 23.8592 11.8213 23.6289 11.8364 23.3985C11.8744 23.2939 11.9107 23.1901 11.9453 23.0847L11.979 23.0897L12.0508 22.759C12.433 21.8393 13.1021 21.0673 13.8564 20.4302C15.0165 19.4743 16.5648 19.2152 18.0245 19.1612C18.0296 19.0262 18.0363 18.8938 18.0431 18.7604L18.0996 18.7773C18.2177 17.8036 19.1585 17.1573 20.0402 16.9092C20.8528 16.7835 21.683 16.6679 22.5048 16.7557C23.3908 16.8257 24.2632 16.6013 25.1508 16.6342C25.3786 16.6848 25.5339 16.4958 25.6934 16.3692C26.1026 16.0182 26.5278 15.6833 26.9404 15.334V15.334ZM28.0061 14.1814C27.4846 15.258 26.4089 15.8546 25.571 16.6485C26.5886 16.7017 27.607 16.8561 28.5781 17.1691C29.1447 16.651 29.6608 16.0803 30.1197 15.4648C29.3983 15.064 28.7359 14.5645 28.0061 14.1814V14.1814ZM22.2576 17.1219C21.3514 17.3649 20.452 17.7749 19.8107 18.4753C19.5779 18.7174 19.4015 19.0026 19.1847 19.2566C19.0252 19.4759 18.7172 19.4236 18.4979 19.5358C19.3365 20.0657 20.3077 20.3745 21.2907 20.4867C21.6417 19.3713 22.5057 18.4702 23.5469 17.9589C25.096 17.2223 26.8999 17.0679 28.5629 17.4703C28.811 17.5336 29.0608 17.5834 29.3173 17.607C29.1907 17.5167 29.0641 17.4265 28.9156 17.3801C26.7776 16.6992 24.437 16.5237 22.2576 17.1219V17.1219ZM20.6241 16.9194C20.3119 16.9869 19.998 17.0375 19.6934 17.1354C19.1045 17.4197 18.5257 17.8391 18.2835 18.4685L18.2624 18.4736C18.2338 18.617 18.2 18.7588 18.1544 18.8971L18.1308 19.2304L18.3603 19.1207C18.7709 18.582 19.3392 18.1847 19.9862 17.9842C20.3684 17.8804 20.6697 17.6112 21.024 17.4459C21.5801 17.1801 22.1724 16.9725 22.79 16.9135C22.0745 16.7397 21.3472 16.8957 20.6241 16.9185V16.9194ZM23.6397 18.0551C22.6069 18.5385 21.7716 19.4321 21.413 20.5188C21.9344 20.5669 22.4567 20.6572 22.9824 20.6142C23.6381 20.5603 24.2837 20.419 24.9019 20.194C26.408 19.6202 27.7791 18.7402 29.0236 17.7285C27.2526 17.1521 25.3289 17.2688 23.6405 18.0551H23.6397ZM27.2104 19.1781C25.9769 19.9316 24.6252 20.5787 23.1689 20.7238C22.5023 20.7905 21.8399 20.6884 21.181 20.6142C20.327 20.4752 19.4973 20.2146 18.7172 19.8404C19.5441 20.3973 20.4005 20.9171 21.321 21.306C22.0602 21.5963 22.8541 21.8266 23.6565 21.7448C24.4438 21.6604 25.2158 21.4832 25.9828 21.2976C27.9538 20.7829 29.8834 20.1282 31.8122 19.4734C31.0124 18.8355 30.1948 18.2204 29.3839 17.5961C28.692 18.1664 27.9765 18.7098 27.2104 19.1781V19.1781ZM29.7104 17.7049C29.9636 18.0011 30.3348 18.1285 30.6993 18.2238C30.4276 17.9538 30.0927 17.7598 29.7104 17.7049ZM18.4498 19.195C18.6185 19.2422 18.7881 19.2903 18.9585 19.3359C19.3011 18.9309 19.6032 18.4921 19.9727 18.1082C19.3669 18.3065 18.8505 18.7073 18.4498 19.195V19.195ZM30.728 18.4305C31.1364 18.8237 31.6123 19.1376 32.0443 19.5029C30.9845 19.902 29.9045 20.2421 28.8321 20.5998C27.1269 21.1044 25.4267 21.6748 23.6515 21.8654C22.8558 21.9523 22.0813 21.7136 21.3388 21.463C21.5683 22.4341 22.0728 23.3142 22.6575 24.114C23.4338 25.1721 24.3248 26.1407 25.2335 27.0857C26.041 27.9168 26.7185 28.861 27.4821 29.7309C27.6669 29.9418 27.9276 30.0566 28.1748 30.1747C31.0115 31.5238 33.7942 33.0561 36.8604 33.8357C36.9675 33.4704 37.0536 33.0974 37.0848 32.7169C36.2394 31.6917 35.291 30.7552 34.2954 29.8768C33.9959 29.6043 33.6474 29.3816 33.401 29.055C34.9458 29.5703 36.3123 30.514 37.3413 31.7761C37.4864 31.2471 37.381 30.6894 37.5312 30.1603C36.6537 29.1116 35.5568 28.2771 34.5266 27.3869C34.4367 27.2968 34.3528 27.2009 34.2751 27.1001C35.5931 27.3802 36.625 28.3151 37.5421 29.2432C37.5615 28.6441 37.5539 28.0451 37.532 27.446C36.9498 26.8748 36.2875 26.3964 35.6285 25.9205C35.5053 25.8265 35.3947 25.7171 35.2994 25.5948C36.0841 25.7813 36.7617 26.2259 37.4443 26.6335C36.8342 24.4093 35.4479 22.4738 33.8566 20.8352C32.9159 19.9189 31.9363 18.9874 30.728 18.4305ZM16.9563 19.4743C16.3581 19.6093 15.7514 19.7577 15.2165 20.0657C14.4301 20.5222 13.6893 21.0512 12.9553 21.5862C12.6169 21.8351 12.4532 22.2367 12.2642 22.597L12.2322 22.6164C12.1832 22.7927 12.1225 22.964 12.0744 23.1395C12.6034 22.7917 13.1379 22.4522 13.6775 22.1211C15.2604 21.0976 16.9766 20.307 18.5949 19.3426C18.0464 19.2372 17.4929 19.3654 16.9563 19.4743ZM15.4679 19.6784C14.5854 19.9872 13.7804 20.5281 13.1932 21.2571C13.5847 20.9972 13.9593 20.7095 14.3559 20.4555C14.9279 20.0944 15.5009 19.6869 16.191 19.5924C15.948 19.6017 15.6974 19.5898 15.4679 19.6784ZM16.2231 20.7998C14.7584 21.5338 13.3974 22.4493 12.0077 23.3108C11.9444 23.5681 11.9149 23.8322 11.9023 24.0963C12.3602 24.0175 12.826 23.9949 13.2894 24.0288C13.5729 24.0313 13.7197 24.3326 13.7931 24.5663C14.0057 25.3552 14.2049 26.1863 14.0564 27.0047C13.8614 27.3895 13.3155 27.16 12.9764 27.2536C13.4033 27.5765 13.8913 27.8095 14.4107 27.9388C14.6774 27.9961 14.9642 28.1328 15.2325 28.0063C16.2434 27.6148 17.2626 27.2384 18.2464 26.7828C18.805 26.5179 19.1661 25.9948 19.5374 25.5239C20.1719 24.6296 20.9346 23.7327 22.0273 23.4078C21.656 22.7885 21.3269 22.1295 21.2122 21.4081C20.5473 21.0841 19.8858 20.7492 19.2631 20.3458C18.9265 20.1383 18.6261 19.8742 18.2785 19.6818C17.5773 20.0218 16.9226 20.4513 16.2231 20.7998V20.7998ZM19.8242 25.3341C19.3889 25.8927 18.9906 26.5356 18.3392 26.8647C17.3318 27.3523 16.2687 27.7084 15.2368 28.1396C16.1446 28.3286 17.0778 28.4079 18.0009 28.31C18.5851 28.2298 19.1762 28.2114 19.7643 28.2552C21.127 28.407 22.4846 28.6137 23.8219 28.9133C25.0369 29.163 26.1886 29.6532 27.418 29.8473C26.5995 28.8913 25.8613 27.8653 24.9644 26.9786C23.9493 25.8876 22.914 24.7941 22.1251 23.5234C21.1295 23.7563 20.403 24.5393 19.8242 25.3341V25.3341ZM11.5816 24.244C11.2754 24.3343 10.9589 24.4085 10.6822 24.5713C9.52626 25.3442 8.90273 26.8453 9.2301 28.202C9.27904 28.4197 9.49842 28.5285 9.69501 28.4028C10.6366 27.9236 11.5749 27.3853 12.6262 27.1861C13.0405 27.0984 13.4666 27.111 13.8876 27.095C14.0471 26.6959 13.9981 26.2605 13.9661 25.8429C13.8614 25.4202 13.8083 24.9839 13.6708 24.5705C13.6075 24.3942 13.5079 24.1782 13.3046 24.1385C12.7274 24.0761 12.152 24.1756 11.5816 24.244V24.244ZM34.7848 27.3785C34.751 27.5152 34.9501 27.6831 35.0826 27.6316C35.1197 27.4907 34.9172 27.3287 34.7856 27.3785H34.7848ZM23.7899 29.0829C23.5705 29.3866 23.4009 29.7216 23.1933 30.0321C21.4653 29.9089 19.9516 31.0513 18.8986 32.3085C19.0539 32.2554 19.215 32.2022 19.3374 32.0858C19.82 31.6766 20.3153 31.2699 20.8916 30.9973C21.3725 30.8556 21.8534 30.7037 22.3555 30.6582C22.3029 30.7351 22.2372 30.8022 22.1614 30.8564C21.4172 31.2851 20.6089 31.631 19.971 32.2191C20.16 32.1853 20.3609 32.1668 20.5313 32.0672C21.2012 31.7044 21.8779 31.35 22.5951 31.091C22.9984 30.9619 23.4135 30.8784 23.8337 30.8218C24.1544 30.8598 24.4733 30.9096 24.7855 30.9973C25.1145 31.1374 25.4335 31.3011 25.7769 31.4049C25.4428 30.9214 24.8547 30.7366 24.4184 30.3671C24.3771 29.9545 24.6361 29.6187 24.8589 29.3006C24.5079 29.2221 24.1527 29.0474 23.7899 29.0829ZM27.8669 30.6337C27.8386 30.7285 27.8121 30.8239 27.7875 30.9197C27.7082 31.1602 27.6323 31.4015 27.5462 31.6394C25.83 31.755 24.2455 32.576 22.9014 33.6045C23.017 33.6079 23.2499 33.618 23.3671 33.6223C24.2868 32.9304 25.3263 32.2613 26.5202 32.263C25.7246 32.776 24.799 33.0772 24.0649 33.6948C24.3054 33.6948 24.5543 33.6864 24.7661 33.5564C25.7744 33.0333 26.8282 32.5507 27.9622 32.3862C28.665 32.3271 29.3451 32.5557 30.0404 32.6055C29.6252 32.2765 29.146 32.0411 28.6515 31.8571C28.7519 31.4698 28.9131 31.102 29.0177 30.7155C28.6878 30.5502 28.3571 30.3865 28.0305 30.2152C27.974 30.3536 27.9217 30.4936 27.8669 30.6337V30.6337ZM33.9165 32.9962C34.1064 33.6197 34.3637 34.2196 34.589 34.8305C35.1661 36.3762 35.9373 37.8402 36.7549 39.2712C38.2121 41.8024 39.757 44.283 41.3466 46.7333C41.7474 46.0524 42.2924 45.4508 42.6375 44.7437C41.6537 43.1549 40.6041 41.605 39.6059 40.0238C39.3368 39.5825 39.0044 39.1758 38.7943 38.6999C39.1503 38.9176 39.3528 39.2973 39.6296 39.5994C40.8007 40.9916 41.9246 42.4243 43.1244 43.7937C43.4509 43.0478 43.9411 42.3837 44.2584 41.6353C42.6215 39.958 40.9762 38.2797 39.4828 36.4716C38.6154 35.4 37.7328 34.3065 37.1911 33.0291C37.1127 33.348 37.0367 33.6687 36.9481 33.9859C35.9154 33.7277 34.9122 33.3725 33.9174 32.997L33.9165 32.9962Z" fill="#000100"/>
<path d="M28.4237 18.7225C28.5604 18.6398 28.6979 18.5571 28.8329 18.4693C29.0371 18.6162 29.2413 18.763 29.459 18.8912C29.6252 18.7815 29.788 18.6643 29.9543 18.5529L30.1534 18.5596L30.4369 18.8043C30.2538 18.903 30.0741 19.0068 29.8927 19.1064C29.8986 19.1604 29.9062 19.2152 29.9155 19.2692C30.0732 19.362 30.2268 19.4624 30.3837 19.5578L30.366 19.6641C30.2319 19.7156 30.1045 19.7831 29.9661 19.8193C29.8488 19.751 29.7484 19.6607 29.6455 19.5755C29.4354 19.3958 29.2067 19.5502 29.0152 19.67L28.827 19.8143C28.6811 19.7248 28.5359 19.6354 28.3832 19.5628C28.595 19.4321 28.8051 19.2962 29.0194 19.1671C28.8296 19.0068 28.6262 18.8651 28.4237 18.7225V18.7225ZM14.2335 23.0256C14.6655 22.0502 15.6924 21.3727 16.7614 21.3693C17.9426 21.3018 19.0345 21.8857 19.9592 22.5598C19.2893 23.2408 18.643 23.9858 17.7773 24.4262C17.0263 24.7747 16.1725 25.1206 15.3363 24.9072C14.8705 24.7418 14.3027 24.6169 14.0268 24.1697C13.9247 23.7816 14.08 23.3791 14.2335 23.0256ZM15.0823 22.116C14.4959 22.5717 14.2048 23.2914 14.0783 24.0027C14.2107 24.2836 14.4748 24.4566 14.7566 24.5654C15.187 24.7317 15.6426 24.9384 16.1168 24.8413C16.846 24.7211 17.5429 24.4529 18.1645 24.0533C18.767 23.6339 19.2631 23.088 19.7744 22.57C18.902 21.9625 17.903 21.4798 16.8196 21.4545L16.8702 21.7161L16.9099 21.5727C17.4102 21.7456 17.8954 22.0848 18.0473 22.6172C18.3552 23.4643 17.6549 24.4482 16.7648 24.4887C15.905 24.5781 15.1195 23.7841 15.2005 22.9303C15.7278 22.5168 16.153 21.9793 16.7226 21.6208L16.5386 21.479C16.0147 21.5836 15.4975 21.7693 15.0823 22.116V22.116ZM15.4038 23.0096C15.3852 23.1598 15.4131 23.3108 15.4232 23.461C15.5059 23.137 15.6595 22.7725 16.0197 22.6805C16.6129 22.4628 17.26 23.2045 16.9166 23.7538C16.7681 24.0946 16.3775 24.1739 16.0417 24.1604C16.3623 24.26 16.7065 24.3756 17.0381 24.2457C17.703 24.0592 18.124 23.25 17.8473 22.6088C17.6853 22.1422 17.2373 21.8494 16.7673 21.7617C16.3201 22.1852 15.8451 22.5809 15.4038 23.0096V23.0096Z" fill="#000100"/>
<path d="M28.4431 14.9821L28.8962 15.2555C28.5784 15.8063 28.1683 16.2983 27.6837 16.7101C27.5619 16.5724 27.4417 16.4332 27.3234 16.2925C27.758 15.9119 28.1317 15.4681 28.4431 14.9821V14.9821ZM15.0832 22.116C15.4966 21.7692 16.0138 21.5836 16.5386 21.479L16.7226 21.6207C16.153 21.9793 15.7278 22.5168 15.2004 22.9302C15.1194 23.7841 15.905 24.5781 16.7639 24.4886C17.6549 24.4481 18.3544 23.4643 18.0464 22.6172C17.8945 22.0856 17.4102 21.7456 16.9099 21.5718L16.8702 21.7169C16.8529 21.6295 16.836 21.5421 16.8196 21.4545C17.903 21.4798 18.902 21.9625 19.7744 22.57C19.2631 23.088 18.7661 23.6339 18.1645 24.0533C17.5428 24.4529 16.846 24.7211 16.1167 24.8413C15.6434 24.9375 15.1869 24.7316 14.7566 24.5646C14.474 24.4566 14.2107 24.2828 14.0782 24.0026C14.2048 23.2914 14.4959 22.5716 15.0823 22.116H15.0832ZM19.8242 25.3349C20.4022 24.5401 21.1286 23.7571 22.1251 23.5234C22.9148 24.7949 23.9484 25.8884 24.9643 26.9786C25.8612 27.8653 26.5995 28.8913 27.4179 29.8473C26.1886 29.6532 25.0369 29.163 23.8219 28.9133C22.4826 28.6203 21.1283 28.4006 19.7651 28.2551C19.1767 28.2114 18.5854 28.2297 18.0008 28.31C17.0778 28.4079 16.1446 28.3286 15.2367 28.1404C16.2686 27.7084 17.3317 27.3523 18.3383 26.8655C18.9906 26.5356 19.3888 25.8926 19.8233 25.3349H19.8242Z" fill="#FF5A00"/>
<path d="M22.2567 17.1219C24.437 16.5245 26.7775 16.7 28.9156 17.3809C29.0641 17.4265 29.1907 17.5167 29.3164 17.607C29.062 17.5817 28.8101 17.5363 28.5629 17.4712C26.8999 17.0679 25.0959 17.2231 23.5468 17.9597C22.5056 18.471 21.6408 19.3713 21.2906 20.4876C20.3077 20.3745 19.3365 20.0666 18.4978 19.5367C18.7172 19.4245 19.0252 19.4768 19.1846 19.2566C19.4015 19.0034 19.577 18.7174 19.8098 18.4761C20.4519 17.7758 21.3505 17.3657 22.2567 17.1227V17.1219ZM15.4679 19.6784C15.6974 19.5898 15.9488 19.6025 16.191 19.5924C15.5008 19.686 14.9279 20.0944 14.3558 20.4555C13.9593 20.7087 13.5847 20.9972 13.1932 21.2571C13.7796 20.5281 14.5853 19.9872 15.4679 19.6776V19.6784ZM16.2231 20.7998C16.9225 20.4513 17.5764 20.0218 18.2784 19.6818C18.6261 19.8742 18.9264 20.1383 19.2639 20.3458C19.8849 20.7492 20.5473 21.0841 21.213 21.409C21.3261 22.1287 21.656 22.7885 22.0272 23.4078C20.9346 23.7327 20.171 24.6296 19.5365 25.5239C19.1669 25.9947 18.8049 26.5179 18.2464 26.782C17.2626 27.2376 16.2433 27.6147 15.2325 28.0062C14.9642 28.1328 14.6773 27.9961 14.4107 27.9387C13.8912 27.8095 13.4033 27.5765 12.9763 27.2536C13.3155 27.16 13.8606 27.3886 14.0563 27.0039C14.2048 26.1854 14.0057 25.3552 13.7931 24.5654C13.7197 24.3317 13.5728 24.0313 13.2893 24.0288C12.8259 23.9949 12.3601 24.0175 11.9022 24.0963C11.914 23.8322 11.9444 23.5681 12.0077 23.3116C13.3973 22.4493 14.7583 21.533 16.2231 20.7998ZM14.2327 23.0256C14.0791 23.38 13.9238 23.7816 14.0268 24.1697C14.3027 24.6169 14.8705 24.7418 15.3363 24.9072C16.1716 25.1206 17.0263 24.7747 17.7773 24.4262C18.6421 23.9849 19.2893 23.2407 19.96 22.5598C19.0336 21.8857 17.9435 21.3027 16.7614 21.3693C15.6923 21.3727 14.6655 22.0502 14.2327 23.0256ZM33.9089 29.347C34.643 29.7098 35.3737 30.0979 36.0124 30.6143C36.2343 30.7788 36.2993 31.0589 36.3836 31.3045C36.4393 31.4935 36.4849 31.6842 36.538 31.8748L36.3718 31.7103C35.604 30.8683 34.7434 30.119 33.9081 29.347H33.9089ZM33.9173 32.9962C34.9113 33.3717 35.9153 33.7269 36.9481 33.9859C37.0367 33.6678 37.1126 33.348 37.1911 33.0282C37.7328 34.3057 38.6153 35.3992 39.4827 36.4707C40.9762 38.2797 42.6215 39.958 44.2583 41.6345C43.9403 42.3829 43.4509 43.0478 43.1243 43.7937C41.9254 42.4234 40.8007 40.9907 39.6287 39.5985C39.3528 39.2973 39.1503 38.9176 38.7934 38.6999C39.0043 39.175 39.3368 39.5817 39.6059 40.0238C40.6032 41.6041 41.6537 43.1541 42.6383 44.7429C42.2924 45.4499 41.7473 46.0515 41.3474 46.7333C39.7569 44.283 38.212 41.8016 36.7549 39.2712C35.9373 37.8402 35.1661 36.3754 34.5881 34.8305C34.3645 34.2188 34.1063 33.6189 33.9173 32.9962V32.9962Z" fill="#0000FF"/>
<path d="M23.6396 18.0559C25.3284 17.2697 27.2524 17.1533 29.0236 17.7302C27.7791 18.7419 26.408 19.6219 24.9019 20.1948C24.286 20.4209 23.6371 20.5602 22.9824 20.615C22.4567 20.658 21.9344 20.5678 21.413 20.5197C21.7716 19.4329 22.6069 18.5394 23.6405 18.0559H23.6396ZM29.7104 17.7066C30.0926 17.7606 30.4276 17.9538 30.6993 18.2247C30.334 18.1293 29.9635 18.0019 29.7104 17.7066ZM30.7263 18.4305C31.9354 18.9874 32.915 19.9189 33.8566 20.8352C35.4471 22.4738 36.8334 24.4093 37.4434 26.6335C36.76 26.2259 36.0824 25.7813 35.2977 25.5948C35.3956 25.7138 35.5002 25.8285 35.6276 25.9205C36.2866 26.3964 36.949 26.8756 37.5311 27.4452C37.5531 28.0442 37.5607 28.6441 37.5413 29.244C36.6241 28.3159 35.5922 27.381 34.2743 27.1009C34.3536 27.1996 34.4337 27.2983 34.5257 27.3878C35.5559 28.2771 36.6536 29.1116 37.5303 30.1603C37.3801 30.6894 37.4856 31.2471 37.3413 31.7761C36.312 30.5139 34.9452 29.5702 33.4001 29.055C33.6465 29.3816 33.995 29.6043 34.2945 29.8768C35.2901 30.7552 36.2385 31.6918 37.084 32.7169C37.0527 33.0966 36.9667 33.4704 36.8595 33.8357C33.7942 33.0561 31.0106 31.5238 28.174 30.1738C27.9267 30.0557 27.666 29.9418 27.4812 29.7309C26.7168 28.8618 26.0401 27.9168 25.2326 27.0857C24.3239 26.1407 23.4338 25.1721 22.6567 24.114C22.072 23.3142 21.5682 22.435 21.3379 21.463C22.0804 21.7127 22.8558 21.9523 23.6498 21.8663C25.4259 21.6748 27.126 21.1044 28.8304 20.6007C29.9036 20.2421 30.9836 19.902 32.0434 19.5038C31.6114 19.1376 31.1355 18.8246 30.7271 18.4305H30.7263Z" fill="#000080"/>
<path d="M34.7848 27.3794C34.9172 27.3287 35.1197 27.4907 35.0826 27.6325C34.9501 27.6831 34.7519 27.5152 34.7856 27.3794H34.7848ZM36.3837 31.3053L36.4377 31.2091L36.4714 31.1518L36.5136 31.3062C36.5828 31.5762 36.6494 31.8479 36.7161 32.1204C36.5988 31.9829 36.49 31.8453 36.3719 31.7112L36.5381 31.8749C36.4849 31.6833 36.4394 31.4935 36.3837 31.3053V31.3053Z" fill="#000080"/>
<path d="M15.4038 23.0096C15.8451 22.5809 16.3193 22.1852 16.7665 21.7617C17.2365 21.8503 17.6853 22.1422 17.8465 22.6079C18.1241 23.2492 17.703 24.0592 17.0382 24.2457C16.7066 24.3756 16.3615 24.26 16.0417 24.1604C16.3775 24.1739 16.7673 24.0946 16.9167 23.7538C17.2592 23.2053 16.6129 22.4628 16.0198 22.6805C15.6603 22.7733 15.5051 23.137 15.4224 23.461C15.414 23.3108 15.3853 23.1598 15.4038 23.0096V23.0096ZM11.5816 24.244C12.152 24.1756 12.7266 24.0752 13.3046 24.1385C13.5071 24.1782 13.6083 24.3942 13.6708 24.5713C13.8083 24.9848 13.8615 25.4202 13.9661 25.8429C13.9981 26.2614 14.0462 26.6959 13.8876 27.095C13.4657 27.1119 13.0405 27.0992 12.6262 27.1861C11.5749 27.3853 10.6366 27.9236 9.69502 28.4028C9.49843 28.5294 9.27905 28.4197 9.23011 28.202C8.90274 26.8453 9.52627 25.3442 10.6814 24.5722C10.9598 24.4085 11.2754 24.3343 11.5816 24.244V24.244ZM23.7899 29.0829C24.1527 29.0474 24.507 29.2221 24.8589 29.3006C24.6361 29.6187 24.378 29.9553 24.4176 30.3671C24.8547 30.7366 25.4428 30.9214 25.7769 31.4049C25.4335 31.3011 25.1137 31.1374 24.7855 30.9973C24.4734 30.9136 24.1552 30.8549 23.8337 30.8218C23.4135 30.8784 22.9984 30.9619 22.5951 31.091C21.8779 31.3509 21.2012 31.7052 20.5313 32.0672C20.3609 32.1676 20.16 32.1853 19.971 32.2191C20.6089 31.631 21.4172 31.2851 22.1614 30.8564C22.2373 30.8023 22.303 30.7351 22.3555 30.6582C21.8543 30.7037 21.3717 30.8556 20.8916 30.9965C20.3153 31.2699 19.82 31.6766 19.3374 32.0849C19.215 32.2022 19.0539 32.2554 18.8986 32.3085C19.9516 31.0513 21.4653 29.9089 23.1933 30.0321C23.4009 29.7216 23.5705 29.3866 23.7899 29.0829V29.0829ZM27.8669 30.6337C27.9217 30.4936 27.974 30.3544 28.0314 30.2152C28.3571 30.3865 28.6878 30.5502 29.0169 30.7155C28.914 31.102 28.752 31.4698 28.6515 31.8571C29.146 32.0411 29.6252 32.2773 30.0404 32.6055C29.3451 32.5558 28.665 32.3271 27.9622 32.3862C26.8282 32.5507 25.7744 33.0333 24.7661 33.5564C24.5551 33.6864 24.3045 33.6948 24.0649 33.6948C24.799 33.0772 25.7246 32.776 26.5202 32.263C25.3255 32.2613 24.2868 32.9295 23.3663 33.6223C23.2116 33.6159 23.0569 33.61 22.9022 33.6045C24.2455 32.5768 25.83 31.755 27.5462 31.6386C27.6323 31.4015 27.7082 31.1602 27.7867 30.9197C27.812 30.8235 27.839 30.729 27.8669 30.6337V30.6337Z" fill="#FFFF00"/>
</svg>
