<?xml version="1.0" standalone="no"?><!DOCTYPE svg PUBLIC "-//W3C//DTD SVG 1.1//EN" "http://www.w3.org/Graphics/SVG/1.1/DTD/svg11.dtd"><svg t="1684428386869" class="icon" viewBox="0 0 1024 1024" version="1.1" xmlns="http://www.w3.org/2000/svg" p-id="3239" xmlns:xlink="http://www.w3.org/1999/xlink" width="256" height="256"><path d="M851.81629667 75.09333333a97.09036999 97.09036999 0 0 1 97.09037 97.09037v679.63259334a97.09036999 97.09036999 0 0 1-97.09037 97.09037H172.18370333a97.09036999 97.09036999 0 0 1-97.09037-97.09037V172.18370333a97.09036999 97.09036999 0 0 1 97.09037-97.09037h679.63259334zM158.54250667 232.86518557H147.91111111v60.00184888h10.63139556c309.13573888 0 560.69688889 248.69698333 560.69688888 554.38601444v10.63139556H778.9985189v-10.67994112c0-338.74830222-278.35809223-614.3393189-620.45601223-614.33931776z m234.76451555-48.54518557L378.50074112 235.87498667l10.24303331 2.91271111c195.20019001 56.11823445 350.78750777 216.41443555 396.3714378 408.45918777l2.42725888 10.38867 52.13752889-12.42756778-2.42725888-10.38866887c-50.00154112-210.54046777-220.24950557-386.22549333-433.70268445-447.58660779l-10.24303445-2.91271111z m227.87109888-18.20444445l-24.22404665 40.04977778 9.02940445 5.53415112c97.47873223 59.56494222 176.85011001 148.54826667 223.30785109 250.49315555l1.60199111 3.39816334 7.81577557 3.93216 37.37979222-17.28208668-4.36906667-9.66049109c-50.38990222-110.34320555-136.16924445-206.60830777-241.51229667-270.97922447l-9.02940445-5.48560555z" fill="#4C9BD6" p-id="3240"></path></svg>