<?xml version="1.0" standalone="no"?><!DOCTYPE svg PUBLIC "-//W3C//DTD SVG 1.1//EN" "http://www.w3.org/Graphics/SVG/1.1/DTD/svg11.dtd"><svg t="1681962782741" class="icon" viewBox="0 0 1024 1024" version="1.1" xmlns="http://www.w3.org/2000/svg" p-id="8776" xmlns:xlink="http://www.w3.org/1999/xlink" width="256" height="256"><path d="M844 1024H180c-99.4 0-180-80.6-180-180V180C0 80.6 80.6 0 180 0h664c99.4 0 180 80.6 180 180v664c0 99.4-80.6 180-180 180z" fill="#F17520" p-id="8777"></path><path d="M860.2 468.4c-1.4-12.8-3.4-27.6-7.4-43.8s-10.8-33.8-19.6-52.6c-9.4-18.2-20.8-37.8-36.4-56-6-7.4-12.8-14.2-19.6-21.6 10.8-42.4-12.8-79.6-12.8-79.6-41.2-2.6-66.8 12.8-76.2 19.6-1.4-0.6-3.4-1.4-4.8-2-7.2-2.8-14.4-5.4-21.6-8-7.4-2-14.8-4.8-22.2-6-7.4-2-15.6-3.4-23.6-4.8-1.4 0-2.6-0.6-4-0.6-17.4-56.8-68.6-81-68.6-81-58.6 37.8-70.2 88.4-70.2 88.4s0 1.4-0.6 2.6c-3.4 0.6-6 2-9.4 2.6-4 1.4-8.8 2.6-12.8 4.8s-8.8 3.4-12.8 5.4c-8.8 4-16.8 8-25.6 12.8-9.2 5.2-17 10.2-24.4 15.4l0.8-0.6c-1.4-0.6-2-1.4-2-1.4-79-30.4-149 6-149 6-6 84.2 31.8 136.8 39.2 146.4-2 5.4-3.4 10-5.4 15.6-6 18.6-10.2 37.6-12.6 57l-0.2 1.8c-0.6 2.6-0.6 6-1.4 8.8-72.8 35.8-94.4 110-94.4 110 60.6 70.2 132.2 74.2 132.2 74.2 9.6 17.4 20 32.4 31.4 46.4l-0.4-0.6c4.8 6 10 11.4 15.6 17.6-22.2 63.4 3.4 116.6 3.4 116.6 68.2 2.6 112.6-29.6 122-37l20.2 6c20.8 5.4 42.4 8.8 63.4 9.4H578c31.8 45.8 88.4 52 88.4 52 39.8-42.4 42.4-83.6 42.4-93v-4c8-6 16.2-12.2 24.2-18.8 16.2-14.2 29.6-31 41.8-48.6 1.4-1.4 2-3.4 3.4-4.8 45.2 2.6 76.8-28.4 76.8-28.4-7.4-47.2-34.4-70.2-39.8-74.2l-2-2c0-2.6 0.6-5.4 0.6-8.8 0.6-5.4 0.6-10 0.6-15.6v-19.6c0-1.4 0-2.6-0.6-4l-1.4-8c-0.6-5.4-2-10-2.6-15.6-4.8-20.2-12.6-39.6-23.4-57.6l0.4 1c-10.6-17-23.4-32.4-38.2-45.6l-0.2-0.2c-14.2-12.6-30.2-22.8-47.4-30.6l-1.2-0.4c-16.6-7.8-34.2-12.8-52.4-14.8h-0.8c-8.8-1.4-18.2-1.4-27-1.4H606c-4.8 0.6-9.4 1.4-13.4 2-18.2 3.4-35 10-49.8 18.8s-27.6 20.2-38.4 33c-10.2 12-18.4 25.6-24 40.2l-0.4 0.8c-5.4 14-8.6 28.8-9.4 43.8v16.2c0 2 0 3.4 0.6 5.4 2.2 21.8 10.2 41.4 22.4 57.6l-0.2-0.2c8 10.8 16.8 18.8 27 25.6 10 6.8 20.2 11.4 31 14.8s20.8 4.8 30.4 4h14.2c1.4 0 2.6-0.6 3.4-0.6 1.4 0 2-0.6 3.4-0.6 2-0.6 4.8-1.4 6.8-2 4-1.4 8-3.4 12.2-4.8 4-2 7.4-4 10-6 0.6-0.6 2-1.4 2.6-2 3.4-2.4 4-7.2 1.6-10.6l-0.2-0.2c-2.6-2.6-6.6-3.4-10.2-2-0.6 0.6-1.4 0.6-2.6 1.4-2.6 1.4-5.6 2.4-8.4 3.2h-0.4c-3.4 0.6-6.8 2-10 2.6-2 0-3.4 0.6-5.4 0.6h-11.4s-0.6 0 0 0h-2.8c-0.6 0-2 0-2.6-0.6-7.4-1.4-15.6-3.4-23-6.8s-14.8-8-20.8-14.2c-6.8-6-12.2-12.8-16.8-20.8-4.8-8-7.4-16.8-8.8-25.6-0.6-4.8-1.4-9.4-0.6-14.2v-4c0 0.6 0 0 0 0v-3.4c0-2.6 0.6-4.8 1.4-7.4 3.6-20.8 13.8-40 29-54.6 4-4 8-7.4 12.8-10 4.8-3.4 9.4-6 14.2-8s10-4 15.6-5.4c5.4-1.4 10.8-2.6 16.2-2.6 2.6 0 5.4-0.6 8-0.6h5.4c0.6 0 0 0 0 0h2.6c18.2 1.6 36 7 52 15.8l-0.6-0.4c21.6 12.2 39.8 30.4 50.6 52.6 5.4 10.8 9.4 23 11.4 35.8 0.6 3.4 0.6 6 1.4 9.4v17.6c0 3.4-0.6 6.8-0.6 10-0.6 3.4-0.6 6.8-1.4 10l-2 10c-0.6 3.4-4 12.8-6 19.6s-11.4 25-19.6 35.8c-16.2 22-37.6 39.8-62.4 51.6l-1 0.4c-12.8 5.4-25.6 10-39.2 12.2-6 1.2-13 2-20.2 2h-10c0.6 0 0 0 0 0h-0.6c-3.4 0-7.4 0-10.8-0.6-14.8-1.4-29-4-43.2-8s-27.6-9.4-40.4-16.2c-25.6-13.8-48-32.4-66.4-54.8l-0.4-0.4c-8.8-11.4-16.8-23.6-23.6-36.4-6.8-12.8-11.4-26.4-15.6-39.8-4-13.4-6.2-27.4-6.8-41.4v-21.2c0-6.8 0.6-14.2 2-21.6 0.6-7.4 2-14.2 3.4-21.6s3.4-14.2 5.4-21.6 8.8-27.6 14.8-40.4c12.2-25.6 27.6-48.6 45.8-66.8 4.8-4.8 9.4-8.8 14.8-12.8 2-2 6.8-6 12.2-9.4 5.4-3.4 10.8-6.8 16.8-9.4 2.6-1.4 5.4-2.6 8.8-4 1.4-0.6 2.6-1.4 4.8-2 1.4-0.6 2.6-1.4 4.8-2 6-2.6 12.2-4.8 18.2-6.8 1.4-0.6 3.4-0.6 4.8-1.4 1.4-0.6 3.4-0.6 4.8-1.4 1.4-0.6 6-1.4 9.4-2.6 1.4-0.6 3.4-0.6 4.8-1.4 1.4 0 3.4-0.6 4.8-0.6s3.4-0.6 4.8-0.6l5.4-1.4c1.4 0 3.4-0.6 4.8-0.6 2 0 3.4-0.6 5.4-0.6 1.4 0 4-0.6 5.4-0.6s2 0 3.4-0.6h4.8c2 0 3.4 0 5.4-0.6h2.6s0.6 0 0 0h25c12.2 0.6 24.2 2 35.8 4 23 4 45.2 11.4 66 22.2l-1.2-0.6c20 9.8 37.4 21.2 53 34.6l-0.4-0.2c0.6 0.6 2 1.4 2.6 2.6 0.6 0.6 2 1.4 2.6 2.6 2 1.4 3.4 3.4 5.4 4.8s3.4 3.4 5.4 4.8c1.4 2 3.4 3.4 4.8 5.4 17.6 18 32.4 38.8 43.8 61.2l0.6 1.4c0.6 0.6 0.6 1.4 1.4 2.6 0.6 0.6 0.6 1.4 1.4 2.6 0.6 1.4 1.4 3.4 2.6 4.8 0.6 1.4 1.4 3.4 2 4.8s1.4 3.4 2 4.8c2.6 6 4.8 12.2 6.8 18.2 3.4 9.4 5.4 17.6 7.4 24.2 0.8 2.8 3.2 4.6 6 4.8 3.4 0 5.4-2.6 5.4-6-1.6-9-1.6-17.6-2.4-28z" fill="#FFFFFF" p-id="8778"></path></svg>