<svg width="54" height="54" viewBox="0 0 54 54" fill="none" xmlns="http://www.w3.org/2000/svg">
<rect width="54" height="54" rx="8" fill="white"/>
<mask id="mask0_417_6152" style="mask-type:alpha" maskUnits="userSpaceOnUse" x="0" y="0" width="54" height="54">
<rect width="54" height="54" rx="8" fill="white"/>
</mask>
<g mask="url(#mask0_417_6152)">
</g>
<g clip-path="url(#clip0_417_6152)">
<path d="M36.0388 38.8786H18.668C18.5838 38.878 18.5007 38.8591 18.4245 38.8232C18.3484 38.7874 18.2809 38.7353 18.2269 38.6707C18.1729 38.6061 18.1336 38.5305 18.1117 38.4492C18.0898 38.3679 18.0859 38.2828 18.1003 38.1998L19.0691 32.6954H36.9212C37.0059 32.6951 37.0897 32.7133 37.1666 32.7489C37.2435 32.7844 37.3118 32.8363 37.3664 32.901C37.4212 32.9657 37.461 33.0416 37.4833 33.1234C37.5055 33.2051 37.5095 33.2907 37.4951 33.3742L36.6065 38.4219C36.5783 38.5515 36.5065 38.6675 36.4032 38.7505C36.2999 38.8337 36.1713 38.8788 36.0388 38.8786Z" fill="url(#paint0_linear_417_6152)"/>
<path d="M39.3035 20.3354H21.2539L22.2721 14.6335C22.2942 14.4995 22.3637 14.3779 22.4678 14.2907C22.572 14.2035 22.704 14.1566 22.8398 14.1584H40.1674C40.2519 14.1579 40.3356 14.176 40.4123 14.2116C40.489 14.2471 40.5568 14.2992 40.6111 14.3641C40.6653 14.4289 40.7046 14.505 40.726 14.5867C40.7475 14.6685 40.7505 14.754 40.7351 14.8372L39.8527 19.8602C39.8289 19.9901 39.7615 20.108 39.6616 20.1944C39.5618 20.2808 39.4354 20.3305 39.3035 20.3354Z" fill="url(#paint1_linear_417_6152)"/>
<path d="M20.1611 26.5185H13.9902L15.0023 20.8167C15.0243 20.6821 15.0935 20.5597 15.1975 20.4715C15.3015 20.3833 15.4336 20.335 15.57 20.3353H21.2656L20.1611 26.5185Z" fill="#0064FF"/>
<path d="M25.8516 26.5185H20.1621L21.2482 20.3477H27.419L26.4131 26.0495C26.3876 26.1802 26.3179 26.2983 26.2156 26.3837C26.1134 26.4691 25.9848 26.5167 25.8516 26.5185Z" fill="#00C7F8"/>
<path d="M19.0694 32.6955H13.5774C13.4928 32.6961 13.4092 32.6779 13.3325 32.6423C13.2558 32.6068 13.1879 32.5547 13.1337 32.4899C13.0794 32.425 13.0402 32.349 13.0187 32.2671C12.9973 32.1854 12.9942 32.0999 13.0097 32.0167L13.9785 26.5186H20.1493L19.0694 32.6955Z" fill="#00C7F8"/>
</g>
<defs>
<linearGradient id="paint0_linear_417_6152" x1="16.718" y1="35.787" x2="39.0316" y2="35.787" gradientUnits="userSpaceOnUse">
<stop stop-color="#FFA000"/>
<stop offset="0.5" stop-color="#FFB700"/>
<stop offset="1" stop-color="#FFD300"/>
</linearGradient>
<linearGradient id="paint1_linear_417_6152" x1="21.2539" y1="17.25" x2="40.7721" y2="17.25" gradientUnits="userSpaceOnUse">
<stop offset="0.04" stop-color="#0064FF"/>
<stop offset="0.29" stop-color="#006DFF"/>
<stop offset="0.7" stop-color="#0085FF"/>
<stop offset="1" stop-color="#009BFF"/>
</linearGradient>
<clipPath id="clip0_417_6152">
<rect width="28" height="35" fill="white" transform="translate(13 9)"/>
</clipPath>
</defs>
</svg>
