<?xml version="1.0" standalone="no"?><!DOCTYPE svg PUBLIC "-//W3C//DTD SVG 1.1//EN" "http://www.w3.org/Graphics/SVG/1.1/DTD/svg11.dtd"><svg t="1681962549959" class="icon" viewBox="0 0 1024 1024" version="1.1" xmlns="http://www.w3.org/2000/svg" p-id="2810" xmlns:xlink="http://www.w3.org/1999/xlink" width="256" height="256"><path d="M908.67325 905.074C826.08425 988.344 704.65525 1024 512.30025 1024c-189.128 0-313.771-35.655-396.345-118.926C33.36625 821.803-5.40375 687.474 0.61225 508.074c-4.58-189.51 32.754-313.742 115.343-396.998C198.54325 27.804 327.48225 0 512.01525 0c181.248 0 314.07 27.804 396.658 111.076 82.588 83.27 115.342 214.286 115.342 396.999 0 178.801-32.754 313.728-115.342 396.999z" fill="#5CB4FF" p-id="2811"></path><path d="M235.13625 668.245c-6.214 10.14-13.197 21.903-19.114 31.26a19.115 19.115 0 0 0 6.4 25.999l124.274 76.473a19.115 19.115 0 0 0 26.468-6.5c4.977-8.32 11.377-19.114 18.346-30.677 49.238-81.266 98.76-71.324 188.046-28.686l123.208 58.595a19.115 19.115 0 0 0 25.728-9.557l59.164-133.831a19.115 19.115 0 0 0-9.557-25.031 15014.969 15014.969 0 0 1-124.274-59.08c-167.481-81.35-309.817-76.088-418.702 101.035z" fill="#DBEFFF" p-id="2812"></path><path d="M792.33625 364.544c6.214-10.126 13.197-21.888 19.128-31.246a19.115 19.115 0 0 0-6.4-26.013l-124.274-76.473a19.115 19.115 0 0 0-27.25 6.315c-4.977 8.32-11.377 19.115-18.346 30.677-49.238 81.266-98.76 71.325-188.032 28.687L324.32425 238.18a19.115 19.115 0 0 0-25.713 9.557L239.44625 381.568a19.115 19.115 0 0 0 9.543 25.031c26.013 12.245 77.725 36.622 124.274 59.093 167.865 81.252 310.187 75.805 419.072-101.148z" fill="#9ED2FF" p-id="2813"></path></svg>