<svg width="56" height="56" viewBox="0 0 56 56" fill="none" xmlns="http://www.w3.org/2000/svg">
<rect width="56" height="56" fill="#2B937C"/>
<path d="M27.0398 14.2517C25.9969 14.9154 24.859 15.4843 23.7213 16.0532C22.4887 16.7169 21.2561 17.4754 19.8339 18.2339C22.7731 20.1302 25.6175 21.9317 28.6517 23.828C28.0828 24.2073 27.6086 24.3969 27.2294 24.6814C26.7554 24.9657 26.4709 24.9657 25.9969 24.6814C23.6264 23.2591 21.1613 21.8369 18.7909 20.3198C17.748 19.6561 16.9894 19.5613 16.0413 20.225C15.0932 20.8887 14.9983 21.7421 16.0413 22.3109C16.5153 22.5954 16.9894 22.8799 17.4635 23.2591C20.1183 24.871 22.7731 26.4828 25.2383 28.1895C26.8501 29.2324 28.2723 29.2324 29.7894 28.2843C31.2116 27.431 32.6339 26.5776 34.0561 25.7243C34.625 25.4399 35.0991 25.0606 35.7628 24.6814C32.9183 22.8799 30.2635 21.1732 27.5139 19.3718C27.988 18.9924 28.3672 18.8028 28.7465 18.5184C29.2205 18.1391 29.5997 18.1391 30.1687 18.4236C32.539 19.751 34.9094 21.0784 37.2798 22.4058C38.8916 23.2591 38.8916 23.2591 40.1242 21.9317C40.5984 21.3629 40.5035 20.6992 39.8398 20.3198C36.0472 18.2339 32.2546 16.148 28.5568 14.0621C27.8931 13.9672 27.5139 13.9672 27.0398 14.2517Z" fill="white"/>
<path d="M29.6001 30.939C28.2727 31.6027 26.9453 31.6976 25.6179 30.8442C22.489 28.9479 19.455 27.1465 16.326 25.2501C16.0416 25.0606 15.7571 24.8709 15.2831 24.6812C15.2831 25.9138 15.2831 26.9568 15.2831 27.9997C15.2831 28.6634 15.4728 28.9479 15.9468 29.2324C19.2653 31.1287 22.5838 33.1198 25.9023 35.0161C27.0401 35.6798 28.2727 35.6798 29.3156 35.1109C31.4964 33.9731 37.6593 30.1805 39.7453 28.9479C39.9349 28.8531 40.2194 28.5686 40.2194 28.3791C40.2194 27.1465 40.2194 25.9138 40.2194 24.5864C39.8401 24.7761 39.5557 24.9657 39.2712 25.1553C37.4698 26.2931 31.4964 29.9908 29.6001 30.939Z" fill="white"/>
<path d="M31.7806 35.3007C30.8325 35.7747 29.8844 36.3436 28.9363 36.7229C27.8933 37.1969 26.7555 37.1969 25.7125 36.5332C24.8591 35.9643 23.9111 35.4902 23.0577 35.0162C21.5406 34.068 19.9289 33.1199 18.4118 32.1717C17.3688 31.508 16.3259 30.9391 15.0933 30.2754C15.0933 31.6028 15.0933 32.7406 15.0933 33.9732C15.0933 34.1628 15.2829 34.4473 15.4725 34.5421C18.8858 36.628 22.2992 38.6191 25.8073 40.6102C26.9451 41.2739 28.2725 41.2739 29.4103 40.6102C31.4962 39.4725 37.9436 35.585 39.9348 34.4473C40.1243 34.3525 40.314 34.1628 40.314 33.9732C40.314 32.7406 40.314 31.508 40.314 30.2754C40.2192 30.2754 40.0295 30.2754 39.9348 30.3703C38.7969 31.1288 33.108 34.5421 31.7806 35.3007Z" fill="white"/>
<path d="M28.1777 11.4072L13.5762 19.7509H13.4814V35.3953L28.0829 44.308L42.5896 35.3953L42.6844 35.3006V19.7509L28.1777 11.4072ZM42.3052 35.3006L27.9881 44.0235L13.6711 35.3006V20.0354L27.9881 11.7865L42.3052 20.0354V35.3006Z" fill="white"/>
</svg>
