<?xml version="1.0" standalone="no"?><!DOCTYPE svg PUBLIC "-//W3C//DTD SVG 1.1//EN" "http://www.w3.org/Graphics/SVG/1.1/DTD/svg11.dtd"><svg t="1681964430558" class="icon" viewBox="0 0 1024 1024" version="1.1" xmlns="http://www.w3.org/2000/svg" p-id="31824" xmlns:xlink="http://www.w3.org/1999/xlink" width="256" height="256"><path d="M109.397333 0h805.205334c38.037333 0 51.84 3.968 65.749333 11.392 13.909333 7.445333 24.810667 18.346667 32.256 32.256 7.424 13.909333 11.392 27.712 11.392 65.749333v805.205334c0 38.037333-3.968 51.84-11.392 65.749333a77.546667 77.546667 0 0 1-32.256 32.256c-13.909333 7.424-27.712 11.392-65.749333 11.392H109.397333c-38.037333 0-51.84-3.968-65.749333-11.392a77.546667 77.546667 0 0 1-32.256-32.256C3.968 966.442667 0 952.64 0 914.602667V109.397333c0-38.037333 3.968-51.84 11.392-65.749333A77.546667 77.546667 0 0 1 43.648 11.392C57.557333 3.968 71.36 0 109.397333 0z" fill="#8B83FF" p-id="31825"></path><path d="M426.666667 780.074667c-8.597333 6.378667-20.416 6.677333-29.354667 0.725333a24.448 24.448 0 0 1-10.133333-27.008l21.845333-77.333333h-123.946667a50.965333 50.965333 0 0 1-35.626666-14.464A48.896 48.896 0 0 1 234.666667 627.050667V305.408c0-13.098667 5.312-25.664 14.762666-34.944A50.965333 50.965333 0 0 1 285.098667 256h453.802666c13.376 0 26.197333 5.205333 35.669334 14.464 9.450667 9.28 14.762667 21.845333 14.762666 34.944v321.642667c0 13.12-5.312 25.685333-14.762666 34.944a50.965333 50.965333 0 0 1-35.669334 14.464H566.4L426.666667 780.074667zM350.08 384c-10.709333 0-19.413333 9.557333-19.413333 21.333333s8.704 21.333333 19.413333 21.333334h323.84c10.709333 0 19.413333-9.557333 19.413333-21.333334s-8.704-21.333333-19.413333-21.333333H350.08z m1.92 96a21.333333 21.333333 0 0 0 0 42.666667h128a21.333333 21.333333 0 0 0 0-42.666667h-128z" fill="#FFFFFF" p-id="31826"></path></svg>