<?xml version="1.0" standalone="no"?><!DOCTYPE svg PUBLIC "-//W3C//DTD SVG 1.1//EN" "http://www.w3.org/Graphics/SVG/1.1/DTD/svg11.dtd"><svg t="1681964583638" class="icon" viewBox="0 0 1024 1024" version="1.1" xmlns="http://www.w3.org/2000/svg" p-id="50665" xmlns:xlink="http://www.w3.org/1999/xlink" width="256" height="256"><path d="M200 0h624c110.457 0 200 89.543 200 200v624c0 110.457-89.543 200-200 200H200C89.543 1024 0 934.457 0 824V200C0 89.543 89.543 0 200 0z" fill="#318DF8" p-id="50666"></path><path d="M374.154 512c0 84.054 35.268 162.393 96.087 218.023 8.025 7.34 8.58 19.796 1.24 27.821-7.34 8.025-19.796 8.58-27.821 1.24C374.766 696.07 334.77 607.224 334.77 512c0-97.882 79.348-177.23 177.23-177.23 97.882 0 177.23 79.348 177.23 177.23 0 10.876-8.816 19.692-19.692 19.692-10.875 0-19.692-8.816-19.692-19.692 0-76.13-61.716-137.846-137.846-137.846S374.154 435.87 374.154 512z m78.77 0c0 93.32 59.554 175.265 146.434 205 10.289 3.521 15.776 14.718 12.254 25.007-3.522 10.29-14.718 15.776-25.008 12.255C483.914 719.116 413.538 622.283 413.538 512c0-54.38 44.083-98.462 98.462-98.462 54.38 0 98.462 44.083 98.462 98.462 0 32.628 26.449 59.077 59.076 59.077 32.628 0 59.077-26.45 59.077-59.077 0-119.633-96.982-216.615-216.615-216.615-119.633 0-216.615 96.982-216.615 216.615 0 67.214 17.73 131.791 50.896 188.53 5.488 9.389 2.326 21.45-7.063 26.938-9.39 5.489-21.45 2.326-26.939-7.063C275.612 657.676 256 586.247 256 512c0-141.385 114.615-256 256-256s256 114.615 256 256c0 54.38-44.082 98.462-98.462 98.462-54.379 0-98.461-44.083-98.461-98.462 0-32.628-26.45-59.077-59.077-59.077-32.628 0-59.077 26.45-59.077 59.077z m39.384 0c0-10.876 8.816-19.692 19.692-19.692s19.692 8.816 19.692 19.692c0 76.13 61.716 137.846 137.846 137.846 17.876 0 35.246-3.394 51.444-9.914 10.089-4.061 21.56 0.825 25.621 10.915 4.062 10.088-0.825 21.56-10.914 25.62-20.853 8.395-43.215 12.764-66.15 12.764-97.882 0-177.231-79.35-177.231-177.231z" fill="#FFFFFF" p-id="50667"></path></svg>