<?xml version="1.0" standalone="no"?><!DOCTYPE svg PUBLIC "-//W3C//DTD SVG 1.1//EN" "http://www.w3.org/Graphics/SVG/1.1/DTD/svg11.dtd"><svg t="1681964518869" class="icon" viewBox="0 0 1024 1024" version="1.1" xmlns="http://www.w3.org/2000/svg" p-id="43773" xmlns:xlink="http://www.w3.org/1999/xlink" width="256" height="256"><path d="M0 0m204.8 0l614.4 0q204.8 0 204.8 204.8l0 614.4q0 204.8-204.8 204.8l-614.4 0q-204.8 0-204.8-204.8l0-614.4q0-204.8 204.8-204.8Z" fill="#71A8FF" p-id="43774"></path><path d="M819.2 0H534.272A756.48 756.48 0 0 0 0 483.584V819.2a204.8 204.8 0 0 0 204.8 204.8h614.4a204.8 204.8 0 0 0 204.8-204.8V204.8a204.8 204.8 0 0 0-204.8-204.8z" fill="#73A2FF" p-id="43775"></path><path d="M819.2 0h-3.84a755.2 755.2 0 0 0-539.392 1024H819.2a204.8 204.8 0 0 0 204.8-204.8V204.8a204.8 204.8 0 0 0-204.8-204.8z" fill="#739BFF" p-id="43776"></path><path d="M497.152 721.152A752.384 752.384 0 0 0 560.384 1024H819.2a204.8 204.8 0 0 0 204.8-204.8V204.8a204.8 204.8 0 0 0-89.088-168.96 755.2 755.2 0 0 0-437.76 685.312z" fill="#7193FF" p-id="43777"></path><path d="M192 268.8m51.2 0l537.6 0q51.2 0 51.2 51.2l0 384q0 51.2-51.2 51.2l-537.6 0q-51.2 0-51.2-51.2l0-384q0-51.2 51.2-51.2Z" fill="#E9F6FF" p-id="43778"></path><path d="M243.2 268.8h537.6a51.2 51.2 0 0 1 51.2 51.2v362.24h-640V320a51.2 51.2 0 0 1 51.2-51.2z" fill="#FFFDF3" p-id="43779"></path><path d="M512 563.2a25.6 25.6 0 0 1-7.424 0l-320-97.28a25.6 25.6 0 1 1 14.848-48.896L512 509.44l312.576-94.976a25.6 25.6 0 1 1 14.848 48.896l-320 97.28a25.6 25.6 0 0 1-7.424 2.56z" fill="#A9D0FF" p-id="43780"></path></svg>