<?xml version="1.0" standalone="no"?><!DOCTYPE svg PUBLIC "-//W3C//DTD SVG 1.1//EN" "http://www.w3.org/Graphics/SVG/1.1/DTD/svg11.dtd"><svg t="1677223294818" class="icon" viewBox="0 0 1024 1024" version="1.1" xmlns="http://www.w3.org/2000/svg" p-id="2373" xmlns:xlink="http://www.w3.org/1999/xlink" width="256" height="256"><path d="M475.692152 1.488274c226.239054-15.687934 376.254427 95.027603 462.026069 229.919039 43.00782 67.639717 85.207644 170.359288 85.399643 275.906847 0.207999 114.679521-36.939846 213.983106-85.399643 286.850801-49.799792 74.891687-114.219523 136.751428-194.879186 177.367258-134.839436 67.895716-323.278649 69.751708-446.706133 4.379982-137.459425-72.799696-243.142984-176.719261-282.470819-356.922508-15.739934-72.119699-17.547927-165.299309 4.375982-245.246975 5.147978-18.755922 14.499939-38.491839 21.899908-56.935762 35.571851-88.61563 96.115598-165.675308 170.799286-218.971085 30.007875-21.41591 66.415722-42.715821 98.535588-56.931762C349.24068 23.212183 416.528399 5.592257 475.692152 1.484274z" fill="#FFFFFF" p-id="2374"></path><path d="M904.846358 520.066106c0 213.823106-173.339275 387.150382-387.158382 387.150382-213.823106 0-387.158382-173.327276-387.158382-387.150382 0-213.819106 173.335276-387.158382 387.158382-387.158382 213.819106 0 387.158382 173.339275 387.158382 387.158382z" p-id="2375"></path><path d="M475.692152 1.488274c226.239054-15.687934 376.254427 95.027603 462.026069 229.919039 43.00782 67.639717 85.207644 170.359288 85.399643 275.906847 0.207999 114.679521-36.939846 213.983106-85.399643 286.850801-49.799792 74.891687-114.219523 136.751428-194.879186 177.367258-134.839436 67.895716-323.278649 69.751708-446.706133 4.379982-137.459425-72.799696-243.142984-176.719261-282.470819-356.922508-15.739934-72.119699-17.547927-165.299309 4.375982-245.246975 5.147978-18.755922 14.499939-38.491839 21.899908-56.935762 35.571851-88.61563 96.115598-165.675308 170.799286-218.971085 30.007875-21.41591 66.415722-42.715821 98.535588-56.931762C349.24068 23.212183 416.528399 5.592257 475.692152 1.484274z m-76.63968 37.227844c-84.039649 21.787909-145.651391 60.819746-199.267167 102.91957C122.481628 202.331434 73.193834 287.04308 44.321955 389.066654c-32.123866 113.503526-11.491952 250.858951 32.843862 337.21459 45.975808 89.551626 107.70755 159.063335 194.883186 208.023131 84.815645 47.627801 204.103147 78.211673 328.458627 54.743771 110.491538-20.855913 194.407187-68.987712 262.766902-140.143414 91.463618-95.207602 164.97531-270.562869 116.055515-455.462096-13.075945-49.415793-30.171874-100.919578-56.931762-144.519396-14.45994-23.555902-35.679851-46.727805-56.931762-70.071708-80.223665-88.099632-209.883123-164.015314-376.634426-153.279359-31.731867 2.039991-59.619751 5.319978-89.779625 13.139945z" p-id="2376"></path><path d="M542.303873 985.596161l447.38213-447.370131-2.411989-2.41599-447.382131 447.370131 2.41199 2.41599z m-39.107836-35.431852l449.330122-449.318122-2.41199-2.41599-449.334122 449.318122 2.41599 2.41599z m-39.111837-35.423852l451.286114-451.278114-2.41599-2.41599-451.282114 451.278114 2.41199 2.41599z m-39.111836-35.431852l453.238105-453.226106-2.41199-2.41599-453.238105 453.230106 2.41199 2.41199z m-39.107837-35.427852L841.054625 388.698655l-2.41599-2.41599L383.448537 841.468763l2.41599 2.41199z m-39.111836-35.419852L803.89078 351.318812l-2.41199-2.41599L344.336701 806.048911l2.41599 2.41199z m-39.111837-35.435852L766.734935 313.934968l-2.41599-2.41199L305.224864 770.609059l2.41599 2.41599z m-39.111836-35.427852L729.575091 276.555124l-2.41599-2.41599L266.113028 735.181207l2.41599 2.41599z m-39.111837-35.431852L692.407246 239.17128l-2.41599-2.41199L227.001191 699.753355l2.41599 2.41199z m-39.111836-35.427852L655.255401 201.791437l-2.41199-2.41199L187.893355 664.321503l2.41199 2.41599z m-39.111837-35.427852L618.099557 164.411593l-2.41599-2.41599L148.781518 628.897651l2.41199 2.41199z m-39.111836-35.427852L580.943712 127.027749l-2.41199-2.41199L109.669682 593.465799l2.41599 2.41599z m-39.107837-35.431852L543.779867 89.647905l-2.41199-2.41599L70.557845 558.041948l2.41599 2.411989z m-39.111837-35.427851l472.758024-472.758024-2.411989-2.41199-472.758024 472.758024 2.411989 2.41199z" fill="#FFFFFF" p-id="2377"></path><path d="M31.294009 529.546067l456.318093 456.338092 2.41599-2.41199L33.709999 527.130077l-2.41599 2.41599z m37.007846-37.535843L525.507944 949.240312l2.411989-2.411989L70.713844 489.598234l-2.411989 2.41199z m37.003845-37.535844l458.094085 458.118086 2.41599-2.41599L107.72169 452.062391l-2.41599 2.411989z m37.007845-37.531843l458.982082 459.002082 2.41199-2.41199L144.725535 414.522547l-2.41199 2.41599z m37.003846-37.535843l459.870077 459.890078 2.41199-2.41199L181.72938 376.994704l-2.411989 2.41199z m37.003845-37.535843l460.758074 460.778074 2.41199-2.41199L218.737226 339.458861l-2.41599 2.41199z m37.003845-37.531843L714.975152 766.001078l2.41599-2.41199L255.741071 301.923018l-2.41599 2.41599z m37.003846-37.535843l462.542066 462.550067 2.41199-2.41199L292.744916 264.391175l-2.415989 2.41199z m37.007845-37.535843l463.426063 463.438063 2.41599-2.41199L329.748762 226.855332l-2.41199 2.41199z m37.003845-37.531843l464.318059 464.318059 2.41199-2.41199L366.752607 189.323489l-2.41199 2.41199z m37.007845-37.535844l465.198056 465.214056 2.41599-2.41599L403.760452 151.787646l-2.41199 2.411989z m37.003846-37.535843L904.43836 582.761844l2.41599-2.41199L440.760298 114.251802l-2.41199 2.41199z m37.003845-37.531843l466.978048 466.986048 2.41599-2.41199L477.768143 76.719959l-2.41199 2.41199z m37.003845-37.535843l467.870045 467.874045 2.41199-2.41599L514.775988 39.184116l-2.41199 2.41199z" fill="#FFFFFF" p-id="2378"></path><path d="M839.182632 181.043523c-40.263832-40.263832-89.767625-76.54768-148.899377-98.535588-61.291744-22.791905-130.627454-42.003824-212.403112-35.035853-130.263456 11.103954-221.719073 69.547709-291.230783 137.951423C137.961563 233.335305 101.337716 292.047059 77.161817 360.602773c-35.495852 100.659579-33.339861 219.471083 6.567973 321.886654 34.039858 87.359635 89.759625 157.81934 168.607295 212.399113 74.11969 51.319785 180.507246 91.115619 299.990746 81.023661 145.531392-12.291949 252.010947-86.955637 321.886655-172.987277 17.879925-22.007908 35.655851-46.887804 45.983808-76.63968 10.119958-21.43991 15.071937-36.007849 19.707917-43.791817 19.407919-43.491818 29.691876-89.375626 32.843863-140.143414 9.703959-156.143347-50.371789-278.110838-133.567442-361.30249z m-42.88782 475.730012c-0.279999 0.595998-0.527998 1.147995-0.819997 1.759993-7.21997 20.659914-19.655918 37.931841-32.155865 53.219777-48.867796 59.73975-123.327485 111.583534-225.09906 120.119498-83.559651 7.003971-157.95534-20.627914-209.787123-56.259765-45.039812-30.959871-79.279669-69.29171-103.291568-115.355518-1.463994-2.771988-15.407936-34.895854-15.447935-36.307848-19.019921-58.999753-20.671914-153.863357-1.147996-210.791119 13.027946-37.999841 34.743855-79.107669 63.499735-111.679533 39.707834-44.967812 79.443668-73.787692 142.335405-94.155607 28.71188-9.299961 54.419773-18.767922 89.775625-19.707917 86.21964-2.29599 174.019273 36.415848 221.159075 78.83167 43.323819 38.971837 92.695613 114.89552 105.111561 186.123222 12.771947 73.311694-0.859996 144.891394-34.131857 204.203147z" p-id="2379"></path><path d="M646.431438 727.097241c-21.231911 0-39.863833-13.443944-46.367806-33.45586l-23.643901-72.051699H458.120225l-21.971908 71.391702c-6.631972 20.399915-25.403894 34.059858-46.743805 34.059857-5.123979 0-10.211957-0.811997-15.127936-2.40399-25.507893-7.659968-39.987833-35.111853-32.171866-61.167744l99.847583-316.282678c6.483973-20.119916 25.571893-34.155857 46.423806-34.155857h53.091778c20.967912 0 40.055833 13.799942 46.411806 33.547859l105.007561 316.166679c8.399965 25.847892-5.503977 53.599776-30.975871 61.887741-5.039979 1.639993-10.239957 2.46399-15.479935 2.46399z" fill="#FFFFFF" p-id="2380"></path><path d="M646.431438 720.269269c-19.019921 0-35.679851-12.01995-41.495826-29.919874l-23.651902-72.063699-1.159995-3.523986h-125.779474l-1.111995 3.615985-21.971909 71.391702a43.907816 43.907816 0 0 1-55.399768 28.291882c-22.903904-6.879971-35.85185-31.479868-28.847879-54.827771l99.827582-316.210678c5.791976-17.979925 22.919904-30.575872 41.539827-30.575873h53.091778c18.755922 0 35.86385 12.367948 41.539826 29.995875l105.023561 316.210678c7.515969 23.135903-4.931979 47.991799-27.703884 55.407769-4.519981 1.467994-9.199962 2.207991-13.895942 2.20799z m0 10.239958c5.775976 0 11.519952-0.911996 17.059929-2.711989 28.183882-9.171962 43.531818-39.823834 34.267857-68.339714l-105.019561-316.198679c-7.027971-21.827909-28.087883-37.051845-51.271786-37.051845h-53.091778c-23.087903 0-44.135816 15.479935-51.295786 37.703843l-99.859582 316.310677c-8.639964 28.79588 7.331969 59.131753 35.583851 67.611718 5.319978 1.727993 10.939954 2.619989 16.59993 2.619989 23.571901 0 44.299815-15.095937 51.615785-37.595843l21.995908-71.467701-4.89598 3.611985h118.299506l-4.86798-3.519986 23.647901 72.047699c7.18797 22.115908 27.787884 36.979845 51.231786 36.979846z" p-id="2381"></path><path d="M254.297077 212.235393l-0.123999-0.171999c-12.451948-17.063929-8.799963-40.935829 9.53996-54.319773 18.335923-13.379944 41.891825-9.62396 54.343773 7.439969l0.127999 0.167999c12.451948 17.063929 8.799963 40.939829-9.53996 54.319773-18.339923 13.383944-41.895825 9.62796-54.347773-7.439969z m47.199803-34.447856l-0.124-0.167999c-6.255974-8.575964-17.907925-11.519952-26.987887-4.89598-8.999962 6.567973-9.699959 18.267924-3.443985 26.843888l0.123999 0.167999c6.259974 8.575964 17.907925 11.523952 26.907888 4.959979 9.079962-6.631972 9.783959-18.331923 3.523985-26.907887z m72.851695-77.403677l18.711922-5.999974L445.520278 155.363631l-20.815913 6.679972-9.115962-10.875955-27.019887 8.671964-0.991996 14.115941-20.411915 6.547973 7.18397-80.119666z m30.787872 37.475844l-14.199941-17.411927-1.511994 22.451906 15.711935-5.039979z m74.08769-19.12792l0.159999-41.307828 20.707914 0.08-0.16 40.887829c-0.044 10.615956 5.295978 15.679934 13.495944 15.719934 8.199966 0.028 13.575943-4.78398 13.615943-15.079937l0.163999-41.411826 20.707914 0.079999-0.159999 40.77983c-0.096 23.755901-13.695943 34.107857-34.611856 34.023858-20.915913-0.088-34.011858-10.755955-33.919858-33.771859z m143.4674-7.21597l-21.107911-6.443973 5.215978-17.087929 61.719742 18.835922-5.215978 17.087928-21.107912-6.439973-16.259932 53.275777-19.499919-5.951975 16.255932-53.279777z m100.955578 19.14792l16.971929 11.295953-15.251936 22.923904 21.787909 14.499939 15.255936-22.923904 16.971929 11.295953-40.759829 61.251744-16.975929-11.299953 15.491935-23.271903-21.791909-14.499939-15.487935 23.271903-16.971929-11.295953 40.759829-61.247744zM783.606865 800.228935l0.131999 0.164c13.095945 16.575931 10.355957 40.57583-7.459969 54.647771-17.811926 14.075941-41.499827 11.219953-54.595771-5.355977l-0.128-0.164c-13.099945-16.579931-10.355957-40.57583 7.455969-54.651771 17.815926-14.067941 41.499827-11.215953 54.599772 5.359977z m-45.855809 36.227849l0.132 0.163999c6.579972 8.331965 18.331923 10.831955 27.159886 3.859984 8.739963-6.907971 8.995962-18.623922 2.41199-26.955887l-0.131999-0.164c-6.575973-8.331965-18.331923-10.831955-27.075887-3.923983-8.823963 6.971971-9.075962 18.687922-2.49599 27.019887z m-69.23971 80.335664l-18.431923 6.819972-55.09177-58.615755 20.499914-7.591969 9.58796 10.463957 26.615889-9.851959 0.363999-14.143941 20.107916-7.439969-3.651985 80.359664z m-32.407865-36.079849l14.951938 16.76393 0.523998-22.495906-15.475936 5.727976z m-73.095694 22.087908l1.819992 41.267827-20.679913 0.911996-1.807993-40.847829c-0.467998-10.599956-6.043975-15.403936-14.23594-15.043937-8.187966 0.359998-13.331944 5.427977-12.879946 15.719934l1.827992 41.367827-20.679914 0.911996-1.799992-40.739829c-1.051996-23.727901 12.03995-34.719855 32.931862-35.643851 20.895913-0.919996 34.487856 9.099962 35.503852 32.095866z m-143.727399 13.491943l21.30791 5.755976-4.65598 17.251928-62.31174-16.81993 4.655981-17.251928 21.311911 5.751976 14.519939-53.787775 19.687918 5.315978-14.519939 53.783775z m-100.731579-14.987937l-17.491927-10.479956 14.15994-23.623902-22.447906-13.455943-14.15994 23.623901-17.487927-10.479956 37.827841-63.115737 17.487927 10.483957-14.37194 23.983899 22.447907 13.455944 14.37194-23.9839 17.491926 10.483957-37.827841 63.107736z" fill="#FFFFFF" p-id="2382"></path></svg>