<?xml version="1.0" standalone="no"?><!DOCTYPE svg PUBLIC "-//W3C//DTD SVG 1.1//EN" "http://www.w3.org/Graphics/SVG/1.1/DTD/svg11.dtd"><svg t="1677223480581" class="icon" viewBox="0 0 1024 1024" version="1.1" xmlns="http://www.w3.org/2000/svg" p-id="1599" xmlns:xlink="http://www.w3.org/1999/xlink" width="256" height="256"><path d="M470.81 843.95v85.89c-76.32-6.72-145.62000001-23.79-207.93-51.24-62.28-27.45-111.33-62.34000001-147.15-104.69999999C79.91 731.54000001 62 685.94000001 62 637.07c0-46.89 16.83-90.99 50.49-132.36 33.66000001-41.34000001 79.68-75.75 138.12-103.2s123.96-45.54000001 196.62-54.24v86.37c-72.66000001 12.72-132.33 37.83-179.04 75.33-46.71 37.50000001-70.05 80.19-70.04999999 128.1 0 50.88 25.86000001 95.58000001 77.57999999 134.1 51.72 38.49 116.76 62.76 195.09 72.78zM962 582.32l-18.57-195.87-70.32 39.66c-68.31-41.52-148.83-67.8-241.59-78.84v86.37c53.91 9.72 100.77 26.28 140.64 49.74000001l-73.83 41.69999999L962 582.32z" fill="#B7B7B7" p-id="1600"></path><path d="M607.43 865.58000001l-136.62 64.28999999V160.93999999l136.62-66.80999999v771.44999999z" fill="#FEA71F" p-id="1601"></path></svg>