<?xml version="1.0" standalone="no"?><!DOCTYPE svg PUBLIC "-//W3C//DTD SVG 1.1//EN" "http://www.w3.org/Graphics/SVG/1.1/DTD/svg11.dtd"><svg t="1677223507693" class="icon" viewBox="0 0 1024 1024" version="1.1" xmlns="http://www.w3.org/2000/svg" p-id="2692" xmlns:xlink="http://www.w3.org/1999/xlink" width="256" height="256"><path d="M683.422 591.268c-17.474 0-31.638-14.168-31.638-31.638v-46.406c0-77.078-62.708-139.786-139.786-139.786s-139.786 62.706-139.786 139.786v14.768h129.482c17.474 0 31.638 14.168 31.638 31.638s-14.164 31.638-31.638 31.638h-161.116c-17.474 0-31.638-14.168-31.638-31.638v-46.406c0-111.968 91.09-203.062 203.062-203.062s203.062 91.094 203.062 203.062v46.406c-0.004 17.474-14.168 31.638-31.642 31.638z" fill="#2D527C" p-id="2693"></path><path d="M511.998 373.44c-98.104 0-177.916-79.816-177.916-177.916s79.814-177.916 177.916-177.916 177.916 79.814 177.916 177.916c0 37.924-11.776 74.13-34.052 104.694-10.288 14.12-30.078 17.224-44.2 6.934-14.12-10.292-17.226-30.08-6.934-44.204 14.334-19.67 21.912-42.986 21.912-67.428 0-63.212-51.426-114.642-114.642-114.642s-114.642 51.43-114.642 114.642 51.426 114.642 114.642 114.642c17.474 0 31.638 14.168 31.638 31.638s-14.164 31.64-31.638 31.64z" fill="#2D527C" p-id="2694"></path><path d="M928.296 974.754H95.704c-35.384 0-64.066-28.682-64.066-64.066v-154.496c0-35.384 28.682-64.066 64.066-64.066h832.594c35.384 0 64.066 28.682 64.066 64.066v154.496c-0.002 35.384-28.684 64.066-64.068 64.066z" fill="#CEE8FA" p-id="2695"></path><path d="M928.296 1006.392H95.704C42.932 1006.392 0 963.46 0 910.688v-154.496c0-52.772 42.932-95.704 95.704-95.704h832.594c52.772 0 95.704 42.932 95.704 95.704v154.496c-0.002 52.772-42.934 95.704-95.706 95.704zM95.704 723.766c-17.882 0-32.428 14.546-32.428 32.428v154.496c0 17.882 14.546 32.428 32.428 32.428h832.594c17.882 0 32.428-14.546 32.428-32.428v-154.496c0-17.882-14.546-32.428-32.428-32.428H95.704z" fill="#2D527C" p-id="2696"></path><path d="M232.228 902.546c-8.1 0-16.192-3.09-22.37-9.266-12.354-12.354-12.354-32.388 0-44.744l68.61-68.606c12.354-12.352 32.384-12.348 44.742 0 12.354 12.354 12.354 32.388 0 44.744L254.6 893.278a31.554 31.554 0 0 1-22.372 9.268z" fill="#2D527C" p-id="2697"></path><path d="M232.228 902.546c-8.1 0-16.192-3.09-22.37-9.266-12.354-12.354-12.354-32.388 0-44.744l68.61-68.606c12.354-12.352 32.384-12.348 44.742 0 12.354 12.354 12.354 32.388 0 44.744L254.6 893.278a31.554 31.554 0 0 1-22.372 9.268z" fill="#2D527C" p-id="2698"></path><path d="M300.834 902.546a31.544 31.544 0 0 1-22.37-9.266l-68.61-68.606c-12.354-12.354-12.358-32.388 0-44.744 12.354-12.352 32.388-12.352 44.742 0l68.608 68.606c12.354 12.354 12.358 32.388 0 44.744a31.546 31.546 0 0 1-22.37 9.266z" fill="#2D527C" p-id="2699"></path><path d="M300.834 902.546a31.544 31.544 0 0 1-22.37-9.266l-68.61-68.606c-12.354-12.354-12.358-32.388 0-44.744 12.354-12.352 32.388-12.352 44.742 0l68.608 68.606c12.354 12.354 12.358 32.388 0 44.744a31.546 31.546 0 0 1-22.37 9.266zM464.736 902.546c-8.1 0-16.192-3.09-22.37-9.266-12.354-12.354-12.354-32.388 0-44.744l68.606-68.606c12.354-12.352 32.388-12.348 44.742 0 12.354 12.354 12.354 32.388 0 44.744l-68.606 68.606a31.56 31.56 0 0 1-22.372 9.266z" fill="#2D527C" p-id="2700"></path><path d="M464.736 902.546c-8.1 0-16.192-3.09-22.37-9.266-12.354-12.354-12.354-32.388 0-44.744l68.606-68.606c12.354-12.352 32.388-12.348 44.742 0 12.354 12.354 12.354 32.388 0 44.744l-68.606 68.606a31.56 31.56 0 0 1-22.372 9.266z" fill="#2D527C" p-id="2701"></path><path d="M533.342 902.546a31.544 31.544 0 0 1-22.37-9.266l-68.606-68.606c-12.354-12.354-12.358-32.388 0-44.744 12.354-12.352 32.388-12.352 44.742 0l68.606 68.606c12.354 12.354 12.358 32.388 0 44.744a31.56 31.56 0 0 1-22.372 9.266z" fill="#2D527C" p-id="2702"></path><path d="M533.342 902.546a31.544 31.544 0 0 1-22.37-9.266l-68.606-68.606c-12.354-12.354-12.358-32.388 0-44.744 12.354-12.352 32.388-12.352 44.742 0l68.606 68.606c12.354 12.354 12.358 32.388 0 44.744a31.56 31.56 0 0 1-22.372 9.266zM723.166 902.546c-8.1 0-16.192-3.09-22.37-9.266-12.354-12.354-12.354-32.388 0-44.744l68.608-68.606c12.354-12.352 32.388-12.348 44.742 0 12.354 12.354 12.354 32.388 0 44.744l-68.61 68.606a31.552 31.552 0 0 1-22.37 9.266z" fill="#2D527C" p-id="2703"></path><path d="M723.166 902.546c-8.1 0-16.192-3.09-22.37-9.266-12.354-12.354-12.354-32.388 0-44.744l68.608-68.606c12.354-12.352 32.388-12.348 44.742 0 12.354 12.354 12.354 32.388 0 44.744l-68.61 68.606a31.552 31.552 0 0 1-22.37 9.266z" fill="#2D527C" p-id="2704"></path><path d="M791.772 902.546a31.544 31.544 0 0 1-22.37-9.266l-68.61-68.606c-12.354-12.354-12.358-32.388 0-44.744 12.354-12.352 32.388-12.352 44.742 0l68.608 68.606c12.354 12.354 12.358 32.388 0 44.744a31.55 31.55 0 0 1-22.37 9.266z" fill="#2D527C" p-id="2705"></path><path d="M791.772 902.546a31.544 31.544 0 0 1-22.37-9.266l-68.61-68.606c-12.354-12.354-12.358-32.388 0-44.744 12.354-12.352 32.388-12.352 44.742 0l68.608 68.606c12.354 12.354 12.358 32.388 0 44.744a31.55 31.55 0 0 1-22.37 9.266z" fill="#2D527C" p-id="2706"></path></svg>