<?xml version="1.0" standalone="no"?><!DOCTYPE svg PUBLIC "-//W3C//DTD SVG 1.1//EN" "http://www.w3.org/Graphics/SVG/1.1/DTD/svg11.dtd"><svg t="1681971362644" class="icon" viewBox="0 0 1024 1024" version="1.1" xmlns="http://www.w3.org/2000/svg" p-id="65266" xmlns:xlink="http://www.w3.org/1999/xlink" width="256" height="256"><path d="M394.218667 172.970667c-88.106667 9.6-168.149333 46.933333-225.6 105.173333a296.341333 296.341333 0 0 0-55.125334 76.650667 264.533333 264.533333 0 0 0 19.029334 269.568c15.573333 23.36 41.301333 52.48 64.704 73.173333l-10.602667 82.432-1.152 3.456c-0.362667 1.066667-0.362667 2.197333-0.469333 3.242667l-0.213334 2.666666 0.213334 2.645334a26.837333 26.837333 0 0 0 40.362666 20.586666h0.469334l1.6-1.152 25.386666-12.48 75.52-37.589333c35.882667 10.176 73.130667 15.274667 110.506667 15.04a398.336 398.336 0 0 0 135.509333-23.36 48.490667 48.490667 0 0 1-33.429333-50.858667 336.618667 336.618667 0 0 1-139.328 13.76l-7.509333-1.045333a349.482667 349.482667 0 0 1-50.048-10.282667 34.624 34.624 0 0 0-26.88 2.773334l-2.069334 1.045333-62.165333 36.181333-2.645333 1.621334c-1.493333 0.810667-2.197333 1.152-2.986667 1.152a4.138667 4.138667 0 0 1-3.925333-4.394667l2.304-9.472 2.773333-10.304 4.48-16.981333 5.184-18.965334a25.429333 25.429333 0 0 0-9.450667-28.672 271.637333 271.637333 0 0 1-62.72-64.725333 208.170667 208.170667 0 0 1-15.36-212.48 240.725333 240.725333 0 0 1 44.288-61.141333c47.168-48.085333 113.365333-78.72 186.730667-86.592 25.386667-2.773333 50.986667-2.773333 76.352 0 72.874667 8.32 138.858667 39.317333 185.813333 87.168a239.573333 239.573333 0 0 1 43.690667 61.504 207.957333 207.957333 0 0 1 22.037333 92.586666c0 3.349333-0.362667 6.698667-0.469333 9.941334a49.408 49.408 0 0 1 60.437333 7.04l2.197334 2.666666a262.613333 262.613333 0 0 0-26.88-138.133333 296.192 296.192 0 0 0-54.549334-76.650667 372.117333 372.117333 0 0 0-224.789333-106.005333 388.565333 388.565333 0 0 0-91.221333-0.789333z" fill="#0087F3" p-id="65267"></path><path d="M654.506667 731.306667a11.52 11.52 0 0 0-0.213334 16.298666 5.12 5.12 0 0 0 1.706667 1.386667 149.44 149.44 0 0 1 46.613333 89.813333 49.237333 49.237333 0 0 0 60.437334 34.090667 48.554667 48.554667 0 0 0 34.602666-59.306667c0-0.106667-0.128-0.213333-0.128-0.448a49.024 49.024 0 0 0-42.325333-35.605333 151.04 151.04 0 0 1-83.946667-46.357333 12.16 12.16 0 0 0-16.725333 0.128z" fill="#FE6200" p-id="65268"></path><path d="M876.544 641.6c-8.32 2.197333-15.936 6.592-22.144 12.714667h-0.128a48 48 0 0 0-14.08 29.226666 149.013333 149.013333 0 0 1-46.698667 83.242667 11.52 11.52 0 0 0-0.341333 16.298667l0.106667 0.128a11.946667 11.946667 0 0 0 16.853333 0.106666c0.576-0.576 1.024-1.045333 1.365333-1.728a151.850667 151.850667 0 0 1 90.773334-46.016 48.64 48.64 0 0 0 34.709333-59.648 49.322667 49.322667 0 0 0-60.416-34.346666z" fill="#0087F3" p-id="65269"></path><path d="M691.541333 593.045333l-0.810666 0.810667a151.018667 151.018667 0 0 1-92.16 47.616c-26.048 6.826667-41.728 33.173333-34.816 59.093333 2.197333 8.426667 6.805333 16.170667 13.013333 22.293334a49.664 49.664 0 0 0 69.674667-0.106667c7.850667-7.872 12.8-18.154667 14.08-29.141333a149.376 149.376 0 0 1 46.933333-83.221334 11.669333 11.669333 0 0 0 1.045333-16.298666l-0.128-0.128a12.096 12.096 0 0 0-16.832-0.917334z" fill="#FCCC01" p-id="65270"></path><path d="M737.216 504.490667a48.32 48.32 0 0 0-21.568 12.48 48.298667 48.298667 0 0 0-0.469333 68.202666l0.576 0.597334c7.957333 7.850667 18.346667 12.714667 29.418666 13.973333a151.701333 151.701333 0 0 1 84.074667 46.122667 11.776 11.776 0 0 0 16.618667 0.128 11.52 11.52 0 0 0-1.621334-17.92 149.12 149.12 0 0 1-46.592-89.706667c-7.04-25.898667-34.133333-41.045333-60.437333-33.877333z" fill="#28BD00" p-id="65271"></path></svg>