<?xml version="1.0" standalone="no"?><!DOCTYPE svg PUBLIC "-//W3C//DTD SVG 1.1//EN" "http://www.w3.org/Graphics/SVG/1.1/DTD/svg11.dtd"><svg t="1677495131798" class="icon" viewBox="0 0 1024 1024" version="1.1" xmlns="http://www.w3.org/2000/svg" p-id="5829" xmlns:xlink="http://www.w3.org/1999/xlink" width="256" height="256"><path d="M480 992c-16.448 0-32.64-0.832-48.64-2.432l6.4-63.68C451.648 927.296 465.728 928 480 928c229.376 0 416-186.624 416-416l64-5.824L960 512C960 776.704 744.704 992 480 992zM241.536 928.64C92.544 843.2 0 683.584 0 512c0-101.056 30.976-197.696 89.664-279.488l51.968 37.312C90.88 340.672 64 424.384 64 512c0 148.736 80.192 287.104 209.344 361.152L241.536 928.64zM858.304 338.624C790.656 191.232 642.112 96 480 96c-74.304 0-147.2 19.84-210.752 57.28L236.736 98.176C310.144 54.848 394.304 32 480 32c187.072 0 358.4 109.888 436.48 279.936L858.304 338.624z" fill="#515151" p-id="5830"></path><path d="M480 512m-192 0a3 3 0 1 0 384 0 3 3 0 1 0-384 0Z" fill="#515151" p-id="5831"></path></svg>