<?xml version="1.0" standalone="no"?><!DOCTYPE svg PUBLIC "-//W3C//DTD SVG 1.1//EN" "http://www.w3.org/Graphics/SVG/1.1/DTD/svg11.dtd"><svg t="1677223580671" class="icon" viewBox="0 0 1024 1024" version="1.1" xmlns="http://www.w3.org/2000/svg" p-id="1599" xmlns:xlink="http://www.w3.org/1999/xlink" width="256" height="256"><path d="M714.79751147 558.96746667a344.8832 344.8832 0 0 0-14.01742294 39.04853333c-6.09848853 24.94008853-25.48622187 20.38897813-43.14453333 22.48248853-19.93386667 2.36657813-19.11466667-12.37902187-23.02862187-23.84782186a1313.72373333 1313.72373333 0 0 0-50.33528853-131.80017814V594.83022187c0 16.11093333-24.21191147 30.67448853-39.59466667 24.48497813-7.1907552-2.91271147-5.5523552-8.46506667-5.55235626-13.47128853V411.14737813c0-10.8316448 3.64088853-16.01991147 14.7456-14.83662293a26.3964448 26.3964448 0 0 0 4.64213333 0c48.69688853-1.18328853 48.60586667-1.18328853 64.53475627 45.51111147 13.7443552 39.86773333 27.30666667 79.6444448 42.78044373 123.15306666a172.94222187 172.94222187 0 0 0 21.11715627-56.43377813 477.5936 477.5936 0 0 0 28.39893333-83.74044373c5.37031147-25.85031147 22.9376-31.03857813 45.5111104-27.30666667a28.8540448 28.8540448 0 0 0 9.10222293 0c18.2044448-2.91271147 23.48373333 4.00497813 23.30168854 22.66453333-0.91022187 64.7168 0 129.6156448 0.54613333 194.42346667l-5.5523552 5.46133333-36.4088896-0.8192-1.6384-4.64213333v-147.456l-6.3715552-0.63715627zM146.72782187 620.40746667c-21.66328853 0-43.4176-0.8192-64.98986667 0C66.90133333 621.22666667 65.99111147 613.94488853 65.99111147 602.2940448s0-21.02613333 16.47502186-20.48c33.22311147 1.18328853 66.5372448 0 100.1244448 0.6371552a54.61333333 54.61333333 0 0 0 27.30666667-5.0972448 25.03111147 25.03111147 0 0 0 13.38026667-27.30666667A21.75431147 21.75431147 0 0 0 202.5244448 530.2044448a282.16888853 282.16888853 0 0 0-55.43253333-2.54862293 339.7859552 339.7859552 0 0 1-34.7704896-0.91022187c-35.2256-3.73191147-56.97991147-25.75928853-57.9811552-57.61706667-1.27431147-38.13831147 19.11466667-66.1731552 54.61333333-70.6332448 46.14826667-5.7344 92.7516448-1.4563552 139.0819552-2.36657706 16.29297813 0 10.10346667 12.288 10.74062293 20.20693333s3.0947552 19.11466667-12.37902293 18.75057707c-27.8528-0.72817813-55.7056-0.45511147-83.5584 0a315.75608853 315.75608853 0 0 0-34.67946667 2.54862293A24.66702187 24.66702187 0 0 0 105.13066667 466.48888853c0.91022187 16.384 11.10471147 22.7555552 26.12337813 23.48373334 27.8528 1.27431147 55.7056 2.2755552 83.46737707 3.6408896 40.59591147 1.91146667 57.1619552 19.11466667 57.89013333 59.34648853 0.54613333 38.22933333-21.9363552 64.5347552-58.6183104 66.62826667-22.39146667 1.27431147-44.8739552 0-67.26542293 0zM393.67111147 567.8876448a104.2204448 104.2204448 0 0 1-18.2044448 0c-22.20942187-3.9139552-35.31662187 4.7331552-40.7779552 26.57848853a44.8739552 44.8739552 0 0 1-9.10222294 18.2044448c-12.19697813 14.1084448-29.6732448 11.10471147-42.87146666 5.27928854-8.46506667-3.73191147 1.72942187-15.7468448 4.9152-23.21066667 23.84782187-57.70808853 48.9699552-114.77902187 72.36266666-172.94222187 6.5536-16.2019552 14.9276448-25.3952 33.1320896-26.48746666a37.5011552 37.5011552 0 0 1 38.41137707 24.12088853c27.30666667 61.98613333 53.33902187 124.60942187 80.4636448 186.7776 5.64337813 12.9251552 0 14.38151147-10.37653333 14.5635552-18.2044448 0-37.5011552 1.18328853-42.7804448-21.48124373-6.3715552-27.30666667-22.39146667-36.40888853-48.87893334-31.76675627a96.21048853 96.21048853 0 0 1-16.2019552 0z m37.04604373-41.3240896c-11.74186667-29.40017813-22.84657813-57.25297813-35.49866667-89.20177707-5.5523552 13.19822187-9.10222187 22.20942187-13.01617706 31.31164374-25.66826667 63.98862187-25.66826667 63.98862187 48.60586666 57.89013333zM863.34577813 612.1244448l-9.10222293-4.4600896a60.8028448 60.8028448 0 0 1-24.30293333-45.5111104c-1.18328853-13.7443552-2.82168853-27.30666667-4.18702187-41.23306667v-73.45493333a31.03857813 31.03857813 0 0 0 0-18.2044448v-18.2044448c6.46257813-23.7568 25.3952-11.10471147 38.41137813-11.65084373s7.3728 12.9251552 7.46382187 20.1159104c0.72817813 37.6832 0 75.45742187 0.6371552 113.2316448 0.8192 42.5984 11.19573333 52.4288 54.61333333 53.248a352.16497813 352.16497813 0 0 0 41.59715627-0.6371552c15.01866667-1.54737813 15.92888853 6.46257813 15.5648 18.20444373s1.18328853 19.4787552-14.83662293 18.75057813c-33.7692448-1.54737813-67.72053333 0-101.2167104-6.64462186z" fill="#C40E25" p-id="1600"></path><path d="M752.0256 619.22417813l36.40888853 0.8192c-12.4700448 14.65457813-24.48497813 10.28551147-36.40888853-0.8192zM826.29973333 410.2371552v9.10222293c-2.36657813-1.27431147-6.64462187-2.09351147-6.91768853-3.73191146-1.27431147-4.82417813 3.54986667-4.64213333 6.91768853-5.37031147zM863.34577813 612.1244448l4.7331552 2.0935104z" fill="#FAE4E9" p-id="1601"></path></svg>