<?xml version="1.0" standalone="no"?><!DOCTYPE svg PUBLIC "-//W3C//DTD SVG 1.1//EN" "http://www.w3.org/Graphics/SVG/1.1/DTD/svg11.dtd"><svg t="1679506410791" class="icon" viewBox="0 0 1024 1024" version="1.1" xmlns="http://www.w3.org/2000/svg" p-id="3801" xmlns:xlink="http://www.w3.org/1999/xlink" width="256" height="256"><path d="M1009.685333 920.405333c19.157333-31.914667 19.157333-63.829333 0-95.744l-414.72-720.938666c-19.072-31.872-50.986667-44.714667-82.901333-44.714667s-63.786667 19.157333-82.901333 44.714667L295.146667 339.754667l31.914666 19.157333a632.064 632.064 0 0 1 242.432 242.432c51.072 89.344 82.944 185.002667 89.344 287.146667h-95.701333a568.106667 568.106667 0 0 0-76.544-242.517334c-44.672-89.301333-114.858667-159.488-204.16-210.56l-31.957333-19.072-127.573334 216.917334 31.872 19.157333c82.944 50.986667 140.373333 133.930667 153.130667 229.674667H97.344c-6.357333 0-12.8-6.4-12.8-6.4s-6.314667-6.4 0-12.757334l57.514667-102.101333c-19.157333-19.072-44.714667-31.914667-70.229334-38.229333L14.4 824.704c-19.157333 31.914667-19.157333 63.829333 0 95.744 19.114667 31.829333 44.629333 44.586667 82.901333 44.586667h293.504v-38.229334c0-70.186667-19.157333-134.016-51.029333-197.845333-25.557333-50.986667-63.829333-89.301333-108.458667-121.173333L275.989333 524.8c57.472 44.629333 108.501333 95.701333 146.730667 159.530667 44.672 76.501333 63.829333 159.488 63.829333 242.432v38.229333h248.789334v-38.229333c0-127.573333-31.872-255.232-102.058667-370.048-51.072-102.144-134.016-185.045333-229.76-248.874667L499.264 141.994667c6.442667-6.4 12.8-6.4 12.8-6.4 6.4 0 6.4 0 12.757333 6.4l414.762667 720.896c6.314667 6.314667 0 12.757333 0 12.757333s-6.4 6.4-12.8 6.4h-95.701333v76.586667h95.701333c38.229333 6.357333 63.786667-6.4 82.901333-38.229334z" fill="" p-id="3802"></path></svg>