<svg version="1.2" xmlns="http://www.w3.org/2000/svg" viewBox="0 0 1280 720" width="680" height="383">
	<title>template</title>
	<style>
		.s0 { fill: #ffffff } 
		.s1 { fill: #cccccc } 
	</style>
	<path id="开源、自由  低成本、高可用  安全、私有" class="s0" aria-label="开源、自由

低成本、高可用

安全、私有"  d="m75.9 400v1.5h11.9v-12.7h-11.9zm18.4 1.5h10.7v5.9h-10.7v21.2h-6.5v-21.2h-12.2q-0.5 3.9-1.8 7.8-1.3 3.8-4 7.3-2.6 3.4-7.1 6.3-0.6-0.8-1.4-1.6-0.9-0.9-1.9-1.7-0.9-0.9-1.7-1.4 3.8-2.3 6.1-5 2.3-2.7 3.5-5.6 1.3-3 1.8-6.1h-11.3v-5.9h11.8v-1.6-11.1h-10.1v-5.8h43.9v5.8h-9.1zm29.3-16.1l-3.7 5q-1-0.8-2.5-1.8-1.4-1-3-2-1.6-1-3-1.8l3.6-4.4q1.3 0.7 2.9 1.6 1.7 0.9 3.2 1.8 1.5 0.9 2.5 1.6zm-2.5 13.7l-3.7 5q-0.9-0.7-2.4-1.6-1.5-1-3.1-2-1.6-1-3-1.7l3.5-4.5q1.4 0.7 3 1.5 1.6 0.9 3.1 1.8 1.6 0.8 2.6 1.5zm-4.3 8.8l5.1 3.3q-1.4 4.2-3.2 8.5-1.7 4.3-3.5 8.2l-5.6-3.3q1.1-2.1 2.3-4.8 1.3-2.8 2.6-5.9 1.3-3 2.3-6zm16.5 5.6l5.4 1.6q-1.2 2.7-2.8 5.7-1.7 3-3.1 5-0.9-0.7-2.4-1.6-1.4-0.9-2.5-1.4 1.5-1.8 2.9-4.3 1.5-2.6 2.5-5zm16.6-9.4h-12v2.9h12zm0-7h-12v2.9h12zm5.7-4.5v18.8h-9.1v11.3q0 1.9-0.4 3.1-0.4 1.2-1.8 1.8-1.3 0.6-3.2 0.8-1.8 0.1-4.2 0.1-0.2-1.2-0.7-2.7-0.4-1.5-0.9-2.6 1.4 0 2.7 0 1.4 0 1.8 0 0.8 0 0.8-0.7v-11.1h-8.2v-18.8h7q0.4-1.1 0.7-2.2 0.3-1.2 0.5-2.2h-10v8.8q0 3.4-0.3 7.6-0.2 4.1-1 8.4-0.7 4.3-2.1 8.4-1.4 4-3.7 7.2-0.6-0.5-1.6-1.2-0.9-0.6-1.9-1.2-1-0.6-1.7-0.9 2.1-3.1 3.4-6.7 1.3-3.5 1.9-7.3 0.6-3.8 0.8-7.4 0.2-3.7 0.2-6.9v-14.3h32.5v5.5h-15.2l5.8 1.1q-0.5 0.8-1.1 1.7-0.4 0.8-0.9 1.6zm-7.6 22.4l5.3-2.1q0.9 1.6 1.8 3.4 1 1.8 1.9 3.5 0.8 1.7 1.4 3l-5.8 2.5q-0.4-1.3-1.2-3.1-0.8-1.8-1.7-3.7-0.9-1.9-1.7-3.5zm30.1 7.8l-5.5 4.8q-2.4-2.9-5.4-6-3.1-3.2-5.8-5.5l5.4-4.7q1.9 1.5 3.9 3.6 2.2 2 4.1 4.1 2 2.1 3.3 3.7zm47-8.1v5.5h24.7v-5.5zm24.7-5.7v-5.3h-24.7v5.3zm0-11v-5.4h-24.7v5.4zm-11.2-11.3h17.8v41.7h-6.6v-2.5h-24.7v2.6h-6.3v-41.8h13.4q0.4-1.7 0.7-3.5 0.4-1.8 0.7-3.3l7.4 0.8q-1.1 3.1-2.4 6zm53.7 24.1v8.8h11.4v-8.8zm-6.4 0h-11.1v8.8h11.1zm0-6v-8.7h-11.1v8.7zm17.8 0v-8.7h-11.4v8.7zm-11.4-24.7v9.8h17.9v38.6h-6.5v-2.7h-28.8v2.8h-6.2v-38.7h17.2v-9.8zm-224.4 125.1l5.8 1.7q-0.9 2.6-2 5.2-1 2.5-2.2 5v36.4h-6v-25.9q-0.9 1.3-1.8 2.5-0.9 1.2-1.8 2.3-0.3-0.8-0.9-2.1-0.6-1.2-1.2-2.5-0.7-1.2-1.2-1.9 2.3-2.5 4.3-5.9 2.2-3.3 3.9-7.1 1.9-3.8 3.1-7.7zm16.9 36.6l4.3-1.4q0.9 1.7 1.7 3.7 0.9 2 1.7 3.9 0.8 1.8 1.3 3.2l-4.7 1.7q-0.3-1.4-1.1-3.3-0.7-2-1.5-4-0.9-2-1.7-3.8zm-4.5-26.6v9h9.5q-0.2-2.4-0.4-5.1-0.1-2.7-0.2-5.4-2.2 0.5-4.4 0.8-2.3 0.4-4.5 0.7zm24.6 9v5.8h-8.7q0.5 4.6 1.2 8.2 0.7 3.5 1.5 5.5 0.7 2 1.5 2 0.6 0 0.9-1.6 0.4-1.7 0.6-4.7 0.5 0.6 1.3 1.3 0.9 0.6 1.7 1.2 0.9 0.6 1.3 0.9-0.6 4.2-1.6 6.4-0.9 2.2-2.1 3.1-1 0.9-2.1 0.9-2.8-0.1-4.8-3-2-2.8-3.3-8-1.2-5.2-2-12.2h-10v16l5.4-1.2q0 1.2 0 2.8 0 1.6 0.2 2.5-4.3 1.2-6.6 1.9-2.3 0.7-3.3 1.1-1 0.4-1.5 0.8-0.2-1.1-0.9-2.6-0.5-1.6-1.2-2.4 0.8-0.3 1.4-1.1 0.8-0.8 0.8-2.3v-34.9-0.1q4.4-0.6 9-1.5 4.5-0.9 8.5-1.9 4.1-1.1 7.1-2.2l5 5.1q-2.1 0.7-4.4 1.3-2.3 0.6-4.7 1.2 0.1 3.1 0.2 6 0.1 3 0.3 5.7zm43.3-2.6l6.2 1.5q-1.6 5-3.9 9.6-2.3 4.4-5.1 8.2 1.2 2.8 2.4 4.4 1.2 1.6 2.5 1.6 0.9 0 1.4-2.1 0.5-2.2 0.7-7 1 1.1 2.5 2 1.5 0.9 2.8 1.4-0.5 4.8-1.4 7.4-1 2.6-2.5 3.6-1.6 1-4 1-2.8 0-4.9-1.9-2.2-1.8-3.9-5-4 4.1-8.8 7.1-0.5-0.7-1.3-1.7-0.8-0.9-1.7-1.9-0.8-1-1.5-1.5 6-3.3 10.6-8.5-1.3-4.4-2.2-9.7-0.9-5.4-1.4-11.2h-15.1v5.5h12.9q0 0-0.1 0.9 0 0.9 0 1.5 0 5.4-0.2 8.9-0.2 3.5-0.5 5.4-0.3 2-0.9 2.7-0.8 1-1.6 1.5-0.8 0.4-2 0.6-1 0.2-2.6 0.2-1.6 0-3.4 0 0-1.4-0.5-3-0.5-1.6-1.2-2.8 1.4 0.1 2.6 0.2 1.2 0 1.9 0 0.5 0 0.8-0.1 0.4-0.1 0.7-0.5 0.4-0.6 0.6-2.7 0.2-2.2 0.3-7.1h-6.8q0 2.9-0.3 6.1-0.3 3.2-0.9 6.4-0.6 3.3-1.7 6.2-1 3-2.6 5.4-0.5-0.6-1.5-1.5-1-0.8-2.1-1.6-0.9-0.8-1.7-1.1 2-3.1 2.9-7 0.9-3.8 1.2-7.7 0.2-4 0.2-7.4v-15.2h21.3q-0.1-1.9-0.2-3.8 0-1.9 0-3.8h6.5q-0.1 1.9 0 3.8 0 1.9 0.1 3.8h7.9q-1.4-1.1-3.3-2.3-1.7-1.2-3.3-2.2l3.7-3.7q1.5 0.8 3.1 1.7 1.6 1 3 2 1.5 1 2.4 1.9l-2.5 2.6h5.4v6.2h-16.1q0.4 3.9 0.9 7.5 0.5 3.6 1.2 6.7 1.5-2.6 2.8-5.4 1.3-2.9 2.2-6.1zm40.4-0.2v17.1h9.3q-2.8-3.7-5-8-2.3-4.4-4-9.1zm-16.2 17.1h9.6v-17.1h-0.4q-3.4 9.6-9.2 17.1zm35.8-23.4v6.3h-13.1q2.4 5.6 6.2 10.7 3.8 5 8.4 8.1-1.2 0.9-2.7 2.6-1.4 1.5-2.2 2.8-1.5-1.1-2.9-2.5-1.3-1.3-2.6-2.8v4.5h-10.7v8.8h-6.6v-8.8h-10.9v-4.6q-2.8 3.2-5.9 5.7-0.8-1.2-2.1-2.7-1.3-1.5-2.4-2.4 3-2.1 5.7-5.1 2.8-3 5-6.7 2.2-3.7 3.8-7.6h-12.7v-6.3h19.5v-10h6.6v10zm21.9 32.7l-5.6 4.8q-2.4-2.9-5.4-6-3-3.1-5.7-5.5l5.4-4.6q1.8 1.5 3.9 3.5 2.1 2.1 4.1 4.2 2 2 3.3 3.6zm53.2-3.3h11.5v-3h-11.5zm-15.6-14.2h43.3v17.6q0 2.1-0.6 3.1-0.6 0.9-2.1 1.5-1.4 0.5-3.5 0.6-2.1 0.1-4.8 0-0.2-1-0.7-2.2-0.6-1.2-1.1-2.1h-14.9v2.2h-5.7v-13.8h22.6v11.6h-0.7q1.4 0 2.6 0 1.2 0 1.6 0 1 0 1-0.9v-12.6h-31v18.3h-6zm11.6-6.3h20.2v-2.8h-20.2zm-6.1-7.1h32.8v11.2h-32.8zm20.2-7.2h18.8v5.2h-46v-5.2h20.1q-0.4-1-0.7-1.9-0.3-0.9-0.6-1.8l6.4-1.5q0.4 1.2 1 2.6 0.6 1.3 1 2.6zm45.2 24.9v-8.3h-9.9v8.3zm6.2-14.2v20.1h-16v4h-6.1v-24.1zm-26.8-12.1h46.9v6.3h-6v31q0 2.8-0.8 4.3-0.7 1.5-2.6 2.3-1.9 0.7-4.8 1-2.9 0.1-6.9 0.1-0.2-0.9-0.6-2.1-0.4-1.2-1-2.4-0.5-1.2-1-2 1.9 0.1 3.8 0.1 2 0 3.5 0 1.6 0 2.2 0 0.9 0 1.3-0.3 0.4-0.3 0.4-1.1v-30.9h-34.4zm79 17.7v6.3h11v-6.3zm-16.2 6.3h9.9v-6.3h-9.8v0.9q0 2.5-0.1 5.4zm9.9-12.1v-6.1h-9.8v6.1zm6.3 0h11v-6.1h-11zm-22.2-11.9h39.3v37.8q0 2.5-0.6 3.8-0.7 1.4-2.2 2.1-1.6 0.8-4.1 1-2.4 0.2-5.9 0.1-0.2-1.2-0.8-3-0.6-1.7-1.2-2.9 1.5 0 3 0.1 1.5 0 2.6 0 1.2 0 1.7 0 1.4 0 1.4-1.3v-7.8h-11v14.5h-6.3v-14.5h-10.6q-0.6 4.3-2.2 8.4-1.5 4-4.3 7.1-0.5-0.6-1.4-1.4-0.9-0.8-1.8-1.5-1-0.8-1.7-1.1 2.1-2.4 3.3-5.2 1.3-2.8 1.8-5.8 0.7-3.1 0.8-6.1 0.2-3 0.2-5.7zm-278.1 132.9h-30.9v5.8h-6.3v-11.6h18.1q-0.5-1.1-1-2.1-0.5-1.1-1-2.1l6.5-1.5q0.8 1.3 1.5 2.8 0.8 1.6 1.4 2.9h18.3v11.6h-6.6zm-8.8 14.6h-10.9q-0.8 1.2-1.5 2.4-0.7 1.1-1.4 2.1 2.1 0.7 4.2 1.5 2.2 0.8 4.3 1.6 1.7-1.6 3-3.4 1.3-1.9 2.3-4.2zm16.4-5.8v5.8h-9.2q-1.2 3-2.8 5.6-1.5 2.5-3.5 4.5 4.5 1.9 8.5 3.8 3.9 1.9 6.8 3.7l-5.1 5.2q-2.7-1.8-6.8-3.9-4-2.1-8.6-4.2-4.3 2.9-9.6 4.8-5.3 2-11.6 3.2-0.3-0.8-1-1.9-0.6-1-1.4-2.1-0.7-1.1-1.3-1.8 5.4-0.7 9.9-1.9 4.5-1.3 8.1-3.2-3.2-1.3-6.3-2.4-3.1-1.2-6.1-2.2l0.1-0.1q1.2-1.5 2.4-3.3 1.3-1.8 2.5-3.8h-10.8v-5.8h14.1q1-2 1.9-3.9 1-2 1.6-3.7l7 1.3q-0.7 1.6-1.4 3.1-0.7 1.6-1.6 3.2zm16.4-1.4h25.4q-3.5-2.3-6.7-4.9-3.1-2.7-6.1-5.9-5.7 6.2-12.6 10.8zm28.7 2.1v3.4h-12.8v6h12.4v5.4h-12.4v6.2h19v5.6h-44.2v-5.6h18.7v-6.2h-11.9v-5.4h11.9v-6h-12.6v-3.5q-2.4 1.4-5 2.6-0.6-1.2-1.8-2.6-1.2-1.4-2.4-2.5 4.7-1.9 9.2-4.7 4.5-2.9 8.3-6.4 3.9-3.6 6.5-7.6l5.5 2.6q-0.2 0.3-0.5 0.7-0.2 0.3-0.5 0.7 4.7 4.9 10.1 8.5 5.4 3.5 11.6 6.3-1.1 1-2.4 2.5-1.2 1.5-1.7 2.8-1.3-0.7-2.6-1.4-1.2-0.7-2.4-1.4zm28.8 22l-5.6 4.8q-2.4-2.9-5.4-6-3-3.1-5.8-5.5l5.5-4.6q1.8 1.5 3.9 3.5 2.1 2.1 4.1 4.2 2 2 3.3 3.6zm57.9-14.6l-3.6 5.1q-0.6-1.2-1.7-2.9-1.1-1.8-2.3-3.4v21.6h-6v-19.5q-1.6 3.2-3.3 6.2-1.8 2.9-3.7 5-0.4-1.4-1.3-3.1-1-1.7-1.7-2.9 1.7-1.7 3.3-4 1.6-2.3 3.1-4.8 1.5-2.6 2.6-5.2h-7.3v-5.7h8.3v-5.8q-1.8 0.3-3.5 0.5-1.8 0.2-3.5 0.4-0.1-1-0.6-2.4-0.5-1.4-0.9-2.4 3.3-0.5 6.8-1.2 3.5-0.6 6.6-1.5 3.3-0.8 5.7-1.7l3.2 5.1q-1.7 0.6-3.7 1.2-2 0.4-4.1 0.9v6.9h7.7v5.7h-7.7v0.3q0.5 0.5 1.6 1.5 1.1 1.1 2.3 2.3 1.3 1.2 2.3 2.3 1 1.1 1.4 1.5zm25.9 16.9l-6.4 2.6q-0.2-1.3-0.6-2.7-0.3-1.5-0.7-3-6 0.9-9.7 1.5-3.6 0.6-5.7 1-2.1 0.4-3.1 0.7-1.1 0.3-1.8 0.7-0.1-0.6-0.5-1.7-0.3-1.1-0.8-2.3-0.4-1.2-0.8-2.1 1.2-0.4 2-2.1 0.9-1.6 2-4.6 0.5-1.5 1.5-4.7 1-3.3 2.1-7.7 1.1-4.3 2.2-9.3 1.1-5 1.8-9.9l6.7 1.2q-1.1 6.2-2.5 12.4-1.5 6.1-3.2 11.9-1.6 5.8-3.3 11l11.5-1.7q-1-3.2-2.2-6.5-1.2-3.3-2.4-6.3l5.7-2q1.7 3.8 3.3 8.1 1.6 4.2 2.9 8.3 1.3 4.1 2 7.2zm19.9-20.2h18.7v-3.3h-18.7zm0 5.1v3.4h18.7v-3.4zm30.7-23.8v5.8h-27.8q-0.5 1.1-1 2.1-0.6 1-1.1 2h24.1v25.7q0 2.3-0.6 3.7-0.5 1.3-2.2 2-1.5 0.7-3.7 0.9-2.3 0.1-5.5 0.1-0.2-1.3-0.7-3-0.6-1.7-1.1-2.9 1.9 0.1 3.9 0.1 1.9 0 2.6 0 1.2 0 1.2-1v-3.1h-18.8v9.9h-6.1v-22.6q-1.5 1.7-3.3 3.2-1.6 1.5-3.6 2.8-0.6-1-1.9-2.4-1.2-1.5-2.1-2.3 4.2-2.7 7.4-6.7 3.2-3.9 5.5-8.5h-11.3v-5.8h13.9q1.3-3.2 2.1-6.3l6.4 1.5q-0.4 1.2-0.8 2.4-0.4 1.2-0.9 2.4z"/>
	<path id="让每个企业拥有私有的身份和访问管理（IAM）" class="s1" aria-label="让每个企业拥有私有的身份和访问管理（IAM）"  d="m71.8 235.1l-3.9 4.5q-0.8-1.1-2.2-2.5-1.4-1.5-2.9-2.9-1.5-1.5-2.8-2.8l3.6-3.9q1.3 1.1 2.9 2.5 1.5 1.4 2.9 2.7 1.5 1.3 2.4 2.4zm-2.6 7.9v19.5l5-4q0.3 1.3 0.9 2.9 0.5 1.5 1 2.4-3.7 3.1-6.1 5.1-2.4 1.9-3.7 3-1.3 1.2-2 1.9-0.6 0.6-0.9 1.1-0.4-0.5-1.1-1.2-0.8-0.8-1.5-1.5-0.8-0.6-1.3-0.9 0.6-0.7 1.6-1.8 0.9-1.1 1.6-2.6 0.7-1.5 0.7-3.2v-14.8h-7.3v-5.9zm20.6 6.2v18.7h14.5v6.1h-32.8v-6.1h11.9v-40.5h6.4v15.8h11.2v6zm47.9 12.3l-1.8 1.8h6.2q0.1-1.3 0.2-2.7 0.1-1.5 0.1-3.2h-10.8q1.8 1 3.4 2.1 1.7 1 2.7 2zm-12-2.1l2.1-2h-6.4q-0.2 1.5-0.4 3-0.3 1.4-0.5 2.9h11.4q-1.4-1.1-3-2.1-1.7-1.1-3.2-1.8zm0.7-10.7l2.1-2.1h-5.7q-0.2 1.4-0.4 2.8-0.1 1.4-0.4 2.9h10.4q-1.4-1.1-3-2-1.5-0.9-3-1.6zm11.8 1.8l-1.8 1.8h6.2q0.1-1.4 0.1-2.7 0.1-1.4 0.1-3h-10.5q1.7 0.9 3.3 2 1.6 1 2.6 1.9zm18 1.6v5.5h-7.7q-0.1 1.6-0.2 3-0.1 1.4-0.2 2.7h5.8v5.4h-6.4q-0.5 3.1-1.4 4.2-0.8 1.3-1.9 1.8-1 0.5-2.4 0.7-1.2 0.2-3.1 0.2-1.8 0-3.8-0.1-0.1-1.1-0.5-2.4-0.4-1.4-1-2.4 1.7 0.2 3.2 0.2 1.4 0.1 2.2 0 0.7 0 1.1-0.1 0.4-0.2 0.8-0.7 0.1-0.2 0.3-0.6 0.1-0.3 0.3-0.8h-28q0.5-2.3 0.9-5.2 0.5-2.8 1-5.9h-7.2v-5.5h8q0.3-2.4 0.5-4.7 0.3-2.4 0.6-4.5-1 1.1-2 2.3-0.9 1-1.9 2-0.7-0.5-1.7-1.2-0.9-0.6-2-1.3-1.1-0.7-1.9-1.1 2.4-2 4.7-4.7 2.2-2.7 4.1-5.9 1.9-3.1 3.2-6.3l6.1 1.8q-0.3 0.7-0.7 1.6-0.4 0.8-0.8 1.6h30v5.5h-33.2q-0.7 1-1.3 2-0.7 1-1.4 2h30.8q0 0 0 0.5 0 0.5-0.1 1.2 0 0.6 0 1 0 2.2-0.1 4.3-0.1 2-0.2 3.9zm31 23.4h-6.4v-31.8h6.4zm-3.2-48.6l5.6 2.7q-0.4 0.6-0.8 1.2-0.4 0.6-0.8 1.2 6 5.9 11.2 9.1 5.3 3.2 9.9 4.9-1.3 1.1-2.6 2.8-1.3 1.6-2 3.1-2.8-1.4-6-3.3-3.1-1.9-6.7-4.7-3.5-2.8-7.6-7-4.2 4.9-9.4 8.6-5.2 3.7-10.9 6.3-0.7-1.4-2-3-1.2-1.7-2.5-3 4.9-1.9 9.6-4.6 4.6-2.7 8.4-6.3 3.9-3.6 6.6-8zm69.5 31.3h-13.9v10.4h18.6v5.5h-44.2v-5.5h5.7v-18.2h6.1v18.2h7.3v-26.7h6.5v10.7h13.9zm-18.3-31.6l5.5 2.7q-0.2 0.4-0.6 0.7-0.2 0.4-0.5 0.8 5.1 5.3 10.5 8.3 5.4 3 11 5-1.2 1-2.3 2.5-1.1 1.4-1.6 2.8-3.6-1.5-7.2-3.5-3.5-1.9-6.9-4.5-3.5-2.7-7.1-6.4-4.3 4.6-9.6 8.2-5.4 3.6-11.1 6.2-0.6-1.2-1.8-2.7-1.2-1.5-2.4-2.5 4.7-1.8 9.2-4.4 4.6-2.7 8.4-6 3.9-3.3 6.5-7.2zm42.7 30.5l-6.2 2.2q-0.6-2.5-1.6-5.9-1-3.3-2.2-7-1.2-3.6-2.4-6.8l5.6-1.7q1.3 3.1 2.6 6.6 1.3 3.5 2.4 6.9 1.2 3.2 1.8 5.7zm20 0.1v9.8h13.4v6.2h-46.5v-6.2h13.5v-39.3h6.4v39.3h6.8v-39.3h6.4v28.6q1.3-2.4 2.7-5.6 1.4-3.1 2.6-6.4 1.3-3.2 2.1-6.2l5.6 2.6q-1.2 3.3-2.6 6.8-1.4 3.3-2.9 6.5-1.4 3.1-2.8 5.6zm34.1-8.2l0.8 5.5-5.3 1.6v12.3q0 2.1-0.4 3.4-0.4 1.3-1.7 2.1-1.1 0.7-2.9 1-1.8 0.2-4.3 0.2-0.1-1.2-0.6-3-0.5-1.7-1-2.9 1.3 0 2.5 0 1.3 0 1.7 0 0.9 0 0.9-0.9v-10.6l-5.1 1.5-1.3-5.9q1.3-0.3 2.9-0.8 1.7-0.4 3.5-0.8v-9.1h-5.6v-5.8h5.6v-9.7h5.8v9.7h5.1v5.8h-5.1v7.6zm19.4-1.5v6.4h5.9v-6.4zm-11.7 6.4h6v-6.4h-5.9v1.5q0 1.1 0 2.4 0 1.2-0.1 2.5zm6-11.8v-6.3h-5.9v6.3zm5.7 0h5.9v-6.3h-5.9zm-17.4-11.9h29.2v38.7q0 2.1-0.5 3.4-0.4 1.3-1.7 2-1.2 0.7-3 0.9-1.8 0.2-4.3 0.2-0.1-1.2-0.7-2.9-0.4-1.6-1-2.8 1.4 0.1 2.7 0.1 1.3 0 1.7 0 0.9 0 0.9-0.9v-9.6h-5.9v14.8h-5.7v-14.8h-6.4q-0.6 4.4-1.9 8.7-1.3 4.4-3.9 7.6-0.4-0.5-1.3-1.3-0.9-0.7-1.8-1.4-0.9-0.7-1.6-1 2.5-3.2 3.6-7.1 1-4 1.3-8.1 0.3-4.2 0.3-7.7zm50.6 21.6h18.8v-3.3h-18.8zm0 5.1v3.4h18.8v-3.4zm30.6-23.8v5.8h-27.8q-0.5 1.1-1 2.1-0.5 1-1.1 2h24.1v25.7q0 2.3-0.6 3.7-0.5 1.3-2.1 2-1.5 0.7-3.8 0.9-2.2 0.1-5.4 0.1-0.2-1.3-0.8-3-0.5-1.7-1.1-3 2 0.1 3.9 0.2 2 0 2.7 0 1.2-0.1 1.2-1v-3.2h-18.8v10h-6.2v-22.6q-1.5 1.7-3.2 3.2-1.7 1.5-3.6 2.8-0.7-1-1.9-2.4-1.3-1.5-2.2-2.3 4.2-2.8 7.4-6.7 3.2-4 5.6-8.5h-11.4v-5.8h14q1.2-3.2 2-6.3l6.4 1.5q-0.4 1.2-0.8 2.4-0.4 1.2-0.9 2.4zm27.6 22l-3.5 5.1q-0.7-1.2-1.8-2.9-1.1-1.8-2.3-3.5v21.6h-6v-19.5q-1.5 3.3-3.3 6.3-1.7 2.9-3.6 5-0.5-1.4-1.4-3.1-0.9-1.8-1.7-3 1.7-1.6 3.3-3.9 1.7-2.3 3.1-4.9 1.5-2.6 2.6-5.1h-7.3v-5.8h8.3v-5.8q-1.7 0.4-3.5 0.6-1.8 0.2-3.4 0.4-0.2-1.1-0.7-2.5-0.4-1.4-0.9-2.4 3.3-0.4 6.8-1.1 3.5-0.7 6.7-1.5 3.2-0.8 5.6-1.8l3.3 5.2q-1.8 0.6-3.8 1.1-2 0.5-4.1 1v6.8h7.7v5.8h-7.7v0.3q0.6 0.5 1.7 1.5 1.1 1 2.3 2.3 1.2 1.2 2.2 2.3 1 1 1.4 1.5zm25.9 16.8l-6.4 2.6q-0.2-1.2-0.5-2.7-0.3-1.4-0.8-3-5.9 1-9.6 1.6-3.7 0.6-5.8 1-2 0.4-3.1 0.7-1.1 0.3-1.8 0.7-0.1-0.7-0.5-1.7-0.3-1.1-0.8-2.3-0.4-1.2-0.8-2.1 1.2-0.4 2.1-2.1 0.8-1.7 1.9-4.7 0.6-1.4 1.5-4.7 1-3.2 2.1-7.6 1.2-4.4 2.2-9.4 1.1-4.9 1.8-9.8l6.7 1.2q-1.1 6.1-2.5 12.3-1.5 6.2-3.1 12-1.6 5.8-3.4 10.9l11.5-1.6q-1-3.3-2.2-6.5-1.1-3.3-2.3-6.3l5.7-2.1q1.6 3.8 3.2 8.1 1.7 4.3 3 8.4 1.3 4 1.9 7.1zm19.9-20.1h18.8v-3.4h-18.8zm0 5.2v3.4h18.8v-3.4zm30.6-23.8v5.8h-27.8q-0.5 1-1 2.1-0.5 1-1.1 2h24.1v25.7q0 2.3-0.6 3.6-0.5 1.3-2.1 2.1-1.5 0.7-3.8 0.8-2.3 0.2-5.4 0.2-0.2-1.3-0.8-3-0.5-1.7-1.1-3 2 0.1 3.9 0.2 2 0 2.7 0 1.2-0.1 1.2-1.1v-3.1h-18.8v9.9h-6.2v-22.6q-1.5 1.7-3.2 3.3-1.7 1.5-3.6 2.8-0.7-1-1.9-2.4-1.3-1.5-2.2-2.3 4.2-2.8 7.4-6.7 3.2-4 5.6-8.5h-11.4v-5.8h14q1.2-3.3 2-6.3l6.4 1.4q-0.4 1.2-0.8 2.5-0.4 1.2-0.9 2.4zm12.5 21.3v10.2h8.2v-10.2zm0-5.4h8.3v-8.4h-8.3zm24.8-14.2h14.6q0 0 0 0.6 0 0.5 0 1.2 0 0.7 0 1-0.3 8.8-0.5 14.8-0.3 6.1-0.7 10.1-0.3 3.9-0.9 6.1-0.5 2.2-1.3 3.3-1.1 1.4-2.3 2-1.1 0.6-2.7 0.8-1.4 0.3-3.7 0.3-2.2-0.1-4.4-0.1-0.1-1.3-0.7-3.1-0.5-1.7-1.4-3 2.5 0.2 4.7 0.3 2.1 0 3.1 0 1.4 0 2.3-0.9 0.7-0.8 1.2-3.9 0.5-3 0.9-8.8 0.4-5.9 0.6-15.1h-11.1q-1 2.4-2.2 4.5-1.2 2.1-2.4 3.7-0.6-0.5-1.8-1.4-1.1-0.8-2.2-1.5v24.3h-13.9v3.8h-5.6v-38.6h5.9q0.5-2 0.9-4.3 0.4-2.3 0.6-4.1l6.8 0.9q-0.7 2-1.4 3.9-0.7 1.9-1.3 3.6h8v8.4q2.3-3.3 4.1-7.7 1.8-4.5 2.9-9l5.9 1.3q-0.4 1.7-0.9 3.3-0.5 1.6-1.1 3.3zm6 23.7l-5.2 3.2q-0.8-1.5-2-3.6-1.2-2.1-2.6-4.3-1.4-2.2-2.7-4.1l4.9-2.7q1.3 1.7 2.7 3.9 1.5 2.1 2.8 4.1 1.3 2 2.1 3.5zm28.2-6.5v3.2h17.2l1.1-0.9v-2.3zm18.3-12v-3h-18.3v3zm-18.3 7.6h18.3v-3.2h-18.3zm27.7-4.4l5.3 2.5q-1.9 3-4 5.6-2.2 2.7-4.7 5.1v11.5q0 2.6-0.6 4-0.6 1.4-2.3 2.1-1.6 0.8-4.1 1-2.6 0.1-6.3 0.1-0.1-1.3-0.8-3-0.6-1.8-1.2-3.1 1.6 0.1 3.2 0.1 1.7 0.1 2.9 0.1 1.3 0 1.8 0 0.8-0.1 1.1-0.4 0.3-0.3 0.3-1v-6.2q-6.2 4.7-13.5 8.2-7.2 3.5-15.2 5.9-0.4-0.7-1-1.6-0.7-0.9-1.4-1.9-0.8-0.9-1.3-1.5 6.6-1.7 12.6-4.2 6.1-2.5 11.4-5.8h-22.7v-5.4h6.7v-23.5h10.8q1.1-2.8 1.6-5.1l7.2 0.8q-1.1 2.2-2.3 4.3h13.1v16.1q0.9-1.1 1.7-2.3 0.9-1.2 1.7-2.4zm20.2-16.2l5.8 1.8q-1 2.7-2.2 5.4-1.2 2.7-2.6 5.3v35.8h-6.1v-26q-0.7 1-1.5 1.9-0.7 0.9-1.5 1.7-0.2-0.7-0.9-1.9-0.5-1.3-1.2-2.5-0.7-1.2-1.3-2 2.3-2.4 4.5-5.5 2.2-3.1 3.9-6.7 1.8-3.6 3.1-7.3zm22.3 1.9l5.6-1q1.1 4.5 2.5 7.9 1.4 3.4 3.4 5.9 2.1 2.5 4.9 4.6-1.1 1-2.3 2.4-1.2 1.4-1.8 2.9-0.6-0.5-1.1-1-0.5-0.4-1.1-0.9-0.2 7.5-0.6 12.2-0.4 4.7-0.9 7.2-0.4 2.5-1.2 3.4-0.9 1.2-1.8 1.7-1 0.4-2.3 0.6-1 0.2-2.7 0.2-1.7 0-3.5 0-0.1-1.3-0.5-2.9-0.5-1.6-1.2-2.8 1.5 0.2 2.8 0.2 1.4 0 2.1 0 0.6 0 0.9-0.1 0.5-0.1 0.8-0.6 0.5-0.6 0.9-2.3 0.3-1.9 0.6-5.3 0.3-3.4 0.5-8.9h-6.9q-1 8.4-3.9 14.2-2.9 5.6-8.8 9.1-0.3-0.7-1.1-1.5-0.7-0.9-1.6-1.7-0.8-0.9-1.4-1.4 5.2-2.6 7.6-7.3 2.5-4.7 3.1-11.4h-4.7v-3.2q-0.7 0.9-1.5 1.6-0.7 0.7-1.5 1.5-0.4-0.8-1-1.9-0.6-1.1-1.3-2.1-0.8-1.1-1.3-1.7 3.8-3 6.5-7.8 2.7-4.7 4-10.4l6.1 1.3q-1.3 4.7-3.3 9.1-1.9 4.3-4.5 7.8h18.7q-2.6-3.3-4.3-7.6-1.7-4.3-2.9-10zm42.7 19.1h-7.5v0.9q0.8 0.8 1.9 2.1 1.2 1.2 2.4 2.6 1.2 1.4 2.2 2.6 1 1.1 1.4 1.6l-3.5 5.2q-0.8-1.4-2-3.2-1.1-1.8-2.4-3.6v19.1h-6.2v-18.5q-1.6 3.7-3.4 7-1.8 3.2-3.9 5.5-0.4-1.4-1.4-3.1-1-1.6-1.7-2.8 2.6-2.8 5-6.9 2.3-4.2 3.9-8.5h-7.8v-5.7h9.3v-6.8q-2 0.3-3.8 0.6-1.9 0.2-3.7 0.5-0.2-1-0.7-2.4-0.4-1.4-0.9-2.4 3.3-0.5 6.8-1.2 3.6-0.7 6.7-1.5 3.2-0.9 5.5-1.8l4 4.8q-1.7 0.7-3.6 1.2-2 0.6-4.1 1v8h7.5zm7.5-10.4v25.2h8.3v-25.2zm-6.1 35.3v-41.2h20.8v40.8h-6.4v-3.7h-8.3v4.1zm42.3-37.7l-4.6 4.3q-0.8-1.1-2.1-2.6-1.4-1.5-2.8-3.1-1.5-1.5-2.7-2.8l4.3-3.8q1.3 1.2 2.7 2.7 1.5 1.4 2.9 2.8 1.4 1.4 2.3 2.5zm-1.8 7.4v19l5.3-4q0.2 1.2 0.7 2.7 0.6 1.5 1.1 2.3-3.9 3.1-6.3 5.1-2.4 1.9-3.8 3.1-1.3 1.2-1.9 1.9-0.7 0.7-1 1.2-0.3-0.7-1.1-1.6-0.6-1-1.4-1.9-0.7-0.9-1.3-1.5 0.7-0.5 1.5-1.4 0.8-0.9 1.4-1.9 0.6-1.2 0.6-2.5v-14.6h-7.1v-5.9zm34.8-7v6h-17.9q0 1.5-0.1 2.9 0 1.3-0.1 2.7h14.9q0 0 0 1 0 1-0.1 1.5-0.3 7.5-0.7 12.2-0.3 4.6-0.9 7.1-0.5 2.5-1.4 3.5-0.8 1.1-1.8 1.6-1 0.5-2.4 0.7-1.1 0.2-2.9 0.2-1.9 0-3.8 0-0.1-1.4-0.6-3.1-0.5-1.6-1.3-2.8 1.9 0.1 3.4 0.2 1.5 0 2.2 0 0.7 0 1.1-0.1 0.4-0.2 0.8-0.6 0.7-0.8 1.2-4.4 0.5-3.6 0.9-11.3h-9q-0.8 6.9-2.8 12.8-2.1 5.7-6.7 9.9-0.7-1.2-2-2.5-1.2-1.3-2.3-2 2.7-2.5 4.4-5.7 1.6-3.2 2.3-6.9 0.9-3.8 1.1-8 0.4-4.3 0.4-8.9h-6.8v-6h13q-0.4-1.6-1-3.6-0.6-2.1-1.2-3.9l5.9-1.5q0.7 1.7 1.5 4 0.8 2.1 1.1 3.6l-4.4 1.4zm12.1 39.7h-6.2v-36h6.2zm-5.8-45.2l4.5-3q1.3 1.3 2.8 2.9 1.5 1.6 2.9 3.1 1.4 1.5 2.3 2.7l-4.8 3.4q-0.8-1.2-2.1-2.8-1.4-1.6-2.8-3.2-1.5-1.7-2.8-3.1zm25.2 26.8v-8.6h-7.9v8.6zm6-14.2v19.7h-13.9v3h-5.6v-22.7zm-17.5-13.4h30v38.6q0 2.5-0.6 3.9-0.6 1.4-2.1 2.1-1.5 0.8-3.9 1-2.3 0.2-5.6 0.1-0.2-1.3-0.8-3.1-0.5-1.8-1.1-3 1.3 0.1 2.7 0.2 1.4 0 2.5 0 1.1 0 1.5 0 0.7 0 1-0.3 0.2-0.3 0.2-1v-32.7h-23.8zm47.2 5.5h-2q-1 1.7-2.1 3.2-1.1 1.5-2.1 2.7-0.7-0.4-1.7-0.9-0.9-0.5-2-1-1-0.5-1.7-0.8 2.2-2.2 4-5.2 1.8-3.1 2.8-6.4l6.1 1.1q-0.3 0.7-0.6 1.5-0.2 0.7-0.6 1.4h12.4v4.4h-6.4q0.8 0.9 1.3 1.9 0.6 1 0.9 1.7l-5.3 1.9q-0.4-1.1-1.2-2.6-0.9-1.5-1.8-2.9zm25.2 34.6v-2.9h-21.9v2.9zm-2.6-14.3v-2.7h-19.4v2.7zm6.1 4.5h-25.4v2.4h28.1v13.4h-6.2v-1.4h-21.9v1.4h-6.3v-27.4h31.7zm-20-21.3l5.6-1.1q0.5 0.8 1.1 1.9 0.6 1.1 0.9 2.1h18.9v9.1h-6.4v-4.5h-32.1v4.5h-5.9v-9.1h19.3q-0.3-0.7-0.6-1.5-0.3-0.8-0.8-1.4zm13.7-7.8h13.8v4.3h-7.2q0.8 0.9 1.4 1.8 0.6 0.8 1 1.5l-5.2 2.4q-0.5-1.2-1.5-2.7-1.1-1.6-2.3-3h-2.1q-0.7 1.1-1.4 2.1-0.7 1.1-1.5 1.9-0.9-0.6-2.5-1.3-1.6-0.9-2.6-1.3 1.8-1.9 3.1-4.5 1.4-2.6 2.1-5.3l6 1.1q-0.2 0.7-0.6 1.5-0.2 0.8-0.5 1.5zm35.1 28.6l1 5.8q-4.3 1.5-8.7 3-4.5 1.4-8.2 2.6l-1.4-6.3q1.3-0.3 2.9-0.7 1.6-0.5 3.4-1v-12.2h-5.3v-5.7h5.3v-9.1h-5.7v-5.8h17.1v5.8h-5.5v9.1h4.7v5.7h-4.7v10.4q1.3-0.4 2.5-0.8 1.3-0.4 2.6-0.8zm13.3-15.7h-5.3v4.5h5.3zm0-9.2h-5.3v4.3h5.3zm5.2 4.3h5.2v-4.3h-5.2zm0 9.3h5.2v-4.4h-5.2zm0.6 15.3v4.9h12.8v5.6h-33.4v-5.6h14.3v-4.9h-10.8v-5.6h10.8v-4.5h-10.4v-24.2h27.2v24.2h-10.5v4.5h11v5.6zm63.9 10.6l-5 2.2q-2.8-2.8-5.1-6.5-2.3-3.6-3.7-8.3-1.4-4.6-1.4-10.2 0-5.5 1.4-10.2 1.4-4.6 3.7-8.3 2.3-3.7 5.1-6.4l5 2.2q-2.6 2.8-4.7 6.1-2.1 3.4-3.4 7.5-1.2 4.1-1.2 9.1 0 5 1.2 9.1 1.3 4.1 3.4 7.5 2.1 3.4 4.7 6.2zm14.8-3h-7.7v-38.5h7.7zm17.8-20.1l-1.2 4.3h9.2l-1.1-4.3q-0.9-3-1.8-6.2-0.7-3.2-1.6-6.3h-0.2q-0.8 3.1-1.6 6.4-0.8 3.1-1.7 6.1zm20.4 20.1h-8l-2.7-9.9h-12.5l-2.7 9.9h-7.8l12.3-38.5h9zm11.5 0h-6.9v-38.4h8.5l6.6 17.9q0.6 1.8 1.1 3.7 0.6 1.9 1.2 3.8h0.3q0.6-1.9 1.1-3.8 0.6-1.9 1.2-3.7l6.4-17.9h8.5v38.4h-7v-16q0-1.9 0.2-4.1 0.1-2.3 0.3-4.5 0.3-2.2 0.4-4.1h-0.2l-3.1 9.1-5.9 16.2h-4.4l-6-16.2-3.1-9.1h-0.2q0.2 1.9 0.4 4.1 0.2 2.2 0.4 4.5 0.2 2.2 0.2 4.1zm35.1-42.6l4.9-2.2q2.8 2.8 5.2 6.5 2.3 3.7 3.7 8.3 1.4 4.6 1.4 10.2 0 5.6-1.4 10.2-1.4 4.6-3.7 8.3-2.4 3.7-5.2 6.5l-4.9-2.2q2.6-2.8 4.7-6.2 2.1-3.4 3.3-7.5 1.3-4.1 1.3-9.1 0-5-1.3-9.1-1.2-4.1-3.3-7.5-2.1-3.4-4.7-6.2z"/>
	<path id="Authsaur" class="s0" aria-label="Authsaur"  d="m89.4 91.4l-1.9 7.5h18.2l-1.9-7.5q-1.8-6.8-3.6-14.3-1.7-7.6-3.5-14.4h-0.5q-1.5 6.9-3.3 14.5-1.8 7.4-3.5 14.2zm48.1 44.6h-22.6l-5.1-20.5h-26.4l-5.2 20.5h-21.8l27.7-89.3h25.7zm28.2 1.7q-11.2 0-16.2-7.4-5.1-7.6-5.1-20.3v-42.3h21.4v39.6q0 7.1 1.9 9.6 1.9 2.6 6 2.6 3.6 0 6.1-1.6 2.7-1.7 5.3-5.4v-44.8h21.4v68.3h-17.4l-1.6-9.3h-0.5q-4.2 5-9.2 8-5 3-12.1 3zm84.8 0q-12.8 0-18.5-7.4-5.6-7.5-5.6-19.6v-26.3h-9.2v-15.8l10.4-0.9 2.4-18h17.8v18h16v16.7h-16v26.1q0 5.6 2.4 8.1 2.5 2.4 6.2 2.4 1.7 0 3.4-0.3 1.6-0.5 2.8-0.9l3.4 15.4q-2.6 0.8-6.5 1.7-3.7 0.8-9 0.8zm47.8-1.7h-21.3v-95.9h21.3v23.1l-1 12.1q3.7-3.5 8.8-6.4 5.1-2.8 12.1-2.8 11.2 0 16.2 7.4 5 7.4 5 20.3v42.2h-21.3v-39.6q0-7.1-1.9-9.6-2-2.5-6-2.5-3.6 0-6.3 1.6-2.5 1.5-5.6 4.5zm78.1 1.7q-6.6 0-13.9-2.6-7.2-2.7-12.4-7l9.5-13.3q9.4 7.2 17.3 7.2 4.2 0 6.1-1.5 1.9-1.4 1.9-3.9 0-2.1-1.9-3.5-1.9-1.4-5-2.6-3.2-1.4-6.6-2.7-4.1-1.7-8.2-4.2-4.1-2.5-6.8-6.3-2.8-3.9-2.8-9.5 0-6.5 3.2-11.4 3.4-4.9 9.3-7.6 6-2.7 13.9-2.7 8.2 0 14 2.7 6 2.7 10.5 6l-9.6 12.7q-3.6-2.5-7.2-4-3.5-1.7-7-1.7-7.2 0-7.2 4.9 0 3 4 4.7 4.1 1.5 9.3 3.5 4.4 1.5 8.4 4 4.2 2.4 6.9 6.4 2.7 3.8 2.7 10.1 0 6.2-3.2 11.4-3.2 5-9.6 8-6.2 2.9-15.6 2.9zm58.1 0q-6.3 0-10.8-2.8-4.6-2.8-7.1-7.5-2.4-4.8-2.4-10.5 0-10.8 9-16.8 9-6.1 28.9-8.2-0.3-4.2-2.7-6.5-2.3-2.3-7.6-2.3-4.1 0-8.4 1.6-4.3 1.5-9.5 4.4l-7.4-14q6.7-4.1 14-6.5 7.3-2.5 15.4-2.5 13.2 0 20.4 7.5 7.2 7.6 7.2 23.7v38.7h-17.4l-1.6-6.8h-0.5q-4.2 3.7-9.1 6.1-4.8 2.4-10.4 2.4zm7.3-16.6q3.2 0 5.6-1.4 2.4-1.4 4.7-4v-10.9q-9.9 1.3-13.8 4.1-3.8 2.8-3.8 6.4 0 3 1.9 4.4 2 1.4 5.4 1.4zm68.6 16.6q-11.1 0-16.2-7.4-5-7.6-5-20.3v-42.3h21.4v39.6q0 7.1 1.9 9.6 1.9 2.6 6 2.6 3.6 0 6.1-1.6 2.6-1.7 5.3-5.4v-44.8h21.3v68.3h-17.4l-1.5-9.3h-0.5q-4.2 5-9.2 8-5.1 3-12.2 3zm79.2-1.7h-21.2v-68.3h17.4l1.4 11.9h0.5q3.9-6.8 9-10.2 5.3-3.3 10.5-3.3 3.1 0 4.9 0.4 1.9 0.4 3.3 1l-3.6 18.4q-1.8-0.5-3.4-0.8-1.7-0.3-4-0.3-3.7 0-7.9 2.7-4.1 2.8-6.9 9.5z"/>
</svg>