<svg xmlns="http://www.w3.org/2000/svg" viewBox="0 0 500 500"><g id="freepik--tree-2--inject-2"><path d="M343.56,207.46c5-.24,9.7-1.09,14.77.52s11.44,4.86,16.61,6.24a146.32,146.32,0,0,0,17,3.33c4.07.46,3.29.22,6.47.46-2.46.45-4.65.77-6.93,1a75.72,75.72,0,0,0,8.37-.13,9.75,9.75,0,0,1,2,0c-1.75.38-3.38.75-5,1.14,2.09,0,5.37.09,7.18.12a27.41,27.41,0,0,1,3.66.39c-1.24.17-3.38.35-4.35.51a10,10,0,0,0-1.48.45c2.05.11,4.78.25,6.6.49s2.73.46,4.38.71l-6.49.36c1.21.3,2.46.58,3.67.85a13,13,0,0,0,2.12.35,38.38,38.38,0,0,1,5.55.87c-3.11,0-6.28,0-9.36,0,1.93.35,4.91.89,6.6,1.24s3.1.42,4.29.71a17,17,0,0,1,2.17.85c-2.3-.19-6.87-.61-8.59-.66s-.59.16-1.73.15c2,.44,4.82.78,6.52,1.29s2.21,1.15,3.69,1.67l-4.74-.31c3.21,1,6.41,1.92,9.6,2.94-2-.16-3.92-.32-5.88-.44,2.18.85,4.35,1.71,6.49,2.64-1.85-.22-3.71-.36-5.56-.52,2,.67,3.94,1.34,5.89,2.07-.93.16-1.86.31-2.78.49,1.08.52,2.15,1.08,3.22,1.63-1.73-.34-3.43-.66-5.18-1,.59.37.86.49,1.52.9s1,.57,1.91,1.2,2.76,2,3.85,2.76c-1.09,0-2.24-.08-3.35-.12l3.86,2.42-2.76-.25c2.09,3.14,4.11,6.32,6.15,9.49-2.05-2-4.07-4-6.17-5.93,0,2.15.08,4.31.11,6.46-.42-1.74-.83-3.48-1.27-5.21-.29,1.35-.58,2.7-.88,4-.58-2.78-1.2-5.55-1.8-8.32,0,1.83,0,3.67-.07,5.5-.82-1.85-1.65-3.7-2.47-5.54-.08,1.84-.15,3.68-.23,5.52l-1.14-3.08-.3,4.5c-.71-3-1.43-6.19-2.2-9.06-.06,1.42-.1,6.55-.47,7.11s-.48-3.27-.8-3.55c-.24.85-.49,2-.75,3-.41-1.79-.83-3.59-1.24-5.39l-.48,4.28-1.65-4.3c0,1.48-.09,3-.07,4.45-.62-1.3-1.19-2.63-1.76-3.95-.14,1-.26,2-.37,3-.92-1.65-1.82-3.3-2.69-5-.27,1.17-.5,2.34-.74,3.52-.27-1.06-.59-2.11-.82-3.18-.25.56-.49,1.13-.72,1.69-.49-1.61-.88-3.25-1.3-4.89-.27,1-.55,2-.82,3-.25-.78-.42-1.49-.67-2.27s-.34-1.38-.68-2.24-.95-2.07-1.31-3c0,2.82-.1,5.68.1,8.5-.77-2.29-1.31-4.65-1.9-7q-.51,2.84-1,5.67c-.55-3.28-1.09-6.57-1.64-9.86,0,2.77,0,5.64-.08,8.35-.8-2-2.3-5.78-2.94-7.37l-.87-2.2c.54,2.86,1,5.58,1.53,8.38l-3.57-4.73c.27,1.77.53,3.55.75,5.33-1.19-2.22-2.63-4.64-3.66-6.75-.16,1.3,1.51,7.36,1,7.53s-2.54-5.9-3-7c0,2.47.21,5.35.32,8-.85-2.89-1.67-5.79-2.44-8.7-.37,2.16-.76,4.31-1.09,6.48-.34-3.41-.58-6.87-.7-10.3-.31,2.8-.53,5.61-.8,8.41-.28-2.25-.6-4.49-.82-6.75-.3,1.86-.57,3.73-.85,5.6-.31-1.55-.57-3.1-.83-4.66-.25,1.25-.55,2.49-.78,3.74-.22-2.29-.34-4.6-.48-6.9-.2,1.63-.4,3.26-.61,4.89l-.45-7.2c-.66,2.38-1.33,4.72-2,7.14-.06-1.06-.07-1.17-.15-2.45s-.23-3.69-.32-5.18c-.45,1.75-.89,3.59-1.33,5.38-.14-1.45-.27-2.9-.4-4.35-.2.94-.39,1.89-.59,2.84-.67-2.13-1.41-4.25-1.94-6.42-.18,2-.24,3.94-.32,5.91-.46-1.77-.92-3.53-1.26-5.33-.13,1.25-.25,2.49-.33,3.74-.38-2.15-.58-4.32-.83-6.48l-1.27,3.1c-.11-1.48-.21-3-.31-4.46l-.69,5.9c-.54-2-1.07-3.9-1.61-5.85-.37,1.42-.75,2.87-1.13,4.27-.09-1.06-.23-2.59-.31-3.53s-.06-.58-.14-1.62-.22-3.09-.31-4.33c-.42,2-.82,4.06-1.27,6.07-.2-2.56-.39-5.11-.59-7.67L356.35,217c.47-2.09.93-4.19,1.43-6.27C353.73,207.65,348.46,207.42,343.56,207.46Z" style="fill:#92E3A9"></path><path d="M404.56,244.82c.23-.56.47-1.13.72-1.69.23,1.07.55,2.12.82,3.18.24-1.18.47-2.35.74-3.52.87,1.68,1.77,3.33,2.69,5,.11-1,.23-2,.37-3,.57,1.32,1.14,2.65,1.76,3.95,0-1.48,0-3,.07-4.45l1.65,4.3.48-4.28c.41,1.8.83,3.6,1.24,5.39.26-1,.51-2.11.75-3,.32.28.42,4.1.8,3.55s.41-5.69.47-7.11c.77,2.87,1.49,6.05,2.2,9.06l.3-4.5,1.14,3.08c.08-1.84.15-3.68.23-5.52.82,1.84,1.65,3.69,2.47,5.54,0-1.83.05-3.67.07-5.5.6,2.77,1.22,5.54,1.8,8.32.3-1.35.59-2.7.88-4q.65,2.59,1.27,5.21c0-2.15-.13-4.31-.06-6.46a104.24,104.24,0,0,0-24.89-20.4c-10.08-6.05-24.62-6.83-35.73-12.52-2.69-1.37-6.25-3.14-9-4.59-.53,2-.95,4.14-1.43,6.21l1.56-3.55c.2,2.56.39,5.11.59,7.67.45-2,.85-4.08,1.27-6.07.09,1.24.23,3.3.31,4.33s.06.67.14,1.62.22,2.47.31,3.53c.38-1.4.76-2.85,1.13-4.27.54,1.94,1.07,3.9,1.61,5.85l.69-5.9c.1,1.49.2,3,.31,4.46l1.27-3.1c.25,2.16.45,4.33.83,6.48.08-1.25.2-2.49.33-3.74.34,1.8.8,3.56,1.26,5.33.08-2,.14-3.94.32-5.91.53,2.17,1.27,4.29,1.94,6.42.2-.95.39-1.9.59-2.84.13,1.45.26,2.9.4,4.35.44-1.79.88-3.63,1.33-5.38.09,1.49.24,3.91.32,5.18s.09,1.39.15,2.45c.66-2.42,1.33-4.76,2-7.14l.45,7.2c.2-1.63.41-3.26.61-4.89.14,2.3.26,4.61.48,6.9.24-1.25.53-2.49.78-3.74.26,1.56.52,3.11.83,4.66.28-1.87.55-3.74.85-5.6.22,2.26.54,4.5.82,6.75.27-2.8.49-5.61.8-8.41.12,3.43.36,6.89.7,10.3.33-2.17.72-4.32,1.09-6.48.77,2.91,1.59,5.81,2.44,8.7-.11-2.63-.34-5.5-.32-8,.45,1.13,2.54,7.19,3,7s-1.21-6.23-1-7.53c1,2.11,2.47,4.53,3.66,6.75-.22-1.78-.48-3.56-.75-5.33l3.57,4.73c-.52-2.8-1-5.52-1.53-8.38l.87,2.2c.64,1.59,2.14,5.36,2.94,7.37,0-2.71,0-5.58.08-8.35.55,3.29,1.09,6.58,1.64,9.86q.53-2.84,1-5.67c.59,2.34,1.13,4.7,1.9,7-.2-2.82-.13-5.68-.1-8.5.36.94,1,2.16,1.31,3s.42,1.46.68,2.24.42,1.49.67,2.27c.27-1,.55-2,.82-3C403.68,241.57,404.07,243.21,404.56,244.82Z" style="opacity:0.48"></path><path d="M433.54,254.26a5.37,5.37,0,0,0-.5-.77,15.25,15.25,0,0,0-1.58-1.23Z" style="fill:#92E3A9"></path><path d="M349.62,207.07c-2,.07-4,.18-6.05.41a27.6,27.6,0,0,1,8.87.79Q351,207.64,349.62,207.07Z" style="fill:#92E3A9"></path><path d="M329.91,225.5c-2.64,2.82-5.28,5.61-8,8.34l4-2.16-7.56,6.07,6.88-3.28-10,8.29,6.19-2.84c-3.13,2.44-6.26,4.85-9.49,7.14,1.7-.59,3.41-1.16,5.1-1.8-2.17,2.06-4.39,4.06-6.59,6.09l5.53-2.67c-5,5.42-10.11,10.67-15.33,15.86,3.86-2.6,7.75-5.16,11.56-7.83-3.53,3.7-7.19,7.27-10.78,10.91,2.3-1.22,4.6-2.45,6.91-3.65-2.48,2.49-4.87,5.07-7.38,7.54,3.14-1.48,6.26-3,9.38-4.5q-5.65,4.71-11.39,9.31l7.56-4.18c-3.12,3.09-6.18,6.25-9.45,9.18,2.16-1,4.28-2.11,6.41-3.19a138.53,138.53,0,0,1-11.27,8.16c2.61-1.18,5.33-2.27,7.84-3.64-2.9,2.61-6.18,4.91-9.2,7.38,2.76-1.57,5.53-3.13,8.29-4.71-3.46,2.83-6.94,5.63-10.37,8.51,3.29-1.88,6.62-3.68,9.93-5.53-3.47,2.77-7,5.49-10.32,8.42,3.3-1.85,6.66-3.59,10-5.34-3.77,3.49-7.42,7.07-11,10.75,2.94-1.29,5.87-2.6,8.82-3.86-3.81,2.82-7.44,5.85-11.05,8.91,2.47-1.61,4.9-3.28,7.41-4.82-1.71,2.26-3.2,4.69-4.75,7.06,1.88-1.63,3.78-3.25,5.66-4.87q-2.85,4.11-5.66,8.25l6.12-3.94-4.9,7.91,3.74-2.92-4.38,7.85,5.28-5.63-2.91,8,2.88-3.61c-.25,2.65-.49,5.3-.74,7.94l1.89-7.87c.28,1.13.55,2.26.83,3.39l.93-4.7,1.83,3.42c.25-2.08.46-4.18.77-6.25.55,1.31,1.15,2.61,1.73,3.91-.19-2.41-.3-4.82-.52-7.22.86,1.12,1.68,2.26,2.49,3.4,0-2.05-.12-4.09-.23-6.14q2,2.57,3.83,5.2c-.27-2.22-.6-4.43-1-6.64l1.83,2.06c-.49-2.71-.69-5.48-1-8.22.77,2,1.53,3.95,2.3,5.93l-.84-6.5c.74,1.1,1.47,2.22,2.21,3.33-.74-3.12-1.39-6.33-1.87-9.43.78,1.57,2.57,5,3.14,6.13s-.07-.14.27.51c-.44-2.23-.78-4.31-1.16-6.49l1-2.24c1.15,2,2.3,4,3.43,6-.23-2.53-.47-5-.7-7.58.67,1.12,1.38,2.23,2.05,3.35-.28-2.76-.66-5.51-1-8.26,1.15,2.08,2.28,4.15,3.41,6.24q-.52-2.85-1.07-5.68c1,1.49,1.95,3,3,4.45q-1.05-4.76-2.3-9.46c.92,1.46,1.85,2.9,2.82,4.32-.42-2.58-.85-5.15-1.27-7.73l4,4.32q-.87-2.82-1.75-5.65l2.63,2.28a65.83,65.83,0,0,0-.89-6.87c1,1.7,1.86,3.44,2.73,5.19-.25-1.6-.52-3.16-.92-4.74l3.46,2.31-1.77-4.91a52.82,52.82,0,0,0,5.25,4.09,60.39,60.39,0,0,1-3.18-6.94,61.35,61.35,0,0,0,5.63,4.28,69,69,0,0,1-4.78-8l3.92,2.42c-.85-1.88-1.7-3.73-2.71-5.53l2.83.78-1.84-2.84,3.54,2.36c-.93-1.41-1.87-2.82-2.8-4.24,1.36.58,2.73,1.16,4.1,1.72q-2.49-2.71-5-5.41c1.9,1,3.81,1.9,5.72,2.84l-3.59-4.35,3,.81c-1.24-1.67-2.5-3.32-3.75-5,1.49.66,3,1.3,4.48,1.94-1.25-2.64-2.43-5.31-3.61-8,2,1.5,3.93,3,5.93,4.48-1.22-1.74-2.38-3.51-3.56-5.27l4.07,1.6-4.44-3.67,4.86,2.24c-1.66-1.91-3.32-3.84-5-5.74l4.34,2.4c-2.2-2.5-4.4-5-6.57-7.54,1.53.83,3.07,1.63,4.61,2.43-1.39-2-2.74-4-4.14-5.92,0-2.33-.73-4.21-.69-6.64s.77-5.42,1-8c-.35-.08-.76-.12-1.14-.19C331.78,216.74,329.84,221.08,329.91,225.5Z" style="fill:#92E3A9"></path><path d="M328,243c4.11-15.18,2.79-17.5,5.5-30.14-1.88,4.33-3.69,8.2-3.6,12.62-2.63,2.8-5.29,5.61-8,8.33l4-2.16-7.56,6.07,6.88-3.28-10,8.29,6.19-2.84c-3.13,2.44-6.26,4.85-9.49,7.14,1.7-.59,3.41-1.16,5.1-1.8-2.17,2.06-4.39,4.06-6.59,6.09l5.53-2.67c-5,5.42-10.11,10.67-15.33,15.86,3.86-2.6,7.75-5.16,11.56-7.83-3.53,3.7-7.19,7.27-10.78,10.91,2.3-1.22,4.6-2.45,6.91-3.65-2.48,2.49-4.87,5.07-7.38,7.54,3.14-1.48,6.26-3,9.38-4.5q-5.65,4.71-11.39,9.31l7.56-4.18c-3.12,3.09-6.18,6.25-9.45,9.18,2.16-1,4.28-2.11,6.41-3.19a138.53,138.53,0,0,1-11.27,8.16c2.61-1.18,5.33-2.27,7.84-3.64-2.9,2.61-6.18,4.91-9.2,7.38,2.76-1.57,5.53-3.13,8.29-4.71-3.46,2.83-6.94,5.63-10.37,8.51,3.29-1.88,6.62-3.68,9.93-5.53-3.47,2.77-7,5.49-10.32,8.42,3.3-1.85,6.66-3.59,10-5.34-3.77,3.49-7.42,7.07-11,10.75,2.94-1.29,5.87-2.6,8.82-3.86-3.81,2.82-7.44,5.85-11.05,8.91,2.47-1.61,4.9-3.28,7.41-4.82-1.71,2.26-3.2,4.69-4.75,7.06,1.88-1.63,3.78-3.25,5.66-4.87q-2.85,4.11-5.66,8.25l6.12-3.94-4.9,7.91,3.74-2.92-4.38,7.85,5.28-5.63-2.91,8,2.88-3.61c-.17,1.87-.36,3.77-.52,5.63,0,.18.3-.26,0,.31,2.19-11,.58-11.05,6.85-24.46S323.9,258.22,328,243Z" style="opacity:0.48"></path><path d="M326.12,218.74c-3.52,1.57-7,3.19-10.59,4.65,1.49-.14,3-.31,4.45-.5-3.05,1-6.15,1.82-9.23,2.7l7.56-.35L305.93,229l6.76-.21-11.37,3.07,5.3.12c-2.78,1.15-5.56,2.28-8.39,3.32,2.06-.13,4.13-.3,6.18-.49-6.54,3.21-13.15,6.27-19.69,9.5,4.33-1.18,8.63-2.39,13-3.46-4.48,2.14-8.9,4.36-13.31,6.63,2.45-.41,4.9-.88,7.37-1.21-3,1.5-6,3.18-9,4.78,3.26-.43,6.52-.87,9.8-1.2-4.43,1.66-8.78,3.37-13.29,4.81,2.75-.38,5.53-.65,8.25-1.22-3.69,2-7.72,3.51-11.55,5.24l6.87-.68c-4.12,1.43-8.23,2.86-12.36,4.26,2.65-.36,5.29-.73,7.94-1.11-3.37,1.48-6.74,2.92-10.1,4.41,2.88-.66,5.77-1.29,8.66-1.95-3.83,1.7-7.66,3.37-11.46,5.12q5.18-1.19,10.36-2.29c-3.85,1.6-7.67,3.28-11.48,5,3.51-.7,7-1.41,10.53-2.07-4.33,2.28-8.59,4.67-12.88,7,3.13-.31,6.26-.6,9.39-.89-4.35,1.64-8.69,3.31-13.05,4.92,2.87-.68,5.73-1.39,8.59-2.09-2.26,1.68-4.52,3.35-6.77,5l7-2.65c-2.72,1.91-5.44,3.81-8.15,5.73l7.13-1.63q-3.68,2.82-7.31,5.67l4.53-1.47-6.77,5.81,6.88-3.47c-1.8,2.14-3.61,4.28-5.41,6.43l3.93-2.4c-1.12,2.37-2.21,4.75-3.31,7.13q2.17-3.34,4.38-6.68l-.33,3.4,2.43-4,.6,3.76,2.76-5.55c.12,1.39.23,2.79.35,4.18l1.83-6.87c.42,1.32.83,2.64,1.24,4,.59-1.93,1.17-3.86,1.76-5.79l1.89,6.05q.6-3.24,1.22-6.48l1,2.48c.47-2.66,1-5.32,1.5-8,.1,2.07.19,4.14.32,6.2.33-2.11.72-4.21,1.09-6.31.34,1.26.69,2.54,1,3.8.23-3.18.41-6.47.62-9.59.35,1.75,1.11,5.63,1.35,6.87s0-.16.11.58c.12-2.28.28-4.39.4-6.61.43-.63.87-1.25,1.34-1.86.46,2.32,1,4.63,1.55,6.94.32-2.51.66-5,1.09-7.48.28,1.29.55,2.58.85,3.87.41-2.76.87-5.51,1.31-8.26q.54,3.6,1.1,7.2c.21-1.94.43-3.88.64-5.82l1.17,5.35c.32-3.32.58-6.65,1-10,.27,1.72.59,3.45.89,5.17.49-2.64,1-5.27,1.48-7.91.62,1.85,1.22,3.71,1.76,5.59.21-2,.32-4,.44-6,.46,1,.91,2.09,1.37,3.13.51-2.29,1-4.59,1.51-6.88q.22,3,.44,5.93c.3-1.61.59-3.22.88-4.83.65,1.14,1.29,2.29,1.94,3.44.16-1.75.31-3.5.5-5.24q1.32,2.9,2.62,5.79c.12-2.56.29-5.12.35-7.68.92,2,1.81,4.06,2.69,6.11-.11-3.1-.2-6.23-.56-9.31.84,1.24,1.64,2.52,2.44,3.8,0-2.07-.07-4.13-.16-6.2l2,1.77c-.11-1.09-.23-2.18-.34-3.27l2,3.49-.57-4.93c.92,1.05,1.83,2.1,2.74,3.16q-1-3.45-1.91-6.89l3.66,4.81c-.4-1.82-.81-3.65-1.21-5.47l2.27,2c-.35-2.06-.81-4.1-1.25-6.14,1.06,1.21,2.11,2.42,3.17,3.62,0-2.92,0-5.85.07-8.77q1.75,3.25,3.48,6.52l-1-6.29c1,1,2,2.08,3,3.13-.82-1.73-1.66-3.44-2.5-5.16,1.16,1.33,2.32,2.66,3.45,4-.7-2.42-1.41-4.84-2.15-7.26l3,3.95c-1-3.2-2-6.38-3-9.55,1.12,1.37,2.24,2.73,3.34,4.11-.48-2.38-1-4.77-1.55-7.14.84-2.19,1-4.18,2-6.41s2.87-4.7,4-7c-.3-.2-.66-.39-1-.59C331.33,211.38,327.85,214.63,326.12,218.74Z" style="fill:#92E3A9"></path><path d="M317.58,234c9.86-11.44,9.44-15.4,16.84-25.51-3.42,3.23-6.59,6.16-8.3,10.25-3.51,1.57-7,3.19-10.59,4.65,1.49-.14,3-.31,4.45-.5-3.05,1-6.15,1.82-9.23,2.7l7.56-.35L305.93,229l6.76-.21-11.37,3.07,5.3.12c-2.78,1.15-5.56,2.28-8.39,3.32,2.06-.13,4.13-.3,6.18-.49-6.54,3.21-13.15,6.27-19.69,9.5,4.33-1.18,8.63-2.39,13-3.46-4.48,2.14-8.9,4.36-13.31,6.63,2.45-.41,4.9-.88,7.37-1.21-3,1.5-6,3.18-9,4.78,3.26-.43,6.52-.87,9.8-1.2-4.43,1.66-8.78,3.37-13.29,4.81,2.75-.38,5.53-.65,8.25-1.22-3.69,2-7.72,3.51-11.55,5.24l6.87-.68c-4.12,1.43-8.23,2.86-12.36,4.26,2.65-.36,5.29-.73,7.94-1.11-3.37,1.48-6.74,2.92-10.1,4.41,2.88-.66,5.77-1.29,8.66-1.95-3.83,1.7-7.66,3.37-11.46,5.12q5.18-1.19,10.36-2.29c-3.85,1.6-7.67,3.28-11.48,5,3.51-.7,7-1.41,10.53-2.07-4.33,2.28-8.59,4.67-12.88,7,3.13-.31,6.26-.6,9.39-.89-4.35,1.64-8.69,3.31-13.05,4.92,2.87-.68,5.73-1.39,8.59-2.09-2.26,1.68-4.52,3.35-6.77,5l7-2.65c-2.72,1.91-5.44,3.81-8.15,5.73l7.13-1.63q-3.68,2.82-7.31,5.67l4.53-1.47-6.77,5.81,6.88-3.47c-1.8,2.14-3.61,4.28-5.41,6.43l3.93-2.39c-.79,1.67-1.59,3.36-2.35,5-.07.18.3-.19,0,.34,4.75-10.09,5.39-9.3,14.25-20.56S307.72,245.44,317.58,234Z" style="opacity:0.48"></path><path d="M333.79,197.76c-.5-3.85-1-7.7-1.53-11.55-.23,1.46-.46,2.92-.73,4.38,0-3.21-.13-6.42-.2-9.63-.54,2.43-1.09,4.86-1.63,7.28-.16-4.32-.29-8.64-.5-13-.49,2.16-1,4.32-1.53,6.48,0-3.9-.08-7.79-.15-11.69q-.72,2.5-1.45,5c-.43-2.92-.86-5.84-1.33-8.76-.3,2-.59,3.92-.9,5.89-1.67-7.06-3.47-14.08-5.27-21.1.21,4.45.42,8.9.59,13.35q-1.86-7.2-3.81-14.37c-.17,2.49-.34,5-.5,7.46q-1.41-4.92-2.84-9.83c-.33,3.26-.68,6.52-1,9.79q-1.23-6.87-2.43-13.74c-.08,2.71-.15,5.43-.21,8.14-1.2-4-2.41-7.95-3.56-11.94-.16,2.24-.32,4.47-.46,6.7-.82-4.17-1.59-8.36-2.36-12.54L301.8,142c-1-3.48-1.91-7-2.89-10.43.21,2.89.38,5.79.58,8.69-1.12-4-2.25-7.92-3.36-11.89.2,3.48.41,6.95.6,10.43-1-4-2.09-7.95-3.11-11.93.08,3.53.17,7.06.24,10.59q-2.42-6.81-4.78-13.65l-.78,9.32c-.86-4.51-1.7-9-2.55-13.55l.54,8.76q-1.89-3.72-3.76-7.44c.45,2.44.91,4.87,1.36,7.3q-2.1-4.45-4.18-8.91l.33,7.27-4.25-8.1.63,4.69L272,115.53c.72,2.45,1.44,4.89,2.15,7.34l-5.27-6.39,1.62,4.27-6.29-4.45,5.67,5.43-3.23-.89,3.48,3.07-3.75,0,4.88,3.64-4.11-.35,6.31,2.94-4.05.57,5.27,2.69-6.19.87,6,2.27-2.58.56,7.55,2.72-6.17-.63,6,2-3.95.44c3.08.71,6.28,1.41,9.29,2.12l-7,.26c-1.26,0,.17,0-.59,0,2.22.47,4.24.95,6.39,1.43l1.57,1.61-7.13.48,7.18,2.18-4.07.34c2.71.78,5.41,1.56,8.14,2.24-2.5.12-5,.16-7.52.22,1.93.44,3.86.92,5.8,1.31-1.89.2-3.78.32-5.67.5,3.34.67,6.68,1.35,10,2l-5.52.35,7.93,2.21L288.05,160l6.22,1.05-3.52.89,6.87,2.3c-2.08-.13-4.17-.23-6.25-.36,1.62.48,3.24.95,4.86,1.44l-4,1.31c1.78.38,3.56.81,5.34,1.19-2.17.53-4.35,1-6.53,1.55l7.88,1.37c-2.3.51-4.6,1.05-6.9,1.57,3.23.31,6.46.59,9.69.88l-4.43,1.56c2.12.32,4.24.65,6.36,1l-2.28,1.47,3.41.39-4,1,5.14.54-3.86,1.76c2.47-.08,4.93-.15,7.4-.13q-2.91,1-5.79,2.1c1.93,0,3.86.12,5.79.22l-2.58,1.5c2.12.21,4.25.42,6.37.61-1.47.6-3,1.14-4.45,1.69q4.29,1.44,8.61,2.8c-2.52.38-5,.78-7.55,1.08,2.17.4,4.35.71,6.53,1l-4.05,1.74c2-.22,4-.44,5.95-.64l-5.12,1.84,8,.4-4.89,1.39c3.48.17,6.95.3,10.43.43-1.69.57-3.38,1.15-5.08,1.68,2.5.35,5,.71,7.52,1,1.87,1.51,3.78,2.32,5.63,4s3.67,4.2,5.45,6.1c.31-.2.63-.45.94-.67C339.42,205,337.2,200.67,333.79,197.76Z" style="fill:#92E3A9"></path><path d="M336.94,188.62c1-3.76,1.9-7.54,2.83-11.31q-1.14,1.92-2.29,3.83,1.69-4.53,3.35-9.07l-4.19,6.21L341,166l-3.83,5.49,4.22-11c-1.08,1.37-2.17,2.73-3.25,4.11.7-2.89,1.41-5.77,2.09-8.65-1,1.71-2.07,3.42-3.1,5.14,1.1-7.21,2.15-14.42,3.25-21.63-1.57,4.21-3.1,8.43-4.65,12.65.69-4.95,1.39-9.91,2.06-14.87l-3.4,6.77c.42-3.42.81-6.84,1.21-10.26q-2.38,4.38-4.79,8.75c1-4.59,2.12-9.17,3-13.79-1.07,2.53-2.19,5-3.31,7.55.44-4.18.8-8.37,1.17-12.56-1,2-2,4-2.94,6.07.81-4.21,1.6-8.42,2.33-12.64-1,2.43-1.93,4.85-2.95,7.26.38-3.63.67-7.26,1-10.88-.87,2.78-1.69,5.57-2.58,8.34.42-4.13.78-8.27,1.18-12.4q-1.61,5-3.22,10,.72-6.17,1.43-12.34-1.8,5-3.58,10c.14-4.86.28-9.72.45-14.58-1.35,2.8-2.72,5.59-4.07,8.39.81-4.54,1.65-9.07,2.48-13.61q-1.32,4.19-2.65,8.37-.4-4.19-.83-8.37l-1.35,7.33c-.24-3.3-.48-6.61-.71-9.91-.77,2.3-1.53,4.61-2.3,6.91-.35-3-.71-6.11-1-9.17l-1.11,4.63c-.47-2.93-.92-5.87-1.37-8.8q-.33,3.84-.67,7.68-1.27-4-2.57-8c0,1.53,0,3.06,0,4.6l-4.2-6.55,3.27,7.22-2.67-2c.7,1.4,1.41,2.79,2.11,4.18L301.64,94q1.61,2.63,3.2,5.25l-3.67-1.88,4.79,5.13-4-1,3.93,4.5-6.06-1.54,4.79,4.4-2.6-.45c2,1.81,4,3.61,6.06,5.4q-2.78-1.45-5.53-2.93c1.63,1.4,3.25,2.8,4.89,4.18l-3.86-1.08c2.63,1.85,5.39,3.69,8,5.49l-6.69-2.4c-1.2-.44.16,0-.56-.21,1.91,1.29,3.64,2.5,5.48,3.76.3.7.6,1.39.89,2.09l-6.88-2.25,5.94,4.75-3.94-1.23c2.24,1.75,4.48,3.51,6.75,5.23-2.38-.88-4.74-1.78-7.11-2.68,1.63,1.16,3.27,2.32,4.92,3.46l-5.5-1.7c2.84,1.94,5.7,3.85,8.56,5.76l-5.23-1.84,6.42,5.2c-2-.46-4.07-.93-6.11-1.38l5.33,3.42c-1.21-.16-2.41-.34-3.62-.49,1.83,1.6,3.65,3.22,5.47,4.83-1.89-.91-3.77-1.83-5.67-2.73,1.33,1.08,2.64,2.16,4,3.24-1.4-.06-2.8-.14-4.2-.19l4.52,3.14c-2.24-.31-4.47-.61-6.71-.9l6.85,4.18c-2.34-.34-4.68-.68-7-1q4.35,2.18,8.68,4.4c-1.57,0-3.15-.08-4.72-.11,1.85,1.09,3.7,2.19,5.53,3.31l-2.67.59,3,1.62-4.12-.45c1.53.78,3.06,1.57,4.58,2.39l-4.25.32c2.33.81,4.65,1.65,7,2.48l-6.21,0,5.35,2.21-3,.6c1.93.9,3.86,1.8,5.79,2.72-1.61.06-3.22.16-4.82.22q3.6,2.73,7.15,5.52-3.7-.75-7.44-1.46c1.93,1,3.85,2.1,5.76,3.16l-4.38.29,5.75,1.39-5.39,0,7.23,3-5-.3c3.18,1.31,6.34,2.63,9.51,4l-5.35-.22c2.21,1.19,4.4,2.41,6.62,3.57,1.18,2.07,2.64,3.51,3.74,5.74s1.8,5.24,2.83,7.62c.35-.08.73-.21,1.1-.31C339.39,197.37,339,192.63,336.94,188.62Z" style="fill:#92E3A9"></path><path d="M312.14,113c-2.55-6.91-4.67-13.61-7.16-20.21-.65-.52-1.33-1-2-1.54.7,1.4,1.41,2.79,2.11,4.18L301.64,94q1.61,2.63,3.2,5.25l-3.67-1.88,4.79,5.13-4-1,3.93,4.5-6.06-1.54,4.79,4.4-2.6-.45c2,1.81,4,3.61,6.06,5.4q-2.78-1.45-5.53-2.93c1.63,1.4,3.25,2.8,4.89,4.18l-3.86-1.08c2.63,1.85,5.39,3.69,8,5.49l-6.69-2.4c-1.2-.44.16,0-.56-.21,1.91,1.29,3.64,2.5,5.48,3.76.29.7.6,1.39.89,2.09l-6.88-2.25,5.94,4.75-3.94-1.23c2.24,1.75,4.48,3.51,6.75,5.23-2.38-.88-4.74-1.78-7.11-2.68,1.63,1.16,3.27,2.32,4.92,3.46l-5.5-1.7c2.84,1.94,5.7,3.85,8.56,5.76l-5.23-1.84,6.42,5.2c-2-.46-4.07-.93-6.11-1.38l5.33,3.42c-1.21-.16-2.41-.34-3.62-.49,1.83,1.6,3.65,3.22,5.47,4.83-1.89-.91-3.77-1.83-5.67-2.73,1.33,1.08,2.64,2.16,4,3.24-1.4-.06-2.8-.14-4.2-.19l4.52,3.14c-2.24-.31-4.47-.61-6.71-.9l6.85,4.18c-2.34-.34-4.68-.68-7-1q4.35,2.18,8.68,4.4c-1.57,0-3.15-.08-4.72-.11,1.85,1.09,3.7,2.19,5.53,3.31l-2.67.59,3,1.62-4.12-.45c1.53.78,3.06,1.57,4.58,2.39l-4.25.32c2.33.81,4.65,1.65,7,2.48l-6.21,0,5.35,2.21-3,.6c1.93.9,3.86,1.8,5.79,2.72-1.61.06-3.22.16-4.82.22q3.6,2.73,7.15,5.52-3.7-.75-7.44-1.46c1.93,1,3.85,2.1,5.76,3.16l-4.38.29,5.75,1.39-5.39,0,7.23,3-5-.3c3.18,1.31,6.34,2.63,9.51,4l-5.35-.22c2.2,1.19,4.41,2.4,6.61,3.58,1.31,2,2.45,3.44,3.85,5.9-2.34-11.14-1.58-9.72-4.49-23.81S318.15,129.28,312.14,113Z" style="opacity:0.48"></path><path d="M338.61,202.21a45.24,45.24,0,0,1,7.07,3.12c3.12,1.76,12.07,6.14,15.63,6.77s-3-2.75-3-2.82c2.45,1.42,5.15,2.83,7.73,4.19-1.13-1.08-2.31-2.13-3.41-3.25,3.81,1.48,7.64,2.88,11.48,4.25-1.66-.93-3.31-1.88-5-2.83,4.4,1.52,8.79,3,13.31,4.17-2.55-1.24-5-2.65-7.41-4.09,4.8,1.26,9.64,2.28,14.47,3.4-2.62-.89-5.2-1.91-7.83-2.77,3.59.66,7.13,1.82,10.76,2.24a49.73,49.73,0,0,1-9.63-4.73c3.61.94,7.33,1.56,11,2.34-1.92-.95-4.18-2-5.89-2.87,1.13-.33,9,.8,8.51.47s-9.05-3-10.89-4.24c2.77.62,6.11,1.36,9.11,2-2.09-.87-4.13-1.84-6.18-2.81,2.94.11,5.88.39,8.82.54-3.78-.66-7.5-1.54-11.28-2.22,2.82-1.31,5.71-2.38,8.56-3.59-1.57.42-3.15.79-4.73,1.17q1.44-2.34,2.82-4.73c-1.22.64-2.44,1.28-3.67,1.88.94-1.3,1.94-2.71,2.75-4-1.24.52-5.05,2.69-5.92,2.37s1.66-2,1.61-2.51c-1.87,1.7-3.92,3.52-5.83,5.29l3.49-4.33-3,2.72q1.86-3.11,3.71-6.21-3,3.72-5.92,7.41c1.38-2.64,2.79-5.26,4.17-7.9l-5.47,5,3.56-4.09c-2,1.89-4,3.73-6.08,5.66.46-.95.12-1.1,1-2.13s2.71-3.08,3.73-4.31c-.9.62-2.18,1.3-3,2s-1.31,1.34-2.08,2c.62-1.37,1.21-2.75,1.82-4.13l-2.63,1.91,2-4.13c-1.13,1.26-2.25,2.53-3.38,3.8,1.12-2.6,2.28-5.18,3.45-7.76-1.82,3.18-3.6,6.38-5.42,9.57.76-2.56,1.5-5.11,2.28-7.66-1,1-1.92,2-2.93,2.93.63-1.68,1.29-3.39,1.91-5.05l-2.21,2.54c-.48.54-.28.31-.62.71-.51.27-1.07.59-1.61.89.36-1.28.74-2.59,1.1-3.84-.68.83-1.75,2.33-2.31,3s0,.18-.63.78-2.08,1.71-2.87,2.41c.72-1.3,1.5-2.63,2.24-3.95l-2.31,1.81-.15-.79c-1.18,1.68-2.37,3.36-3.52,5.08.53-1.22,1.1-2.42,1.65-3.62-.84.75-2,1.5-2.8,2.26s-1.16,1.53-1.81,2.25c-1.54.64-2.05.35-3.87,1.23s-6.12,3.66-8,4.33a43.55,43.55,0,0,1-4.61,1.13c-1.3.34-1.44,0-2.45.34S336.87,201.51,338.61,202.21Z" style="fill:#92E3A9"></path><path d="M397.14,210l.16,0C397.37,210,397.12,210,397.14,210Z" style="fill:#92E3A9"></path><path d="M337.6,201.68a2.11,2.11,0,0,0,.84.45,49.73,49.73,0,0,1,7.21,3.18c3.4,1.89,11.82,6.06,15.71,6.81,3.4.65-2.81-2.64-2.74-2.68,2.36,1.37,5,2.72,7.45,4-1.13-1.08-2.31-2.13-3.41-3.25,3.81,1.48,7.64,2.88,11.48,4.25-1.66-.93-3.31-1.88-5-2.83,4.4,1.52,8.79,3,13.31,4.17-2.55-1.24-5-2.65-7.41-4.09,4.8,1.26,9.64,2.28,14.47,3.4-2.62-.89-5.2-1.91-7.83-2.77,3.59.66,7.13,1.82,10.76,2.24a49.73,49.73,0,0,1-9.63-4.73c3.62.94,7.33,1.56,11,2.34l-6-2.9c3.12.13,6.22.32,9.33.66a119.77,119.77,0,0,1-11.71-4.43c3.17.7,6,1.36,9.39,2-3-.56.65-.62-3.88-1.31s-13.93-1.76-20.84-2.8C360.5,202,347.83,201.64,337.6,201.68Z" style="opacity:0.48"></path><path d="M336.34,207.11c-5.81-4.09-7.89-6.64-15-10.47s-20.82-7.35-28.94-10.88-14.52-7.59-22-11.66c.47.67.85,1.34,1.28,2-2.3-1.43-4.58-2.87-6.87-4.31l1.58,2.07c-2.33-.78-4.66-1.58-7-2.38l7.78,5c-3.07-1.35-6.14-2.7-9.2-4.08q2.1,2.28,4.19,4.57l-6.81-3.85,2.16,2.91c-2.36-2-4.72-4-7.1-6,1.9,2.23,3.84,4.51,5.69,6.73-2-1.13-4.86-2.9-6.62-3.83s-2.38-1.06-3.92-1.83c1.39,1.45,2.7,2.84,4.05,4.27q-5-1.71-10.11-3.33c2.08,1.34,4.16,2.66,6.22,4-2.08-.38-4.16-.71-6.25-1,2.29.83,4.58,1.67,6.85,2.56-2.89-.47-5.8-.88-8.7-1.28l5,2.73c-3.68-.41-7.37-.78-11.05-1.14l6.87,2.42-7,.92,3.87,1.28-5.82,1.44,2.89.78L226.62,187l4.38.47L226.38,191l6-2.3L228,197.46l6.47-5.76c-.19,1.63-.37,3.25-.57,4.88,2.43-2.87,4.81-5.78,7.21-8.68-1.14,2.2-2.27,4.41-3.4,6.61,1.19-.95,2.39-1.88,3.59-2.81-.27,1.74-.53,3.49-.8,5.24,1.83-2.07,3.66-4.15,5.51-6.19q-1.16,2.75-2.3,5.49c2-1.84,4.07-3.65,6.1-5.47-.75,1.81-1.52,3.63-2.28,5.44,2.55-1.69,5.09-3.4,7.63-5.1-1.14,2-2.26,3.94-3.4,5.91,2.24-2.14,4.51-4.37,6.73-6.46-.64,1.19-2,3.86-2.46,4.73s0-.08-.22.44c1.55-1.55,3-3,4.56-4.47-.45,1.7-.91,3.39-1.36,5.09l4.71-4.23q-1.55,2.81-3.07,5.63c2.28-1.27,4.57-2.52,6.85-3.8-.9,1.55-1.82,3.08-2.72,4.62,3.47-1.43,6.9-2.94,10.33-4.46l-4,4.26c2.22-1,4.46-2.05,6.65-3.13-1.52,2-3.08,4-4.63,6,2.56-1.64,5.11-3.28,7.63-5-.75,1.38-1.55,2.73-2.34,4.1q4.22-2.54,8.41-5.1-3,3.28-6,6.52c2.5-.93,5-1.82,7.48-2.81q-1.56,2-3.15,4c2.66-1.3,5.29-2.65,7.92-4q-1.41,2.37-2.8,4.76,3-2.39,5.9-4.83c-.55,1.87-1.1,3.73-1.68,5.59,2.31-1.92,4.55-3.93,6.84-5.88-.24,1.82-.43,3.64-.68,5.46,1.59-2.12,3.14-4.26,4.69-6.42-.05,2.44-.07,4.88-.09,7.32l5.36-6.15L308.4,205c1.28-1.44,2.57-2.86,3.8-4.34l.36,3c.47-1.68,1-3.52,1.41-5.08.2.65-.25,4.64.1,4.51s2.06-4.22,2.92-5c.15,1.52.25,3.32.38,4.94l1.24-3.31.9,4.21,1.95-4.15c.06,1.23.12,2.47.19,3.71.47-1.28.93-2.57,1.42-3.84,2.23,1.56,4.8,3.24,6.9,4.85a47.18,47.18,0,0,1,5.39,5.06C336.31,209.08,336.25,208,336.34,207.11Z" style="fill:#92E3A9"></path><path d="M321.76,196.8c-8.85-4.41-20.7-7.32-29.33-11s-14.28-7.52-22.09-11.7c.51.69.85,1.35,1.3,2-2.3-1.43-4.58-2.87-6.87-4.31l1.58,2.07c-2.33-.78-4.66-1.58-7-2.38l7.78,5c-3.07-1.35-6.14-2.7-9.2-4.08q2.1,2.28,4.19,4.57l-6.81-3.85,2.16,2.91c-2.36-2-4.72-4-7.1-6,1.9,2.23,3.84,4.51,5.69,6.73-2-1.13-4.86-2.9-6.62-3.83s-2.38-1.06-3.92-1.83c1.39,1.45,2.7,2.84,4.05,4.27q-5-1.71-10.11-3.33c2.08,1.34,4.16,2.66,6.22,4-2.08-.38-4.16-.71-6.25-1,2.29.83,4.58,1.67,6.85,2.56-2.89-.47-5.8-.88-8.7-1.28l5,2.73c-3.68-.41-7.37-.78-11.05-1.14l6.87,2.42-7,.92,3.87,1.28-5.82,1.44,2.89.78L226.62,187l4.39.47c-1.55,1.14-2.85,2.3-4.56,3.43,7.21-4.17,10.17-7.28,19.64-8.93,10.28-1.8,26.69,0,37.52,3.26s21.11,7,31.44,9.74c3.43.9,4.66,1.46,7.73,2.42C322.35,197.16,322.19,197,321.76,196.8Z" style="opacity:0.48"></path><path d="M349.45,220.55c2.29,2.85,4.65,5.64,7.06,8.4l-3.64-2.2c2.26,2.05,4.48,4.19,6.84,6.13-2.17-1-4.25-2.2-6.36-3.31,3,2.8,6,5.55,9.17,8.22q-2.94-1.29-5.83-2.65c2.85,2.34,5.66,4.77,8.73,6.82-1.61-.47-3.18-1-4.76-1.61,1.94,2.05,4,3.9,6.12,5.79-1.79-.81-3.58-1.63-5.38-2.41,4.79,5.15,9.26,10.52,14.58,15.15a98.84,98.84,0,0,1-11.24-7.21,133.21,133.21,0,0,0,10.16,10.42c-2.39-1-4.75-2.13-7.1-3.25,2.32,2.46,4.76,4.81,7.13,7.24-3.23-1.33-6.46-2.64-9.66-4,3.66,3,7.28,6.11,11.12,8.91-2.63-1.18-5.2-2.5-7.76-3.85,2.85,3,6.17,5.81,8.8,9-1.94-1.26-4.48-1.89-6.59-2.9a97.7,97.7,0,0,1,9.4,8.8c-2.13-1.56-4.55-2.77-6.78-4.17,2.33,2.76,4.68,5.51,6.91,8.36-2.26-1.87-4.58-3.66-6.9-5.45,2.66,3.18,5.22,6.42,7.77,9.68-2.74-2.2-5.46-4.43-8.27-6.54,2.72,3.12,5.27,6.37,7.88,9.58l-8.56-6.4c2.71,4.06,5.58,8,8.37,12-2.71-1.63-5.46-3.2-8.2-4.77,3.28,3.3,6.47,6.68,9.66,10.07l-6.84-5.64c1.28,2.52,2.54,5,3.84,7.56-1.73-1.81-3.44-3.64-5.16-5.46q2.4,4.41,4.82,8.8L373,305c1.37,2.8,2.82,5.56,4.22,8.35-1.17-1.11-2.34-2.21-3.53-3.31,1.29,2.73,2.5,5.49,3.69,8.25-1.56-2.08-3.16-4.13-4.75-6.18.74,2.74,1.47,5.47,2.17,8.22-.83-1.31-1.68-2.61-2.53-3.9,0,2.64,0,5.28,0,7.92-.39-2.66-.76-5.33-1.16-8L370,319.64l-.51-4.74c-.71,1.05-1.43,2.1-2.13,3.16-.07-2.09-.11-4.17-.19-6.25-.68,1.22-1.39,2.42-2.08,3.64.4-2.33.79-4.66,1.15-7-.91,1-1.83,2-2.75,3,.24-2,.44-4,.74-6-1.41,1.51-2.79,3.05-4.16,4.61.46-2.13.91-4.26,1.49-6.35-.66.6-1.31,1.2-1.95,1.81.61-2.63,1.42-5.22,2.13-7.83-1,1.82-2.12,3.63-3.12,5.47.56-2.07,1.21-4.12,1.82-6.18l-2.76,3c1.23-3,2.56-6,3.66-8.9-1.1,1.44-3.57,4.61-4.37,5.62l-.37.47c.9-2.08,1.63-4,2.44-6.08-.2-.74-.41-1.48-.63-2.21-1.49,1.88-3,3.71-4.53,5.57.69-2.37,1.38-4.73,2-7.12l-2.57,3.12a66.09,66.09,0,0,1,2.49-7.88,72.86,72.86,0,0,0-4.55,6,47.91,47.91,0,0,1,1.95-5.46,48,48,0,0,0-3.61,4.3,65.1,65.1,0,0,1,4-9.19c-1.29,1.41-2.59,2.8-3.87,4.21.9-2.37,1.14-5.41,2.36-7.57a65.45,65.45,0,0,0-5,4.29,25.17,25.17,0,0,1,3-5.56l-3.7,2.29,3.42-6.82-4.74,5.18,2.67-4.76-4.29,2.21,3.31-5c-2.18,1.35-4.33,2.89-6.62,4a69.26,69.26,0,0,0,5.18-6.95c-2.24,1.44-4.46,3-6.83,4.22a86.14,86.14,0,0,0,6.84-7.92l-4.63,2.28L344.6,257l-3,.71,2.25-2.78-3.81,2.24c1.14-1.39,2.3-2.77,3.43-4.17l-4.25,1.6q2.82-2.59,5.56-5.27c-1.95.9-3.9,1.82-5.86,2.69,1.39-1.39,2.71-2.86,4.05-4.29l-3.06.78c1.4-1.65,2.81-3.29,4.22-4.94l-4.62,1.9c1.49-2.64,3-5.27,4.36-7.95q-3.14,2.25-6.31,4.44c1.37-1.73,2.73-3.47,4-5.24-1.39.53-2.77,1.07-4.16,1.58,1.59-1.19,3.14-2.43,4.71-3.66l-5,2.23c1.8-1.91,3.6-3.83,5.41-5.73l-4.48,2.38c2.37-2.48,4.82-4.91,7.1-7.48-1.56.84-3.17,1.6-4.77,2.39,1.55-2,3.08-3.91,4.57-5.9.21-2.33.95-4.2,1-6.64s-.49-5.45-.58-8c.33-.08.71-.13,1.06-.19C348.14,211.82,349.76,216.13,349.45,220.55Z" style="fill:#92E3A9"></path><path d="M346.1,215.94c-.1,2.36-.82,4.34-1,6.62-1.49,2-3,3.95-4.57,5.9,1.6-.79,3.21-1.55,4.77-2.39-2.28,2.57-4.73,5-7.1,7.48l4.48-2.38c-1.81,1.9-3.61,3.82-5.41,5.73l5-2.23c-1.57,1.23-3.12,2.47-4.71,3.66,1.39-.51,2.77-1.05,4.16-1.58-1.32,1.77-2.68,3.51-4,5.24q3.18-2.19,6.31-4.44c-1.4,2.68-2.87,5.31-4.36,7.95l4.62-1.9c-1.41,1.65-2.82,3.29-4.22,4.94l3.06-.78c-1.34,1.43-2.66,2.9-4.05,4.29,2-.87,3.91-1.79,5.86-2.69q-2.74,2.67-5.56,5.27l4.25-1.6c-1.13,1.4-2.29,2.78-3.43,4.17l3.81-2.24-2.25,2.78,3-.71-3.91,5.41,4.63-2.28a86.14,86.14,0,0,1-6.84,7.92c2.37-1.21,4.59-2.78,6.83-4.22a69.26,69.26,0,0,1-5.18,6.95c2.29-1.15,4.44-2.69,6.62-4l-3.31,5,4.29-2.21-2.67,4.76,4.74-5.18-3.42,6.82,3.7-2.29a25.17,25.17,0,0,0-3,5.56,65.45,65.45,0,0,1,5-4.29c-1.22,2.16-1.46,5.2-2.36,7.57,1.28-1.41,2.58-2.8,3.87-4.21a65.1,65.1,0,0,0-4,9.19,48,48,0,0,1,3.61-4.3,47.91,47.91,0,0,0-1.95,5.46,72.86,72.86,0,0,1,4.55-6,66.09,66.09,0,0,0-2.49,7.88l2.57-3.12c-.63,2.39-1.32,4.75-2,7.12,1.51-1.86,3-3.69,4.53-5.57.22.73.43,1.47.63,2.21-.81,2-1.54,4-2.44,6.08l.37-.47c.8-1,3.27-4.18,4.37-5.62-1.1,2.93-2.43,5.95-3.66,8.9l2.76-3c-.61,2.06-1.26,4.11-1.82,6.18,1-1.84,2.08-3.65,3.12-5.47-.71,2.61-1.52,5.2-2.13,7.83.64-.61,1.29-1.21,1.95-1.81-.58,2.09-1,4.22-1.49,6.35,1.37-1.56,2.75-3.1,4.16-4.61-.3,2-.5,4-.74,6,.92-1,1.84-2,2.75-3-.36,2.34-.75,4.67-1.15,7,.69-1.22,1.4-2.42,2.08-3.64.08,2.08.12,4.16.19,6.25.7-1.06,1.42-2.11,2.13-3.16.17,1.58.34,3.15.51,4.74.36-1.15.79-2,1.1-3.34-1.75-11.76-5-29.22-8.49-39.47-5-14.84-11.8-32.38-13.53-44.62s-.8-14.31-2.51-24.65c-.22.62-.68.52-1,.88C345.64,210.85,346.2,213.59,346.1,215.94Z" style="opacity:0.48"></path><path d="M372.26,324.39c-.3-2.12-.59-4.24-.92-6.36C371.66,320.15,372,322.27,372.26,324.39Z" style="fill:#92E3A9"></path><path d="M353.25,213.78c3.2,1.61,6.38,3.22,9.64,4.69-1.36-.14-2.74-.24-4.09-.45,2.78.95,5.61,1.76,8.42,2.64l-6.94-.32c3.77,1.25,7.52,2.6,11.34,3.69-2.1,0-4.19-.09-6.28-.15,3.54,1,7.09,1.87,10.69,2.67-1.69.14-3.38.32-5.08.4,2.58,1,5.24,1.87,7.84,2.83-1.91-.08-3.83-.14-5.74-.19a202.67,202.67,0,0,0,19.37,7.47c-4.41-.57-8.8-1.14-13.18-1.91,4.5,1.83,9.1,3.3,13.7,4.85-2.57-.07-5.15-.06-7.73-.08l9.57,3.27c-3.4.08-6.81.25-10.22.24,4.64,1.18,9.32,2.21,14,3-2.9,0-5.78-.08-8.67-.2,4.07,1.36,8.21,2.44,12.3,3.73-2.42,0-4.83.09-7.24.18,4.38.78,8.69,1.68,13,2.79-2.7-.19-5.39-.4-8.1-.42,3.61.94,7.16,2.1,10.77,3.06-3-.29-6.07-.66-9.11-.93,4.16,1.16,8.34,2.29,12.47,3.52-3.7-.39-7.41-.71-11.12-1q6.35,1.58,12.64,3.32c-3.73-.29-7.47-.53-11.2-.76,4.78,1.6,9.58,3.14,14.19,5.19-3.2-.1-6.39-.14-9.6-.09,4.63,1,9.12,2.49,13.65,3.9l-8.8-1.62c2.41,1.55,4.82,3.12,7.22,4.69l-7.25-2.28,8.64,5.34-7.31-1.24,7.81,5.3-4.68-1.22,7.31,5.45-7.23-3.1,6,6.14L420.1,284l4,6.92-5-6.41c.21,1.13.42,2.26.62,3.38l-2.8-3.9c-.09,1.27-.19,2.53-.28,3.8-1.09-1.8-2.18-3.59-3.26-5.39v4.2c-.82-2.25-1.62-4.5-2.43-6.75-.31,1.34-.62,2.69-.94,4-.77-1.87-1.46-3.79-2.34-5.61-.44,2.07-1,4.12-1.43,6.18-.64-2.09-1.25-4.16-2-6.21-.24.83-.47,1.66-.72,2.49-.89-2.51-1.72-5-2.52-7.55.08,2,.14,4.06.29,6.09-.66-2-1.24-4-1.83-6-.26,1.29-.53,2.58-.79,3.86-.51-3-1.31-6-1.87-8.9-.3,1.7-.71,5.47-.81,6.69s0-.15,0,.57c-.5-2.09-1-4-1.35-6-.6-.48-1.18-1-1.8-1.44-.37,2.28-.91,4.53-1.17,6.83a38.83,38.83,0,0,1-2.08-6.79c-.36,1.33-.7,2.64-.94,4-.89-2.53-1-5.41-1.45-8.06-.5,2.51-1,5-1.49,7.53-.19-1.94-.39-3.87-.58-5.8a60.64,60.64,0,0,1-1.93,5.85c-.05-3.37-.18-6.71-.38-10.08-.42,1.84-.92,3.64-1.43,5.45-.29-2.66-.64-5.3-1.07-7.94-.74,2-1.56,4-2.37,5.94,0-2.05.06-4.1,0-6.14-.54,1.13-1.13,2.23-1.72,3.34-.4-2.27-.81-4.54-1.17-6.83-.29,2-.63,4-.92,6-.22-1.61-.39-3.23-.57-4.85-.81,1.21-1.61,2.43-2.41,3.64,0-1.77,0-3.53-.07-5.3-1.09,2-2.16,4.05-3.28,6.07.17-2.61.28-5.21.51-7.81-1.16,2.12-2.3,4.26-3.52,6.35.6-3.16,1.15-6.32,1.7-9.49-.94,1.33-1.84,2.69-2.83,4,.27-2.09.46-4.19.67-6.29-.72.64-1.42,1.3-2.17,1.9.21-1.11.37-2.22.55-3.34-.73,1.22-1.5,2.41-2.29,3.6.33-1.66.68-3.32,1-5-1,1.12-2,2.16-3.09,3.22.86-2.3,1.75-4.58,2.55-6.91-1.3,1.67-2.69,3.24-4.09,4.82.65-1.8,1.27-3.59,1.82-5.42-.78.66-1.58,1.31-2.38,1.95.57-2,1.07-4,1.57-6-1.07,1.2-2.12,2.42-3.23,3.58.18-2.94.25-5.88.41-8.82-1.25,2.22-2.47,4.45-3.78,6.63q.74-3.2,1.43-6.39c-1,1.07-2,2.16-3.08,3.19,1-1.72,1.82-3.5,2.72-5.25-1.18,1.36-2.33,2.75-3.55,4.08.88-2.43,1.66-4.91,2.5-7.36-1,1.32-2,2.65-3,4,1.09-3.22,2.26-6.4,3.41-9.6l-3.34,4.11c.62-2.38,1.22-4.77,1.86-7.15-.67-2.21-.71-4.19-1.58-6.45s-2.56-4.8-3.62-7.1c.28-.21.61-.4.91-.61C348.69,206.33,351.85,209.65,353.25,213.78Z" style="fill:#92E3A9"></path><path d="M368.43,236.81c-8.74-8.82-15.11-19.46-21.75-29.81,0,0-.12.11-.16.11.64,1.51,1.37,2.26,2,4s1,4.4,1.5,6.3c-.62,2.42-1.23,4.78-1.85,7.17l3.34-4.11c-1.15,3.2-2.32,6.38-3.41,9.6,1-1.32,2-2.65,3-4-.84,2.45-1.62,4.93-2.5,7.36,1.22-1.33,2.37-2.72,3.55-4.08-.9,1.75-1.76,3.53-2.72,5.25,1.06-1,2.06-2.12,3.08-3.19q-.69,3.19-1.43,6.39c1.31-2.18,2.53-4.41,3.78-6.63-.16,2.94-.23,5.88-.41,8.82,1.11-1.16,2.16-2.38,3.23-3.58-.5,2-1,4-1.57,6,.8-.64,1.6-1.29,2.38-1.95-.55,1.83-1.17,3.62-1.82,5.42,1.4-1.58,2.79-3.15,4.09-4.82-.8,2.33-1.69,4.61-2.55,6.91,1.05-1.06,2.11-2.1,3.09-3.22-.28,1.67-.63,3.33-1,5,.79-1.19,1.56-2.38,2.29-3.6-.18,1.12-.34,2.23-.55,3.34.75-.6,1.45-1.26,2.17-1.9-.21,2.1-.4,4.2-.67,6.29,1-1.28,1.89-2.64,2.83-4-.55,3.17-1.1,6.33-1.7,9.49,1.22-2.09,2.36-4.23,3.52-6.35-.23,2.6-.34,5.2-.51,7.8,1.12-2,2.19-4,3.28-6.06,0,1.77.08,3.53.07,5.3.8-1.21,1.6-2.43,2.41-3.64.18,1.62.35,3.24.57,4.85.29-2,.63-4,.92-6,.36,2.29.77,4.56,1.17,6.83.59-1.11,1.18-2.21,1.72-3.34.07,2,0,4.09,0,6.14.81-2,1.63-3.93,2.37-5.94.43,2.64.78,5.28,1.07,7.94.51-1.81,1-3.61,1.43-5.45.2,3.37.33,6.71.38,10.08A60.64,60.64,0,0,0,385,265.7c.19,1.93.39,3.86.58,5.8.5-2.51,1-5,1.49-7.53.42,2.65.56,5.53,1.45,8.06.24-1.36.58-2.67.94-4a38.83,38.83,0,0,0,2.08,6.79c.26-2.3.8-4.55,1.17-6.83.62.43,1.2,1,1.8,1.44.37,2.05.85,3.94,1.35,6,.05-.72-.05.65,0-.57s.51-5,.81-6.69c.56,2.9,1.36,5.93,1.87,8.9.26-1.28.53-2.57.79-3.86.59,2,1.17,4,1.83,6-.15-2-.21-4.06-.29-6.09.8,2.53,1.63,5,2.52,7.55.25-.83.48-1.66.72-2.49.77,2.05,1.38,4.13,2,6.21.45-2.06,1-4.11,1.43-6.18.88,1.82,1.57,3.74,2.34,5.61.32-1.35.63-2.7.94-4,.81,2.25,1.61,4.5,2.43,6.75v-4.2c1.08,1.8,2.17,3.59,3.26,5.39.09-1.27.19-2.53.28-3.8l2.85,4c-.84-1.91.33-1.33-.81-3.61-4.57-9.16-11.92-14.3-20.5-21.83S377.17,245.63,368.43,236.81Z" style="opacity:0.48"></path><path d="M346.23,192.53c.31-3.9.63-7.79,1-11.68.26,1.47.53,2.93.79,4.4,0-3.24,0-6.47-.08-9.71.66,2.42,1.22,4.86,1.8,7.3.06-4.36,0-8.71,0-13.07.6,2.17,1.26,4.32,1.81,6.49-.07-3.93-.28-7.87-.42-11.8.57,1.66,1.13,3.33,1.7,5,.27-3,.55-5.93.83-8.89l1.23,5.91c1.29-7.2,2.68-14.38,4-21.58.11,4.52.2,9,.21,13.55,1-4.92,2-9.85,2.92-14.78.35,2.51.69,5,1,7.54.71-3.39,1.4-6.78,2.12-10.16.56,3.29,1.14,6.57,1.72,9.86.47-4.7,1-9.4,1.47-14.1l.75,8.23q1.39-6.18,2.78-12.36c.3,2.24.59,4.49.89,6.73q.81-6.42,1.6-12.83.33,3.93.65,7.88c.77-3.58,1.52-7.16,2.31-10.73q-.06,4.4-.07,8.79,1.32-6.1,2.69-12.2c0,3.5,0,7,0,10.5q1.22-6.09,2.47-12.19c.1,3.54.22,7.07.34,10.61,1.36-4.67,2.75-9.33,4.13-14,.43,3.08.85,6.15,1.28,9.23.65-4.56,1.28-9.12,1.92-13.68,0,2.92-.07,5.83-.11,8.75,1.16-2.55,2.31-5.12,3.46-7.68-.34,2.46-.68,4.91-1,7.37q1.9-4.59,3.82-9.18l0,7.26,3.93-8.36c-.14,1.57-.27,3.14-.41,4.71q2.08-3.95,4.16-7.9l-1.83,7.47c1.69-2.25,3.38-4.49,5.06-6.74l-1.44,4.36L412,106l-5.5,5.82,3.25-1.12L406.35,114l3.82-.31-4.79,4,4.17-.65-6.3,3.39,4.18.27c-1.75,1-3.51,2-5.26,3.06l6.37.41-6.06,2.7,2.66.38-7.57,3.26,6.27-1.08-6.06,2.47,4.06.16c-3.11.93-6.34,1.86-9.38,2.79l7.17-.24.61,0c-2.24.63-4.29,1.26-6.45,1.89l-1.53,1.72,7.31,0-7.22,2.69,4.17,0-8.15,2.92,7.66-.37-5.82,1.78,5.8.07-10,2.9,5.57-.17c-2.6,1-5.21,2-7.81,3,2.08.19,4.17.38,6.25.55l-6.17,1.66,3.59.63-6.76,3,6.26-.89-4.8,1.91,4.05,1.11-5.33,1.62,6.67,1.18-7.89,1.94,7,1.18-9.7,1.58,4.5,1.35-6.33,1.45,2.29,1.42-3.43.58,4,.88c-1.74.28-3.48.56-5.22.82l3.87,1.68c-2.45,0-4.9.06-7.34.11,1.86.67,3.72,1.37,5.59,2-1.88.09-3.76.24-5.64.38l2.44,1.52c-2.06.24-4.12.47-6.17.72,1.37.57,2.74,1.16,4.11,1.75-2.69,1-5.38,2-8.08,3q3.44.54,6.88,1c-2,.4-4,.81-5.93,1.18L366,188c-1.78-.18-3.56-.35-5.34-.55,1.51.59,3,1.21,4.53,1.81-2.41.17-4.82.35-7.24.47,1.48.45,2.94.92,4.41,1.38-3.19.21-6.39.38-9.58.55l4.79,1.65c-2.33.36-4.66.76-7,1.09-1.72,1.56-3.49,2.39-5.2,4.1s-3.33,4.34-5.08,6.18c-.3-.2-.61-.47-.92-.7C341.16,199.93,343,195.58,346.23,192.53Z" style="fill:#92E3A9"></path><path d="M357.88,179.18c-7.9,13-11.32,14.16-18.39,24.64,1.88-4.34,3.49-8.25,6.74-11.3.31-3.88.63-7.79,1-11.67.26,1.47.53,2.93.79,4.4,0-3.24,0-6.47-.08-9.71.66,2.42,1.22,4.86,1.8,7.3.06-4.36,0-8.71,0-13.07.6,2.17,1.26,4.32,1.81,6.49-.07-3.93-.28-7.87-.42-11.8.57,1.66,1.13,3.33,1.69,5l.84-8.89,1.23,5.91c1.29-7.2,2.68-14.38,4-21.58.11,4.52.2,9,.21,13.55,1-4.92,2-9.85,2.92-14.78.35,2.51.69,5,1,7.54.71-3.39,1.4-6.78,2.12-10.16.56,3.29,1.14,6.57,1.72,9.86.47-4.7,1-9.4,1.47-14.1l.75,8.23q1.39-6.18,2.78-12.36c.3,2.24.59,4.49.89,6.73q.81-6.42,1.6-12.83.33,3.93.65,7.88c.77-3.58,1.52-7.16,2.31-10.73q-.06,4.4-.07,8.79,1.32-6.1,2.69-12.2c0,3.5,0,7,0,10.5.81-4.06,1.62-8.13,2.47-12.19.1,3.54.22,7.07.34,10.61,1.36-4.67,2.75-9.33,4.13-14,.43,3.08.85,6.15,1.28,9.23.65-4.56,1.28-9.12,1.92-13.68,0,2.92-.07,5.83-.11,8.75,1.16-2.55,2.31-5.12,3.46-7.68-.34,2.46-.67,4.91-1,7.37q1.9-4.59,3.82-9.18l0,7.26,3.93-8.36c-.14,1.57-.27,3.14-.41,4.71q2.08-3.95,4.16-7.9l-1.83,7.47c1.69-2.25,3.38-4.49,5.06-6.74l-1.44,4.36,4.39-3.46c.16-.11-.14.32.33-.12-8.91,6.93-7.68,7.47-17,18.53S365.77,166.19,357.88,179.18Z" style="opacity:0.48"></path><path d="M342.81,183.41c-1.1-3.76-2.25-7.5-3.38-11.24.83,1.24,1.65,2.5,2.48,3.75-1.28-3-2.55-6-3.85-8.94,1.53,2,3,4,4.53,6.05-1.66-4-3.32-8.07-5-12.09q2.1,2.66,4.19,5.32c-1.64-3.59-3.27-7.18-4.94-10.76l3.52,4q-1.32-4.28-2.67-8.55,1.74,2.49,3.46,5c-1.6-7.15-3.18-14.3-4.85-21.42,1.9,4.11,3.75,8.24,5.59,12.38-1-4.91-2-9.86-3.08-14.75,1.37,2.14,2.58,4.39,3.86,6.59-.64-3.4-1.34-6.79-1.86-10.21,1.72,2.86,3.54,5.67,5.33,8.48q-2-6.76-3.86-13.58c1.23,2.44,2.45,4.88,3.71,7.3-.67-4.13-1.27-8.28-1.91-12.43,1.09,2,2.2,3.9,3.29,5.86-1-4.14-2.13-8.28-3.2-12.41,1.16,2.33,2.3,4.68,3.47,7-.62-3.58-1.2-7.17-1.81-10.75q1.59,4,3.15,8.12-1-6.13-2-12.27,2,4.85,3.91,9.69c-.74-4.07-1.51-8.13-2.28-12.19q2.16,4.85,4.3,9.68-.72-7.26-1.46-14.51l4.65,8q-1.69-6.67-3.38-13.37l3.19,8.13c.1-2.8.21-5.6.31-8.4L358,98.1c0-3.31.05-6.62.08-9.93l2.76,6.71c.16-3.08.31-6.15.47-9.22l1.41,4.51q.42-4.44.85-8.88.56,3.81,1.13,7.6l2.13-8.15c.1,1.53.21,3.06.31,4.58L371,78.46l-2.9,7.47,2.59-2.27L368.82,88l3.41-1.73c-1,1.84-2,3.67-2.92,5.5l3.61-2.18-4.53,5.52,3.95-1.32-3.69,4.81,6-2q-2.28,2.4-4.57,4.79l2.6-.66L367,106.58l5.38-3.36-4.66,4.57c1.27-.46,2.54-.93,3.81-1.38-2.53,2-5.16,4.1-7.63,6.09l6.55-2.91.55-.25c-1.83,1.43-3.47,2.8-5.25,4.18l-.76,2.17c2.26-.92,4.51-1.84,6.77-2.78q-2.83,2.63-5.68,5.21l3.92-1.51-6.49,5.74,7-3.2L365.71,123l5.43-2.1-8.23,6.4,5.13-2.22-6.12,5.7,6-1.82-5.12,3.82,3.58-.75-5.15,5.26,5.49-3.15L363,137.66l4.19-.49q-2.16,1.74-4.31,3.49l6.64-1.39L363,144l6.94-1.52-8.34,5.08,4.68-.44L361,150.82l2.7.45-2.9,1.81,4.07-.7-4.44,2.7,4.26.1-6.87,2.87,6.23-.28-5.27,2.51,3,.45c-1.86,1-3.72,2-5.58,3H361l-6.76,5.86,7.28-1.72-5.52,3.4,4.34.17c-1.88.52-3.77,1-5.64,1.57L360,173c-2.35,1.05-4.68,2.16-7,3.26l4.83-.47L348.74,180l5.13-.34c-2.09,1.25-4.17,2.53-6.28,3.76-1.07,2.09-2.35,3.6-3.35,5.85s-1.6,5.29-2.49,7.7c-.36-.08-.74-.21-1.1-.3C340.7,192.23,340.84,187.47,342.81,183.41Z" style="fill:#92E3A9"></path><path d="M348.87,166.53c-2.58,15-5.71,17.49-8.2,30,.07-4.76.17-9.07,2.14-13.11-1.1-3.74-2.25-7.49-3.38-11.23.83,1.24,1.65,2.5,2.48,3.75-1.28-3-2.55-6-3.85-8.94,1.53,2,3,4,4.53,6.05-1.66-4-3.32-8.07-5-12.09q2.1,2.66,4.19,5.32c-1.64-3.59-3.27-7.18-4.94-10.76l3.52,4q-1.32-4.28-2.67-8.55,1.74,2.49,3.46,5c-1.6-7.15-3.18-14.3-4.85-21.42,1.9,4.11,3.75,8.24,5.59,12.38-1-4.91-2-9.86-3.08-14.75,1.37,2.14,2.58,4.39,3.86,6.59-.64-3.4-1.34-6.79-1.86-10.21,1.72,2.86,3.54,5.67,5.33,8.48q-2-6.76-3.86-13.58c1.23,2.44,2.45,4.88,3.71,7.3-.67-4.13-1.27-8.28-1.91-12.43,1.09,2,2.2,3.9,3.29,5.86-1-4.14-2.13-8.28-3.2-12.41,1.16,2.33,2.3,4.68,3.47,7-.62-3.58-1.2-7.17-1.81-10.75q1.59,4,3.15,8.12-1-6.13-2-12.27,2,4.85,3.91,9.69c-.74-4.07-1.51-8.13-2.28-12.19q2.16,4.85,4.3,9.68-.72-7.26-1.46-14.51l4.65,8q-1.69-6.67-3.38-13.37c1.06,2.71,2.13,5.42,3.19,8.14.1-2.81.21-5.61.31-8.41L358,98.1c0-3.31.05-6.62.08-9.93l2.76,6.71c.16-3.08.31-6.15.47-9.22l1.41,4.51q.42-4.44.85-8.88.56,3.81,1.13,7.6l2.13-8.15c.1,1.53.21,3.06.31,4.58.92-1.61,1.84-3.25,2.75-4.85.11-.17,0,.35.26-.24-5.62,9.8-4.26,9.76-8.73,23.57S351.45,151.49,348.87,166.53Z" style="opacity:0.48"></path><path d="M344,202c5.19-4.06,7.5-6.88,13.83-10.68s18.11-7.52,25.52-10.08,13.38-4.79,20.56-7c-.53.56-1,1.1-1.46,1.65,2.32-.86,4.65-1.68,7-2.5l-1.84,1.62c2.34-.2,4.67-.38,7-.59l-8.18,2.94c3.12-.56,6.24-1.09,9.35-1.65-1.6,1.11-3.19,2.22-4.77,3.36,2.39-.66,4.77-1.34,7.15-2l-2.64,2.3,8.08-4.13c-2.28,1.75-4.62,3.51-6.88,5.23,2.14-.61,5.32-1.66,7.22-2.18s2.52-.5,4.17-.91l-4.79,3.26,10.48-1L427,182.14l6.27.31-7.17,1,8.7.61-5.43,1.65,10.95,1.07-7.16,1,6.58,2.25-4,.5,5.35,2.53-3,.2,5.17,3.23-4.35-.39,3.74,4.37-5.33-3.41,2.43,9.38-5.09-6.89-.45,4.86q-2.61-4.92-5.21-9.86l1.95,7.08L428,198.25l-.27,5.22-4.05-7.18c.37,1.93.74,3.87,1.12,5.8-1.59-2.23-3.19-4.44-4.72-6.7.36,1.93.73,3.87,1.11,5.8-2.08-2.27-4.12-4.56-6.18-6.84.71,2.19,1.42,4.38,2.11,6.57-1.69-2.65-3.46-5.35-5.11-8l1.49,5.18c.27.94,0-.08.14.49-1.15-1.91-2.27-3.67-3.4-5.52.16,1.74.33,3.47.52,5.2-1.18-1.76-2.37-3.52-3.54-5.29.65,2.06,1.31,4.11,2,6.17-1.8-1.82-3.56-3.67-5.38-5.48.62,1.7,1.21,3.39,1.74,5.11a103.69,103.69,0,0,0-8.19-6.75c1,1.58,2.1,3.16,3.06,4.8-1.69-1.52-3.53-2.87-5.32-4.27,1.16,2.13,2.31,4.25,3.48,6.37-2-2-3.95-4.06-6-6l1.78,4.05c-2.32-1.95-4.65-3.87-6.86-5.93,1.5,2.37,3.15,4.63,4.78,6.91l-6.18-3.57c.84,1.34,1.66,2.68,2.5,4-2.16-1.49-4.39-2.87-6.5-4.42.66,1.59,1.43,3.14,2.17,4.7-1.62-1.62-3.26-3.23-4.75-5,.33,1.83.76,3.65,1.2,5.46-1.88-1.93-3.63-4-5.39-6,.09,1.81.17,3.63.25,5.44-1.2-2.16-2.37-4.33-3.56-6.5-.1,2.46-.21,4.91-.3,7.37-1.42-2.06-2.83-4.13-4.26-6.17.56,2.09,1.12,4.19,1.65,6.3-1-1.47-2.06-2.91-3.1-4.36-.11,1-.23,2.07-.34,3.1-.4-1.72-.83-3.61-1.21-5.22-.18.69.18,4.78-.13,4.67s-1.79-4.33-2.56-5.1c-.15,1.57-.24,3.44-.37,5.13l-1.08-3.43c-.27,1.46-.55,2.92-.83,4.37-.56-1.42-1.12-2.85-1.7-4.27-.05,1.28-.13,2.55-.19,3.83-.42-1.33-.85-2.66-1.3-4-2.08,1.59-4.44,3.33-6.38,5a41.64,41.64,0,0,0-5,5.16C344.05,204,344.1,202.88,344,202Z" style="fill:#92E3A9"></path><path d="M357.48,191.41c7.66-4.24,18-7.5,25.83-10.19s13.2-4.73,20.64-7.05c-.57.57-1,1.1-1.48,1.65,2.32-.86,4.65-1.68,7-2.5l-1.84,1.62c2.34-.2,4.67-.38,7-.59l-8.18,2.94c3.12-.56,6.24-1.09,9.35-1.65-1.6,1.11-3.19,2.22-4.77,3.36,2.39-.66,4.77-1.34,7.15-2l-2.64,2.3,8.08-4.13c-2.28,1.75-4.62,3.51-6.88,5.23,2.14-.61,5.32-1.66,7.22-2.18s2.52-.5,4.17-.91l-4.79,3.26,10.48-1L427,182.14l6.27.31-7.17,1,8.7.61-5.43,1.65,10.95,1.07-7.16,1,6.58,2.25-4,.5,5.35,2.53-3,.2,5.17,3.23-4.36-.39c1.26,1.41,2.32,2.79,3.69,4.23-5.83-5.47-8.82-9-17.06-12.64-8.94-3.91-24.31-6.93-34.5-5.74s-18.39,4.76-27.46,7.46c-3,.9-4.25,1.58-7,2.51C356.92,191.79,357.1,191.61,357.48,191.41Z" style="opacity:0.48"></path><path d="M328.63,194.85c-7-10.51-20.2-30.38-32.48-42.28-8.35-8.08-19.65-21.71-27.74-31.16a10.44,10.44,0,0,0-1.79-.57l3.49,3.07-3.75,0,4.88,3.64-4.11-.35,6.31,2.94-4.05.57,5.27,2.69-6.19.87,6,2.27-2.58.56,7.55,2.72-6.17-.63,6,2-3.95.44c3.08.71,6.28,1.41,9.29,2.12l-7,.26c-1.26,0,.17,0-.59,0,2.22.47,4.24.95,6.39,1.43l1.57,1.61-7.13.48,7.18,2.18-4.07.34c2.71.78,5.41,1.56,8.14,2.24-2.5.12-5,.16-7.52.22,1.93.44,3.86.92,5.8,1.31-1.89.2-3.78.32-5.67.5,3.34.67,6.68,1.35,10,2l-5.52.35,7.93,2.21L288.05,160l6.22,1.05-3.52.89,6.87,2.3c-2.08-.13-4.17-.23-6.25-.36,1.62.48,3.24.95,4.86,1.44l-4,1.31c1.78.38,3.56.81,5.34,1.19-2.17.53-4.35,1-6.53,1.55l7.88,1.37c-2.3.51-4.6,1.05-6.9,1.57,3.23.31,6.46.59,9.69.88l-4.43,1.56c2.12.32,4.24.65,6.36,1l-2.28,1.47,3.41.39-4,1,5.14.54-3.86,1.76c2.47-.08,4.93-.15,7.4-.13q-2.91,1-5.79,2.1c1.93,0,3.86.12,5.79.22l-2.58,1.5c2.12.21,4.25.42,6.37.61-1.47.6-3,1.14-4.45,1.69q4.29,1.44,8.61,2.8c-2.52.38-5,.78-7.55,1.08,2.17.4,4.35.71,6.53,1l-4.05,1.74c2-.22,4-.44,5.95-.64l-5.12,1.84,8,.4-4.89,1.39c3.48.17,6.95.3,10.43.43-1.69.57-3.38,1.15-5.08,1.68,2.51.36,5,.7,7.53,1,1.73,1.36,3.95,2.51,5.56,3.93s2.65,3.12,4.15,4.57c.82.47,1.39.31,2.42,1.16C335.66,201.45,335.66,205.36,328.63,194.85Z" style="opacity:0.48"></path><path d="M303.17,104.39s0,.26.12.22S303.27,104.42,303.17,104.39Z" style="fill:#92E3A9"></path><path d="M337.41,207.43c-5.49-.24-10.61-1-16.15.56s-12.57,4.74-18.17,6-13.77,3.22-18.06,4-3.37.57-6.65,1.33c2.54.07,4.85.2,7.18.3-2.3.29-6.81.78-8.59,1a10.11,10.11,0,0,0-2.05.34c1.78.14,3.44.3,5.11.46-2.1.39-5.39,1-7.21,1.3a27.29,27.29,0,0,0-3.65,1.09c1.26,0,3.42-.21,4.41-.21s.78.2,1.51.25c-2,.49-4.77,1.13-6.57,1.7s-2.65.95-4.26,1.51l6.44-.69c-1.16.53-2.38,1-3.54,1.54a12.67,12.67,0,0,1-2.06.73,42.86,42.86,0,0,0-5.43,1.85c3.08-.51,6.22-1,9.27-1.52l-6.42,2.45c-1.65.62-3,.91-4.16,1.39a19.1,19.1,0,0,0-2,1.23c2.26-.51,6.71-1.63,8.4-2s.6.08,1.72-.13c-1.94.81-4.68,1.61-6.3,2.41s-2,1.56-3.44,2.35l4.62-1-9.06,4.51,5.7-1.24-6,3.67c1.8-.42,3.6-.83,5.39-1.26q-2.75,1.49-5.51,3l2.79.22c-1,.69-2,1.38-3,2.08l4.95-1.62c-.53.47-.77.64-1.36,1.16s-.89.7-1.71,1.47-2.46,2.39-3.44,3.32c1.08-.14,2.21-.34,3.3-.5l-3.49,3,2.69-.56q-2.41,5.22-4.82,10.43l5.32-6.69.75,6.71c.19-1.84.37-3.68.56-5.52l1.41,4.13c.21-3,.44-5.94.66-8.9l.81,5.77,1.7-6,1,5.78c.24-1.11.48-2.23.71-3.34.3,1.56.6,3.13.89,4.69.31-3.29.57-6.76.9-9.92.27,1.53,1,7,1.47,7.6s0-3.58.27-3.92c.36.88.77,2.08,1.15,3.09.15-2,.27-4,.43-6,.35,1.52.71,3,1.07,4.55.31-1.62.63-3.25,1-4.88.24,1.62.48,3.23.73,4.83.36-1.52.72-3,1.11-4.55.27,1.09.55,2.19.83,3.28.59-2,1.24-3.9,1.85-5.85.41,1.25.83,2.5,1.24,3.75.1-1.23.19-2.46.28-3.7l.94,1.73c.19-1.86.39-3.73.61-5.59.37,1,.75,2.05,1.12,3.08.15-.88.23-1.68.39-2.56s.16-1.54.4-2.53.76-2.39,1.05-3.46c.26,3,.49,6.08.71,9.12.39-2.61.79-5.21,1.18-7.82.47,1.93.93,3.86,1.4,5.78.3-3.55.61-7.1.91-10.65.23,2.93.42,6,.67,8.82.64-2.23,1.85-6.41,2.36-8.18s.34-1.14.7-2.46c-.27,3.11-.6,6.05-.91,9.09,1.06-1.83,2.12-3.65,3.17-5.48q-.19,2.85-.42,5.69c1.07-2.48,2.2-5.24,3.22-7.56.13,1.33-1.17,7.85-.73,8s2.19-6.45,2.69-7.66c0,2.55-.09,5.54-.09,8.26.73-3.07,1.46-6.16,2.19-9.24l1.23,6.64q.3-5.37.61-10.75.42,4.35.86,8.68c.29-2.35.58-4.69.88-7l.84,5.73,1-4.83.72,3.78c.26-2.37.5-4.75.62-7.14.25,1.66.43,3.34.57,5,.27-2.47.36-5,.46-7.45.74,2.4,1.42,4.76,2.08,7.22.07-1.1.08-1.23.18-2.55s.21-3.81.26-5.35c.51,1.77,1,3.63,1.45,5.45.15-1.48.28-3,.39-4.45.22,1,.47,1.91.66,2.87.7-2.16,1.32-4.35,2-6.52.14,2,.27,4,.4,5.95.43-1.79.87-3.59,1.3-5.38l.33,3.73,1-6.44,1.29,3,.48-4.4c.19,1.94.37,3.87.56,5.81.65-1.93,1.3-3.87,1.92-5.82.37,1.42.74,2.86,1.11,4.26.14-1.07.32-2.61.44-3.56s.08-.59.19-1.62.29-3.1.39-4.34c.47,2,.86,4,1.26,6,.28-2.53.57-5.06.79-7.6.58,1.16,1.13,2.32,1.66,3.5-.44-2.06-1-4.11-1.48-6.16C326.37,207.62,332.07,207.4,337.41,207.43Z" style="fill:#92E3A9"></path><path d="M321.34,208c-5.83,1.74-12.56,4.73-18.23,6.06s-13.76,3.21-18.08,4-3.35.57-6.65,1.34c2.55.07,4.84.2,7.18.3-2.3.29-6.81.78-8.59,1a10.11,10.11,0,0,0-2.05.34c1.78.14,3.44.3,5.11.46-2.1.39-5.39,1-7.21,1.3a27.29,27.29,0,0,0-3.65,1.09c1.26,0,3.42-.21,4.41-.21s.78.2,1.51.25c-2,.49-4.77,1.13-6.57,1.7s-2.65.95-4.26,1.51l6.44-.69c-1.16.53-2.38,1-3.54,1.54a12.67,12.67,0,0,1-2.06.73,42.86,42.86,0,0,0-5.43,1.85c3.08-.51,6.22-1,9.27-1.52l-6.42,2.45c-1.65.62-3,.91-4.16,1.39a19.1,19.1,0,0,0-2,1.23c2.26-.51,6.71-1.63,8.4-2s.6.08,1.72-.13c-1.94.81-4.68,1.61-6.3,2.41s-2,1.56-3.44,2.35l4.62-1-9.06,4.51,5.7-1.24-6,3.67c1.8-.42,3.6-.83,5.39-1.26q-2.75,1.49-5.51,3l2.79.22c-1,.69-2,1.38-3,2.08l4.95-1.62c-.53.47-.77.64-1.36,1.16s-.89.7-1.71,1.47-2.46,2.39-3.44,3.32c1.08-.14,2.21-.34,3.3-.5l-3.49,3,2.69-.56c-1.09,2.3-2.06,4.56-3.22,6.88,4.57-7.56,7.81-13.33,14.85-19.69,10.55-9.54,27.48-17.08,39.81-23.13,7.15-3.51,12.46-1.45,17.84-6.12,0,0-.06,0-.05,0,4.57-3.16,10.27-3.39,15.61-3.33-.33,0-.44-.06-.82-.08C331.62,207.13,326.23,206.49,321.34,208Z" style="opacity:0.46"></path><path d="M301.72,216.83c1.23-.46,2.47-.87,3.72-1.24-.24-.1-.55-.28-.79-.36a6.72,6.72,0,0,1-1.61-1.12c-.27-.21.25,0-.12,0s-1.47.36-2,.43A5.48,5.48,0,0,1,301.72,216.83Z" style="opacity:0.46"></path><path d="M332.29,186.29c1,4.34,3.16,12.65,3.58,16.12s-.88,1.93-1,4.42c-.28-.1.68,3.36.34,2.68s-1.33,2.56-1.67,2.72c.47,9.57-.09-6.82,1,8.23s-.1,49.22-8.29,70.16-9.66,64-10.92,86.08-6.63,50.44-8.52,65.79-1.72,8.86-3.61,20.14c1.23-1.31,2.29-1.11,3.46-1.83.34.55.69,1,1,1.57.6-.31,1.22-.62,1.8-.93.86.27,1.18.51,2.16.79a30.34,30.34,0,0,1,3.74.8c1.17-19.91,1.81-34.18,3.64-55.6s5.42-55.6,7.78-76,3.88-35.51,10.5-49.86,4.41-37.84,5.15-49.23,0-10.42.44-19.64c.76-.89,2-3.32,1.31-4.73a15.7,15.7,0,0,1-1.5-3.91c.4-1.09.81-2.21,1.24-3.3a14.45,14.45,0,0,1-2.27-3.74c.29-1.9.65-4,.76-5.9s.42-3.53.66-5.24a45.6,45.6,0,0,1-3.3,8.64c-1,1.53-.43.3-1.1,1.31-1.73-4.34-3.51-8.49-5.28-12.76C333.1,184.16,332.65,185.05,332.29,186.29Z" style="fill:#a8a8a8"></path><path d="M302.49,464.17l.28-1.62a76.24,76.24,0,0,1,1.59-7.74c.51-1.91.92-3.43,2-12.38.6-4.93,1.54-11.05,2.63-18.13,2.24-14.54,5-32.62,5.88-47.63.13-2.25.26-4.73.4-7.38,1.26-23.88,3.17-60,10.55-78.86,8.53-21.8,9.25-56.53,8.26-69.93-.16-2.13-.28-3.58-.37-4.56-.47,0-.48-.13-.65-3.69l0-.34.23-.1a9.46,9.46,0,0,0,.46-1,5,5,0,0,1,1-1.77l-.09-.44c-.27-1.25-.36-1.72-.22-2a2.67,2.67,0,0,1,.67-1.83c.27-.32.5-.59.29-2.33-.31-2.47-1.55-7.6-2.54-11.72-.4-1.63-.77-3.14-1-4.35l0-.12,0-.13a20.8,20.8,0,0,1,.75-2.09c.16-.38.31-.76.46-1.18l.44-1.22.49,1.2,1.75,4.2c1.07,2.55,2.18,5.18,3.24,7.84l.07,0c.06-.08.19-.25.44-.65a45.72,45.72,0,0,0,3.24-8.49l1,.19-.21,1.4a36.76,36.76,0,0,0-.45,3.79c-.09,1.55-.35,3.26-.6,4.91l-.14.9a14,14,0,0,0,2.13,3.49l.19.22-.11.28c-.41,1.05-.8,2.12-1.18,3.16a13,13,0,0,0,1.14,3l.3.62c.73,1.57-.44,4.06-1.27,5.13-.18,3.93-.14,6-.11,8a114.83,114.83,0,0,1-.33,11.51c-.19,2.85-.19,6.4-.19,10.5,0,11.85,0,28.06-5,38.91-6.29,13.64-7.9,27.64-10.14,47l-.31,2.68c-2.41,20.82-6,54.94-7.78,76-1.44,16.87-2.14,29.23-3,43.55-.22,3.84-.44,7.82-.69,12l0,.71-.66-.28A9.65,9.65,0,0,0,313,463a14.65,14.65,0,0,1-1.46-.28,12.26,12.26,0,0,1-1.28-.46c-.22-.09-.43-.18-.69-.27l-.94.48-1.08.55-.63-.93-.41-.62a7.92,7.92,0,0,1-1,.37,4.06,4.06,0,0,0-2,1.14Zm7-3.27.2.06c.39.13.68.25,1,.37a12.14,12.14,0,0,0,1.17.42,13.3,13.3,0,0,0,1.35.25,14.29,14.29,0,0,1,1.8.35c.23-4,.45-7.74.65-11.38.81-14.33,1.51-26.7,3-43.59,1.8-21.08,5.37-55.21,7.79-76l.31-2.68c2.16-18.74,3.87-33.54,10.23-47.33,4.91-10.65,4.91-26.74,4.91-38.49,0-4.12,0-7.69.19-10.56a113.28,113.28,0,0,0,.33-11.43c0-2-.07-4.13.12-8.2v-.17l.11-.13c.7-.82,1.77-3.05,1.24-4.19l-.29-.62a13.22,13.22,0,0,1-1.25-3.41l0-.14.05-.13c.37-1,.75-2,1.13-3a15.45,15.45,0,0,1-2.15-3.64l-.05-.13.18-1.18c.25-1.63.5-3.31.59-4.81v-.13a24.55,24.55,0,0,1-1.72,3.83c-.45.72-.65,1-.92,1.06a1.74,1.74,0,0,0-.19.26l-.53.78-.35-.88c-1.15-2.9-2.35-5.77-3.52-8.55-.42-1-.85-2-1.27-3.05l0,.05c-.25.61-.48,1.18-.69,1.87.27,1.18.63,2.64,1,4.21,1.05,4.36,2.25,9.3,2.56,11.83.24,2-.06,2.55-.52,3.09a1.88,1.88,0,0,0-.44,1.41l0,.41c.05.33.16.82.23,1.15.26,1.21.32,1.5-.14,1.66a.5.5,0,0,1-.29,0c-.16.3-.38.8-.52,1.13a8.51,8.51,0,0,1-.58,1.2c0,.3,0,.58,0,.84.42.1.51.91,1,7.16,1,13.48.27,48.42-8.33,70.38-7.32,18.72-9.23,54.72-10.48,78.54-.14,2.65-.28,5.13-.4,7.39-.86,15-3.65,33.17-5.89,47.72-1.09,7.08-2,13.19-2.63,18.1-1.11,9-1.52,10.57-2,12.52a64.32,64.32,0,0,0-1.36,6.35,6.73,6.73,0,0,1,1.29-.54,5.11,5.11,0,0,0,1.19-.5l.42-.26.27.42c.22.34.43.66.65,1l.14.2.29-.15,1.11-.57Z" style="fill:#263238"></path><path d="M321.24,308.36l.35-1.65c.22-1,.65-2.95.84-4l-.28,0,.35-.79a.53.53,0,0,1,.67-.37l.11,0a15.38,15.38,0,0,1,3.52.31,14,14,0,0,0,3.49.27l.62-.05-.45,3.3-.36.06a23.84,23.84,0,0,0-4,1.32,23.62,23.62,0,0,1-4.17,1.38Zm2.22-5.73c-.1.72-.38,2-.89,4.3l0,.14a29.39,29.39,0,0,0,3.23-1.15,27.62,27.62,0,0,1,3.8-1.3l.18-1.37a16.25,16.25,0,0,1-3.11-.32A15.33,15.33,0,0,0,323.46,302.63Z" style="fill:#263238"></path><path d="M316.05,359.84l.05-.62c.11-1.27.21-2.54.32-3.81l0-.37.36-.08a18.88,18.88,0,0,0,3.08-1,15.66,15.66,0,0,1,4.19-1.21l.61-.06-.06.6c-.07.7-.11,1.39-.16,2.08s-.09,1.39-.16,2.1l0,.44h-.18c0,.09,0,.19-.06.26-.11.47-.24,1-.74,1a64,64,0,0,0-6.62.6Zm1.33-4c-.08.94-.15,1.88-.23,2.82,2-.26,4-.43,5.84-.51,0-.08.05-.18.06-.25a2.48,2.48,0,0,1,.28-.78c.06-.63.1-1.25.14-1.87s.07-1,.11-1.48a17.79,17.79,0,0,0-3.32,1.07A22.75,22.75,0,0,1,317.38,355.86Z" style="fill:#263238"></path><path d="M317.75,334.39l.68-5.4.28-.11c.88-.32,1.86-.7,2.87-1.1,2-.78,4.1-1.6,5.84-2.14l.73-.23-.08.76c-.11,1-.36,3.12-.46,3.88l-.05.4v0s0,.11,0,.26l0,.31-2.22.75c-2.22.75-4.74,1.6-6.74,2.35Zm1.6-4.68-.4,3.17c1.87-.68,4.05-1.42,6-2.07l1.63-.55c0-.07,0-.18,0-.34.08-.59.25-2,.37-3.09-1.55.52-3.32,1.21-5,1.88C321,329.07,320.15,329.41,319.35,329.71Z" style="fill:#263238"></path><path d="M321.81,385.21l-.48,0q-3.22-.21-6.43-.38l-.52,0,0-.52c.25-2.59.4-4.71.49-6.68l.13-2.83.41-.05c2.1-.3,4.54-.65,7-1.05l.64-.11-.06.65q-.37,3.61-.77,7.22Zm-6.34-1.38c1.81.09,3.63.2,5.44.32l.31-2.86q.36-3.27.71-6.56c-2.06.33-4.11.63-5.93.89l-.09,2C315.83,379.47,315.69,381.45,315.47,383.83Z" style="fill:#263238"></path><path d="M318.93,415.2l-.55-.11c-2.6-.49-5-.9-7.32-1.25l-.48-.07.3-2.25c.23-1.64.45-3.28.69-4.93l.06-.4.4,0c2.39-.15,4.77-.29,7.16-.4l.58,0-.12,1.31c0,.41-.07.79-.12,1.31-.2,2-.39,4.22-.56,6.27Zm-7.23-2.28c2,.31,4.1.67,6.32,1.09.16-1.9.33-3.91.51-5.74.05-.52.09-.89.12-1.3l0-.17c-2.06.09-4.11.21-6.17.34-.21,1.5-.42,3-.62,4.52Z" style="fill:#263238"></path><path d="M317.31,441l-.5,0c-2.85-.15-5.71-.33-8.56-.51l-1.56-.1.6-4,2.44,0c2.44-.05,4.89-.1,7.33-.17l.55,0Zm-9.47-1.57.47,0c2.69.17,5.37.34,8.06.48l.17-2.78c-2.26.06-4.53.1-6.79.15l-1.6,0Z" style="fill:#263238"></path><path d="M341.28,191.3a16.54,16.54,0,0,1-1.46,3.35c-.64.79-.57.58-1,1.13-1-2.48-2-4.9-3-7.37a25.74,25.74,0,0,0-3.06-.46c.89,3.93,2.87,11.34,3.21,14.53s-.84,2-1,4.32a15.26,15.26,0,0,0,.39,2.88c-.65.75-1,2.53-1.76,2.68,1.23,7.49-.91-4.35,1.19,7.8s1.4,42.29-3.51,53.44-2.21,13-5.24,19.69c4.34-5.37,7.31-8.08,11.74-12.74,5.42-10.34,4.52-38.29,4.9-48.43s.19-11,.37-19.38c.79-1,2-3.36,1.32-4.78a15.91,15.91,0,0,1-1.5-3.92c.4-1.09.81-2.21,1.24-3.3a14.62,14.62,0,0,1-2.27-3.74c.25-1.67.49-3.35.69-5A10.89,10.89,0,0,0,341.28,191.3Z" style="fill:#263238"></path><path d="M323.88,296.64l1.62-3.56a20.36,20.36,0,0,0,1.76-7.08,37.14,37.14,0,0,1,3.48-12.6c4.84-11,5.59-40.92,3.47-53.16-.54-3.11-.81-4.68-.89-5.5,0-.11-.05-.21-.06-.25h0a1.2,1.2,0,0,1,0-.27c-.06-.39-.15-1-.29-1.77l-.07-.47.46-.1c.19-.05.53-.78.71-1.16a8.17,8.17,0,0,1,.61-1.14,16.94,16.94,0,0,1-.33-2.65v-.16a3.11,3.11,0,0,1,.67-1.92c.27-.37.51-.69.33-2.31a103.64,103.64,0,0,0-2.21-10.33c-.38-1.55-.73-3-1-4.14l-.14-.62h.64a11.44,11.44,0,0,1,2,.27c.38.07.75.14,1.11.19l.29,0,.11.27c.51,1.27,1,2.53,1.57,3.79.39,1,.79,1.91,1.18,2.87.1-.11.24-.25.48-.55a16.44,16.44,0,0,0,1.36-3.12l.11-.59.56.22a4.23,4.23,0,0,1,.82.44c.13.08.26.17.4.24l.3.16,0,.34c-.2,1.65-.43,3.28-.67,4.92a14.43,14.43,0,0,0,2.13,3.48l.19.22-.11.28c-.4,1-.79,2.09-1.16,3.12l0,0a12.18,12.18,0,0,0,1.08,2.91c.12.24.24.49.36.76.79,1.73-.61,4.23-1.29,5.16-.06,3.15-.07,5.23-.09,7.15,0,3.14,0,5.85-.27,12.08-.07,1.87-.1,4.34-.13,7.21-.14,13.1-.35,32.9-4.82,41.43l-.08.12c-1.18,1.24-2.26,2.34-3.29,3.39a121.39,121.39,0,0,0-8.43,9.31Zm10.5-81.36c.19,1.18.53,3.18.81,4.79,2.14,12.35,1.37,42.57-3.54,53.73a36.32,36.32,0,0,0-3.39,12.31,26,26,0,0,1-.8,4.59c2.33-2.73,4.34-4.8,6.6-7.11,1-1,2.06-2.12,3.22-3.33,4.33-8.36,4.55-28.74,4.68-40.92,0-2.88.06-5.36.13-7.24.23-6.21.25-8.91.27-12,0-2,0-4.08.1-7.33v-.17l.1-.13c.86-1.08,1.77-3.17,1.27-4.26-.12-.27-.24-.52-.35-.75a12.73,12.73,0,0,1-1.19-3.29l0-.13.12-.31c.34-.94.7-1.91,1.06-2.86a15.81,15.81,0,0,1-2.15-3.63l-.05-.13,0-.14c.23-1.57.45-3.13.65-4.7l-.17-.11-.15-.1A16.18,16.18,0,0,1,340.2,195a6.43,6.43,0,0,1-.67.75c-.09.09-.18.17-.37.39l-.53.63-.31-.76c-.49-1.2-1-2.39-1.48-3.57s-1-2.35-1.46-3.54l-.88-.16c-.4-.08-.8-.16-1.18-.2.24,1,.52,2.2.83,3.46.93,3.83,2,8.17,2.24,10.46.2,1.87-.1,2.43-.53,3a2.24,2.24,0,0,0-.48,1.4,15.47,15.47,0,0,0,.37,2.7l.07.26-.17.2a5.55,5.55,0,0,0-.63,1.13,4.32,4.32,0,0,1-1,1.51A11.62,11.62,0,0,1,334.38,215.28Z" style="fill:#263238"></path><path d="M338,212.17a56.25,56.25,0,0,1-3.19,7.18c-1.79,3.28-6.59,12.69-7.59,16.33s3.12-3.12,3.15-3.06c-1.61,2.58-3.45,5.32-5.14,8,1.27-1.15,2.55-2.32,3.84-3.47-2,4-3.79,8.16-5.92,12.13,1.29-1.7,2.53-3.43,3.74-5.18-2.09,4.69-4.41,9.33-6.88,13.83,2.09-2.41,4-5,6-7.48-2.18,5-4.25,10.07-6.87,14.85,1.78-2.51,3.4-5.13,5-7.77-1.6,3.69-3.34,7.26-5.25,10.8,2.72-3.06,5.32-6.16,7.8-9.41-1.54,3.82-3.24,7.52-5.1,11.19,1.61-1.82,3.5-3.94,4.85-5.67.27,1.19-3,9.19-2.46,8.66s5.77-9,7.22-11c-1.05,3-2.63,6.45-4.05,9.55,1.54-2.07,3-4.2,4.54-6.31l-2.28,9.38c1.57-4,3.41-7.92,4.69-12,1.17,3.17,2.07,6.43,3.33,9.6q-.56-2.64-1.1-5.26c2,1.08,4,2.16,6,3.26l-2.09-4.15c1.57,1,3.22,2.18,4.75,3.11-.53-1.35-3.1-5.71-2.66-6.64s2.44,1.81,3,1.79c-2-2-4.14-4.19-6-6.43,1.55,1.36,3.22,2.58,4.85,3.84-1-1.1-2-2.19-3-3.29,2.36,1.33,4.71,2.68,7.08,4-2.78-2.1-5.61-4.16-8.24-6.46,2.86,1.6,5.83,3,8.79,4.41-1.8-1.94-3.73-3.82-5.41-5.86,1.4,1.34,3,2.53,4.48,3.77-2.06-2.17-4-4.32-6-6.61,1,.49,1.16.09,2.23,1s3.29,2.88,4.65,3.92c-.67-1-1.43-2.39-2.15-3.29s-1.41-1.36-2.09-2.21c1.42.65,2.9,1.15,4.36,1.7-.68-.92-1.34-1.85-2-2.8,1.45.64,2.91,1.26,4.37,1.88-1.35-1.13-2.66-2.29-4-3.47,2.72,1,5.44,2,8.16,3-3.33-1.64-6.64-3.33-9.95-5l7.86,1.66c-1-1-1.95-2-2.92-2.95,1.72.45,3.47.92,5.17,1.35l-2.57-2-.71-.57c-.26-.51-.59-1.07-.89-1.59l3.93.65c-.85-.6-2.38-1.54-3.07-2s-.18,0-.79-.56-1.75-2-2.43-2.75c1.3.64,2.66,1.27,4,1.88l-1.84-2.19.81-.27c-1.71-1-3.35-2.18-5-3.28,1.19.48,2.39,1,3.59,1.44-.73-.84-1.47-2-2.2-2.79s-1.49-1.11-2.19-1.74c-.6-1.57-.31-2.1-1.13-4s-3.46-6.23-4.09-8.17-.75-3.39-1.09-4.68,0-1.42-.34-2.4S338.74,210.39,338,212.17Z" style="fill:#92E3A9"></path><path d="M323.6,273.76a1.1,1.1,0,0,0-.07.17C323.52,274,323.61,273.75,323.6,273.76Z" style="fill:#92E3A9"></path><path d="M338.55,211.15a2.52,2.52,0,0,0-.46.83,57.67,57.67,0,0,1-3.26,7.34c-1.92,3.58-6.47,12.43-7.62,16.42-1,3.48,3-2.91,3-2.84-1.56,2.5-3.33,5.13-5,7.7,1.27-1.16,2.55-2.33,3.84-3.48-2,4-3.79,8.16-5.92,12.13,1.29-1.7,2.53-3.43,3.74-5.18-2.09,4.69-4.41,9.33-6.88,13.83,2.09-2.41,4-5,6-7.48-2.18,5-4.25,10.07-6.87,14.85,1.78-2.51,3.4-5.13,5-7.77-1.6,3.69-3.34,7.26-5.25,10.8,2.72-3.06,5.32-6.16,7.8-9.41-1.54,3.82-3.24,7.52-5.1,11.2,1.65-1.92,3.41-3.78,4.92-5.81-.72,3.2-1.85,6.35-2.87,9.47,2.43-4,5.22-7.81,7.63-11.86-1.22,3.41-2.61,6.33-4.17,9.85,1.27-3.1.67.87,2.34-3.85a230.62,230.62,0,0,0,6.09-22.56A164.28,164.28,0,0,0,338.55,211.15Z" style="opacity:0.46"></path><path d="M346.58,207.74c-.36,0-.71.15-1.07.16.05.5,0-.1.06.67s.28,2.91.35,4a6,6,0,0,1,2-1.13C347.47,210.16,347.05,208.94,346.58,207.74Z" style="opacity:0.46"></path><path d="M333.7,221.1c.1-.77-.14.9,0-.45s.73-5.73,1-7.66a5.72,5.72,0,0,0-1.15-.23c-.11.25-.21.48-.33.73,0,0,0,0,0,0l-.2.47c0,.08,0,0,0,.07l-.23.53a.94.94,0,0,0,0,.09c-.05.11-.2.47-.25.6l-.06.16c-.06.13-.2.5-.26.64l-.07.2c-.06.15-.21.55-.27.69a1.46,1.46,0,0,1-.07.19c0,.16-.22.61-.27.76s0,0,0,.11-.22.6-.27.75,0,0-.06.18l-.25.76a1.85,1.85,0,0,0-.07.19c0,.05,0,.05,0,.05A4.91,4.91,0,0,1,333.7,221.1Z" style="opacity:0.46"></path><path d="M274.11,465.73s14.33-3.55,19.63-5.84,9-4.38,9-3.75l2.74-.42-.58,2.92,3.53-2.08,2.31,1.17,1-2.43,1.37,1.26,1.57-.84.47,2,1-2.68,1.7,1.46,4.51,1.49,3.14,1.46s-4.9-1,5.11,1.88,20.62,5.42,20.62,5.42h-78Z" style="fill:#92E3A9"></path></g><g id="freepik--tree-1--inject-2"><path d="M197,164.27s13.13-1.25,19.07.94,18.14,8.13,22.2,9.38,18.45,6.25,22.2,7.19,7.19,2.19,7.19,2.19l-8.62-.43s9.54,2.06,10.66,2.25a11.35,11.35,0,0,1,2,.56h-6.17s8,2.24,8.79,2.43,4.11,1.68,4.11,1.68l-5.42-.75-1.68.19s6.17,2.06,7.85,2.8,4.86,2.25,4.86,2.25l-7.66-1.5s2.24,1.27,4.13,2.26a15.69,15.69,0,0,0,2.41,1.11c.93.18,6.35,2.8,6.35,2.8l-11-2.8,7.66,3.74,4.86,2.05,2.24,1.68-10.28-3.36-1.68-.19,7.48,3.55,3.74,3.18-5.43-1.68,10.47,6.36-6.73-2.06,6.92,5-6.36-2.06,6.36,4.11h-3.37l3.37,2.81-5.8-2.43,1.5,1.49,1.87,1.87,3.93,4.49-3.93-.94,3.93,3.93-3.18-.94,4.86,13.09L295,232l-1.49,8-.19-6.73-2.06,4.86V227.29l-1.49,6.91-1.5-7.47-1.68,6.91-.56-4.11-1.5,5.61L284.31,223s-2.62,10.28-2.62,9.72.19-5.42.19-5.42L280.19,231v-7.29l-1.68,5.42-.75-6-1.3,5.8-.94-5.61-1.31,3.93L272.53,220l-1.87,4.48V220l-1.31,2.05-.18-6.91-1.69,3.74-.19-3.23-.18-3.13-.93-4.49-1.87,11.41-.56-9.91-2.44,7.29.19-13.65-1.87,11.22-1.93-11-.5-2.8v11.59L254,204.86l-.18,7.29-3-10.1v11.22c0,.56-2.43-11-2.43-11l-.94,10.65-1.49-12-2.25,8.22.56-13.64-2.05,10.84-.19-9-1.68,7.1-.56-6.17L238.51,203v-9l-1.12,6.17v-9.34l-3,8.78v-9.91l-2.06,6.73-.19-5.6-.93,3.55L229.16,186l-.75,7.47-1.3-6.91-.56,4.67-.94-8.23-1.68,3.74-.38-5.61-.93,7.3-2.06-7.48-1.49,5.23-.4-4.55-.16-1.8-.38-5.61-1.68,7.48-.75-9.54-2,4.3,1.87-7.66S209.21,163.51,197,164.27Z" style="fill:#92E3A9"></path><path d="M269.35,222.05l1.31-2.05v4.48l1.87-4.48,1.68,7.29,1.31-3.93.94,5.61,1.3-5.8.75,6,1.68-5.42V231l1.69-3.74s-.19,4.86-.19,5.42,2.62-9.72,2.62-9.72l.18,12.15,1.5-5.61.56,4.11,1.68-6.91,1.5,7.47,1.49-6.91v10.84l2.06-4.86.19,6.73,1.49-8c-3.13-7.8-14.71-22.47-23.64-33s-24.61-12.3-44-23.59c-4.69-2.73-8.6-4.87-11.84-6.54l-1.85,7.6,2-4.3.75,9.54,1.68-7.48.38,5.61.16,1.8.4,4.55,1.49-5.23,2.06,7.48.93-7.3.38,5.61,1.68-3.74.94,8.23.56-4.67,1.3,6.91.75-7.47,2.06,8.41.93-3.55.19,5.6,2.06-6.73v9.91l3-8.78v9.34l1.12-6.17v9l1.31-4.68.56,6.17,1.68-7.1.19,9,2.05-10.84-.56,13.64,2.25-8.22,1.49,12,.94-10.65s2.43,11.59,2.43,11V202.05l3,10.1.18-7.29,3.18,7.29V200.56l.5,2.8,1.93,11,1.87-11.22-.19,13.65,2.44-7.29.56,9.91L266.18,208l.93,4.49.18,3.13.19,3.23,1.69-3.74Z" style="opacity:0.48"></path><path d="M300.76,240.56l-.4-1.08c-.55-.62-1.07-1.23-1.56-1.82Z" style="fill:#92E3A9"></path><path d="M204.83,163.92c-4.24,0-7.8.35-7.8.35a33.47,33.47,0,0,1,11.45,1.17C207,164.77,205.78,164.28,204.83,163.92Z" style="fill:#92E3A9"></path><path d="M181.1,186.67,172,197.53l4.55-3-8.5,8.1,7.9-4.54-11.25,11.06,7.11-3.95-10.47,9.67,5.73-2.76-6.92,8.29,6.13-3.95-15.21,21.73L162.93,227l-10.27,15,7.31-5.53-6.91,10.46,9.87-6.91-10.86,13.23,7.7-6.32-8.29,12.84L158,254.8l-9.67,12.25,7.3-6.12L148.32,272l7.5-7.51-8.29,12.64,9.08-8.89-8.49,12.44L157.6,272l-8.69,15.4,9.08-6.72-10.27,13.24,7.51-7.51-3.75,9.48,5.53-7.11-4.74,11.06,6.31-6.12-3.94,10.47,3.75-4.35L155,310.1l4.94-7.9-1.58,10.07,2.56-4.93,1,9.47.4-9.67,1.77,3.75v-5.73l3,3.56-.6-7.51,3,4.15-2.37-8.29,3.75,3.35-1.78-7.11,5.73,5.14L172,290.94l2.57,2L171,283.64l4.34,6.32-3-7.31L176,286l-5.53-10.47,6.1,6.67.22.24L173,275.34l.2-2.76,6.12,6.32-3.75-8.49,3.55,3.55-4.34-9.48,6.12,6.91-3.36-6.51,4.94,4.93-5.92-11.06,4.54,4.94-3.95-9.28,5.73,4.94-3.76-6.72,3.56,2.57-3.1-8.3,4.48,6.13-2.37-5.73,4.35,2.57-3-5.94,6.59,4.75-4.89-8.4,6.87,5-6.72-9.67,4.94,2.76-4-6.68,3.19.83-2.33-3.43,4.15,2.77-3.56-5.14,4.74,2-6.12-6.52,6.71,3.36L188,220.24l3.56,1-4.74-6.12,5.33,2.37-4.74-9.87,7.3,5.52-4.54-6.51,4.94,2-5.53-4.54,5.92,2.77-6.31-7.11,5.33,3-8.3-9.28,5.73,3L186.63,189l-1.19-8.1,1-9.87-1.38-.2S180.11,182.72,181.1,186.67Z" style="fill:#92E3A9"></path><path d="M180.58,206.82l4.3-35.52c-.87,2.13-4.66,11.86-3.78,15.37L172,197.53l4.55-3-8.5,8.1,7.9-4.54-11.25,11.06,7.11-3.95-10.47,9.67,5.73-2.76-6.92,8.29,6.13-3.95-15.21,21.73L162.93,227l-10.27,15,7.31-5.53-6.91,10.46,9.87-6.91-10.86,13.23,7.7-6.32-8.29,12.84L158,254.8l-9.67,12.25,7.3-6.12L148.32,272l7.5-7.51-8.29,12.64,9.08-8.89-8.49,12.44L157.6,272l-8.69,15.4,9.08-6.72-10.27,13.24,7.51-7.51-3.75,9.48,5.53-7.11-4.74,11.06,6.31-6.12-3.94,10.47,3.75-4.35L155,310.1l4.94-7.9-1.58,10.07,2.56-4.93.71,6.72.2,0s-1.2-3.36,1.44-27.84S180.58,206.82,180.58,206.82Z" style="opacity:0.48"></path><path d="M176.35,178.47,163.78,185l5.33-1-11,4.2,9-1.15-14.65,5.87,8.08-.91-13.39,4.89,6.36-.34-9.58,5,7.17-1.28-22.41,14.17,15.28-5.81-15.27,9.89,8.88-2.29-10.42,7L139,220.65l-15.13,8,9.55-2.86-12.61,8.65,7.92-2L115.1,240l9.1-2.83-11,7.38,9.82-4L110.49,249l11.8-4.7-12.63,8.21,12.1-4.37L107.8,259l11-2.69-14.58,8.25,9.82-4-7.12,7.3,7.85-4.43-8.64,8.38,8.19-3.21-7.68,8.13,5.14-2.56-7.06,8.18,7.6-5.38L107,285.59l4.27-3.57-2.74,9.13,4.09-8.78.19,4.15,2.21-5.28,1.37,4.42,2.34-7.15,1.14,5,1-8.57,2.17,4.55,1.1-7.25,3.3,7,.35-8,1.6,2.81.3-9.94,1.57,7.51.09-7.88,2,4.47-1.07-11.79,3.05,8.5.11.31-.71-8,1.24-2.47,3.21,8.19-.18-9.28,1.91,4.65-.36-10.42,3,8.74-.59-7.31,2.65,6.46-1.2-12.49,2.29,6.31-.06-10.09L150,246.2l-.88-7.64,2.29,3.74.35-8.85,1.77,7.38,0-6.2,3,4.05L156,232l4.24,6.93L159,229.31l4.39,7.31-2.46-11.52,3.49,4.46-1.13-7.72,2.62,2-.83-4.07,2.76,4.15-1.3-6.1,3.61,3.65L167,213.09l4.9,5.69-2.13-6.67,2.89,2.28-2-7.48,4,4.25-.57-10.94,4.61,7.92L177,200.37l3.79,3.73-3.35-6.32,4.4,4.83-3.09-9,3.78,4.79-4.07-11.77,4.14,5-2.1-8.8,2-7.93,4.72-8.73-1.2-.72S177,174.44,176.35,178.47Z" style="fill:#92E3A9"></path><path d="M168.09,196.86l17.67-31.12c-1.61,1.64-8.87,9.15-9.41,12.73L163.78,185l5.33-1-11,4.2,9-1.15-14.65,5.87,8.08-.91-13.39,4.89,6.36-.34-9.58,5,7.17-1.28-22.41,14.17,15.28-5.81-15.27,9.89,8.88-2.29-10.42,7L139,220.65l-15.13,8,9.55-2.86-12.61,8.65,7.92-2L115.1,240l9.1-2.83-11,7.38,9.82-4L110.49,249l11.8-4.7-12.63,8.2,12.1-4.36L107.8,259l11-2.69-14.58,8.25,9.82-4-7.12,7.3,7.85-4.43-8.64,8.38,8.19-3.21-7.68,8.13,5.14-2.56-7.06,8.18,7.6-5.38L107,285.59l4.27-3.57-2,6.48.18.1s.19-3.56,12.07-25.13S168.09,196.86,168.09,196.86Z" style="opacity:0.48"></path><path d="M185.31,152.44l-1.58-14.07-1,5.33V132l-2.17,8.85L180.35,125l-2.06,7.87.23-14.26-2,6L175.34,114,174,121.13l-5.21-26,0,16.35L165,93.69l-1,9.1-2.79-12.23-1.82,11.92-2.07-17-.75,9.93-3.56-14.86L152,88.68l-2.17-15.45-.62,9.51-2.95-12.92.24,10.61L143.07,65.7l.15,12.71-3.13-14.74-.26,12.86-5.14-16.92-1.42,11.21-2.48-16.57L131,64.86l-4.27-9.26,1.32,8.91-4.72-11.06.06,8.79-4.84-10.08.55,5.71L114,48.36l2.31,9-6.2-8.1,1.8,5.27-7.54-5.83,6.73,7-3.94-1.31,4.14,4L106.71,58l5.84,4.76-5-.72,7.64,4-5,.4,6.37,3.62-7.67.6,7.34,3.18-3.2.49,9.17,3.84L114.56,77l7.33,2.9-4.89.25,11.39,3.23-9-.19H119l7.73,2.19,1.87,2.06-8.8.06,8.73,3.15-5,.12,9.85,3.4-9.22-.34,7,2.07-7,.16,12.09,3.35-6.71-.12,9.44,3.55-7.52.73,7.44,1.92-4.31.8,8.15,3.5-7.53-1,5.78,2.24-4.86,1.37,6.4,1.91-8,1.48,9.46,2.27-8.39,1.48,11.63,1.82-5.4,1.67,7.6,1.7-2.8,1.73,4.09.69-4.86,1.09,6.17,1-4.7,2.07,8.94.07-7.07,2.54,7,.4-3.16,1.89,7.7.79-5.4,2.23,10.42,3.38L156.76,144l7.85,1.22-4.84,2.2,7.11-.86L160.79,149l9.5.34-5.82,1.81,12.44.41-6.1,2.09,9,1.19,6.67,4.74,6.47,7.53,1.09-.87S188.85,154.45,185.31,152.44Z" style="fill:#92E3A9"></path><path d="M189.34,141.38l3.76-13.66-2.9,4.58,4.37-10.89-5.31,7.41,5.66-14.73-4.83,6.54,5.51-13.14-4.07,4.89L194.38,102l-3.93,6.14L195.27,82l-6.11,15.16,3.12-17.92-4.36,8.07,2-12.39-6.12,10.38,4.39-16.54-4.38,8.94L186,62.6l-3.88,7.2,3.72-15.16-4.11,8.6,2.06-13.09-3.71,9.94,2.3-14.94L177.78,57l2.57-14.85-5,11.84,1.51-17.62-5.48,9.88L175.22,30,171.5,39.9,171,29.72l-2.08,8.76-.27-12-3.21,8.2-.75-11.17L163.06,29l-1.21-10.73-1.21,9.23-2.75-9.82-.28,5.56L152.78,15l3.65,9-3.17-2.67,2.37,5.21-4.17-2,3.66,6.59-4.42-2.55,5.6,6.56-4.81-1.49,4.57,5.73-7.34-2.3,5.63,5.68L151.19,42l7.09,7L151.7,45l5.73,5.42-4.63-1.58,9.37,7.23-8.31-3.54-.3-.12,6.36,4.91,1,2.6-8.19-3.21,6.93,6.17-4.71-1.76L162.81,68l-8.44-3.75,5.76,4.54-6.54-2.45,10,7.61-6.18-2.61,7.44,6.8L157.57,76l6.2,4.55-4.3-.86L165.74,86l-6.62-3.72,4.53,4.23-5-.53,5.23,4.14-8-1.59,7.94,5.61-8.34-1.74,10.12,6L160,97.9l6.43,4.41-3.25.57L166.7,105l-4.92-.8,5.36,3.2-5.13.17,8.27,3.39-7.5-.27,6.35,3-3.65.57,6.85,3.61-5.83.05,8.41,7L166,123l6.83,4-5.31.25,6.92,1.84-6.54-.06,8.7,3.85-6.08-.49,11.4,5-6.44-.32,7.88,4.43,4.44,6.88,3.2,9.39,1.34-.39S191.88,144.56,189.34,141.38Z" style="fill:#92E3A9"></path><path d="M163.12,48c-3.51-12-5.9-19.78-7.49-24.73l-2.37-2,2.37,5.21-4.17-2,3.66,6.59-4.42-2.55,5.6,6.56-4.81-1.49,4.57,5.73-7.34-2.3,5.63,5.68L151.19,42l7.09,7L151.7,45l5.73,5.42-4.63-1.58,9.37,7.23-8.31-3.54-.3-.12,6.36,4.91,1,2.6-8.19-3.21,6.93,6.17-4.71-1.76L162.81,68l-8.44-3.75,5.76,4.54-6.54-2.45,10,7.61-6.18-2.61,7.44,6.8L157.57,76l6.2,4.55-4.3-.86L165.74,86l-6.62-3.72,4.53,4.23-5-.53,5.23,4.14-8-1.59,7.94,5.61-8.34-1.74,10.12,6L160,97.9l6.43,4.41-3.25.57L166.7,105l-4.92-.8,5.36,3.2-5.13.17,8.27,3.39-7.5-.27,6.35,3-3.65.57,6.85,3.61-5.83.05,8.41,7L166,123l6.83,4-5.31.25,6.92,1.84-6.54-.06,8.7,3.85-6.08-.49,11.4,5-6.44-.32,7.88,4.43,4.44,6.88s-2.46-13.84-4.25-26.72S171.41,76.41,163.12,48Z" style="opacity:0.48"></path><path d="M190.79,157.75a86.24,86.24,0,0,1,8.56,3.74c2.2,1.31,17.36,8.48,21.3,9.35s-4.49-3.91-4.49-3.91l10.22,5.86-4.44-4.43,15.19,6.43-6.53-4.08L248,177.62l-9.51-6.25,18.8,6.27-10-4.75L261,177.34l-12.1-7.59,14.14,4.19-7.48-4.53s13,1.65,12.15,1.62-15.18-6.71-15.18-6.71l12.1,3.15-7.91-4,11.61.92-14.87-3.24,11.93-4.62-6.57,1.6,4.22-6.24-5.21,2.47,4.18-5.28s-8.84,3.75-8.83,3.33,2.88-3.51,2.88-3.51l-8.39,6.67,5-5.39-4.26,3.33,5.37-7.73L245.37,155l6-9.79-7.68,6,5-5L240.16,153a8.52,8.52,0,0,1,1.19-2.46c.57-.54,5.43-5.38,5.43-5.38l-4.37,2.36-2.85,2.41,2.52-5-3.68,2.24,2.79-5-4.71,4.56,4.59-9.42-7.29,11.56,2.92-9.34-4,3.48,2.27-6.16-2.9,3.16-.68.74-2.11,1,1.25-4.68-3,3.71-.6.75-3.84,2.94,2.78-4.77-3,2.13-.25-1-4.49,6.1,2.08-4.38-3.69,2.66-2.3,2.7-4.75,1.24s-10,5.23-10.7,5.35-4.19,1-5.72,1.21a23.42,23.42,0,0,1-2.78.33C188.92,156.1,189,157.06,190.79,157.75Z" style="fill:#92E3A9"></path><path d="M267.52,171l.22.05C267.83,171,267.74,171,267.52,171Z" style="fill:#92E3A9"></path><path d="M189.77,157.21a3.8,3.8,0,0,0,1,.54,86.24,86.24,0,0,1,8.56,3.74c2.2,1.31,17.36,8.48,21.3,9.35,3.44.75-2.54-2.78-4.12-3.7l9.85,5.65-4.44-4.43,15.19,6.43-6.53-4.08L248,177.62l-9.51-6.25,18.8,6.27-10-4.75L261,177.34l-12.1-7.59,14.14,4.19-7.48-4.53s10.21,1.29,11.93,1.57c-1.95-.6-15-6.66-15-6.66l12.1,3.15-3.59-1.81c-6.14-.93-17-2.71-28.77-5.16C216,157.1,193.72,157.17,189.77,157.21Z" style="opacity:0.48"></path><path d="M188.13,163.81s-9.73-8-17.13-12.48-32.79-10.79-36-11.63-28.13-9.52-28.13-9.52l1.9,2.11-9.09-3.59,2.32,2.11-8.88-1.27,10.37,4.23L91.68,131l5.92,4.45-8.88-3,3.17,3L82.16,130l8.25,6.76-8.88-3.17-4.87-1.27,5.71,4.23-12.69-1.9,8.25,3.59H70.32l8.67,1.7-10.58.21L75,142.45l-13.32.63,8.67,1.69-8,2.33,4.86.84-6.55,2.75,3.59.43-6.34,3.59,5.29-.21-4.66,5.08L65,155.77,61.86,167l6.34-8,.43,5.93,6.55-11.64-2.54,8.46,3.6-4,.21,6.35,5.08-8.46-1.48,7L86,154.71l-1.48,7,7.83-7.82-2.75,7.82,6.55-9.3-2,6.46-.09.3,4.44-6.34-.64,6.34,4.66-6.13-2.54,7.4,7.19-6.13-2.33,6.13L116,152.81l-4,5.92,7.19-5.07-4.44,8,8-7.4-2.11,5.29,9.09-7.62-6.13,8.89,8.25-4.66-3.17,5.29,8.67-5.92-2.75,6.13,6.34-6.55-1.48,7,7.41-7.83-.43,6.77,5.08-8.25.21,9.09,5.92-7.82-2.32,7.82,4.23-5.49.42,3.8,1.69-6.55V160c0-.63,3.6-7,3.6-7l.42,6.35,1.48-4.23,1.06,5.28,2.33-5.28.21,4.65,1.69-4.87s5.5,3.81,8.25,5.93a60.15,60.15,0,0,1,6.34,6.13A2.87,2.87,0,0,0,188.13,163.81Z" style="fill:#92E3A9"></path><path d="M171,151.33c-7.4-4.44-32.79-10.79-36-11.63s-28.13-9.52-28.13-9.52l1.9,2.11-9.09-3.59,2.33,2.11-8.89-1.27,10.37,4.23L91.68,131l5.92,4.45-8.88-3,3.17,3L82.16,130l8.25,6.76-8.88-3.17-4.87-1.27,5.71,4.23-12.69-1.9,8.25,3.59H70.32l8.67,1.7-10.58.21L75,142.45l-13.32.63,8.67,1.69-8,2.33,4.86.84-6.55,2.75,3.59.43-6.34,3.59,5.29-.21-4.49,4.89c1.19-1.28,9.23-9.71,20.35-14.2,12.06-4.86,33-6.34,45.9-4.65s30.46,6.56,38.28,8.67c2.6.71,5.81,1.74,8.93,2.8C171.73,151.77,171.36,151.55,171,151.33Z" style="opacity:0.48"></path><path d="M204.86,180.45l9.08,10.86-4.54-3,8.49,8.1-7.9-4.54L221.25,203,214.14,199l10.46,9.67-5.72-2.76,6.91,8.29-6.12-3.95L234.87,232,223,220.74l10.27,15-7.3-5.53,6.91,10.47L223,233.77,233.89,247l-7.71-6.31,8.3,12.83L228,248.58l9.68,12.25-7.31-6.12,7.31,11.06-7.51-7.51,8.3,12.64L229.34,262l8.5,12.45-9.48-8.69,8.69,15.4L228,274.46l10.27,13.23-7.5-7.51,3.75,9.48L229,282.55l4.74,11.06-6.32-6.12L231.32,298l-3.75-4.35,3.35,10.27L226,296l1.58,10.07L225,301.12l-1,9.48-.39-9.68-1.78,3.75v-5.73l-3,3.56.59-7.51-3,4.15,2.37-8.29-3.75,3.35,1.77-7.11-5.72,5.14,2.76-7.51-2.57,2,3.56-9.28-4.35,6.32,3-7.31L210,279.79l5.53-10.47-6.1,6.67-.22.24,3.75-7.11-.19-2.76-6.13,6.32,3.76-8.49-3.56,3.55,4.35-9.48-6.13,6.91,3.36-6.51-4.94,4.93,5.93-11.06-4.54,4.94,3.95-9.28-5.73,4.94,3.75-6.72L203.28,249l3.09-8.3-4.48,6.13,2.37-5.73-4.34,2.57,3-5.94-6.59,4.75,4.9-8.4-6.87,5.05,6.71-9.68-4.93,2.76,4-6.68-3.18.84,2.33-3.44-4.15,2.77,3.55-5.14-4.74,2,6.13-6.52-6.72,3.36,4.54-5.34-3.55,1,4.74-6.12-5.33,2.37,4.74-9.87-7.31,5.53,4.54-6.52-4.94,2,5.53-4.54-5.92,2.77,6.32-7.11-5.33,3,8.29-9.28-5.73,3,5.34-7.31,1.18-8.09-1-9.88,1.39-.2S205.84,176.5,204.86,180.45Z" style="fill:#92E3A9"></path><path d="M200.51,174.73l-1.18,8.09L194,190.13l5.73-3-8.29,9.28,5.33-3-6.32,7.11,5.92-2.77-5.53,4.54,4.94-2-4.54,6.52,7.31-5.53-4.74,9.87,5.33-2.37L194.39,215l3.55-1-4.54,5.34,6.72-3.36L194,222.52l4.74-2-3.55,5.14,4.15-2.77L197,226.35l3.18-.84-4,6.68,4.93-2.76-6.71,9.68,6.87-5.05-4.9,8.4,6.59-4.75-3,5.94,4.34-2.57-2.37,5.73,4.48-6.13-3.09,8.3,3.55-2.57-3.75,6.72,5.73-4.94-3.95,9.28,4.54-4.94-5.93,11.06,4.94-4.93-3.36,6.51,6.13-6.91-4.35,9.48,3.56-3.55-3.76,8.49,6.13-6.32.19,2.76-3.75,7.11.22-.24,6.1-6.67L210,279.79l3.56-3.36-3,7.31,4.35-6.32-3.56,9.28,2.57-2-2.76,7.51,5.72-5.14-1.78,7.11,3.76-3.35-2.37,8.29,3-4.15-.59,7.51,3-3.56v5.73l1.77-3.73c-.64-13-2.07-36.22-4.71-49.87-3.82-19.76-14.83-54.68-14.66-57.37s-3.33-29-3.33-29l-1.32.82Z" style="opacity:0.48"></path><path d="M224,310.6s-.09-3-.31-7.71Z" style="fill:#92E3A9"></path><path d="M209.61,172.25l12.57,6.52-5.34-1,11,4.2-9-1.14,14.65,5.86-8.08-.91,13.39,4.9-6.35-.35,9.58,5-7.18-1.28,22.41,14.17-15.27-5.81,15.26,9.89L248.3,210l10.41,7-11.77-2.57,15.12,8-9.54-2.86,12.6,8.65-7.92-2,13.65,7.56-9.1-2.83,11,7.38-9.82-4,12.53,8.46-11.81-4.7,12.63,8.21-12.09-4.37,13.95,10.87-11-2.7,14.58,8.25-9.82-4,7.12,7.3-7.84-4.43,8.64,8.38-8.2-3.21,7.69,8.13-5.14-2.56,7.06,8.18-7.61-5.38,5.35,8.68-4.28-3.57,2.75,9.13-4.1-8.77-.19,4.14L271,275l-1.36,4.42-2.35-7.15-1.13,5-1-8.57L263,273.24,261.85,266l-3.3,6.95-.34-8-1.61,2.81-.3-9.94-1.57,7.51-.09-7.88-2,4.47,1.06-11.79-3.05,8.5-.11.31.72-8L250,248.46l-3.21,8.19.19-9.28L245.1,252l.35-10.42-3,8.74.58-7.31-2.65,6.46L241.6,237l-2.29,6.31.07-10.09L236,240l.87-7.64-2.29,3.74-.34-8.85-1.77,7.38,0-6.2-3,4.05.51-6.66-4.25,6.94,1.27-9.65-4.39,7.31L225,218.88l-3.49,4.46,1.13-7.72-2.62,2,.82-4.07-2.76,4.16,1.3-6.11-3.61,3.65,3.13-8.38-4.9,5.69,2.14-6.67-2.9,2.28,2-7.48-4,4.25.56-10.94-4.61,7.92,1.68-7.77-3.8,3.73,3.35-6.32-4.4,4.83,3.09-9-3.77,4.79,4.07-11.77-4.14,5,2.1-8.8-2-7.93-4.72-8.73,1.2-.71S209,168.22,209.61,172.25Z" style="fill:#92E3A9"></path><path d="M228.46,202.62c-13.7-16.89-27.41-38.88-27.41-38.88l-.22.17,2.56,4.73,2,7.93-2.1,8.8,4.14-5-4.07,11.77,3.77-4.79-3.09,9,4.4-4.83-3.35,6.32,3.8-3.73-1.68,7.77,4.61-7.92-.56,10.94,4-4.25-2,7.48,2.9-2.28L214,212.56l4.9-5.69-3.13,8.38,3.61-3.65-1.3,6.11,2.76-4.16-.82,4.07,2.62-2-1.13,7.72,3.49-4.46-2.47,11.52,4.39-7.31-1.27,9.65,4.25-6.94-.51,6.66,3-4.05,0,6.2,1.77-7.38.34,8.85,2.29-3.74L236,240l3.38-6.76-.07,10.09L241.6,237l-1.2,12.49,2.65-6.46-.58,7.31,3-8.74L245.1,252l1.91-4.65-.19,9.28,3.21-8.19,1.25,2.47-.72,8,.11-.31,3.05-8.5-1.06,11.79,2-4.47.09,7.88,1.57-7.51.3,9.94,1.61-2.81.34,8,3.3-6.95,1.11,7.25,2.16-4.55,1,8.57,1.13-5,2.35,7.15L271,275l2.21,5.28.19-4.14c.19-4.15-12.09-23.5-15.91-32.1S242.17,219.52,228.46,202.62Z" style="opacity:0.48"></path><path d="M200.64,146.22l1.59-14.07,1,5.33V125.75l2.17,8.85.23-15.78,2,7.87-.23-14.26,2,6.06,1.23-10.73,1.37,7.15,5.21-26,0,16.35L221,87.47l1.05,9.1,2.8-12.23,1.82,11.92,2.07-17,.74,9.93L233,74.34l.93,8.12L236.15,67l.61,9.51,3-12.92-.25,10.61,3.42-14.73-.16,12.71,3.14-14.74.26,12.86,5.14-16.92,1.41,11.21L255.16,48l-.24,10.61,4.26-9.26-1.32,8.91,4.73-11.06-.07,8.8,4.85-10.09-.56,5.72,5.11-9.52-2.3,9,6.19-8.1L274,48.33l7.54-5.83-6.72,7,3.94-1.31-4.15,4,4.62-.32-5.84,4.76,5.05-.72-7.64,4,5,.4-6.37,3.62,7.67.6-7.34,3.18,3.21.49L263.83,72l7.57-1.22-7.33,2.9,4.88.25-11.39,3.23,9-.19h.32l-7.73,2.2-1.86,2,8.8.06-8.74,3.15,5,.12-9.86,3.4,9.23-.34-7,2.07,7,.16-12.09,3.35,6.7-.12-9.44,3.55,7.53.73L247,99.25l4.31.79-8.14,3.5,7.53-1-5.78,2.24,4.85,1.37-6.39,1.91,8,1.48-9.46,2.27,8.4,1.48-11.64,1.82,5.41,1.67-7.61,1.7,2.8,1.73-4.09.69L240,122l-6.17,1,4.7,2.06-8.94.07,7.06,2.54-7,.4,3.17,1.89-7.7.8,5.39,2.22-10.41,3.39,9,1.46L221.34,139l4.84,2.2-7.1-.86,6.09,2.38-9.51.34,5.83,1.81L209,145.3l6.1,2.09-9,1.19-6.67,4.74L193,160.85l-1.1-.87S197.1,148.23,200.64,146.22Z" style="fill:#92E3A9"></path><path d="M214.86,131.93l-22.73,27.64c1-2.1,5.37-11.56,8.51-13.35l1.59-14.07,1,5.33V125.75l2.17,8.85.23-15.78,2,7.87-.23-14.26,2,6.06,1.23-10.73,1.37,7.15,5.21-26,0,16.35L221,87.47l1.05,9.1,2.8-12.23,1.82,11.92,2.07-17,.74,9.93L233,74.34l.93,8.12L236.15,67l.61,9.51,3-12.92-.25,10.61,3.42-14.73-.16,12.71,3.14-14.74.26,12.86,5.14-16.92,1.41,11.21L255.16,48l-.24,10.61,4.26-9.26-1.32,8.91,4.73-11.06-.07,8.8,4.85-10.09-.56,5.72,5.11-9.52-2.3,9,6.19-8.1L274,48.33l5.35-4.13.16.12s-3.26,1.45-19.14,20.26S214.86,131.93,214.86,131.93Z" style="opacity:0.48"></path><path d="M196.61,135.16l-3.76-13.66,2.9,4.58-4.36-10.89,5.3,7.41L191,107.87l4.83,6.54-5.51-13.14,4.06,4.89-2.85-10.42,3.94,6.14L190.68,75.8,196.79,91l-3.11-17.91L198,81.11l-1.94-12.39L202.2,79.1l-4.39-16.54,4.39,8.94L200,56.38l3.89,7.2-3.73-15.16,4.11,8.6-2.06-13.09,3.71,9.94-2.3-14.94,4.58,11.86-2.56-14.85,5,11.84-1.51-17.62L214.59,40l-3.85-16.3,3.71,9.94L215,23.5l2.08,8.76.28-12,3.21,8.2.75-11.17,1.61,5.51L224.1,12l1.22,9.23,2.74-9.82.29,5.56,4.83-8.21-3.66,9,3.18-2.67-2.38,5.21,4.17-2-3.65,6.59,4.41-2.55-5.59,6.56,4.8-1.49-4.56,5.73,7.34-2.3-5.63,5.68,3.15-.73-7.08,7,6.57-4-5.72,5.42,4.62-1.58-9.37,7.23,8.31-3.53.31-.13L226,51.12l-1,2.6,8.19-3.21-6.94,6.17L231,54.92l-7.89,6.82L231.58,58l-5.76,4.54,6.54-2.45-10,7.61,6.19-2.61-7.45,6.81,7.26-2.12-6.2,4.55,4.3-.86-6.26,6.27L226.84,76l-4.54,4.23,5-.53-5.23,4.14,8-1.59-7.93,5.62,8.34-1.75-10.13,6,5.64-.47-6.42,4.41,3.24.57-3.54,2.16,4.92-.8-5.37,3.2,5.14.17-8.28,3.39,7.5-.27-6.34,3,3.64.57-6.85,3.61,5.83,0-8.41,7,9-2-6.84,4,5.31.25-6.91,1.84,6.53-.06-8.7,3.85,6.09-.49-11.4,5,6.44-.32-7.89,4.43-4.43,6.88-3.2,9.39-1.34-.39S194.07,138.34,196.61,135.16Z" style="fill:#92E3A9"></path><path d="M204.49,116.6l-10.82,34.11c.1-2.3.69-12.73,2.94-15.55l-3.76-13.66,2.9,4.58-4.36-10.89,5.3,7.41L191,107.87l4.83,6.54-5.51-13.14,4.06,4.89-2.85-10.42,3.94,6.14L190.68,75.8,196.79,91l-3.11-17.91L198,81.11l-1.94-12.39L202.2,79.1l-4.39-16.54,4.39,8.94L200,56.38l3.89,7.2-3.73-15.16,4.11,8.6-2.06-13.09,3.71,9.94-2.3-14.94,4.58,11.86-2.56-14.85,5,11.84-1.51-17.62L214.59,40l-3.85-16.3,3.71,9.94L215,23.5l2.08,8.76.28-12,3.21,8.2.75-11.17,1.61,5.51L224.1,12l1.22,9.23,2.74-9.82.29,5.56,3.42-5.83.2.06s-2.49,2.56-10.24,25.93S204.49,116.6,204.49,116.6Z" style="opacity:0.48"></path><path d="M197.82,157.59s9.73-8,17.13-12.48,32.79-10.79,36-11.63S279,124,279,124l-1.9,2.11,9.1-3.59-2.33,2.11,8.88-1.27-10.36,4.23,11.84-2.75-5.92,4.45,8.88-3-3.17,3,9.73-5.5-8.25,6.76,8.89-3.17,4.86-1.27-5.71,4.23,12.69-1.9L308,132h7.62L307,133.69l10.58.21L311,136.23l13.33.63-8.67,1.69,8,2.33-4.86.85,6.56,2.74-3.6.43,6.35,3.59-5.29-.21,4.65,5.08-6.56-3.81,3.18,11.21-6.35-8-.42,5.93L310.77,147l2.54,8.46-3.6-4-.21,6.35-5.07-8.46,1.48,7L300,148.49l1.49,7-7.83-7.82,2.75,7.82-6.56-9.3,2,6.46.1.31-4.45-6.35.64,6.35-4.65-6.14,2.53,7.4-7.19-6.13,2.33,6.13L270,146.59l4,5.92-7.19-5.07,4.44,8-8-7.4,2.12,5.29-9.1-7.62,6.13,8.89L254.09,150l3.17,5.29-8.67-5.92,2.75,6.13L245,148.92l1.48,7-7.4-7.83.42,6.77-5.08-8.25-.21,9.1-5.92-7.83,2.33,7.83-4.23-5.5L226,154l-1.69-6.55v6.34c0-.63-3.59-7-3.59-7l-.43,6.35-1.48-4.23-1.06,5.28-2.32-5.28-.21,4.65-1.7-4.86s-5.5,3.8-8.24,5.92a60.67,60.67,0,0,0-6.35,6.13A2.88,2.88,0,0,1,197.82,157.59Z" style="fill:#92E3A9"></path><path d="M215,145.11c7.41-4.44,32.79-10.79,36-11.63S279,124,279,124l-1.9,2.11,9.1-3.59-2.33,2.11,8.88-1.27-10.36,4.23,11.84-2.75-5.92,4.45,8.88-3-3.17,3,9.73-5.5-8.25,6.76,8.89-3.17,4.86-1.27-5.71,4.23,12.69-1.9L308,132h7.62L307,133.69l10.58.21L311,136.23l13.33.63-8.67,1.69,8,2.33-4.86.85,6.56,2.74-3.6.43,6.35,3.59-5.29-.21,4.48,4.89c-1.19-1.28-9.23-9.71-20.35-14.19-12-4.87-33-6.35-45.89-4.66s-30.46,6.56-38.29,8.67c-2.6.71-5.81,1.74-8.93,2.8C214.22,145.55,214.59,145.33,215,145.11Z" style="opacity:0.48"></path><path d="M180,150.67s-17.53-31.23-37.93-55.14c-13.86-16.24-26.27-32-32.82-40.46l-2.08-.69,4.14,4L106.71,58l5.84,4.76-5-.72,7.64,4-5,.4,6.37,3.62-7.67.6,7.34,3.18-3.2.49,9.17,3.84L114.56,77l7.33,2.9-4.89.25,11.39,3.23-9-.19H119l7.73,2.19,1.87,2.06-8.8.06,8.73,3.15-5,.12,9.85,3.4-9.22-.34,7,2.07-7,.16,12.09,3.35-6.71-.12,9.44,3.55-7.52.73,7.44,1.92-4.31.8,8.15,3.5-7.53-1,5.78,2.24-4.86,1.37,6.4,1.91-8,1.48,9.46,2.27-8.39,1.48,11.63,1.82-5.4,1.67,7.6,1.7-2.8,1.73,4.09.69-4.86,1.09,6.17,1-4.71,2.07,9,.07-7.07,2.54,7,.4-3.16,1.89,7.7.79-5.4,2.23,10.42,3.38L156.76,144l7.85,1.22-4.84,2.2,7.11-.86L160.79,149l9.5.34-5.82,1.81,12.44.41-6.1,2.09,9,1.19,6.67,4.74,4.81,5.59L194,166.2Z" style="opacity:0.48"></path><path d="M152.78,37.27l.12.29Z" style="fill:#92E3A9"></path><path d="M189.49,164.23s-13.13-1.25-19.07.94-18.14,8.13-22.2,9.38-18.45,6.26-22.2,7.19-7.19,2.19-7.19,2.19l8.62-.42s-9.53,2.05-10.65,2.24a11.31,11.31,0,0,0-2.06.56h6.17s-8,2.24-8.79,2.43-4.11,1.68-4.11,1.68l5.42-.74,1.68.18s-6.17,2.06-7.85,2.81-4.86,2.24-4.86,2.24l7.67-1.5s-2.25,1.28-4.13,2.26a15.65,15.65,0,0,1-2.42,1.11c-.93.19-6.35,2.8-6.35,2.8l11-2.8-7.67,3.74-4.86,2-2.24,1.69,10.28-3.37,1.68-.19-7.48,3.56-3.73,3.17,5.42-1.68-10.47,6.36,6.73-2.06-6.92,5L95.3,213l-6.36,4.11h3.37L88.94,220l5.8-2.43L93.24,219l-1.87,1.87-3.92,4.49,3.92-.94-3.92,3.93,3.17-.93-4.86,13.08,5.8-8.6,1.49,8,.19-6.73,2.06,4.86V227.25l1.49,6.91,1.5-7.47L100,233.6l.56-4.11,1.5,5.61.18-12.15s2.62,10.28,2.62,9.72-.19-5.42-.19-5.42l1.69,3.74V223.7l1.68,5.42.75-6,1.31,5.79.93-5.61,1.31,3.93L114,220l1.87,4.48V220l1.31,2,.19-6.91,1.68,3.74.19-3.23.18-3.13.94-4.49,1.87,11.41.56-9.91,2.43,7.29L125,203.13l1.87,11.22,1.94-11,.49-2.8v11.59l3.18-7.29.18,7.29,3-10.1v11.22c0,.56,2.43-11,2.43-11l.93,10.65,1.5-12,2.24,8.23-.56-13.65,2.05,10.84.19-9,1.68,7.1.56-6.17L148,203v-9l1.12,6.17V190.8l3,8.78v-9.9l2.05,6.72.19-5.6.93,3.55,2.06-8.41.75,7.47,1.31-6.91.56,4.67.93-8.22,1.68,3.73.38-5.6.93,7.29,2.06-7.48,1.49,5.23.41-4.55.15-1.8.38-5.61,1.68,7.48.75-9.54,2.05,4.3L171,168.74S177.32,163.47,189.49,164.23Z" style="fill:#92E3A9"></path><path d="M170.42,165.17c-5.94,2.19-18.14,8.13-22.2,9.38s-18.45,6.26-22.2,7.19-7.19,2.19-7.19,2.19l8.62-.42s-9.53,2.05-10.65,2.24a11.31,11.31,0,0,0-2.06.56h6.17s-8,2.24-8.79,2.43-4.11,1.68-4.11,1.68l5.42-.74,1.68.18s-6.17,2.06-7.85,2.81-4.86,2.24-4.86,2.24l7.67-1.5s-2.25,1.28-4.13,2.26a15.65,15.65,0,0,1-2.42,1.11c-.93.19-6.35,2.8-6.35,2.8l11-2.8-7.67,3.74-4.86,2-2.24,1.69,10.28-3.37,1.68-.19-7.48,3.56-3.73,3.17,5.42-1.68-10.47,6.36,6.73-2.06-6.92,5L95.3,213l-6.36,4.11h3.37L88.94,220l5.8-2.43L93.24,219l-1.87,1.87-3.92,4.49,3.92-.94-3.92,3.93,3.17-.93-3.2,8.61A91.64,91.64,0,0,1,103.1,211c12.78-14.47,33.11-24.32,46.94-33.33a65.19,65.19,0,0,1,21-8.86v0s6.31-5.27,18.48-4.51l-.94-.07C185.45,163.92,175.4,163.34,170.42,165.17Z" style="opacity:0.46"></path><path d="M146.84,178.15c1.44-.7,2.9-1.35,4.41-1.93l-1-.37a5.2,5.2,0,0,1-2-1.3h0l-2.48.8A5.59,5.59,0,0,1,146.84,178.15Z" style="opacity:0.46"></path><path d="M183.73,138.37s4.16,19.4,4.16,20.33a29,29,0,0,1-1.41,4.69s.38,4.44.59,3.59-2,3.89-2,3.89a32.93,32.93,0,0,0,1.19,5.89c.71,1.7,1.88,89.56,1.88,89.56s1.64,86.05,4,106.91-2.35,66.12-2.35,70.11S187.42,463,187.42,463l4-1.87,1.41,1.64,2.11-1.17,2.58.7,4.69.47S201,407.47,201,403.71s-2.57-87.21-2.57-88.62-2.11-60.49-2.11-60.49l.43-61.11-.43-22.59s2.78-4.61,1.64-6.1a15.5,15.5,0,0,1-1.88-4.69l1.64-4a15.25,15.25,0,0,1-2.74-4.56s1.1-6,1.1-7.16.94-6.33.94-6.33-3.28,9.61-4.46,10.79L191.4,150l-6.09-15.48Z" style="fill:#a8a8a8"></path><path d="M186.78,463.88l.14-.92c0-.16,2.34-15.72,2.34-19.62,0-.89.22-3.69.55-7.92,1.18-14.89,3.62-45.88,1.8-62.13-2.32-20.65-4-106.1-4-107-.32-24.17-1.29-87.33-1.85-89.41a32.63,32.63,0,0,1-1.22-6l0-.14.07-.13c1-2,1.48-3.12,1.82-3.7a26.66,26.66,0,0,1-.44-3.52v-.12l0-.1a26.5,26.5,0,0,0,1.37-4.52c0-.76-2.49-12.51-4.14-20.23l0-.15,2.11-5.1,6.27,15.92.63-.64c.79-.79,3.08-6.92,4.34-10.59l1,.25c-.26,1.42-.93,5.32-.93,6.24,0,1.12-.91,6.18-1.09,7.11a14.5,14.5,0,0,0,2.59,4.26l.23.24-1.7,4.14a14,14,0,0,0,1.74,4.34c1.24,1.61-.91,5.49-1.53,6.54l.43,22.45-.43,61.12c.08,2.39,2.11,59.09,2.11,60.49,0,.53.38,13.36.83,28.23.74,24.5,1.74,58.06,1.74,60.39,0,3.71,1.17,58.53,1.18,59.08v.56l-5.25-.52-2.47-.67-2.29,1.27-1.42-1.66Zm8.07-2.79,2.78.76,4.05.4c-.13-5.86-1.17-55-1.17-58.54,0-2.31-1-35.86-1.74-60.36-.47-15.49-.83-27.72-.83-28.26,0-1.38-2.09-59.88-2.11-60.47l.43-61.14-.44-22.72.08-.12c1.08-1.8,2.32-4.7,1.67-5.54a15.66,15.66,0,0,1-2-4.88l0-.15,1.58-3.84a15.92,15.92,0,0,1-2.63-4.49l-.05-.13,0-.14c.3-1.65,1.09-6.14,1.09-7.07a11,11,0,0,1,.1-1.14c-1,2.58-2.12,5.31-2.76,6l-1.71,1.71-5.93-15-1,2.52c.56,2.6,4.13,19.35,4.13,20.29a25,25,0,0,1-1.39,4.76c.09,1.11.24,2.36.35,3a.54.54,0,0,1,.22.65.6.6,0,0,1-.31.43c-.35.64-1.05,2.08-1.69,3.43a30.51,30.51,0,0,0,1.15,5.61c.71,1.74,1.79,80.74,1.91,89.74,0,.86,1.67,86.26,4,106.87,1.84,16.34-.61,47.4-1.79,62.32-.32,4.06-.55,7-.55,7.84,0,3.46-1.71,15.39-2.21,18.84l3.48-1.64,1.39,1.62Z" style="fill:#263238"></path><path d="M188.08,287.22l-.11-4.5.39-.11c3.15-.8,6-1.48,8.8-2.07l.58-.13.13,3.72Zm.91-3.74.06,2.38,7.8-2.45-.06-1.77C194.32,282.18,191.76,282.78,189,283.48Z" style="fill:#263238"></path><path d="M190.25,353.25l0-.59c-.07-1.42-.14-2.87-.2-4.36l0-.4.38-.11c3-.85,6-1.6,8.86-2.24l.59-.13.18,6-.44.07-.89.13h0c-2.41.41-5,.9-7.86,1.5Zm.79-4.6c.05,1.14.1,2.27.15,3.38,2.66-.56,5.06-1,7.33-1.39h0l.47-.08-.12-3.9C196.31,347.24,193.68,347.9,191,348.65Z" style="fill:#263238"></path><path d="M189,321.76l0-.84q-.1-3.09-.19-6.14v-.3l.26-.15c3-1.75,6.05-3.4,9-4.9l.7-.36,0,.79c.08,2.22.17,4.92.17,5.23,0,.06,0,.28,0,.62v.3l-.27.15c-2.4,1.32-4.81,2.74-7.14,4.12Zm.79-6.72c.05,1.67.11,3.33.16,5l1.06-.62c2.25-1.33,4.58-2.7,6.9-4v-.34c0-.12,0-.87-.14-4.41C195.19,312,192.51,313.5,189.82,315Z" style="fill:#263238"></path><path d="M192.13,380.66l0-.51c-.11-2.58-.28-4.88-.5-6.86-.09-.76-.17-1.61-.25-2.54l0-.41,1.21-.33c2.45-.68,4.91-1.35,7.36-2l.61-.18.37,12.31-.49,0c-2.59.14-5.19.31-7.74.49Zm.26-9.58q.11,1.14.21,2.1h0c.21,1.86.37,4,.48,6.41,2.23-.16,4.5-.31,6.76-.43l-.3-10.06L192.8,371Z" style="fill:#263238"></path><path d="M201.62,410.63l-.54,0c-2.92-.19-6-.35-9-.45l-.51,0,0-.5c.12-2.27.23-4.57.33-6.86v-.42l.42-.06c2.73-.37,5.61-.74,8.56-1.1l.54-.07,0,.56c0,1.06,0,1.77,0,2,0,.68,0,3,.1,6.38Zm-9-1.47c2.7.1,5.38.23,8,.4,0-3.08-.09-5.21-.09-5.85,0-.22,0-.72,0-1.47-2.6.31-5.15.64-7.58,1C192.82,405.2,192.73,407.19,192.62,409.16Z" style="fill:#263238"></path><path d="M202.18,438.64l-12.59-.05,0-.54.3-3.78,12.17-.86Zm-11.53-1.05,10.51.05-.06-3.16-10.27.73Z" style="fill:#263238"></path><path d="M194.62,144.63a18.82,18.82,0,0,1-2.05,4.23L191.4,150l-3.51-8.93-3.73-.7c1.07,5,3.73,17.55,3.73,18.3a29,29,0,0,1-1.41,4.69A28.33,28.33,0,0,0,187,167c-.44.72-1.92,3.85-1.92,3.85a32.93,32.93,0,0,0,1.19,5.89c.71,1.7,1.88,89.56,1.88,89.56s0,1.55.09,4.26l8.12-16,.43-61.11-.43-22.59s2.78-4.61,1.64-6.1a15.5,15.5,0,0,1-1.88-4.69l1.64-4a15.25,15.25,0,0,1-2.74-4.56s.73-4,1-6.08Z" style="fill:#263238"></path><path d="M187.75,272.58l-.13-6.25c-.32-24.17-1.29-87.33-1.85-89.41a32.63,32.63,0,0,1-1.22-6l0-.14.07-.13c.05-.12,1.29-2.74,1.83-3.7a30.76,30.76,0,0,1-.45-3.52v-.12l0-.1a26.5,26.5,0,0,0,1.37-4.52c0-.56-1.43-7.53-3.71-18.19l-.15-.74,4.73.89,3.34,8.48.63-.64c.16-.16.67-.87,1.93-4.05l.22-.56,2.16,1.34,0,.32c-.24,1.87-.85,5.23-1,6a14.5,14.5,0,0,0,2.59,4.26l.23.24-1.7,4.14a14,14,0,0,0,1.74,4.34c1.24,1.61-.91,5.49-1.53,6.54l.43,22.45-.44,61.24,0,.1ZM185.56,171a30.68,30.68,0,0,0,1.15,5.61c.71,1.74,1.79,80.74,1.91,89.74l0,2.26,7.16-14.09.43-61-.44-22.72.08-.12c1.08-1.8,2.32-4.7,1.67-5.54a15.66,15.66,0,0,1-2-4.88l0-.15,1.58-3.84a15.92,15.92,0,0,1-2.63-4.49l-.05-.13,0-.14s.66-3.6.95-5.73l-.59-.37c-1.17,2.87-1.66,3.57-1.93,3.84l-1.71,1.71-3.7-9.38-2.71-.51c1.67,7.84,3.57,17,3.57,17.67a25,25,0,0,1-1.39,4.76,26.07,26.07,0,0,0,.43,3.36l.1.23-.13.24C187,167.89,185.85,170.36,185.56,171Z" style="fill:#263238"></path><path d="M190.42,169.78a86.36,86.36,0,0,1-3.47,8.68c-1.24,2.24-7.94,17.61-8.69,21.58s3.77-4.61,3.77-4.61l-5.54,10.4,4.29-4.58-5.95,15.38L178.7,210l-6.37,17.6,6-9.7-5.68,19L177,226.75l-4,13.85,7.21-12.33-3.74,14.27,4.29-7.62s-1.24,13-1.24,12.19,6.23-15.38,6.23-15.38L183,243.93l3.74-8-.55,11.64,2.77-15,5,11.78-1.8-6.51,6.38,4-2.64-5.13,5.41,4s-4-8.73-3.6-8.73,3.6,2.77,3.6,2.77l-6.93-8.17,5.54,4.85-3.46-4.16,7.9,5.13-9.43-8.18,10,5.68-6.24-7.48,5.13,4.85L196.72,219a8.44,8.44,0,0,1,2.49,1.11c.55.55,5.54,5.26,5.54,5.26l-2.49-4.29-2.5-2.78,5.13,2.36-2.36-3.6,5.13,2.63L203,215.11l9.56,4.29-11.78-6.92,9.42,2.63-3.6-3.88,6.24,2.08-3.26-2.81-.76-.66-1.11-2.07,4.71,1.1-3.8-2.88-.77-.58-3.05-3.74,4.85,2.63-2.22-2.91,1-.28-6.23-4.29,4.43,1.94-2.77-3.6L201,192.94l-1.39-4.71s-5.54-9.84-5.68-10.53-1.1-4.16-1.38-5.68a22.26,22.26,0,0,1-.42-2.77C192,167.86,191.05,168,190.42,169.78Z" style="fill:#92E3A9"></path><path d="M179.58,246.9a.73.73,0,0,0,0,.21C179.54,247.21,179.55,247.12,179.58,246.9Z" style="fill:#92E3A9"></path><path d="M190.92,168.75a4.3,4.3,0,0,0-.5,1,86.36,86.36,0,0,1-3.47,8.68c-1.24,2.24-7.94,17.61-8.69,21.58-.64,3.46,2.7-2.62,3.57-4.23l-5.34,10,4.29-4.58-5.95,15.38L178.7,210l-6.37,17.6,6-9.7-5.68,19L177,226.75l-4,13.85,7.21-12.33-3.74,14.27,4.29-7.62s-1,10.25-1.2,12c.54-2,6.19-15.17,6.19-15.17L183,243.93l1.7-3.65c.74-6.17,2.17-17.12,4.26-28.91C191.85,195,191.09,172.7,190.92,168.75Z" style="opacity:0.46"></path><path d="M200.91,164.65l-1.39.2.07.62.5,5a5.7,5.7,0,0,1,2.51-1.37C201.71,166.58,200.91,164.65,200.91,164.65Z" style="opacity:0.46"></path><path d="M185.46,181.05l0-.11,1-9.87-1.38-.2-.37.9v0c-.08.19-.16.39-.24.62l0,.05c-.09.21-.18.45-.27.7l0,.06c-.1.25-.19.52-.3.79a.88.88,0,0,1-.05.15l-.3.84a1.72,1.72,0,0,0-.07.21c-.11.29-.21.59-.31.89,0,.07,0,.13-.07.19-.11.32-.21.65-.32,1l0,.07c-.1.33-.2.66-.31,1a1.09,1.09,0,0,1-.05.17c-.1.34-.2.67-.29,1l-.06.23,0,0A5.87,5.87,0,0,1,185.46,181.05Z" style="opacity:0.46"></path><path d="M146.11,465.49s18.65-4.34,25.55-7.15S187,452.46,187,453.23l3.58-.51-2.35,2.58,2.6-1.05,3,1.44,1.33-3,1.79,1.53,2.05-1,3.57,2.55-1.14-2.48,4.21,1.72,3.32,1,4.09,1.79s-6.39-1.28,6.64,2.3,26.83,6.64,26.83,6.64H145.08Z" style="fill:#92E3A9"></path></g></svg>
