<?xml version="1.0" standalone="no"?><!DOCTYPE svg PUBLIC "-//W3C//DTD SVG 1.1//EN" "http://www.w3.org/Graphics/SVG/1.1/DTD/svg11.dtd"><svg t="1681971898275" class="icon" viewBox="0 0 1024 1024" version="1.1" xmlns="http://www.w3.org/2000/svg" p-id="96628" xmlns:xlink="http://www.w3.org/1999/xlink" width="256" height="256"><path d="M0 0m184.32 0l655.36 0q184.32 0 184.32 184.32l0 655.36q0 184.32-184.32 184.32l-655.36 0q-184.32 0-184.32-184.32l0-655.36q0-184.32 184.32-184.32Z" fill="#65DB79" p-id="96629"></path><path d="M663.21408 407.02976c-128.75776 0-233.13408 87.296-233.13408 194.97984s104.37632 194.97984 233.13408 194.97984a273.85856 273.85856 0 0 0 88.79104-14.76608l66.74432 35.55328-8.98048-64.12288a183.78752 183.78752 0 0 0 86.5792-151.64416c-0.01024-107.68384-104.38656-194.97984-233.13408-194.97984z" fill="#FFFFFF" p-id="96630"></path><path d="M404.48 194.56c137.0112 0 250.28608 83.968 276.16256 195.2768-48.82432-4.01408-302.08 23.27552-261.85728 271.36-36.4032 0.1024-86.016-1.49504-121.5488-13.4656l-80.62976 42.97728 10.8544-77.45536C164.7104 571.7504 122.88 505.00608 122.88 430.08c0-130.048 126.07488-235.52 281.6-235.52z" fill="#FFFFFF" p-id="96631"></path><path d="M313.344 352.256m-36.864 0a36.864 36.864 0 1 0 73.728 0 36.864 36.864 0 1 0-73.728 0Z" fill="#65DB79" p-id="96632"></path><path d="M497.664 352.256m-36.864 0a36.864 36.864 0 1 0 73.728 0 36.864 36.864 0 1 0-73.728 0Z" fill="#65DB79" p-id="96633"></path><path d="M585.728 544.768m-32.768 0a32.768 32.768 0 1 0 65.536 0 32.768 32.768 0 1 0-65.536 0Z" fill="#65DB79" p-id="96634"></path><path d="M741.376 544.768m-32.768 0a32.768 32.768 0 1 0 65.536 0 32.768 32.768 0 1 0-65.536 0Z" fill="#65DB79" p-id="96635"></path></svg>