<?xml version="1.0" standalone="no"?><!DOCTYPE svg PUBLIC "-//W3C//DTD SVG 1.1//EN" "http://www.w3.org/Graphics/SVG/1.1/DTD/svg11.dtd"><svg t="1681971149765" class="icon" viewBox="0 0 1024 1024" version="1.1" xmlns="http://www.w3.org/2000/svg" p-id="64201" xmlns:xlink="http://www.w3.org/1999/xlink" width="256" height="256"><path d="M0 0m240.941176 0l542.117648 0q240.941176 0 240.941176 240.941176l0 542.117648q0 240.941176-240.941176 240.941176l-542.117648 0q-240.941176 0-240.941176-240.941176l0-542.117648q0-240.941176 240.941176-240.941176Z" fill="#427FF7" p-id="64202"></path><path d="M120.470588 423.936l28.280471 120.470588s8.041412 33.611294 15.058823 37.647059c5.029647-0.210824 30.117647 0 30.117647 0a76.378353 76.378353 0 0 1-16.50447-40.688941c-6.746353-32.496941-22.256941-100.472471-22.256941-100.472471s-4.427294-16.986353-17.28753-16.835764-17.408-0.120471-17.408-0.120471z" fill="#FFFFFF" p-id="64203"></path><path d="M211.546353 470.859294c10.119529 0.180706 26.172235 0 26.172235 0s11.113412 0.150588 15.209412 15.872 19.606588 72.463059 19.606588 72.463059 5.240471 23.280941 15.269647 23.401412c-4.848941 0.240941-29.033412 0-29.033411 0s-8.282353 2.288941-15.269648-23.401412-14.637176-57.615059-14.637176-57.615059-2.499765-28.280471-17.317647-30.72z" fill="#FFFFFF" p-id="64204"></path><path d="M226.846118 497.001412c-2.499765 11.685647-14.607059 54.211765-14.607059 54.211764s-6.234353 31.774118-18.070588 31.352471-25.6 0-25.6 0 11.745882-18.462118 13.402353-22.829176 17.347765-65.505882 17.347764-65.505883 3.011765-20.028235 12.890353-23.521882c10.782118-0.451765 25.178353 0 25.178353 0a118.994824 118.994824 0 0 0-10.541176 26.292706z" fill="#FFFFFF" fill-opacity="0.8" p-id="64205"></path><path d="M301.869176 423.936h30.117648l-30.117648 130.379294s-4.969412 28.431059-16.775529 28.55153-19.817412 0-19.817412 0l7.710118-28.55153z" fill="#FFFFFF" fill-opacity="0.8" p-id="64206"></path><path d="M434.447059 518.957176s10.631529-5.089882 12.468706-6.26447 16.594824-12.589176 0-29.876706a71.318588 71.318588 0 0 0-87.190589-5.360941 57.825882 57.825882 0 0 0-9.728 84.570353 71.408941 71.408941 0 0 0 69.270589 20.118588 63.759059 63.759059 0 0 0 39.152941-32.918588 173.778824 173.778824 0 0 0-24.094118-13.613177l-4.21647 3.343059a31.232 31.232 0 0 1-36.141177 17.79953 33.129412 33.129412 0 0 1-24.094117-49.513412 36.502588 36.502588 0 0 1 49.392941-9.035294c15.028706 11.896471 15.179294 20.751059 15.179294 20.751058z" fill="#FFFFFF" p-id="64207"></path><path d="M389.360941 544.045176l47.796706-26.142117-13.372235-21.925647-29.605647 15.902117s-18.582588 6.656-12.830118 21.082353a69.270588 69.270588 0 0 0 8.011294 11.083294z" fill="#FFFFFF" fill-opacity="0.8" p-id="64208"></path><path d="M507.482353 423.905882v151.220706s0.240941 5.240471 3.011765 5.421177c-7.559529 0.271059-19.305412 0-19.305412 0a17.588706 17.588706 0 0 1-12.589177-18.642824c0.451765-15.600941 0-124.928 0-124.928a15.420235 15.420235 0 0 1 15.781647-14.817882c15.119059-0.120471 13.101176 1.746824 13.101177 1.746823z" fill="#FFFFFF" p-id="64209"></path><path d="M503.536941 580.698353h73.697883v-25.901177h-73.697883z" fill="#FFFFFF" fill-opacity="0.8" p-id="64210"></path><path d="M626.748235 468.781176v111.646118h-28.973176v-97.520941a14.878118 14.878118 0 0 1 16.655059-14.125177c16.444235 0.150588 12.318118 0 12.318117 0z" fill="#FFFFFF" p-id="64211"></path><path d="M592.353882 440.289882a19.666824 18.642824 0 1 0 39.333647 0 19.666824 18.642824 0 1 0-39.333647 0Z" fill="#FFFFFF" p-id="64212"></path><path d="M687.947294 468.781176a10.24 10.24 0 0 0-5.782588 11.023059c0.301176 9.035294-0.391529 79.149176 0 80.835765a15.992471 15.992471 0 0 1-16.082824 20.178824 71.258353 71.258353 0 0 1-11.565176 0v-96.798118a15.902118 15.902118 0 0 1 17.498353-15.23953c12.408471-0.240941 15.932235 0 15.932235 0z" fill="#FFFFFF" p-id="64213"></path><path d="M723.335529 468.811294s7.288471 0.421647 6.987295 10.992941 0 100.592941 0 100.592941h28.581647v-95.412705s1.957647-15.329882-17.438118-16.173177c-8.673882-0.120471-18.130824 0-18.130824 0z" fill="#FFFFFF" p-id="64214"></path><path d="M673.520941 495.947294h68.367059l-2.379294-27.497412h-65.987765z" fill="#FFFFFF" fill-opacity="0.8" p-id="64215"></path><path d="M815.254588 426.375529v153.99153h-28.973176v-134.505412s0.210824-19.666824 16.655059-19.486118 12.318118 0 12.318117 0z" fill="#FFFFFF" p-id="64216"></path><path d="M907.836235 487.092706l-70.927059 37.376s-14.848 4.577882-13.522823 17.498353c-0.752941-18.944 0-31.593412 0-31.593412a19.305412 19.305412 0 0 1 9.035294-14.637176c8.252235-4.186353 44.875294-23.461647 44.875294-23.461647s16.263529-7.68 23.883294 4.698352a96.647529 96.647529 0 0 1 6.656 10.11953z" fill="#FFFFFF" p-id="64217"></path><path d="M831.337412 520.011294l75.565176 41.110588-13.824 23.582118-61.711059-34.093176a23.431529 23.431529 0 0 1-8.884705-24.094118c3.072-16.715294 8.854588-6.505412 8.854588-6.505412z" fill="#FFFFFF" p-id="64218"></path></svg>