<?xml version="1.0" standalone="no"?><!DOCTYPE svg PUBLIC "-//W3C//DTD SVG 1.1//EN" "http://www.w3.org/Graphics/SVG/1.1/DTD/svg11.dtd"><svg t="1679504045522" class="icon" viewBox="0 0 1024 1024" version="1.1" xmlns="http://www.w3.org/2000/svg" p-id="1390" xmlns:xlink="http://www.w3.org/1999/xlink" width="256" height="256"><path d="M516.339 8.597c-276.57 0-500.76 226.886-500.76 506.787 0 279.902 224.19 506.788 500.76 506.788s500.76-226.886 500.76-506.788c0-279.901-224.19-506.787-500.76-506.787z m-81.297 177.45c7.403-0.101 14.972-0.017 22.283 0.496 49.258 3.457 89.623 20.422 136.638 56.834 16.202 12.548 62.135 59.173 84.235 85.623 51.17 61.24 76.692 85.568 103.58 98.528 23.94 11.539 43.204 11.507 64.156 0.248 14.938-8.027 23.084-21.153 28.405-45.417 2.621-11.953 2.922-17.368 2.938-52.863 0.016-32.92 0.494-39.09 1.96-36.98 0.967 1.394 5.386 10.165 9.794 19.36 9.82 20.48 13.944 36.317 16.651 63.534 4.683 47.08 0.864 71.755-16.406 105.973-5.633 11.16-9.02 16.117-14.692 21.344-24.949 22.988-75.19 28.292-121.21 12.906-8.188-2.738-31.883-13.934-59.26-27.797-74.307-37.628-101.984-47.028-143.738-48.643-49.526-1.917-97.85 9.77-131.74 31.767-12.002 7.79-30.48 26.588-39.424 39.957-27.694 41.391-37.357 90.118-25.956 131.288 19.329 69.804 77.85 130.466 137.861 142.953 51.7 10.758 118.334-14.267 143.25-53.855 18.45-29.316 11.843-84.33-13.468-112.178-13.063-14.372-29.864-21.315-51.913-21.344-31.16-0.044-50.791 9.037-60.238 28.044-8.247 16.593-9.367 42.182-2.938 67.506 2.084 8.21 5 17.613 6.366 20.847 1.366 3.234 2.449 6.095 2.449 6.453 0 2.207-15.498-8.24-23.018-15.635-23.476-23.087-36.153-64.772-30.609-99.273 7.58-47.161 40.59-78.564 94.275-89.594 34.776-7.145 76.693-3.54 108.723 9.183 42.488 16.877 82.956 54.832 98.437 92.323 7.344 17.785 9.646 29.133 9.795 47.9 0.16 20.073-1.658 28.408-11.509 56.089-13.09 36.785-27.623 62.394-48.484 84.63-35.382 37.715-81.21 59.518-145.698 69.243-13.031 1.965-73.843 3.442-88.887 2.233-16.51-1.326-42.997-4.706-52.648-6.7-69.542-14.375-148.614-69.771-207.405-145.684-14.51-18.736-33.376-50.317-31.343-52.366 0.416-0.419 6.322 1.805 12.978 4.715 14.352 6.276 37.59 13.873 51.668 17.125 14.502 3.35 34.487 3.4 39.669 0 5.637-3.7 6.887-5.67 10.04-15.635 3.84-12.14 3.81-29.142-0.49-56.834-5.221-33.62-6.971-63.048-5.143-91.331 2.882-44.563 9.743-60.439 45.301-104.733 33.654-41.921 40.24-51.852 45.056-66.265 8.618-25.79-6.063-47.44-37.22-54.848-18.253-4.34-41.389-0.13-61.217 11.168-40.847 23.277-80.07 75.452-103.335 137.741l-4.898 13.154 0.245-32.76c0.367-45.165 3.59-69.423 12.733-95.55 15.309-43.739 47.993-82.776 89.868-107.711 48.296-28.76 101.716-44.464 153.533-45.17z" fill="#003B82" fill-opacity=".69" p-id="1391"></path></svg>